<svg width="353" height="78" viewBox="0 0 353 78" fill="none" xmlns="http://www.w3.org/2000/svg">
<g clip-path="url(#clip0_3569_14003)">
<path d="M58.4761 14.9767L45.9284 23.2945C45.1584 23.805 44.9312 24.8177 45.421 25.5565L53.8453 38.2649C54.3351 39.0037 55.3563 39.1888 56.1263 38.6784L68.674 30.3605C69.444 29.8501 69.6712 28.8374 69.1814 28.0986L60.7571 15.3902C60.2673 14.6514 59.2461 14.4662 58.4761 14.9767Z" stroke="#E3F3F3" stroke-linecap="round" stroke-linejoin="round"/>
<path d="M57.521 37.7578L58.8512 39.7644" stroke="#E3F3F3" stroke-linecap="round" stroke-linejoin="round"/>
<path d="M67.2803 31.2812L68.6104 33.2878" stroke="#E3F3F3" stroke-linecap="round" stroke-linejoin="round"/>
<path d="M50.2988 32.9141L65.6349 22.7478" stroke="#E3F3F3" stroke-linecap="round" stroke-linejoin="round"/>
<path d="M56.4432 34.6178C56.8282 34.3626 56.9418 33.8562 56.697 33.4868C56.4521 33.1174 55.9415 33.0249 55.5565 33.2801C55.1715 33.5353 55.0579 34.0416 55.3028 34.4111C55.5476 34.7805 56.0583 34.873 56.4432 34.6178Z" stroke="#E3F3F3" stroke-linecap="round" stroke-linejoin="round"/>
<path d="M64.8095 29.0709C65.1945 28.8157 65.308 28.3094 65.0632 27.94C64.8183 27.5706 64.3077 27.478 63.9227 27.7332C63.5377 27.9884 63.4241 28.4948 63.669 28.8642C63.9139 29.2336 64.4245 29.3261 64.8095 29.0709Z" stroke="#E3F3F3" stroke-linecap="round" stroke-linejoin="round"/>
</g>
<path d="M21.3263 49.4141H18.6333C18.4472 49.4132 18.2663 49.4731 18.1203 49.5839C17.9744 49.6947 17.8722 49.8499 17.8304 50.024L16.9773 53.2339L8.61379 51.6289C7.72387 51.4615 6.80642 51.4842 5.9267 51.6956C5.04699 51.9069 4.22662 52.3017 3.52396 52.8518C2.82129 53.4019 2.25359 54.0938 1.86124 54.8783C1.46889 55.6628 1.26153 56.5206 1.25391 57.3907C1.25391 57.8164 1.43014 58.2246 1.74383 58.5256C2.05752 58.8266 2.48298 58.9957 2.92661 58.9957H10.2865L11.9592 61.5315C12.2615 61.9835 12.6771 62.3556 13.1681 62.6135C13.659 62.8715 14.2096 63.0072 14.7693 63.0081H16.6093C16.7523 63.007 16.8927 62.9707 17.0169 62.9027C17.1412 62.8348 17.2452 62.7374 17.319 62.6199C17.3928 62.5023 17.434 62.3686 17.4386 62.2314C17.4432 62.0943 17.4111 61.9583 17.3453 61.8364L15.8733 59.0438H20.49C20.9336 59.0438 21.3591 58.8747 21.6727 58.5737C21.9864 58.2727 22.1627 57.8645 22.1627 57.4389V50.2166C22.1627 50.0037 22.0746 49.7996 21.9177 49.6491C21.7609 49.4986 21.5481 49.4141 21.3263 49.4141Z" stroke="#E3F3F3" stroke-linecap="round" stroke-linejoin="round"/>
<g clip-path="url(#clip1_3569_14003)">
<path d="M345.656 14.8138L343.024 14.2455C342.842 14.2054 342.652 14.2258 342.486 14.3033C342.32 14.3809 342.188 14.511 342.11 14.6723L340.599 17.6299L332.762 14.2962C331.928 13.9447 331.026 13.7734 330.122 13.7943C329.217 13.8153 328.332 14.028 327.529 14.4175C326.726 14.8069 326.025 15.3634 325.476 16.0475C324.927 16.7315 324.543 17.5262 324.352 18.3751C324.263 18.7912 324.349 19.2274 324.592 19.5878C324.835 19.9483 325.215 20.2033 325.649 20.2969L332.843 21.85L333.943 24.6817C334.143 25.1874 334.471 25.6388 334.896 25.9945C335.322 26.3503 335.831 26.599 336.378 26.718L338.177 27.1063C338.317 27.1354 338.461 27.1296 338.597 27.0894C338.733 27.0492 338.855 26.9759 338.952 26.8766C339.049 26.7773 339.118 26.6553 339.151 26.5222C339.185 26.3891 339.182 26.2494 339.143 26.1164L338.294 23.076L342.806 24.0502C343.24 24.1439 343.692 24.0684 344.062 23.8403C344.432 23.6123 344.69 23.2505 344.78 22.8344L346.304 15.7747C346.349 15.5667 346.306 15.3486 346.185 15.1684C346.063 14.9882 345.873 14.8606 345.656 14.8138Z" stroke="#E3F3F3" stroke-linecap="round" stroke-linejoin="round"/>
</g>
<g clip-path="url(#clip2_3569_14003)">
<path d="M227.734 48.8722L225.391 50.1985C225.228 50.2894 225.1 50.4306 225.028 50.5989C224.955 50.7673 224.943 50.9527 224.992 51.1247L225.831 54.3385L217.761 57.0607C216.904 57.3532 216.117 57.8249 215.456 58.4421C214.794 59.0593 214.274 59.8069 213.934 60.6317C213.593 61.4565 213.44 62.3383 213.485 63.2143C213.53 64.0903 213.772 64.939 214.194 65.7C214.403 66.0704 214.758 66.3389 215.179 66.4464C215.6 66.5539 216.054 66.4915 216.44 66.273L222.845 62.6483L225.55 64.0314C226.036 64.276 226.581 64.3951 227.135 64.3778C227.689 64.3605 228.235 64.2074 228.723 63.9325L230.324 63.0263C230.448 62.9549 230.552 62.8543 230.627 62.7339C230.702 62.6136 230.744 62.4776 230.751 62.339C230.757 62.2003 230.727 62.0636 230.663 61.942C230.6 61.8204 230.505 61.7178 230.388 61.6442L227.731 59.9387L231.749 57.665C232.135 57.4465 232.422 57.0898 232.547 56.6733C232.672 56.2569 232.624 55.8148 232.415 55.4444L228.858 49.1587C228.753 48.9735 228.576 48.8392 228.365 48.7855C228.154 48.7318 227.927 48.7629 227.734 48.8722Z" stroke="#E3F3F3" stroke-linecap="round" stroke-linejoin="round"/>
</g>
<g clip-path="url(#clip3_3569_14003)">
<path d="M77.597 58.7978L73.1057 54.8732L80.2841 46.1248C80.5561 45.7933 80.9487 45.5906 81.3756 45.5612C81.8026 45.5319 82.2288 45.6783 82.5606 45.9682L88.1904 50.8877C89.5176 52.0474 90.3583 53.6864 90.5275 55.444C90.6967 57.2015 90.1806 58.9338 89.0927 60.2596L86.0163 64.009C85.7443 64.3404 85.3516 64.5431 84.9247 64.5725C84.4978 64.6019 84.0715 64.4555 83.7397 64.1655L81.125 61.8807" stroke="#E3F3F3" stroke-linecap="round" stroke-linejoin="round"/>
<path d="M73.108 54.8727L68.7293 51.0464L70.7803 48.5469" stroke="#E3F3F3" stroke-linecap="round" stroke-linejoin="round"/>
<path d="M77.3114 62.8345C78.3478 63.7401 79.8766 63.635 80.7262 62.5996C81.5757 61.5643 81.4242 59.9908 80.3878 59.0851C79.3514 58.1795 77.8225 58.2846 76.973 59.32C76.1235 60.3553 76.275 61.9288 77.3114 62.8345Z" stroke="#E3F3F3" stroke-linecap="round" stroke-linejoin="round"/>
<path d="M82.6108 52.4453L86.364 55.725" stroke="#E3F3F3" stroke-linecap="round" stroke-linejoin="round"/>
</g>
<g clip-path="url(#clip4_3569_14003)">
<path d="M283.194 28.7612L262.499 35.4375L265.428 39.0461C265.845 39.5571 266.417 39.9287 267.067 40.1109C267.717 40.2931 268.414 40.2772 269.064 40.0653L280.557 36.3574C281.209 36.1495 281.783 35.7554 282.203 35.2279C282.623 34.7005 282.868 34.065 282.907 33.4071L283.194 28.7612Z" stroke="#E3F3F3" stroke-linecap="round" stroke-linejoin="round"/>
<path d="M272.051 32.3575L267.595 18.6172" stroke="#E3F3F3" stroke-linecap="round" stroke-linejoin="round"/>
<path d="M267.595 18.6197L262.606 30.3478L270.566 27.78" stroke="#E3F3F3" stroke-linecap="round" stroke-linejoin="round"/>
<path d="M271.769 20.6406L279.32 24.95L273.749 26.7475" stroke="#E3F3F3" stroke-linecap="round" stroke-linejoin="round"/>
</g>
<g clip-path="url(#clip5_3569_14003)">
<path d="M240.596 33.504L222.845 20.9453L221.713 25.4527C221.554 26.093 221.6 26.7737 221.844 27.4033C222.088 28.0328 222.518 28.581 223.077 28.974L232.936 35.9489C233.493 36.3454 234.153 36.5686 234.827 36.5885C235.501 36.6084 236.157 36.4239 236.706 36.06L240.596 33.504Z" stroke="#E3F3F3" stroke-linecap="round" stroke-linejoin="round"/>
<path d="M231.039 26.7419L239.364 14.9375" stroke="#E3F3F3" stroke-linecap="round" stroke-linejoin="round"/>
<path d="M239.361 14.9396L226.984 17.9791L233.811 22.8093" stroke="#E3F3F3" stroke-linecap="round" stroke-linejoin="round"/>
<path d="M240.244 19.4922L241.323 28.1198L236.544 24.7387" stroke="#E3F3F3" stroke-linecap="round" stroke-linejoin="round"/>
</g>
<g clip-path="url(#clip6_3569_14003)">
<path d="M148.865 20.2637L127.123 20.6406L128.877 24.9443C129.128 25.5544 129.567 26.0762 130.137 26.4394C130.706 26.8027 131.377 26.9899 132.061 26.9759L144.135 26.7665C144.819 26.7568 145.483 26.5465 146.038 26.1637C146.593 25.781 147.013 25.2444 147.24 24.6259L148.865 20.2637Z" stroke="#E3F3F3" stroke-linecap="round" stroke-linejoin="round"/>
<path d="M137.159 20.4655L136.887 6.02344" stroke="#E3F3F3" stroke-linecap="round" stroke-linejoin="round"/>
<path d="M136.886 6.0269L128.705 15.8L137.067 15.6551" stroke="#E3F3F3" stroke-linecap="round" stroke-linejoin="round"/>
<path d="M140.291 9.17188L146.265 15.4892L140.412 15.5907" stroke="#E3F3F3" stroke-linecap="round" stroke-linejoin="round"/>
</g>
<g clip-path="url(#clip7_3569_14003)">
<path d="M205.237 12.7969H190.182C189.259 12.7969 188.51 13.5154 188.51 14.4018V29.6489C188.51 30.5353 189.259 31.2539 190.182 31.2539H205.237C206.161 31.2539 206.909 30.5353 206.909 29.6489V14.4018C206.909 13.5154 206.161 12.7969 205.237 12.7969Z" stroke="#E3F3F3" stroke-linecap="round" stroke-linejoin="round"/>
<path d="M191.855 31.25V33.6574" stroke="#E3F3F3" stroke-linecap="round" stroke-linejoin="round"/>
<path d="M203.564 31.25V33.6574" stroke="#E3F3F3" stroke-linecap="round" stroke-linejoin="round"/>
<path d="M188.51 23.2344H206.909" stroke="#E3F3F3" stroke-linecap="round" stroke-linejoin="round"/>
<path d="M192.692 28.0425C193.154 28.0425 193.528 27.6832 193.528 27.24C193.528 26.7968 193.154 26.4375 192.692 26.4375C192.23 26.4375 191.855 26.7968 191.855 27.24C191.855 27.6832 192.23 28.0425 192.692 28.0425Z" stroke="#E3F3F3" stroke-linecap="round" stroke-linejoin="round"/>
<path d="M202.727 28.0425C203.189 28.0425 203.563 27.6832 203.563 27.24C203.563 26.7968 203.189 26.4375 202.727 26.4375C202.265 26.4375 201.891 26.7968 201.891 27.24C201.891 27.6832 202.265 28.0425 202.727 28.0425Z" stroke="#E3F3F3" stroke-linecap="round" stroke-linejoin="round"/>
</g>
<g clip-path="url(#clip8_3569_14003)">
<path d="M97.1994 19.8281H92.1813C91.2941 19.8281 90.4432 20.1663 89.8158 20.7683C89.1884 21.3703 88.8359 22.1867 88.8359 23.038V29.4579H91.345" stroke="#E3F3F3" stroke-linecap="round" stroke-linejoin="round"/>
<path d="M108.908 29.4568H110.581V18.2221C110.581 17.7965 110.405 17.3883 110.091 17.0873C109.777 16.7863 109.352 16.6172 108.908 16.6172H98.8719C98.4283 16.6172 98.0028 16.7863 97.6891 17.0873C97.3754 17.3883 97.1992 17.7965 97.1992 18.2221V27.3383" stroke="#E3F3F3" stroke-linecap="round" stroke-linejoin="round"/>
<path d="M98.0352 29.4531H102.217" stroke="#E3F3F3" stroke-linecap="round" stroke-linejoin="round"/>
<path d="M94.6911 32.6698C96.5387 32.6698 98.0365 31.2327 98.0365 29.4599C98.0365 27.6871 96.5387 26.25 94.6911 26.25C92.8435 26.25 91.3457 27.6871 91.3457 29.4599C91.3457 31.2327 92.8435 32.6698 94.6911 32.6698Z" stroke="#E3F3F3" stroke-linecap="round" stroke-linejoin="round"/>
<path d="M105.564 32.6698C107.412 32.6698 108.91 31.2327 108.91 29.4599C108.91 27.6871 107.412 26.25 105.564 26.25C103.717 26.25 102.219 27.6871 102.219 29.4599C102.219 31.2327 103.717 32.6698 105.564 32.6698Z" stroke="#E3F3F3" stroke-linecap="round" stroke-linejoin="round"/>
</g>
<g clip-path="url(#clip9_3569_14003)">
<path d="M198.887 66.9379C198.809 67.3596 198.632 67.7586 198.369 68.1046C198.107 68.4506 197.765 68.7343 197.37 68.9341C196.975 69.1339 196.538 69.2445 196.092 69.2574C195.646 69.2703 195.203 69.1851 194.797 69.0085C194.39 68.8318 194.031 68.5684 193.747 68.2382C193.463 67.908 193.261 67.5199 193.157 67.1034C193.053 66.687 193.05 66.2533 193.148 65.8355C193.245 65.4177 193.441 65.0269 193.721 64.6928M186.352 62.2618C186.032 62.9404 185.444 63.469 184.717 63.7315C183.991 63.9941 183.185 63.9689 182.478 63.6616C181.771 63.3542 181.22 62.79 180.946 62.0928C180.673 61.3957 180.699 60.6229 181.019 59.9443L186.352 62.2618Z" stroke="#E3F3F3" stroke-linecap="round" stroke-linejoin="round"/>
<path d="M196.817 53.7032L198.15 54.2826C198.517 54.4419 199.302 55.2457 198.879 56.1412L196.132 61.9618C195.649 62.9852 193.58 64.8998 190.514 63.5673" stroke="#E3F3F3" stroke-linecap="round" stroke-linejoin="round"/>
<path d="M196.164 61.8955L198.164 62.7646C201.397 64.1695 199.987 67.4111 199.987 67.4111L192.154 64.0073L196.164 61.8955ZM186.466 56.9106C185.229 56.3728 183.819 56.3287 182.548 56.7881C181.276 57.2475 180.247 58.1727 179.686 59.3602L190.352 63.9952C190.913 62.8077 190.959 61.4552 190.48 60.2352C190.001 59.0153 189.037 58.0278 187.799 57.49L186.466 56.9106Z" stroke="#E3F3F3" stroke-linecap="round" stroke-linejoin="round"/>
<path d="M200.396 57.1832L199.49 59.1021M190.306 55.4967L183.007 52.3246C182.419 54.4203 184.099 55.8826 186.432 56.8965L187.765 57.4758C188.789 57.9633 189.913 58.2278 191.055 58.2502C192.345 58.1555 193.139 56.7278 190.306 55.4967Z" stroke="#E3F3F3" stroke-linecap="round" stroke-linejoin="round"/>
</g>
<g clip-path="url(#clip10_3569_14003)">
<path d="M310.225 14.9117C310.437 15.2847 310.557 15.7043 310.578 16.1383C310.599 16.5723 310.519 17.0094 310.345 17.416C310.171 17.8227 309.907 18.1881 309.573 18.4845C309.24 18.7809 308.845 19.0003 308.42 19.126C307.995 19.2517 307.551 19.2804 307.121 19.2098C306.691 19.1392 306.287 18.9713 305.94 18.7188C305.593 18.4663 305.312 18.136 305.119 17.753C304.925 17.3701 304.824 16.9447 304.824 16.5094M297.615 19.3787C297.805 20.1045 297.694 20.8875 297.306 21.5553C296.917 22.2232 296.284 22.7213 295.545 22.94C294.805 23.1587 294.02 23.0801 293.363 22.7215C292.705 22.3629 292.229 21.7537 292.039 21.0279L297.615 19.3787Z" stroke="#E3F3F3" stroke-linecap="round" stroke-linejoin="round"/>
<path d="M300.14 6.10083L301.534 5.68854C301.918 5.57515 303.036 5.68674 303.287 6.64456L304.92 12.8704C305.207 13.9651 304.851 16.7612 301.645 17.7095" stroke="#E3F3F3" stroke-linecap="round" stroke-linejoin="round"/>
<path d="M304.902 12.7973L306.993 12.1789C310.373 11.1791 311.375 14.569 311.375 14.569L303.185 16.9912L304.902 12.7973ZM294.267 15.2054C292.973 15.5881 291.865 16.4597 291.185 17.6285C290.506 18.7972 290.311 20.1674 290.644 21.4376L301.796 18.1392C301.463 16.869 300.63 15.8029 299.479 15.1754C298.329 14.5479 296.955 14.4104 295.661 14.7931L294.267 15.2054Z" stroke="#E3F3F3" stroke-linecap="round" stroke-linejoin="round"/>
<path d="M305.119 6.4728L305.657 8.52529M296.303 11.6607L288.671 13.918C289.566 15.9016 291.793 15.9434 294.232 15.2219L295.626 14.8096C296.724 14.5257 297.755 14.0068 298.645 13.2901C299.573 12.389 299.265 10.7845 296.303 11.6607Z" stroke="#E3F3F3" stroke-linecap="round" stroke-linejoin="round"/>
</g>
<g clip-path="url(#clip11_3569_14003)">
<path d="M171.458 40.8582L165.986 43.2313L161.164 32.9938C160.981 32.6059 160.966 32.1642 161.123 31.766C161.279 31.3678 161.595 31.0455 161.999 30.8702L168.858 27.8956C170.475 27.1943 172.316 27.1381 173.976 27.7394C175.636 28.3406 176.98 29.55 177.711 31.1015L179.777 35.489C179.96 35.8769 179.975 36.3186 179.818 36.7168C179.661 37.115 179.346 37.4373 178.942 37.6126L175.756 38.9941" stroke="#E3F3F3" stroke-linecap="round" stroke-linejoin="round"/>
<path d="M165.986 43.2286L160.651 45.5422L159.273 42.6172" stroke="#E3F3F3" stroke-linecap="round" stroke-linejoin="round"/>
<path d="M174.984 42.8491C176.247 42.3015 176.808 40.8754 176.237 39.6638C175.666 38.4522 174.18 37.914 172.917 38.4616C171.654 39.0092 171.094 40.4353 171.664 41.6469C172.235 42.8585 173.721 43.3967 174.984 42.8491Z" stroke="#E3F3F3" stroke-linecap="round" stroke-linejoin="round"/>
<path d="M167.875 33.6016L172.448 31.6185" stroke="#E3F3F3" stroke-linecap="round" stroke-linejoin="round"/>
</g>
<g clip-path="url(#clip12_3569_14003)">
<path d="M288.955 65.4571L285.098 60.9075L293.499 53.3253C293.817 53.0381 294.235 52.8961 294.662 52.9306C295.088 52.9652 295.488 53.1734 295.773 53.5095L300.608 59.2123C301.747 60.5568 302.335 62.3026 302.24 64.0658C302.146 65.829 301.378 67.4651 300.104 68.6142L296.504 71.8637C296.186 72.1509 295.767 72.2929 295.341 72.2584C294.914 72.2238 294.515 72.0156 294.23 71.6795L291.984 69.0309" stroke="#E3F3F3" stroke-linecap="round" stroke-linejoin="round"/>
<path d="M285.1 60.9066L281.34 56.471L283.74 54.3047" stroke="#E3F3F3" stroke-linecap="round" stroke-linejoin="round"/>
<path d="M288.071 69.4082C288.961 70.4581 290.489 70.5818 291.483 69.6845C292.477 68.7871 292.562 67.2086 291.672 66.1588C290.782 65.1089 289.254 64.9852 288.26 65.8826C287.266 66.7799 287.181 68.3584 288.071 69.4082Z" stroke="#E3F3F3" stroke-linecap="round" stroke-linejoin="round"/>
<path d="M294.858 59.9219L298.081 63.7238" stroke="#E3F3F3" stroke-linecap="round" stroke-linejoin="round"/>
</g>
<g clip-path="url(#clip13_3569_14003)">
<path d="M56.8656 67.2637L35.124 67.6406L36.878 71.9443C37.1288 72.5544 37.5683 73.0762 38.1375 73.4394C38.7067 73.8027 39.3781 73.9899 40.0615 73.9759L52.1364 73.7665C52.8199 73.7568 53.4839 73.5465 54.039 73.1637C54.5941 72.781 55.0137 72.2444 55.2413 71.6259L56.8656 67.2637Z" stroke="#E3F3F3" stroke-linecap="round" stroke-linejoin="round"/>
<path d="M45.1587 67.4655L44.8867 53.0234" stroke="#E3F3F3" stroke-linecap="round" stroke-linejoin="round"/>
<path d="M44.8866 53.0269L36.7057 62.8L45.0679 62.6551" stroke="#E3F3F3" stroke-linecap="round" stroke-linejoin="round"/>
<path d="M48.292 56.1719L54.2664 62.4892L48.4129 62.5907" stroke="#E3F3F3" stroke-linecap="round" stroke-linejoin="round"/>
</g>
<g clip-path="url(#clip14_3569_14003)">
<path d="M122.236 52.7969H107.181C106.258 52.7969 105.509 53.5154 105.509 54.4018V69.6489C105.509 70.5353 106.258 71.2539 107.181 71.2539H122.236C123.16 71.2539 123.909 70.5353 123.909 69.6489V54.4018C123.909 53.5154 123.16 52.7969 122.236 52.7969Z" stroke="#E3F3F3" stroke-linecap="round" stroke-linejoin="round"/>
<path d="M108.854 71.25V73.6574" stroke="#E3F3F3" stroke-linecap="round" stroke-linejoin="round"/>
<path d="M120.563 71.25V73.6574" stroke="#E3F3F3" stroke-linecap="round" stroke-linejoin="round"/>
<path d="M105.509 63.2344H123.909" stroke="#E3F3F3" stroke-linecap="round" stroke-linejoin="round"/>
<path d="M109.691 68.0425C110.153 68.0425 110.527 67.6832 110.527 67.24C110.527 66.7968 110.153 66.4375 109.691 66.4375C109.229 66.4375 108.854 66.7968 108.854 67.24C108.854 67.6832 109.229 68.0425 109.691 68.0425Z" stroke="#E3F3F3" stroke-linecap="round" stroke-linejoin="round"/>
<path d="M119.727 68.0425C120.189 68.0425 120.563 67.6832 120.563 67.24C120.563 66.7968 120.189 66.4375 119.727 66.4375C119.265 66.4375 118.891 66.7968 118.891 67.24C118.891 67.6832 119.265 68.0425 119.727 68.0425Z" stroke="#E3F3F3" stroke-linecap="round" stroke-linejoin="round"/>
</g>
<g clip-path="url(#clip15_3569_14003)">
<path d="M318.236 30.7969H303.181C302.258 30.7969 301.509 31.5154 301.509 32.4018V47.6489C301.509 48.5353 302.258 49.2539 303.181 49.2539H318.236C319.16 49.2539 319.909 48.5353 319.909 47.6489V32.4018C319.909 31.5154 319.16 30.7969 318.236 30.7969Z" stroke="#E3F3F3" stroke-linecap="round" stroke-linejoin="round"/>
<path d="M304.854 49.25V51.6574" stroke="#E3F3F3" stroke-linecap="round" stroke-linejoin="round"/>
<path d="M316.563 49.25V51.6574" stroke="#E3F3F3" stroke-linecap="round" stroke-linejoin="round"/>
<path d="M301.509 41.2344H319.909" stroke="#E3F3F3" stroke-linecap="round" stroke-linejoin="round"/>
<path d="M305.691 46.0425C306.153 46.0425 306.527 45.6832 306.527 45.24C306.527 44.7968 306.153 44.4375 305.691 44.4375C305.229 44.4375 304.854 44.7968 304.854 45.24C304.854 45.6832 305.229 46.0425 305.691 46.0425Z" stroke="#E3F3F3" stroke-linecap="round" stroke-linejoin="round"/>
<path d="M315.727 46.0425C316.189 46.0425 316.563 45.6832 316.563 45.24C316.563 44.7968 316.189 44.4375 315.727 44.4375C315.265 44.4375 314.891 44.7968 314.891 45.24C314.891 45.6832 315.265 46.0425 315.727 46.0425Z" stroke="#E3F3F3" stroke-linecap="round" stroke-linejoin="round"/>
</g>
<g clip-path="url(#clip16_3569_14003)">
<path d="M20.1994 17.8281H15.1813C14.2941 17.8281 13.4432 18.1663 12.8158 18.7683C12.1884 19.3703 11.8359 20.1867 11.8359 21.038V27.4579H14.345" stroke="#E3F3F3" stroke-linecap="round" stroke-linejoin="round"/>
<path d="M31.9081 27.4568H33.5808V16.2221C33.5808 15.7965 33.4046 15.3883 33.0909 15.0873C32.7772 14.7863 32.3518 14.6172 31.9081 14.6172H21.8719C21.4283 14.6172 21.0028 14.7863 20.6891 15.0873C20.3754 15.3883 20.1992 15.7965 20.1992 16.2221V25.3383" stroke="#E3F3F3" stroke-linecap="round" stroke-linejoin="round"/>
<path d="M21.0361 27.4531H25.2179" stroke="#E3F3F3" stroke-linecap="round" stroke-linejoin="round"/>
<path d="M17.6901 30.6698C19.5377 30.6698 21.0355 29.2327 21.0355 27.4599C21.0355 25.6871 19.5377 24.25 17.6901 24.25C15.8425 24.25 14.3447 25.6871 14.3447 27.4599C14.3447 29.2327 15.8425 30.6698 17.6901 30.6698Z" stroke="#E3F3F3" stroke-linecap="round" stroke-linejoin="round"/>
<path d="M28.5632 30.6698C30.4108 30.6698 31.9086 29.2327 31.9086 27.4599C31.9086 25.6871 30.4108 24.25 28.5632 24.25C26.7156 24.25 25.2178 25.6871 25.2178 27.4599C25.2178 29.2327 26.7156 30.6698 28.5632 30.6698Z" stroke="#E3F3F3" stroke-linecap="round" stroke-linejoin="round"/>
</g>
<g clip-path="url(#clip17_3569_14003)">
<path d="M252.199 57.8281H247.181C246.294 57.8281 245.443 58.1663 244.816 58.7683C244.188 59.3703 243.836 60.1867 243.836 61.038V67.4579H246.345" stroke="#E3F3F3" stroke-linecap="round" stroke-linejoin="round"/>
<path d="M263.908 67.4568H265.581V56.2221C265.581 55.7965 265.405 55.3883 265.091 55.0873C264.777 54.7863 264.352 54.6172 263.908 54.6172H253.872C253.428 54.6172 253.003 54.7863 252.689 55.0873C252.375 55.3883 252.199 55.7965 252.199 56.2221V65.3383" stroke="#E3F3F3" stroke-linecap="round" stroke-linejoin="round"/>
<path d="M253.036 67.4531H257.218" stroke="#E3F3F3" stroke-linecap="round" stroke-linejoin="round"/>
<path d="M249.69 70.6698C251.538 70.6698 253.036 69.2327 253.036 67.4599C253.036 65.6871 251.538 64.25 249.69 64.25C247.843 64.25 246.345 65.6871 246.345 67.4599C246.345 69.2327 247.843 70.6698 249.69 70.6698Z" stroke="#E3F3F3" stroke-linecap="round" stroke-linejoin="round"/>
<path d="M260.563 70.6698C262.411 70.6698 263.909 69.2327 263.909 67.4599C263.909 65.6871 262.411 64.25 260.563 64.25C258.716 64.25 257.218 65.6871 257.218 67.4599C257.218 69.2327 258.716 70.6698 260.563 70.6698Z" stroke="#E3F3F3" stroke-linecap="round" stroke-linejoin="round"/>
</g>
<path d="M342.324 72.3763L326.348 57.625L324.642 61.9479C324.402 62.5622 324.359 63.2431 324.519 63.899C324.68 64.5548 325.036 65.1541 325.539 65.6163L334.412 73.8089C334.913 74.2741 335.538 74.5809 336.204 74.6878C336.87 74.7948 337.544 74.6968 338.136 74.4071L342.324 72.3763Z" stroke="#E3F3F3" stroke-linecap="round" stroke-linejoin="round"/>
<path d="M333.722 64.432L343.505 53.8047" stroke="#E3F3F3" stroke-linecap="round" stroke-linejoin="round"/>
<path d="M343.502 53.8064L330.835 55.2177L336.979 60.8913" stroke="#E3F3F3" stroke-linecap="round" stroke-linejoin="round"/>
<path d="M343.789 58.4375L343.742 67.1323L339.44 63.1608" stroke="#E3F3F3" stroke-linecap="round" stroke-linejoin="round"/>
<g clip-path="url(#clip18_3569_14003)">
<path d="M144.078 51.3814L139.842 48.6916C139.093 48.2161 138.193 48.0454 137.341 48.2173C136.489 48.3892 135.753 48.8896 135.297 49.6083L131.856 55.0279L133.974 56.3728" stroke="#F5FBFB" stroke-linecap="round" stroke-linejoin="round"/>
<path d="M148.802 65.7874L150.214 66.684L156.236 57.1996C156.464 56.8402 156.534 56.4012 156.431 55.9789C156.327 55.5567 156.059 55.1859 155.684 54.9481L147.211 49.5685C146.837 49.3307 146.387 49.2454 145.961 49.3313C145.535 49.4173 145.167 49.6674 144.939 50.0268L140.053 57.7227" stroke="#F5FBFB" stroke-linecap="round" stroke-linejoin="round"/>
<path d="M139.623 59.9609L143.153 62.2024" stroke="#F5FBFB" stroke-linecap="round" stroke-linejoin="round"/>
<path d="M135.078 60.8769C136.638 61.8673 138.673 61.4569 139.623 59.9603C140.573 58.4637 140.079 56.4476 138.52 55.4573C136.96 54.4669 134.925 54.8773 133.975 56.3739C133.024 57.8705 133.519 59.8866 135.078 60.8769Z" stroke="#F5FBFB" stroke-linecap="round" stroke-linejoin="round"/>
<path d="M144.258 66.705C145.817 67.6954 147.852 67.285 148.802 65.7884C149.753 64.2918 149.258 62.2757 147.699 61.2854C146.139 60.295 144.104 60.7054 143.154 62.202C142.204 63.6986 142.698 65.7147 144.258 66.705Z" stroke="#F5FBFB" stroke-linecap="round" stroke-linejoin="round"/>
</g>
<defs>
<clipPath id="clip0_3569_14003">
<rect width="23.4178" height="22.4694" fill="white" transform="translate(42 24.9375) rotate(-33.5404)"/>
</clipPath>
<clipPath id="clip1_3569_14003">
<rect width="23.4178" height="22.4694" fill="white" transform="translate(325.741 6) rotate(12.1822)"/>
</clipPath>
<clipPath id="clip2_3569_14003">
<rect width="23.4178" height="22.4694" fill="white" transform="translate(207 55.5312) rotate(-29.5049)"/>
</clipPath>
<clipPath id="clip3_3569_14003">
<rect width="23.2597" height="22.6331" fill="white" transform="matrix(0.753013 0.658006 -0.634326 0.773066 78.3564 38)"/>
</clipPath>
<clipPath id="clip4_3569_14003">
<rect width="23.4175" height="22.4697" fill="white" transform="matrix(0.9517 -0.307031 0.308452 0.95124 257 21.1875)"/>
</clipPath>
<clipPath id="clip5_3569_14003">
<rect width="23.4175" height="22.4697" fill="white" transform="matrix(0.816357 0.577548 -0.576327 0.817219 230.95 8)"/>
</clipPath>
<clipPath id="clip6_3569_14003">
<rect width="23.4175" height="22.4697" fill="white" transform="matrix(0.99985 -0.0173348 0.0188286 0.999823 126 5.40625)"/>
</clipPath>
<clipPath id="clip7_3569_14003">
<rect width="23.4178" height="22.4694" fill="white" transform="translate(186 12)"/>
</clipPath>
<clipPath id="clip8_3569_14003">
<rect width="23.4178" height="22.4694" fill="white" transform="translate(88 11)"/>
</clipPath>
<clipPath id="clip9_3569_14003">
<rect width="23.2591" height="22.6336" fill="white" transform="matrix(0.917146 0.39855 -0.426852 0.904321 185.661 45)"/>
</clipPath>
<clipPath id="clip10_3569_14003">
<rect width="23.2591" height="22.6336" fill="white" transform="matrix(0.958937 -0.28362 0.25369 0.967285 286 6.59375)"/>
</clipPath>
<clipPath id="clip11_3569_14003">
<rect width="23.2597" height="22.6331" fill="white" transform="matrix(0.91744 -0.397873 0.426147 0.904654 153 31.25)"/>
</clipPath>
<clipPath id="clip12_3569_14003">
<rect width="23.2597" height="22.6331" fill="white" transform="matrix(0.646647 0.762789 -0.742359 0.670003 292.802 45)"/>
</clipPath>
<clipPath id="clip13_3569_14003">
<rect width="23.4175" height="22.4697" fill="white" transform="matrix(0.99985 -0.0173348 0.0188286 0.999823 34 52.4062)"/>
</clipPath>
<clipPath id="clip14_3569_14003">
<rect width="23.4178" height="22.4694" fill="white" transform="translate(103 52)"/>
</clipPath>
<clipPath id="clip15_3569_14003">
<rect width="23.4178" height="22.4694" fill="white" transform="translate(299 30)"/>
</clipPath>
<clipPath id="clip16_3569_14003">
<rect width="23.4178" height="22.4694" fill="white" transform="translate(11 9)"/>
</clipPath>
<clipPath id="clip17_3569_14003">
<rect width="23.4178" height="22.4694" fill="white" transform="translate(243 49)"/>
</clipPath>
<clipPath id="clip18_3569_14003">
<rect width="23.4178" height="22.4694" fill="white" transform="translate(141.044 39) rotate(32.4131)"/>
</clipPath>
</defs>
</svg>
