<svg width="92" height="50" viewBox="0 0 92 50" fill="none" xmlns="http://www.w3.org/2000/svg">
<path d="M67.2349 16.9206C66.6622 14.2298 65.5167 11.953 63.7986 9.88322C62.4623 7.60644 60.7441 5.9506 58.4533 4.70872C57.6897 4.29476 56.9262 3.88085 56.1626 3.46689C54.6354 2.22501 52.9174 1.39711 51.0085 0.776175C47.5723 -0.258725 43.7541 -0.258725 40.1271 0.776175C35.7364 2.01805 32.3002 4.70877 29.6276 8.64139C28.6731 10.0902 28.2913 10.7111 27.7186 11.539C24.6642 16.5065 24.2825 22.716 25.4279 28.5114C26.3824 33.065 29.6277 36.9976 33.2547 39.4813C34.7819 40.5162 36.1182 40.9303 38.0272 41.7582C38.409 41.9652 38.7908 41.9652 39.1726 42.1722C40.6998 42.5861 42.7997 43 44.5178 43C45.4723 43 46.4268 43.0001 47.3813 42.7931C49.4812 43.0001 51.5812 42.7931 53.8719 42.1722C55.3991 41.5512 56.9261 40.7233 58.4533 40.1024C61.3168 38.2395 63.6076 35.7558 65.1348 32.8581C66.4711 30.5813 67.2348 27.8905 67.4257 25.1998C67.9984 22.3021 67.9985 19.6113 67.2349 16.9206Z" fill="#F4AB76"/>
<mask id="path-2-inside-1_2375_30375" fill="white">
<path d="M8.33333 0C3.70833 0 0 3.70833 0 8.33333L0 37.5H8.33333C8.33333 40.8152 9.65029 43.9946 11.9945 46.3388C14.3387 48.683 17.5181 50 20.8333 50C24.1485 50 27.328 48.683 29.6722 46.3388C32.0164 43.9946 33.3333 40.8152 33.3333 37.5H58.3333C58.3333 40.8152 59.6503 43.9946 61.9945 46.3388C64.3387 48.683 67.5181 50 70.8333 50C74.1485 50 77.328 48.683 79.6722 46.3388C82.0164 43.9946 83.3333 40.8152 83.3333 37.5H91.6667V8.33333C91.6667 3.70833 87.9583 0 83.3333 0L8.33333 0ZM6.25 6.25L22.9167 6.25V16.6667H6.25L6.25 6.25ZM29.1667 6.25L45.8333 6.25V16.6667L29.1667 16.6667V6.25ZM52.0833 6.25L68.75 6.25V16.6667H52.0833V6.25ZM75 6.25H85.4167V29.1667L75 20.8333V6.25ZM20.8333 31.25C22.4909 31.25 24.0806 31.9085 25.2528 33.0806C26.4249 34.2527 27.0833 35.8424 27.0833 37.5C27.0833 39.1576 26.4249 40.7473 25.2528 41.9194C24.0806 43.0915 22.4909 43.75 20.8333 43.75C19.1757 43.75 17.586 43.0915 16.4139 41.9194C15.2418 40.7473 14.5833 39.1576 14.5833 37.5C14.5833 35.8424 15.2418 34.2527 16.4139 33.0806C17.586 31.9085 19.1757 31.25 20.8333 31.25M70.8333 31.25C72.4909 31.25 74.0806 31.9085 75.2527 33.0806C76.4249 34.2527 77.0833 35.8424 77.0833 37.5C77.0833 39.1576 76.4249 40.7473 75.2527 41.9194C74.0806 43.0915 72.4909 43.75 70.8333 43.75C69.1757 43.75 67.586 43.0915 66.4139 41.9194C65.2418 40.7473 64.5833 39.1576 64.5833 37.5C64.5833 35.8424 65.2418 34.2527 66.4139 33.0806C67.586 31.9085 69.1757 31.25 70.8333 31.25Z"/>
</mask>
<path d="M0 37.5H-1V38.5H0L0 37.5ZM8.33333 37.5H9.33333L9.33333 36.5H8.33333V37.5ZM20.8333 50L20.8333 51L20.8333 50ZM33.3333 37.5V36.5H32.3333V37.5H33.3333ZM58.3333 37.5H59.3333V36.5H58.3333V37.5ZM70.8333 50V51V50ZM83.3333 37.5V36.5H82.3333V37.5L83.3333 37.5ZM91.6667 37.5V38.5H92.6667V37.5H91.6667ZM6.25 6.25V5.25H5.25V6.25H6.25ZM22.9167 6.25H23.9167V5.25H22.9167V6.25ZM22.9167 16.6667V17.6667H23.9167V16.6667H22.9167ZM6.25 16.6667H5.25V17.6667H6.25V16.6667ZM29.1667 6.25V5.25H28.1667V6.25H29.1667ZM45.8333 6.25H46.8333V5.25H45.8333V6.25ZM45.8333 16.6667V17.6667H46.8333V16.6667H45.8333ZM29.1667 16.6667H28.1667V17.6667H29.1667V16.6667ZM52.0833 6.25V5.25H51.0833V6.25H52.0833ZM68.75 6.25H69.75V5.25H68.75V6.25ZM68.75 16.6667V17.6667H69.75V16.6667H68.75ZM52.0833 16.6667H51.0833V17.6667H52.0833V16.6667ZM75 6.25V5.25H74V6.25H75ZM85.4167 6.25H86.4167V5.25H85.4167V6.25ZM85.4167 29.1667L84.792 29.9475L86.4167 31.2473V29.1667H85.4167ZM75 20.8333H74V21.314L74.3753 21.6142L75 20.8333ZM70.8333 31.25V30.25V31.25ZM8.33333 -1C3.15605 -1 -1 3.15605 -1 8.33333H1C1 4.26062 4.26062 1 8.33333 1V-1ZM-1 8.33333L-1 37.5H1L1 8.33333H-1ZM0 38.5H8.33333V36.5H0L0 38.5ZM7.33333 37.5C7.33333 41.0804 8.75565 44.5142 11.2874 47.0459L12.7016 45.6317C10.5449 43.4751 9.33333 40.55 9.33333 37.5H7.33333ZM11.2874 47.0459C13.8191 49.5777 17.2529 51 20.8333 51L20.8333 49C17.7833 49 14.8583 47.7884 12.7016 45.6317L11.2874 47.0459ZM20.8333 51C24.4138 51 27.8475 49.5777 30.3793 47.0459L28.9651 45.6317C26.8084 47.7884 23.8833 49 20.8333 49L20.8333 51ZM30.3793 47.0459C32.911 44.5142 34.3333 41.0804 34.3333 37.5H32.3333C32.3333 40.55 31.1217 43.4751 28.9651 45.6317L30.3793 47.0459ZM33.3333 38.5H58.3333V36.5H33.3333V38.5ZM57.3333 37.5C57.3333 41.0804 58.7556 44.5142 61.2874 47.0459L62.7016 45.6317C60.5449 43.4751 59.3333 40.55 59.3333 37.5H57.3333ZM61.2874 47.0459C63.8191 49.5777 67.2529 51 70.8333 51V49C67.7833 49 64.8583 47.7884 62.7016 45.6317L61.2874 47.0459ZM70.8333 51C74.4138 51 77.8475 49.5777 80.3793 47.0459L78.9651 45.6317C76.8084 47.7884 73.8833 49 70.8333 49V51ZM80.3793 47.0459C82.911 44.5142 84.3333 41.0804 84.3333 37.5L82.3333 37.5C82.3333 40.55 81.1217 43.4751 78.9651 45.6317L80.3793 47.0459ZM83.3333 38.5H91.6667V36.5H83.3333V38.5ZM92.6667 37.5V8.33333H90.6667V37.5H92.6667ZM92.6667 8.33333C92.6667 3.15605 88.5106 -1 83.3333 -1V1C87.4061 1 90.6667 4.26062 90.6667 8.33333H92.6667ZM83.3333 -1L8.33333 -1V1L83.3333 1V-1ZM6.25 7.25L22.9167 7.25V5.25L6.25 5.25V7.25ZM21.9167 6.25V16.6667H23.9167V6.25H21.9167ZM22.9167 15.6667L6.25 15.6667V17.6667H22.9167V15.6667ZM7.25 16.6667L7.25 6.25H5.25L5.25 16.6667H7.25ZM29.1667 7.25L45.8333 7.25V5.25L29.1667 5.25V7.25ZM44.8333 6.25V16.6667H46.8333V6.25H44.8333ZM45.8333 15.6667H29.1667V17.6667L45.8333 17.6667V15.6667ZM30.1667 16.6667V6.25H28.1667V16.6667H30.1667ZM52.0833 7.25L68.75 7.25V5.25L52.0833 5.25V7.25ZM67.75 6.25V16.6667H69.75V6.25H67.75ZM68.75 15.6667H52.0833V17.6667H68.75V15.6667ZM53.0833 16.6667V6.25H51.0833V16.6667H53.0833ZM75 7.25H85.4167V5.25H75V7.25ZM84.4167 6.25V29.1667H86.4167V6.25H84.4167ZM86.0414 28.3858L75.6247 20.0525L74.3753 21.6142L84.792 29.9475L86.0414 28.3858ZM76 20.8333V6.25H74V20.8333H76ZM20.8333 32.25C22.2257 32.25 23.5611 32.8031 24.5456 33.7877L25.9599 32.3735C24.6002 31.0138 22.7562 30.25 20.8333 30.25L20.8333 32.25ZM24.5456 33.7877C25.5302 34.7723 26.0833 36.1076 26.0833 37.5H28.0833C28.0833 35.5772 27.3195 33.7331 25.9599 32.3735L24.5456 33.7877ZM26.0833 37.5C26.0833 38.8924 25.5302 40.2277 24.5456 41.2123L25.9599 42.6265C27.3195 41.2669 28.0833 39.4228 28.0833 37.5H26.0833ZM24.5456 41.2123C23.5611 42.1969 22.2257 42.75 20.8333 42.75V44.75C22.7562 44.75 24.6002 43.9862 25.9599 42.6265L24.5456 41.2123ZM20.8333 42.75C19.4409 42.75 18.1056 42.1969 17.121 41.2123L15.7068 42.6265C17.0664 43.9862 18.9105 44.75 20.8333 44.75V42.75ZM17.121 41.2123C16.1365 40.2277 15.5833 38.8924 15.5833 37.5H13.5833C13.5833 39.4228 14.3472 41.2669 15.7068 42.6265L17.121 41.2123ZM15.5833 37.5C15.5833 36.1076 16.1365 34.7723 17.121 33.7877L15.7068 32.3735C14.3472 33.7331 13.5833 35.5772 13.5833 37.5H15.5833ZM17.121 33.7877C18.1056 32.8031 19.4409 32.25 20.8333 32.25L20.8333 30.25C18.9105 30.25 17.0664 31.0138 15.7068 32.3735L17.121 33.7877ZM70.8333 32.25C72.2257 32.25 73.5611 32.8031 74.5456 33.7877L75.9599 32.3735C74.6002 31.0138 72.7562 30.25 70.8333 30.25V32.25ZM74.5456 33.7877C75.5302 34.7723 76.0833 36.1076 76.0833 37.5H78.0833C78.0833 35.5772 77.3195 33.7331 75.9599 32.3735L74.5456 33.7877ZM76.0833 37.5C76.0833 38.8924 75.5302 40.2277 74.5456 41.2123L75.9599 42.6265C77.3195 41.2669 78.0833 39.4228 78.0833 37.5H76.0833ZM74.5456 41.2123C73.5611 42.1969 72.2257 42.75 70.8333 42.75V44.75C72.7562 44.75 74.6002 43.9862 75.9599 42.6265L74.5456 41.2123ZM70.8333 42.75C69.4409 42.75 68.1056 42.1969 67.121 41.2123L65.7068 42.6265C67.0665 43.9862 68.9105 44.75 70.8333 44.75V42.75ZM67.121 41.2123C66.1365 40.2277 65.5833 38.8924 65.5833 37.5L63.5833 37.5C63.5833 39.4228 64.3472 41.2669 65.7068 42.6265L67.121 41.2123ZM65.5833 37.5C65.5833 36.1076 66.1365 34.7723 67.121 33.7877L65.7068 32.3735C64.3472 33.7331 63.5833 35.5772 63.5833 37.5L65.5833 37.5ZM67.121 33.7877C68.1056 32.8031 69.4409 32.25 70.8333 32.25V30.25C68.9105 30.25 67.0665 31.0138 65.7068 32.3735L67.121 33.7877Z" fill="#2D4D58" mask="url(#path-2-inside-1_2375_30375)"/>
</svg>
