<svg width="92" height="68" viewBox="0 0 92 68" fill="none" xmlns="http://www.w3.org/2000/svg">
<path d="M88.2349 41.9206C87.6622 39.2298 86.5167 36.953 84.7986 34.8832C83.4623 32.6064 81.7441 30.9506 79.4533 29.7087C78.6897 29.2948 77.9262 28.8808 77.1626 28.4669C75.6354 27.225 73.9174 26.3971 72.0085 25.7762C68.5723 24.7413 64.7541 24.7413 61.1271 25.7762C56.7364 27.0181 53.3002 29.7088 50.6276 33.6414C49.6731 35.0902 49.2913 35.7111 48.7186 36.539C45.6642 41.5065 45.2825 47.716 46.4279 53.5114C47.3824 58.065 50.6277 61.9976 54.2547 64.4813C55.7819 65.5162 57.1182 65.9303 59.0272 66.7582C59.409 66.9652 59.7908 66.9652 60.1726 67.1722C61.6998 67.5861 63.7997 68 65.5178 68C66.4723 68 67.4268 68.0001 68.3813 67.7931C70.4812 68.0001 72.5812 67.7931 74.8719 67.1722C76.3991 66.5512 77.9261 65.7233 79.4533 65.1024C82.3168 63.2395 84.6076 60.7558 86.1348 57.8581C87.4711 55.5813 88.2348 52.8905 88.4257 50.1998C88.9984 47.3021 88.9985 44.6113 88.2349 41.9206Z" fill="#F4AB76"/>
<mask id="path-2-inside-1_2375_30377" fill="white">
<path d="M62.5 0H20.8333L0 25V37.5H8.33333C8.33333 40.8152 9.65029 43.9946 11.9945 46.3388C14.3387 48.683 17.5181 50 20.8333 50C24.1485 50 27.328 48.683 29.6722 46.3388C32.0164 43.9946 33.3333 40.8152 33.3333 37.5H58.3333C58.3333 40.8152 59.6503 43.9946 61.9945 46.3388C64.3387 48.683 67.5181 50 70.8333 50C74.1485 50 77.328 48.683 79.6722 46.3388C82.0164 43.9946 83.3333 40.8152 83.3333 37.5H91.6667V25C91.6667 20.375 87.9583 16.6667 83.3333 16.6667H75L62.5 0ZM22.9167 6.25H39.5833V16.6667H14.5833L22.9167 6.25ZM45.8333 6.25H60.4167L68.5833 16.6667H45.8333V6.25ZM20.8333 31.25C22.4909 31.25 24.0807 31.9085 25.2528 33.0806C26.4249 34.2527 27.0833 35.8424 27.0833 37.5C27.0833 39.1576 26.4249 40.7473 25.2528 41.9194C24.0807 43.0915 22.4909 43.75 20.8333 43.75C19.1757 43.75 17.586 43.0915 16.4139 41.9194C15.2418 40.7473 14.5833 39.1576 14.5833 37.5C14.5833 35.8424 15.2418 34.2527 16.4139 33.0806C17.586 31.9085 19.1757 31.25 20.8333 31.25M70.8333 31.25C72.4909 31.25 74.0807 31.9085 75.2528 33.0806C76.4249 34.2527 77.0833 35.8424 77.0833 37.5C77.0833 39.1576 76.4249 40.7473 75.2528 41.9194C74.0807 43.0915 72.4909 43.75 70.8333 43.75C69.1757 43.75 67.586 43.0915 66.4139 41.9194C65.2418 40.7473 64.5833 39.1576 64.5833 37.5C64.5833 35.8424 65.2418 34.2527 66.4139 33.0806C67.586 31.9085 69.1757 31.25 70.8333 31.25Z"/>
</mask>
<path d="M62.5 0L63.3 -0.6L63 -1H62.5V0ZM20.8333 0V-1H20.365L20.0651 -0.640184L20.8333 0ZM0 25L-0.768221 24.3598L-1 24.6379V25H0ZM0 37.5H-1V38.5H0V37.5ZM8.33333 37.5H9.33333L9.33333 36.5H8.33333V37.5ZM20.8333 50L20.8333 51L20.8333 50ZM33.3333 37.5V36.5H32.3333V37.5H33.3333ZM58.3333 37.5H59.3333V36.5H58.3333V37.5ZM70.8333 50V51V50ZM83.3333 37.5V36.5H82.3333V37.5L83.3333 37.5ZM91.6667 37.5V38.5H92.6667V37.5H91.6667ZM75 16.6667L74.2 17.2667L74.5 17.6667H75V16.6667ZM22.9167 6.25V5.25H22.436L22.1358 5.6253L22.9167 6.25ZM39.5833 6.25H40.5833V5.25H39.5833V6.25ZM39.5833 16.6667V17.6667H40.5833V16.6667H39.5833ZM14.5833 16.6667L13.8025 16.042L12.5027 17.6667H14.5833V16.6667ZM45.8333 6.25V5.25H44.8333V6.25H45.8333ZM60.4167 6.25L61.2036 5.63301L60.9034 5.25H60.4167V6.25ZM68.5833 16.6667V17.6667H70.638L69.3703 16.0497L68.5833 16.6667ZM45.8333 16.6667H44.8333V17.6667H45.8333V16.6667ZM70.8333 31.25V30.25V31.25ZM62.5 -1H20.8333V1H62.5V-1ZM20.0651 -0.640184L-0.768221 24.3598L0.768221 25.6402L21.6016 0.640184L20.0651 -0.640184ZM-1 25V37.5H1V25H-1ZM0 38.5H8.33333V36.5H0V38.5ZM7.33333 37.5C7.33333 41.0804 8.75565 44.5142 11.2874 47.0459L12.7016 45.6317C10.5449 43.4751 9.33333 40.55 9.33333 37.5H7.33333ZM11.2874 47.0459C13.8191 49.5777 17.2529 51 20.8333 51L20.8333 49C17.7833 49 14.8583 47.7884 12.7016 45.6317L11.2874 47.0459ZM20.8333 51C24.4138 51 27.8475 49.5777 30.3793 47.0459L28.9651 45.6317C26.8084 47.7884 23.8833 49 20.8333 49L20.8333 51ZM30.3793 47.0459C32.911 44.5142 34.3333 41.0804 34.3333 37.5H32.3333C32.3333 40.55 31.1217 43.4751 28.9651 45.6317L30.3793 47.0459ZM33.3333 38.5H58.3333V36.5H33.3333V38.5ZM57.3333 37.5C57.3333 41.0804 58.7557 44.5142 61.2874 47.0459L62.7016 45.6317C60.5449 43.4751 59.3333 40.55 59.3333 37.5H57.3333ZM61.2874 47.0459C63.8191 49.5777 67.2529 51 70.8333 51V49C67.7833 49 64.8583 47.7884 62.7016 45.6317L61.2874 47.0459ZM70.8333 51C74.4138 51 77.8475 49.5777 80.3793 47.0459L78.9651 45.6317C76.8084 47.7884 73.8833 49 70.8333 49V51ZM80.3793 47.0459C82.911 44.5142 84.3333 41.0804 84.3333 37.5L82.3333 37.5C82.3333 40.55 81.1217 43.4751 78.9651 45.6317L80.3793 47.0459ZM83.3333 38.5H91.6667V36.5H83.3333V38.5ZM92.6667 37.5V25H90.6667V37.5H92.6667ZM92.6667 25C92.6667 19.8227 88.5106 15.6667 83.3333 15.6667V17.6667C87.4061 17.6667 90.6667 20.9273 90.6667 25H92.6667ZM83.3333 15.6667H75V17.6667H83.3333V15.6667ZM75.8 16.0667L63.3 -0.6L61.7 0.6L74.2 17.2667L75.8 16.0667ZM22.9167 7.25H39.5833V5.25H22.9167V7.25ZM38.5833 6.25V16.6667H40.5833V6.25H38.5833ZM39.5833 15.6667H14.5833V17.6667H39.5833V15.6667ZM15.3642 17.2914L23.6975 6.87469L22.1358 5.6253L13.8025 16.042L15.3642 17.2914ZM45.8333 7.25H60.4167V5.25H45.8333V7.25ZM59.6297 6.86699L67.7964 17.2837L69.3703 16.0497L61.2036 5.63301L59.6297 6.86699ZM68.5833 15.6667H45.8333V17.6667H68.5833V15.6667ZM46.8333 16.6667V6.25H44.8333V16.6667H46.8333ZM20.8333 32.25C22.2257 32.25 23.5611 32.8031 24.5456 33.7877L25.9599 32.3735C24.6002 31.0138 22.7562 30.25 20.8333 30.25L20.8333 32.25ZM24.5456 33.7877C25.5302 34.7723 26.0833 36.1076 26.0833 37.5H28.0833C28.0833 35.5772 27.3195 33.7331 25.9599 32.3735L24.5456 33.7877ZM26.0833 37.5C26.0833 38.8924 25.5302 40.2277 24.5456 41.2123L25.9599 42.6265C27.3195 41.2669 28.0833 39.4228 28.0833 37.5H26.0833ZM24.5456 41.2123C23.5611 42.1969 22.2257 42.75 20.8333 42.75V44.75C22.7562 44.75 24.6002 43.9862 25.9599 42.6265L24.5456 41.2123ZM20.8333 42.75C19.4409 42.75 18.1056 42.1969 17.121 41.2123L15.7068 42.6265C17.0664 43.9862 18.9105 44.75 20.8333 44.75V42.75ZM17.121 41.2123C16.1365 40.2277 15.5833 38.8924 15.5833 37.5H13.5833C13.5833 39.4228 14.3472 41.2669 15.7068 42.6265L17.121 41.2123ZM15.5833 37.5C15.5833 36.1076 16.1365 34.7723 17.121 33.7877L15.7068 32.3735C14.3472 33.7331 13.5833 35.5772 13.5833 37.5H15.5833ZM17.121 33.7877C18.1056 32.8031 19.4409 32.25 20.8333 32.25L20.8333 30.25C18.9105 30.25 17.0664 31.0138 15.7068 32.3735L17.121 33.7877ZM70.8333 32.25C72.2257 32.25 73.5611 32.8031 74.5456 33.7877L75.9599 32.3735C74.6002 31.0138 72.7562 30.25 70.8333 30.25V32.25ZM74.5456 33.7877C75.5302 34.7723 76.0833 36.1076 76.0833 37.5H78.0833C78.0833 35.5772 77.3195 33.7331 75.9599 32.3735L74.5456 33.7877ZM76.0833 37.5C76.0833 38.8924 75.5302 40.2277 74.5456 41.2123L75.9599 42.6265C77.3195 41.2669 78.0833 39.4228 78.0833 37.5H76.0833ZM74.5456 41.2123C73.5611 42.1969 72.2257 42.75 70.8333 42.75V44.75C72.7562 44.75 74.6002 43.9862 75.9599 42.6265L74.5456 41.2123ZM70.8333 42.75C69.441 42.75 68.1056 42.1969 67.121 41.2123L65.7068 42.6265C67.0665 43.9862 68.9105 44.75 70.8333 44.75V42.75ZM67.121 41.2123C66.1365 40.2277 65.5833 38.8924 65.5833 37.5H63.5833C63.5833 39.4228 64.3472 41.2669 65.7068 42.6265L67.121 41.2123ZM65.5833 37.5C65.5833 36.1076 66.1365 34.7723 67.121 33.7877L65.7068 32.3735C64.3472 33.7331 63.5833 35.5772 63.5833 37.5H65.5833ZM67.121 33.7877C68.1056 32.8031 69.441 32.25 70.8333 32.25V30.25C68.9105 30.25 67.0665 31.0138 65.7068 32.3735L67.121 33.7877Z" fill="#2D4D58" mask="url(#path-2-inside-1_2375_30377)"/>
</svg>
