<svg xmlns="http://www.w3.org/2000/svg" xmlns:xlink="http://www.w3.org/1999/xlink" width="357" height="257" fill="none" xmlns:v="https://vecta.io/nano"><style><![CDATA[.B{stroke-linejoin:round}.C{stroke-linecap:round}.D{stroke:#e3f3f3}.E{fill:#fff}]]></style><g clip-path="url(#A)" class="B D"><path d="M334.926 121.444a3.51 3.51 0 0 0 2.303-1.299 3.28 3.28 0 0 0 .678-2.491l-.944-6.668c-.125-.885-.609-1.685-1.344-2.225a3.58 3.58 0 0 0-2.58-.654l-5.179.683-3.753-7.384a3.43 3.43 0 0 0-1.571-1.52 3.6 3.6 0 0 0-2.203-.293l-13.845 1.827c-.758.061-1.475.36-2.041.852s-.948 1.149-1.091 1.871l-1.392 8.063-6.905.911a3.51 3.51 0 0 0-2.303 1.299 3.28 3.28 0 0 0-.678 2.491l.944 6.669c.125.884.608 1.684 1.344 2.224s1.664.775 2.58.654" class="C"/><path d="M304.795 132.211c3.814-.503 6.483-3.897 5.962-7.58s-4.035-6.26-7.849-5.757-6.483 3.897-5.962 7.58 4.035 6.26 7.849 5.757zm24.169-3.187c3.814-.504 6.483-3.897 5.962-7.58s-4.035-6.261-7.849-5.757-6.483 3.896-5.962 7.579 4.035 6.261 7.849 5.758z"/><g class="C"><path d="M310.757 124.633l10.358-1.367m-8.481-22.656l-.944-6.669"/></g></g><g clip-path="url(#B)" class="B D"><path d="M309.954 66.073L281.559 53.21c-1.742-.789-3.817-.065-4.635 1.618l-14.059 28.944c-.817 1.683-.067 3.687 1.675 4.476l28.395 12.862c1.742.789 3.817.065 4.634-1.618l14.06-28.944c.817-1.683.067-3.686-1.675-4.476z"/><g class="C"><path d="M267.695 89.676l-2.22 4.57m24.305 5.434l-2.22 4.57m-18.775-32.664l34.704 15.721"/></g><path d="M272.232 84.296c.872.395 1.909.033 2.318-.809s.033-1.843-.838-2.238-1.909-.032-2.317.809-.034 1.843.837 2.238zm18.93 8.579c.871.395 1.909.032 2.317-.809s.034-1.843-.837-2.238-1.909-.033-2.318.809-.033 1.843.838 2.238z"/></g><g clip-path="url(#C)" class="B D"><path d="M96.756 84.283l-1.55 1.27c-1.447-1.646-4.026-1.849-5.731-.452s-1.915 3.888-.468 5.534l-6.199 5.082c-1.447-1.646-4.026-1.85-5.73-.452s-1.915 3.888-.468 5.534l-1.55 1.271c-2.572 2.109-6.412 1.806-8.596-.678l-3.947-4.49 17.046-13.975c1.705-1.397 1.915-3.888.468-5.534l-9.209-10.475 2.851-2.338c1.116-.915 2.652-1.17 4.025-.699l6.584 2.302-1.999 1.639c-.852.699-.958 1.944-.234 2.767l3.947 4.49a2.09 2.09 0 0 0 2.865.226l4.649-3.811 3.947 4.489" class="C"/><path d="M82.341 101.25c1.712-1.404 1.921-3.881.468-5.534a4.17 4.17 0 0 0-5.731-.452c-1.712 1.403-1.921 3.881-.468 5.534a4.17 4.17 0 0 0 5.73.452zm12.397-10.164c1.712-1.403 1.921-3.881.468-5.534s-4.019-1.855-5.73-.452-1.921 3.881-.468 5.534a4.17 4.17 0 0 0 5.731.452z"/><use xlink:href="#e"/></g><g class="B D"><path d="M29.462 160.93l-15.197-44.77-8.46 6.492c-1.198.925-2.074 2.182-2.51 3.601s-.411 2.935.071 4.341l8.44 24.864c.473 1.409 1.381 2.644 2.603 3.539a7.67 7.67 0 0 0 4.23 1.468l10.821.465z"/><path d="M21.278 136.824l32.095-10.16m.001 0l-27.242-10.445 5.845 17.219m16.603 2.371l-10.173 16.569-4.092-12.054" class="C"/><path d="M141.05 13.565l-5.521.965a1.72 1.72 0 0 0-.985.534 1.62 1.62 0 0 0-.425 1.012l-.507 6.929-17.766-.314c-1.889-.027-3.761.349-5.483 1.101a12.82 12.82 0 0 0-4.478 3.247c-1.228 1.387-2.124 3.018-2.625 4.777s-.595 3.603-.274 5.401c.165.878.684 1.657 1.444 2.166s1.697.705 2.606.546l15.088-2.638 4.41 4.633c.794.824 1.79 1.443 2.897 1.799s2.287.439 3.435.24l3.772-.659c.292-.053.566-.179.795-.363a1.68 1.68 0 0 0 .509-.692c.106-.269.139-.56.095-.844s-.162-.554-.344-.782l-4.097-5.234 9.464-1.655a3.5 3.5 0 0 0 2.243-1.394 3.27 3.27 0 0 0 .565-2.517l-2.793-14.901c-.082-.439-.342-.829-.722-1.083a1.79 1.79 0 0 0-1.303-.273z"/><g class="C"><path d="M201.841 35.113c.231.87.252 1.779.063 2.658a5.8 5.8 0 0 1-1.153 2.414 6.06 6.06 0 0 1-2.136 1.678c-.835.395-1.752.6-2.682.6a6.28 6.28 0 0 1-2.682-.6 6.06 6.06 0 0 1-2.135-1.678 5.8 5.8 0 0 1-1.154-2.414 5.7 5.7 0 0 1 .063-2.658m-16.16 1.472c0 1.562-.643 3.06-1.786 4.164s-2.695 1.725-4.313 1.725-3.168-.62-4.312-1.725-1.786-2.602-1.786-4.164h12.197z"/><path d="M186.061 11.555h3.05c.838 0 3.049.883 3.049 2.945v13.398c0 2.356-2.211 7.73-9.224 7.73"/></g><path d="M192.16 27.75h4.574c7.394 0 7.623 7.361 7.623 7.361h-17.914l5.717-7.361zm-22.869-1.472c-2.831 0-5.545 1.086-7.547 3.019s-3.125 4.554-3.125 7.287h24.393c0-2.733-1.124-5.355-3.126-7.287s-4.716-3.019-7.546-3.019h-3.049z"/><path d="M195.971 15.234v4.417m-20.658.736h-16.694c.762 4.491 5.26 5.889 10.596 5.889h3.049a16.67 16.67 0 0 0 6.937-1.251c2.363-1.251 2.592-4.638-3.888-4.638z" class="C"/></g><g clip-path="url(#D)" class="D B"><g class="C"><use xlink:href="#f"/><path d="M346.84 31.685l2.366-2.471-17.914-15.989a3.56 3.56 0 0 0-2.503-.891 3.54 3.54 0 0 0-2.422 1.078L312.175 28.24a3.3 3.3 0 0 0-.923 2.416 3.32 3.32 0 0 0 1.117 2.339l14.536 12.974m4.56 1.777l5.914-6.178"/></g><path d="M331.853 57.261c2.613-2.73 2.439-6.988-.387-9.511a7.15 7.15 0 0 0-9.849.374c-2.613 2.73-2.439 6.988.387 9.511a7.15 7.15 0 0 0 9.849-.374zm15.375-16.067c2.612-2.73 2.439-6.988-.388-9.511a7.15 7.15 0 0 0-9.849.374c-2.612 2.73-2.439 6.988.388 9.511a7.15 7.15 0 0 0 9.849-.374z"/></g><g clip-path="url(#E)" class="B D"><path d="M54.163 70.181a3.59 3.59 0 0 0 2.626-.453c.778-.481 1.327-1.241 1.525-2.113l1.493-6.574a3.27 3.27 0 0 0-.469-2.535c-.498-.752-1.285-1.281-2.188-1.473l-5.106-1.081-.889-8.181c-.082-.73-.41-1.415-.933-1.949s-1.213-.888-1.963-1.007l-13.65-2.891a3.6 3.6 0 0 0-2.22.121c-.706.273-1.301.763-1.692 1.393l-4.183 7.107-6.808-1.442a3.59 3.59 0 0 0-2.626.453c-.778.481-1.327 1.241-1.525 2.113l-1.493 6.574a3.27 3.27 0 0 0 .469 2.535c.498.752 1.286 1.281 2.188 1.473" class="C"/><path d="M22.034 70.266c3.76.796 7.476-1.502 8.301-5.133s-1.555-7.22-5.315-8.016-7.476 1.502-8.301 5.133 1.555 7.22 5.315 8.016zm23.828 5.047c3.76.796 7.476-1.502 8.301-5.132s-1.555-7.22-5.315-8.016-7.476 1.502-8.301 5.132 1.555 7.22 5.315 8.016z"/><g class="C"><path d="M30.335 65.133l10.212 2.163m.119-24.089l1.493-6.574"/></g></g><g clip-path="url(#F)" class="D B"><g class="C"><path d="M69.901 38.523l-12.192-2.708 5.468-22.957a3.37 3.37 0 0 1 1.547-2.098 3.59 3.59 0 0 1 2.63-.427l15.283 3.394c3.603.8 6.729 2.95 8.691 5.976s2.598 6.681 1.77 10.16l-2.343 9.839a3.37 3.37 0 0 1-1.547 2.098 3.59 3.59 0 0 1-2.63.427l-7.098-1.576m-21.771-4.835l-11.886-2.64 1.562-6.559"/></g><path d="M73.128 46.146c2.813.625 5.619-1.071 6.266-3.788s-1.109-5.426-3.923-6.051-5.619 1.071-6.266 3.788 1.109 5.426 3.923 6.051z"/><path d="M73.501 22.055l10.188 2.263" class="C"/></g><g clip-path="url(#G)" class="D B"><g class="C"><path d="M237.605 120.611l12.192 2.708 5.468-22.957c.207-.87.048-1.784-.443-2.54s-1.272-1.294-2.172-1.494l-15.283-3.394a14.36 14.36 0 0 0-10.521 1.709c-3.133 1.894-5.359 4.913-6.188 8.392l-2.343 9.839c-.207.87-.048 1.783.443 2.54s1.272 1.294 2.172 1.494l7.098 1.576m21.769 4.838l11.886 2.64 1.563-6.56"/></g><use xlink:href="#g"/><path d="M241.816 104.281l-10.188-2.263" class="C"/></g><g clip-path="url(#H)" class="D B"><g class="C"><path d="M295.569 34.118l-5.472 2.388-4.822-10.304c-.183-.39-.197-.835-.041-1.236a1.64 1.64 0 0 1 .876-.901l6.859-2.994a6.91 6.91 0 0 1 5.119-.157c1.66.605 3.003 1.822 3.734 3.384l2.067 4.416c.182.39.197.835.04 1.236a1.64 1.64 0 0 1-.876.902l-3.185 1.39m-9.771 4.264l-5.334 2.328-1.378-2.944"/></g><path d="M299.096 36.125c1.263-.551 1.824-1.986 1.253-3.206s-2.057-1.761-3.319-1.21-1.824 1.986-1.253 3.206 2.057 1.761 3.319 1.21z"/><path d="M291.987 26.816l4.573-1.996" class="C"/></g><g clip-path="url(#I)" class="B D"><path d="M258.018 53.592l-36.616-25.76-2.724 9.326c-.382 1.325-.336 2.731.134 4.029s1.34 2.426 2.494 3.232l20.336 14.307c1.149.813 2.527 1.268 3.951 1.301a7.15 7.15 0 0 0 4.012-1.112l8.413-5.323z"/><g class="C"><path d="M238.302 39.722l18.467-24.48m0-.002l-26.395 6.413 14.083 9.908m13.841-6.916l1.651 17.815-9.858-6.935"/></g></g><g clip-path="url(#J)" class="B D"><path d="M139.954 71.007l-21.742.379 1.754 4.331a3.26 3.26 0 0 0 1.26 1.505 3.43 3.43 0 0 0 1.924.54l12.075-.211c.683-.01 1.347-.222 1.902-.607s.975-.925 1.203-1.548l1.624-4.391z"/><g class="C"><path d="M128.247 71.211l-.272-14.535m0 .002l-8.181 9.836 8.362-.146m3.224-6.52l5.975 6.358-5.854.102"/></g></g><g clip-path="url(#K)" class="B D"><path d="M345.134 69.652H330.08c-.924 0-1.673.723-1.673 1.615v15.346c0 .892.749 1.615 1.673 1.615h15.054c.924 0 1.673-.723 1.673-1.615V71.268c0-.892-.749-1.615-1.673-1.615z"/><g class="C"><path d="M331.752 88.231v2.423m11.709-2.423v2.423m-15.054-10.502h18.4"/></g><path d="M332.589 84.998c.462 0 .836-.362.836-.808s-.374-.808-.836-.808-.837.362-.837.808.375.808.837.808zm10.036 0c.462 0 .837-.362.837-.808s-.375-.808-.837-.808-.836.362-.836.808.375.808.836.808z"/></g><g clip-path="url(#L)" class="B D"><path d="M93.236 116.809H78.182c-.924 0-1.673.723-1.673 1.615v15.345c0 .893.749 1.616 1.673 1.616h15.054c.924 0 1.673-.723 1.673-1.616v-15.345c0-.892-.749-1.615-1.673-1.615z"/><g class="C"><path d="M79.855 135.387v2.423m11.709-2.423v2.423m-15.055-10.501h18.4"/></g><path d="M80.691 132.154c.462 0 .836-.361.836-.807s-.374-.808-.836-.808-.836.362-.836.808.374.807.836.807zm10.037 0c.462 0 .836-.361.836-.807s-.374-.808-.836-.808-.836.362-.836.808.375.807.836.807z"/></g><g class="B D"><path d="M28.157 17.691h-2.693a.84.84 0 0 0-.513.171.79.79 0 0 0-.29.443l-.853 3.231-8.363-1.615c-.89-.169-1.807-.146-2.687.067a6.26 6.26 0 0 0-2.403 1.164 6 6 0 0 0-1.663 2.04 5.79 5.79 0 0 0-.607 2.529c0 .428.176.839.49 1.142s.739.473 1.183.473h7.36l1.673 2.552A3.3 3.3 0 0 0 20 30.977a3.44 3.44 0 0 0 1.601.397h1.84a.86.86 0 0 0 .408-.106.82.82 0 0 0 .302-.285.79.79 0 0 0 .12-.391.78.78 0 0 0-.093-.398l-1.472-2.811h4.617c.444 0 .869-.17 1.183-.473s.49-.714.49-1.142v-7.269c0-.214-.088-.42-.245-.571a.85.85 0 0 0-.591-.237zm167.828 89.516h-2.694a.83.83 0 0 0-.512.171c-.146.112-.249.268-.29.443l-.854 3.231-8.363-1.616c-.89-.168-1.807-.145-2.687.067a6.26 6.26 0 0 0-2.403 1.164c-.703.554-1.27 1.25-1.663 2.04s-.599 1.652-.607 2.528c0 .429.176.839.49 1.142s.739.474 1.183.474h7.36l1.672 2.552a3.31 3.31 0 0 0 1.209 1.089 3.45 3.45 0 0 0 1.602.397h1.84a.86.86 0 0 0 .407-.106c.124-.069.228-.167.302-.285a.79.79 0 0 0 .12-.391c.004-.138-.028-.275-.094-.397l-1.471-2.811h4.616c.444 0 .869-.17 1.183-.473s.49-.714.49-1.142v-7.269a.79.79 0 0 0-.245-.571.85.85 0 0 0-.591-.237z"/><path d="M223.863 67.359h-5.018a3.41 3.41 0 0 0-2.366.946c-.627.606-.979 1.428-.979 2.284v6.461h2.509m17.563.002h1.672V65.744c0-.428-.176-.839-.49-1.142a1.7 1.7 0 0 0-1.182-.473h-10.037a1.7 1.7 0 0 0-1.182.473c-.314.303-.49.714-.49 1.142v9.175m.836 2.132h4.182" class="C"/><path d="M221.354 80.282c1.848 0 3.346-1.446 3.346-3.231s-1.498-3.231-3.346-3.231-3.345 1.446-3.345 3.231 1.498 3.231 3.345 3.231zm10.873 0c1.847 0 3.345-1.446 3.345-3.231s-1.498-3.231-3.345-3.231-3.346 1.446-3.346 3.231 1.498 3.231 3.346 3.231z"/></g><g clip-path="url(#M)" class="B D"><path d="M183.76 57.27l-13.366 4.829c-4.74 1.713-4.904 4.371-4.431 7.386l1.702 10.724 30.463-11.005-6.005-9.17c-1.692-2.575-3.622-4.476-8.363-2.763z"/><g class="C"><path d="M166.886 86.214c-.802-2.854-1.126-5.315 3.863-7.117l24.294-8.777c4.988-1.802 6.416.26 7.751 2.921l5.404 10.812c1.043 2.075-.027 4.579-2.312 5.404l-3.579 1.293c-2.056.743-2.67 0-3.437-.917l-.809-.966c-1.117-1.315-1.851-2.203-4.593-1.212l-9.748 3.522c-2.742.99-2.7 2.275-2.642 3.826l.047 1.241c.044 1.179.086 2.128-1.97 2.87l-3.579 1.293c-2.285.826-4.794-.385-5.418-2.612l-1.106-3.918m-3.522-19.182l-1.904.688m34.271-12.379l-1.904.688M177.2 60l1.424 3.677"/><path d="M175.769 64.707l5.711-2.063m-7.156 23.547l5.711-2.064M191.459 80l5.712-2.064"/></g></g><g clip-path="url(#N)" class="D B"><g class="C"><path d="M107.095 97.325c-.566-4.304 2.585-8.233 7.041-8.779l18.149-2.227 2.563 19.474c.282 2.142-1.302 4.118-3.521 4.39l-22.182 2.722-.771-5.862"/><path d="M144.964 120.383l-2.016.247c-.282-2.142-2.328-3.672-4.546-3.399s-3.803 2.247-3.521 4.389l-8.066.99c-.282-2.142-2.328-3.672-4.546-3.4s-3.802 2.248-3.52 4.39l-2.017.248c-3.348.41-6.393-1.868-6.818-5.1l-.769-5.842 22.182-2.723c2.218-.272 3.803-2.247 3.521-4.389l-1.794-13.632 3.71-.455c1.452-.178 2.883.418 3.768 1.536l4.215 5.4-2.602.319c-1.109.136-1.901 1.123-1.76 2.195l.769 5.843c.141 1.071 1.163 1.836 2.273 1.7l6.049-.743.769 5.842"/></g><path d="M123.295 127.002c2.227-.274 3.803-2.239 3.52-4.39s-2.318-3.673-4.546-3.4-3.803 2.239-3.52 4.39 2.318 3.673 4.546 3.4zm16.132-1.981c2.227-.273 3.804-2.238 3.52-4.39s-2.318-3.673-4.545-3.399-3.804 2.238-3.521 4.389 2.318 3.674 4.546 3.4zm9.537-20.962l.513 3.895-6.05.743c-1.109.136-2.132-.629-2.273-1.7l-.769-5.843c-.141-1.071.651-2.058 1.76-2.194l2.602-.319 4.217 5.419z"/></g><g clip-path="url(#O)" class="D B"><g class="C"><path d="M32.886 98.077c-.078.424-.255.826-.517 1.174a2.9 2.9 0 0 1-.999.835c-.395.201-.832.313-1.278.325s-.889-.072-1.296-.25a2.92 2.92 0 0 1-1.05-.775 2.79 2.79 0 0 1-.59-1.142 2.73 2.73 0 0 1-.009-1.276 2.79 2.79 0 0 1 .573-1.15m-7.368-2.447c-.32.683-.908 1.215-1.635 1.479s-1.532.239-2.239-.07a2.87 2.87 0 0 1-1.532-1.579 2.74 2.74 0 0 1 .073-2.162l5.333 2.332z"/><use xlink:href="#h"/></g><path d="M30.163 93.007l2 .875c3.233 1.414 1.824 4.677 1.824 4.677l-7.833-3.426 4.009-2.126zm-9.698-5.017a5.29 5.29 0 0 0-3.919-.123c-1.271.462-2.301 1.394-2.861 2.589l10.666 4.665a4.79 4.79 0 0 0 .128-3.784c-.479-1.228-1.443-2.222-2.681-2.763l-1.333-.583z"/><path d="M34.396 88.264l-.906 1.931m-9.184-3.629l-7.3-3.193c-.587 2.109 1.092 3.581 3.425 4.601l1.333.583a7.98 7.98 0 0 0 3.29.779c1.29-.095 2.084-1.532-.749-2.771z" class="C"/></g><g clip-path="url(#P)" class="B D"><path d="M340.761 243.266a3.59 3.59 0 0 0 2.588-.635c.751-.536 1.26-1.337 1.416-2.225l1.174-6.697a3.27 3.27 0 0 0-.586-2.511c-.531-.719-1.338-1.196-2.244-1.326l-5.125-.733-1.268-8.145c-.116-.727-.474-1.391-1.019-1.89s-1.247-.807-1.999-.876l-13.7-1.96a3.58 3.58 0 0 0-2.2.275c-.689.323-1.256.855-1.616 1.514l-3.821 7.416-6.833-.977a3.59 3.59 0 0 0-2.588.635c-.751.536-1.26 1.337-1.416 2.225l-1.174 6.697a3.27 3.27 0 0 0 .585 2.511c.531.719 1.338 1.196 2.244 1.326" class="C"/><path d="M308.838 245.567c3.774.54 7.359-2.021 8.007-5.72s-1.885-7.134-5.658-7.674-7.359 2.021-8.008 5.719 1.886 7.135 5.659 7.675zm23.916 3.418c3.774.54 7.359-2.021 8.007-5.72s-1.885-7.134-5.659-7.674-7.359 2.021-8.007 5.719 1.885 7.135 5.659 7.675z"/><g class="C"><path d="M316.845 239.848l10.25 1.466m-1.015-24.176l1.174-6.697"/></g></g><g clip-path="url(#Q)" class="B D"><path d="M307.261 186.959l-28.395-12.862c-1.742-.789-3.817-.065-4.634 1.618l-14.06 28.943c-.817 1.683-.067 3.687 1.675 4.476l28.395 12.863c1.742.789 3.817.065 4.635-1.618l14.059-28.944c.817-1.682.067-3.686-1.675-4.476z"/><g class="C"><path d="M265.002 210.562l-2.219 4.571m24.304 5.433l-2.22 4.57m-18.775-32.663l34.704 15.72"/></g><path d="M269.539 205.183c.872.395 1.909.033 2.318-.809s.034-1.843-.838-2.238-1.908-.032-2.317.809-.034 1.844.837 2.238zm18.93 8.578c.871.395 1.909.033 2.318-.808s.033-1.844-.838-2.238-1.909-.033-2.317.808-.034 1.844.837 2.238z"/></g><g clip-path="url(#R)" class="B D"><path d="M92.756 221.283l-1.55 1.27c-1.447-1.646-4.026-1.849-5.731-.452s-1.915 3.888-.468 5.534l-6.199 5.082c-1.447-1.646-4.026-1.849-5.73-.452s-1.915 3.888-.468 5.534l-1.55 1.271c-2.572 2.109-6.412 1.806-8.596-.678l-3.947-4.49 17.046-13.975c1.705-1.398 1.915-3.888.468-5.534l-9.209-10.476 2.851-2.337c1.116-.915 2.652-1.17 4.025-.699l6.584 2.302-1.999 1.638c-.852.699-.958 1.944-.234 2.767l3.947 4.49a2.09 2.09 0 0 0 2.865.226l4.649-3.811 3.947 4.489" class="C"/><path d="M78.341 238.25c1.712-1.404 1.921-3.881.468-5.534s-4.019-1.856-5.731-.452-1.921 3.881-.468 5.534a4.17 4.17 0 0 0 5.73.452zm12.397-10.164c1.712-1.404 1.921-3.881.468-5.534s-4.019-1.856-5.73-.452-1.921 3.881-.468 5.534a4.17 4.17 0 0 0 5.731.452zm-3.858-22.585l2.631 2.993-4.649 3.812a2.09 2.09 0 0 1-2.865-.226l-3.947-4.49c-.724-.823-.618-2.068.234-2.767l1.999-1.639 6.597 2.317z"/></g><g class="B D"><path d="M141.05 132.408l-5.521.966c-.382.064-.729.253-.985.534a1.62 1.62 0 0 0-.425 1.012l-.507 6.928-17.766-.314a13.25 13.25 0 0 0-5.483 1.1c-1.722.752-3.251 1.86-4.478 3.247s-2.124 3.018-2.625 4.777a12 12 0 0 0-.274 5.401c.165.879.684 1.658 1.444 2.166a3.58 3.58 0 0 0 2.606.546l15.088-2.637 4.41 4.633c.794.824 1.79 1.443 2.897 1.799s2.287.439 3.435.24l3.772-.659a1.78 1.78 0 0 0 .795-.364c.228-.184.404-.423.509-.692a1.62 1.62 0 0 0 .095-.844c-.043-.284-.162-.554-.344-.781l-4.097-5.235 9.464-1.654c.909-.159 1.716-.661 2.243-1.394a3.27 3.27 0 0 0 .565-2.517l-2.793-14.902a1.68 1.68 0 0 0-.722-1.083c-.379-.254-.848-.352-1.303-.273z"/><g class="C"><path d="M201.841 151.59a5.69 5.69 0 0 1 .063 2.658c-.189.879-.583 1.704-1.153 2.414s-1.301 1.283-2.136 1.678-1.752.6-2.682.6-1.847-.205-2.682-.6-1.565-.969-2.135-1.678-.965-1.535-1.154-2.414a5.7 5.7 0 0 1 .063-2.658m-16.16 1.472a5.79 5.79 0 0 1-1.786 4.164 6.21 6.21 0 0 1-4.313 1.725c-1.617 0-3.168-.62-4.312-1.725s-1.786-2.602-1.786-4.164h12.197z"/><path d="M186.061 128.031h3.05c.838 0 3.049.884 3.049 2.945v13.398c0 2.355-2.211 7.729-9.224 7.729"/></g><path d="M192.16 144.226h4.574c7.394 0 7.623 7.362 7.623 7.362h-17.914l5.717-7.362zm-22.869-1.472c-2.831 0-5.545 1.086-7.547 3.018s-3.125 4.555-3.125 7.288h24.393c0-2.733-1.124-5.355-3.126-7.288s-4.716-3.018-7.546-3.018h-3.049z"/><path d="M195.971 131.711v4.417m-20.658.736h-16.694c.762 4.49 5.26 5.889 10.596 5.889h3.049c2.379.082 4.748-.346 6.937-1.251 2.363-1.252 2.592-4.638-3.888-4.638z" class="C"/></g><g clip-path="url(#S)" class="D B"><g class="C"><path d="M314.928 156.12l-7.096 7.414c-1.254 1.311-1.918 3.049-1.846 4.833s.876 3.466 2.234 4.678l10.236 9.137 3.548-3.707m24.836-25.95l2.366-2.471-17.914-15.99c-.679-.605-1.579-.926-2.503-.891a3.54 3.54 0 0 0-2.422 1.079l-14.192 14.827c-.627.656-.959 1.525-.923 2.417a3.32 3.32 0 0 0 1.117 2.339l14.536 12.974m4.56 1.777l5.914-6.178"/></g><path d="M331.853 178.1c2.613-2.729 2.439-6.988-.387-9.511a7.15 7.15 0 0 0-9.849.375c-2.613 2.73-2.439 6.988.387 9.511s7.237 2.355 9.849-.375zm15.375-16.066c2.612-2.73 2.439-6.988-.388-9.511s-7.236-2.356-9.849.374-2.439 6.988.388 9.511 7.236 2.356 9.849-.374z"/></g><g clip-path="url(#T)" class="B D"><path d="M46.162 209.528a3.59 3.59 0 0 0 2.626-.453c.778-.481 1.327-1.241 1.525-2.113l1.493-6.574a3.27 3.27 0 0 0-.469-2.536c-.498-.752-1.286-1.281-2.188-1.472l-5.106-1.082-.889-8.181a3.32 3.32 0 0 0-.933-1.949 3.53 3.53 0 0 0-1.963-1.007l-13.65-2.891a3.6 3.6 0 0 0-2.22.122 3.45 3.45 0 0 0-1.692 1.393l-4.183 7.107-6.808-1.442a3.59 3.59 0 0 0-2.626.453 3.37 3.37 0 0 0-1.525 2.113l-1.493 6.575a3.27 3.27 0 0 0 .469 2.535 3.49 3.49 0 0 0 2.188 1.473" class="C"/><use xlink:href="#i"/><path d="M37.861 214.661c3.76.796 7.476-1.502 8.301-5.133s-1.555-7.22-5.315-8.016-7.476 1.502-8.301 5.133 1.555 7.219 5.315 8.016z"/><g class="C"><path d="M22.334 204.48l10.212 2.163m.119-24.088l1.493-6.575"/></g></g><g clip-path="url(#U)" class="D B"><g class="C"><path d="M66.131 173.485l-9.662-7.914L71.7 147.544a3.37 3.37 0 0 1 2.327-1.175 3.59 3.59 0 0 1 2.54.804l12.111 9.92c2.855 2.339 4.676 5.667 5.063 9.252s-.693 7.135-3.001 9.867l-6.528 7.726c-.577.683-1.414 1.105-2.327 1.175a3.59 3.59 0 0 1-2.54-.805l-5.625-4.607m-17.251-14.128l-9.419-7.716 4.352-5.15"/></g><path d="M65.573 181.743c2.229 1.827 5.498 1.578 7.301-.556s1.456-5.343-.773-7.169-5.498-1.578-7.301.556-1.456 5.343.773 7.169z"/><path d="M76.768 160.41l8.074 6.614" class="C"/></g><g clip-path="url(#V)" class="D B"><g class="C"><path d="M237.605 237.451l12.192 2.708 5.468-22.957c.207-.87.048-1.784-.443-2.54a3.48 3.48 0 0 0-2.172-1.494l-15.283-3.395c-3.603-.8-7.387-.185-10.521 1.709s-5.359 4.914-6.188 8.393l-2.343 9.839c-.207.87-.048 1.783.443 2.54s1.272 1.294 2.172 1.494l7.098 1.576m21.769 4.838l11.886 2.639 1.563-6.559"/></g><path d="M231.255 242.946c-2.814-.625-4.57-3.334-3.923-6.051s3.452-4.413 6.266-3.788 4.569 3.334 3.922 6.051-3.452 4.413-6.265 3.788z"/><path d="M241.816 221.121l-10.188-2.263" class="C"/></g><g clip-path="url(#W)" class="D B"><g class="C"><path d="M288.739 151.903l-5.472 2.388-4.823-10.303c-.182-.391-.197-.835-.04-1.236a1.64 1.64 0 0 1 .876-.902l6.859-2.994c1.617-.705 3.458-.762 5.118-.157s3.003 1.823 3.734 3.384l2.067 4.416a1.56 1.56 0 0 1 .041 1.236c-.157.4-.472.725-.876.901l-3.186 1.391m-9.77 4.264l-5.335 2.329-1.378-2.944"/></g><path d="M292.266 153.91c1.262-.551 1.823-1.986 1.253-3.206s-2.057-1.761-3.32-1.21-1.824 1.987-1.253 3.206 2.057 1.761 3.32 1.21z"/><path d="M285.157 144.602l4.572-1.996" class="C"/></g><g clip-path="url(#X)" class="B D"><path d="M258.018 170.432l-36.616-25.76-2.724 9.325c-.382 1.325-.336 2.731.134 4.029s1.34 2.427 2.494 3.233l20.336 14.306a7.13 7.13 0 0 0 3.951 1.302c1.424.033 2.824-.355 4.012-1.112l8.413-5.323z"/><g class="C"><path d="M238.302 156.562l18.467-24.48m0-.003l-26.395 6.413 14.083 9.908m13.841-6.916l1.651 17.816-9.858-6.936"/></g></g><g clip-path="url(#Y)" class="B D"><path d="M131.865 185.355l-21.741.379 1.754 4.332c.25.614.69 1.139 1.259 1.505a3.44 3.44 0 0 0 1.924.54l12.075-.211a3.43 3.43 0 0 0 1.902-.607 3.24 3.24 0 0 0 1.203-1.548l1.624-4.39z"/><g class="C"><path d="M120.158 185.559l-.272-14.536m0 .003l-8.181 9.836 8.362-.146m3.225-6.521l5.974 6.358-5.854.103"/></g></g><g clip-path="url(#Z)" class="B D"><path d="M352.236 184.809h-15.054c-.924 0-1.673.723-1.673 1.615v15.345c0 .893.749 1.616 1.673 1.616h15.054c.924 0 1.673-.723 1.673-1.616v-15.345c0-.892-.749-1.615-1.673-1.615z"/><g class="C"><path d="M338.854 203.387v2.423m11.709-2.423v2.423m-15.054-10.501h18.4"/></g><path d="M339.691 200.154c.462 0 .836-.361.836-.807s-.374-.808-.836-.808-.837.362-.837.808.375.807.837.807zm10.036 0c.462 0 .837-.361.837-.807s-.375-.808-.837-.808-.836.362-.836.808.375.807.836.807z"/></g><path d="M195.985 224.047h-2.694a.83.83 0 0 0-.512.171c-.146.111-.249.268-.29.443l-.854 3.23-8.363-1.615c-.89-.169-1.807-.146-2.687.067a6.26 6.26 0 0 0-2.403 1.164 6 6 0 0 0-1.663 2.039c-.392.79-.599 1.653-.607 2.529 0 .428.176.839.49 1.142s.739.473 1.183.473h7.36l1.672 2.553a3.31 3.31 0 0 0 1.209 1.089 3.45 3.45 0 0 0 1.602.397h1.84a.86.86 0 0 0 .407-.106c.124-.069.228-.167.302-.285a.79.79 0 0 0 .12-.391.79.79 0 0 0-.094-.398l-1.471-2.81h4.616c.444 0 .869-.17 1.183-.473s.49-.714.49-1.143v-7.268c0-.215-.088-.42-.245-.572s-.37-.236-.591-.236z" class="B D"/><g clip-path="url(#a)" class="D B"><g class="C"><path d="M223.863 184.203h-5.018a3.41 3.41 0 0 0-2.366.946c-.627.606-.979 1.428-.979 2.285v6.461h2.509m17.563 0h1.672v-11.307c0-.428-.176-.839-.49-1.142a1.7 1.7 0 0 0-1.182-.473h-10.037a1.7 1.7 0 0 0-1.182.473c-.314.303-.49.714-.49 1.142v9.175m.836 2.132h4.182"/></g><path d="M221.354 197.125c1.848 0 3.346-1.446 3.346-3.23s-1.498-3.231-3.346-3.231-3.345 1.446-3.345 3.231 1.498 3.23 3.345 3.23zm10.873 0c1.847 0 3.345-1.446 3.345-3.23s-1.498-3.231-3.345-3.231-3.346 1.446-3.346 3.231 1.498 3.23 3.346 3.23z"/></g><g clip-path="url(#b)" class="B D"><path d="M183.759 174.11l-13.365 4.829c-4.741 1.713-4.905 4.371-4.431 7.386l1.702 10.724 30.462-11.006-6.005-9.169c-1.691-2.575-3.622-4.477-8.363-2.764z"/><g class="C"><path d="M166.886 203.054c-.802-2.854-1.126-5.315 3.862-7.117l24.294-8.777c4.989-1.802 6.417.26 7.752 2.921l5.404 10.812c1.043 2.076-.028 4.579-2.312 5.405l-3.58 1.293c-2.056.743-2.669 0-3.437-.917l-.808-.966c-1.117-1.315-1.852-2.202-4.593-1.212l-9.749 3.522c-2.741.99-2.699 2.275-2.641 3.826l.046 1.24c.045 1.179.087 2.128-1.969 2.871l-3.58 1.293c-2.285.826-4.794-.385-5.418-2.612l-1.105-3.918m-3.523-19.183l-1.904.688m34.271-12.38l-1.904.688m-18.793-3.691l1.425 3.677"/><path d="M175.768 181.547l5.712-2.064m-7.157 23.548l5.712-2.063m11.423-4.128l5.712-2.064"/></g></g><g clip-path="url(#c)" class="D B"><g class="C"><path d="M113.571 213.126c-.566-4.304 2.585-8.233 7.041-8.78l18.149-2.227 2.563 19.474c.282 2.142-1.302 4.117-3.521 4.39l-22.182 2.722-.771-5.862"/><path d="M151.44 236.184l-2.016.247c-.282-2.142-2.328-3.672-4.546-3.4s-3.803 2.248-3.521 4.39l-8.066.99c-.282-2.142-2.327-3.672-4.546-3.4s-3.802 2.248-3.52 4.39l-2.017.247c-3.347.411-6.393-1.867-6.818-5.099l-.769-5.843 22.182-2.722c2.218-.272 3.803-2.247 3.521-4.39l-1.794-13.631 3.71-.456c1.452-.178 2.883.418 3.768 1.537l4.215 5.399-2.602.319c-1.109.136-1.901 1.124-1.76 2.195l.769 5.842c.141 1.071 1.164 1.836 2.273 1.7l6.049-.742.769 5.842"/></g><path d="M129.771 242.802c2.227-.273 3.803-2.238 3.52-4.389s-2.318-3.673-4.545-3.4-3.804 2.239-3.521 4.39 2.318 3.673 4.546 3.399zm16.132-1.98c2.227-.273 3.804-2.239 3.521-4.39s-2.319-3.673-4.546-3.4-3.804 2.239-3.521 4.39 2.318 3.673 4.546 3.4zm9.537-20.962l.513 3.895-6.05.742c-1.109.136-2.132-.629-2.273-1.7l-.769-5.842c-.141-1.071.651-2.059 1.761-2.195l2.601-.319 4.217 5.419z"/></g><g clip-path="url(#d)" class="D B"><g class="C"><path d="M33.886 240.077c-.078.424-.255.826-.517 1.174a2.89 2.89 0 0 1-.999.835c-.395.201-.832.313-1.278.325s-.889-.072-1.296-.25-.765-.443-1.05-.775-.486-.723-.59-1.142a2.73 2.73 0 0 1-.009-1.276c.098-.421.294-.814.573-1.151m-7.368-2.446c-.32.683-.908 1.215-1.635 1.479s-1.532.239-2.239-.07-1.258-.878-1.532-1.579a2.74 2.74 0 0 1 .073-2.163l5.333 2.333z"/><path d="M31.818 226.758l1.333.583c.367.16 1.152.969.729 1.871l-2.747 5.858c-.483 1.03-2.552 2.957-5.618 1.616"/></g><path d="M31.163 235.007l2 .875c3.233 1.414 1.824 4.676 1.824 4.676l-7.833-3.425 4.009-2.126zm-9.698-5.017a5.29 5.29 0 0 0-3.919-.123c-1.271.462-2.301 1.393-2.861 2.589l10.666 4.664a4.79 4.79 0 0 0 .128-3.784c-.479-1.228-1.443-2.221-2.681-2.763l-1.333-.583z"/><path d="M35.396 230.264l-.906 1.931m-9.184-3.628l-7.3-3.193c-.587 2.109 1.092 3.581 3.425 4.602l1.333.583a7.98 7.98 0 0 0 3.29.779c1.29-.095 2.084-1.532-.749-2.771z" class="C"/></g><defs><clipPath id="A"><path transform="matrix(.991407 -.130811 .14009 .990139 286.813 92.1289)" d="M0 0h48.757v47.145H0z" class="E"/></clipPath><clipPath id="B"><path transform="matrix(.9109 .412628 -.436925 .899498 274.412 48.1133)" d="M0 0h48.489v47.42H0z" class="E"/></clipPath><clipPath id="C"><path transform="matrix(.773327 -.634008 .660257 .75104 41 78.4922)" d="M0 0h48.093v47.822H0z" class="E"/></clipPath><clipPath id="D"><path transform="matrix(.691446 -.722428 .746042 .665899 287.844 36.3086)" d="M0 0h47.892v48.023H0z" class="E"/></clipPath><clipPath id="E"><path transform="matrix(.978302 .207182 -.221452 .975171 19.4517 26.6523)" d="M0 0h48.712v47.192H0z" class="E"/></clipPath><clipPath id="F"><path transform="matrix(.976213 .216813 -.231675 .972793 51.9351 0)" d="M0 0h48.704v47.199H0z" class="E"/></clipPath><clipPath id="G"><path transform="matrix(-.976213 -.216813 -.231675 .972793 271.192 93.5391)" d="M0 0h48.704v47.199H0z" class="E"/></clipPath><clipPath id="H"><path transform="matrix(.916501 -.400033 .423905 .905707 277.111 24.4492)" d="M0 0h23.284v22.753H0z" class="E"/></clipPath><clipPath id="I"><path transform="matrix(.817883 .575385 -.602231 .798321 239.487 1)" d="M0 0h48.214v47.7H0z" class="E"/></clipPath><clipPath id="J"><path transform="matrix(.999848 -.017447 .018708 .999825 117.089 56.0586)" d="M0 0h23.418v22.615H0z" class="E"/></clipPath><clipPath id="K"><path transform="translate(325.898 68.844)" d="M0 0h23.418v22.615H0z" class="E"/></clipPath><clipPath id="L"><path transform="translate(74 116)" d="M0 0h23.418v22.615H0z" class="E"/></clipPath><clipPath id="M"><path transform="matrix(.940503 -.339784 .361241 .932472 152.216 62.7383)" d="M0 0h48.585v47.322H0z" class="E"/></clipPath><clipPath id="N"><path transform="matrix(.992554 -.121804 .130466 .991453 101.524 86.1367)" d="M0 0h48.761v47.141H0z" class="E"/></clipPath><clipPath id="O"><path transform="matrix(.916204 .400712 -.424608 .905377 19.6611 76)" d="M0 0h23.283v22.753H0z" class="E"/></clipPath><clipPath id="P"><path transform="matrix(.989923 .141609 -.172685 .984977 304.219 202)" d="M0 0h48.318v47.594H0z" class="E"/></clipPath><clipPath id="Q"><path transform="matrix(.9109 .412628 -.436925 .899498 271.719 169)" d="M0 0h48.489v47.42H0z" class="E"/></clipPath><clipPath id="R"><path transform="matrix(.773327 -.634008 .660257 .75104 37 215.492)" d="M0 0h48.093v47.822H0z" class="E"/></clipPath><clipPath id="S"><path transform="matrix(.691446 -.722428 .746042 .665899 287.844 157.148)" d="M0 0h47.892v48.023H0z" class="E"/></clipPath><clipPath id="T"><path transform="matrix(.978302 .207182 -.221452 .975171 11.4507 166)" d="M0 0h48.712v47.192H0z" class="E"/></clipPath><clipPath id="U"><path transform="matrix(.773606 .633667 -.645391 .763852 67.4619 131)" d="M0 0h48.704v47.199H0z" class="E"/></clipPath><clipPath id="V"><path transform="matrix(-.976213 -.216813 -.231675 .972793 271.192 210.379)" d="M0 0h48.704v47.199H0z" class="E"/></clipPath><clipPath id="W"><path transform="matrix(.916501 -.400033 .423905 .905707 270.28 142.234)" d="M0 0h23.284v22.753H0z" class="E"/></clipPath><clipPath id="X"><path transform="matrix(.817883 .575385 -.602231 .798321 239.487 117.84)" d="M0 0h48.214v47.7H0z" class="E"/></clipPath><clipPath id="Y"><path transform="matrix(.999848 -.017447 .018708 .999825 109 170.406)" d="M0 0h23.418v22.615H0z" class="E"/></clipPath><clipPath id="Z"><path transform="translate(333 184)" d="M0 0h23.418v22.615H0z" class="E"/></clipPath><clipPath id="a"><path transform="translate(214.663 175.32)" d="M0 0h23.418v22.615H0z" class="E"/></clipPath><clipPath id="b"><path transform="matrix(.940503 -.339784 .361241 .932472 152.215 179.578)" d="M0 0h48.585v47.322H0z" class="E"/></clipPath><clipPath id="c"><path transform="matrix(.992554 -.121804 .130466 .991453 108 201.938)" d="M0 0h48.761v47.141H0z" class="E"/></clipPath><clipPath id="d"><path transform="matrix(.916204 .400712 -.424608 .905377 20.6611 218)" d="M0 0h23.283v22.753H0z" class="E"/></clipPath><path id="e" d="M90.88 68.501l2.631 2.993-4.649 3.812a2.09 2.09 0 0 1-2.865-.226l-3.947-4.49c-.724-.823-.618-2.068.234-2.767l1.999-1.639 6.597 2.317z"/><path id="f" d="M314.928 35.28l-7.096 7.414c-1.254 1.311-1.918 3.049-1.846 4.833s.876 3.466 2.234 4.678l10.236 9.137 3.548-3.707"/><path id="g" d="M231.255 126.106c-2.814-.625-4.57-3.334-3.923-6.051s3.452-4.413 6.266-3.788 4.569 3.334 3.922 6.051-3.452 4.413-6.265 3.788z"/><path id="h" d="M30.818 84.758l1.333.583c.367.16 1.152.969.729 1.871l-2.747 5.858c-.483 1.03-2.552 2.957-5.618 1.616"/><path id="i" d="M14.033 209.614c3.76.796 7.476-1.502 8.301-5.133s-1.555-7.22-5.315-8.016-7.476 1.502-8.301 5.133 1.555 7.219 5.315 8.016z"/></defs></svg>