<svg xmlns="http://www.w3.org/2000/svg" xmlns:xlink="http://www.w3.org/1999/xlink" width="1365" height="144" fill="none" xmlns:v="https://vecta.io/nano"><style><![CDATA[.B{stroke-linejoin:round}.C{stroke-linecap:round}.D{stroke:#e3f3f3}.E{fill:#fff}.F{stroke:#f5fbfb}]]></style><g class="B D"><path d="M1037.46 59.779l-15.2-44.482-8.46 6.45c-1.19.919-2.07 2.168-2.51 3.578-.43 1.411-.41 2.916.08 4.313l8.44 24.705c.47 1.4 1.38 2.627 2.6 3.516s2.7 1.398 4.23 1.458l10.82.462z"/><path d="M1029.28 35.829l32.09-10.095m0 0l-27.24-10.379 5.84 17.109m16.61 2.356l-10.18 16.463-4.09-11.976" class="C"/></g><g clip-path="url(#A)" class="B D"><path d="M1101.24 5.008h-15.06c-.92 0-1.67.719-1.67 1.605V21.86c0 .886.75 1.605 1.67 1.605h15.06c.92 0 1.67-.719 1.67-1.605V6.613c0-.886-.75-1.605-1.67-1.605z"/><g class="C"><path d="M1087.85 23.465v2.407m11.71-2.407v2.407m-15.05-10.431h18.4"/></g><path d="M1088.69 20.253c.46 0 .84-.359.84-.802s-.38-.803-.84-.803-.84.359-.84.803.38.802.84.802zm10.04 0c.46 0 .83-.359.83-.802s-.37-.803-.83-.803c-.47 0-.84.359-.84.803s.37.802.84.802z"/></g><path d="M1228.33 5.406h-2.7c-.18-.001-.36.059-.51.17s-.25.266-.29.44l-.85 3.21-8.37-1.605c-.89-.167-1.8-.145-2.68.067s-1.7.606-2.41 1.156c-.7.55-1.27 1.242-1.66 2.027s-.6 1.642-.61 2.512c0 .426.18.834.49 1.135.32.301.74.47 1.19.47h7.36l1.67 2.536c.3.452.72.824 1.21 1.082a3.45 3.45 0 0 0 1.6.395h1.84a.9.9 0 0 0 .41-.105c.12-.068.22-.165.3-.283.07-.117.11-.251.12-.388 0-.137-.03-.273-.1-.395l-1.47-2.793h4.62c.44 0 .87-.169 1.18-.47a1.55 1.55 0 0 0 .49-1.135V6.209a.81.81 0 0 0-.24-.567.86.86 0 0 0-.59-.235z" class="B D"/><g clip-path="url(#B)" class="B D"><path d="M1348.76 130.66c.91.129 1.84-.098 2.59-.631s1.26-1.328 1.41-2.21l1.18-6.654a3.26 3.26 0 0 0-.59-2.495 3.38 3.38 0 0 0-2.24-1.318l-5.13-.729-1.27-8.092c-.11-.723-.47-1.382-1.01-1.878a3.44 3.44 0 0 0-2-.87l-13.7-1.947a3.59 3.59 0 0 0-2.2.273c-.69.32-1.26.849-1.62 1.503l-3.82 7.37-6.83-.972c-.91-.128-1.84.099-2.59.631s-1.26 1.328-1.42 2.211l-1.17 6.654c-.16.882.05 1.78.58 2.495.54.715 1.34 1.189 2.25 1.317" class="C"/><path d="M1316.84 132.943c3.77.537 7.36-2.008 8-5.682.65-3.675-1.88-7.089-5.65-7.626-3.78-.536-7.36 2.008-8.01 5.683s1.88 7.089 5.66 7.625zm23.91 3.403c3.78.536 7.36-2.008 8.01-5.683s-1.89-7.089-5.66-7.625-7.36 2.008-8.01 5.682c-.64 3.675 1.89 7.089 5.66 7.626z"/><g class="C"><path d="M1324.84 127.262l10.25 1.457m-1.01-24.018l1.17-6.654"/></g></g><g clip-path="url(#C)" class="B D"><path d="M1315.26 74.712l-28.39-12.78c-1.75-.784-3.82-.065-4.64 1.607l-14.06 28.758c-.82 1.672-.07 3.663 1.68 4.447l28.39 12.78c1.74.784 3.82.065 4.64-1.607l14.05-28.758c.82-1.672.07-3.663-1.67-4.447z"/><g class="C"><path d="M1273 98.164l-2.22 4.541m24.31 5.4l-2.22 4.541m-18.78-32.458l34.71 15.62"/></g><path d="M1277.54 92.819c.87.392 1.91.032 2.32-.804.4-.836.03-1.832-.84-2.224s-1.91-.032-2.32.804-.03 1.831.84 2.224zm18.93 8.52c.87.392 1.91.032 2.32-.804.4-.836.03-1.831-.84-2.223s-1.91-.032-2.32.803-.03 1.832.84 2.224z"/></g><g clip-path="url(#D)" class="B D"><path d="M998.26 20.825l-28.395-12.78c-1.742-.784-3.817-.065-4.634 1.607l-14.06 28.758c-.817 1.672-.067 3.663 1.675 4.447l28.395 12.78c1.742.784 3.817.065 4.635-1.607l14.059-28.758c.815-1.672.065-3.663-1.675-4.447z"/><g class="C"><path d="M956.001 44.277l-2.219 4.541m24.304 5.401l-2.22 4.541m-18.775-32.459l34.704 15.62"/></g><path d="M960.538 38.933c.872.392 1.909.032 2.318-.804s.034-1.831-.838-2.224-1.908-.032-2.317.804-.034 1.831.837 2.224z"/><use xlink:href="#AP"/></g><g clip-path="url(#E)" class="B D"><path d="M1100.75 108.817l-1.55 1.262c-1.44-1.636-4.02-1.838-5.73-.449-1.7 1.388-1.91 3.863-.46 5.498l-6.2 5.049c-1.45-1.635-4.03-1.837-5.73-.449-1.71 1.389-1.92 3.863-.47 5.499l-1.55 1.262c-2.57 2.096-6.41 1.795-8.6-.674l-3.94-4.46 17.04-13.886c1.71-1.388 1.92-3.863.47-5.498l-9.21-10.409 2.85-2.323c1.12-.909 2.65-1.162 4.03-.695l6.58 2.287-2 1.628c-.85.694-.95 1.931-.23 2.749l3.95 4.461c.72.817 2.01.918 2.86.225l4.65-3.787 3.95 4.461" class="C"/><path d="M1086.34 125.677c1.71-1.394 1.92-3.856.47-5.499a4.19 4.19 0 0 0-5.73-.449c-1.71 1.395-1.92 3.856-.47 5.499s4.02 1.843 5.73.449zm12.4-10.102c1.71-1.394 1.92-3.856.47-5.498-1.46-1.643-4.02-1.844-5.74-.449-1.71 1.394-1.92 3.856-.46 5.498 1.45 1.643 4.02 1.844 5.73.449zm-3.86-22.441l2.63 2.974-4.65 3.787c-.85.694-2.14.593-2.86-.225l-3.95-4.461c-.72-.818-.62-2.055.23-2.749l2-1.628 6.6 2.302z"/></g><path d="M1149.05 20.509l-5.52.959c-.38.064-.73.252-.99.531s-.4.634-.42 1.005l-.51 6.884-17.77-.312a13.3 13.3 0 0 0-5.48 1.093 12.87 12.87 0 0 0-4.48 3.226 12.13 12.13 0 0 0-2.62 4.746 11.88 11.88 0 0 0-.28 5.367c.17.873.69 1.647 1.45 2.152s1.69.7 2.6.542l15.09-2.62 4.41 4.603c.8.819 1.79 1.434 2.9 1.788a7.23 7.23 0 0 0 3.43.239l3.78-.655a1.78 1.78 0 0 0 .79-.361c.23-.184.4-.42.51-.687s.14-.556.09-.839c-.04-.283-.16-.55-.34-.777l-4.1-5.201 9.47-1.644a3.5 3.5 0 0 0 2.24-1.385c.53-.729.73-1.628.57-2.501l-2.8-14.806c-.08-.436-.34-.823-.72-1.076a1.8 1.8 0 0 0-1.3-.271z" class="B D"/><g clip-path="url(#F)" class="B D"><path d="M946.67 105.701l4.297-1.055c.296-.075.616-.025.908.141a1.75 1.75 0 0 1 .695.775l3.059 6.144 12.495-6.518a8.38 8.38 0 0 1 4.322-.919c1.516.082 3.033.557 4.445 1.392s2.684 2.009 3.725 3.438 1.825 3.08 2.297 4.833c.226.86.16 1.753-.181 2.483s-.931 1.239-1.638 1.413l-11.743 2.885-1.327 5.774c-.244 1.031-.71 1.945-1.357 2.658s-1.453 1.203-2.346 1.424l-2.936.722a1.21 1.21 0 0 1-.706-.053c-.234-.088-.451-.244-.631-.453s-.317-.462-.396-.737-.101-.562-.06-.834l.871-6.213-7.366 1.81c-.707.174-1.476-.001-2.135-.486s-1.157-1.239-1.382-2.098l-3.82-14.578c-.112-.43-.08-.876.091-1.241s.465-.62.819-.707z"/></g><g class="B D"><g class="C"><path d="M1209.84 39.563c.23.864.25 1.767.06 2.641a5.75 5.75 0 0 1-1.15 2.398c-.57.705-1.3 1.275-2.14 1.667-.83.392-1.75.596-2.68.596s-1.85-.204-2.68-.596c-.84-.392-1.57-.962-2.14-1.667a5.75 5.75 0 0 1-1.15-2.398c-.19-.873-.17-1.777.06-2.641m-16.16 1.463c0 1.552-.64 3.04-1.78 4.138-1.15 1.097-2.7 1.714-4.32 1.714a6.25 6.25 0 0 1-4.31-1.714c-1.14-1.097-1.78-2.586-1.78-4.138h12.19z"/><path d="M1194.06 16.156h3.05c.84 0 3.05.878 3.05 2.926v13.312c0 2.34-2.21 7.68-9.23 7.68"/></g><path d="M1200.16 32.248h4.57c7.4 0 7.63 7.314 7.63 7.314h-17.92l5.72-7.314zm-22.87-1.463c-2.83 0-5.55 1.079-7.55 2.999s-3.12 4.525-3.12 7.241h24.39c0-2.716-1.12-5.32-3.13-7.241-2-1.92-4.71-2.999-7.54-2.999h-3.05z"/><path d="M1203.97 19.813v4.389m-20.66.731h-16.69c.76 4.462 5.26 5.851 10.59 5.851h3.05a16.78 16.78 0 0 0 6.94-1.243c2.36-1.244 2.59-4.608-3.89-4.608z" class="C"/></g><g clip-path="url(#G)" class="D B"><g class="C"><path d="M1012.4 75.585a5.49 5.49 0 0 1 1.03 2.436c.15.882.08 1.789-.19 2.651-.28.863-.75 1.658-1.38 2.326a6.22 6.22 0 0 1-2.28 1.527 6.28 6.28 0 0 1-2.71.416c-.93-.063-1.82-.329-2.6-.779a5.83 5.83 0 0 1-1.96-1.815 5.56 5.56 0 0 1-.91-2.482m-14.511 7.216c.57 1.445.517 3.064-.145 4.5s-1.88 2.572-3.386 3.158a6.25 6.25 0 0 1-4.645-.034c-1.467-.608-2.612-1.761-3.181-3.206l11.357-4.418z"/><path d="M989.121 59.505l2.84-1.105c.78-.304 3.161-.287 3.912 1.62l4.887 12.396c.86 2.18.76 7.952-5.773 10.493"/></g><path d="M1000.7 72.279l4.26-1.657c6.89-2.678 9.79 4.05 9.79 4.05l-16.685 6.489 2.635-8.882zm-21.827 6.922c-2.636 1.025-4.768 3.013-5.927 5.526s-1.25 5.346-.254 7.875l22.715-8.836c-.996-2.529-2.999-4.547-5.567-5.61s-5.492-1.084-8.128-.059l-2.839 1.105z"/><path d="M999.691 59.321l1.609 4.087m-18.967 8.164l-15.545 6.047c2.347 3.879 7.045 3.543 12.014 1.611l2.839-1.105c2.245-.787 4.295-2.04 6.003-3.671 1.744-2.014.723-5.23-5.311-2.883z" class="C"/></g><g clip-path="url(#H)" class="D B"><g class="C"><path d="M1322.93 44.07l-7.1 7.366c-1.25 1.302-1.92 3.03-1.84 4.802.07 1.772.87 3.444 2.23 4.648l10.24 9.078 3.54-3.683"/><path d="M1354.84 40.499l2.36-2.455-17.91-15.887c-.68-.602-1.58-.92-2.5-.886-.93.035-1.8.42-2.42 1.072l-14.2 14.733a3.32 3.32 0 0 0-.92 2.401 3.3 3.3 0 0 0 1.12 2.324l14.53 12.891m4.56 1.769l5.92-6.139"/></g><path d="M1339.85 65.909c2.61-2.712 2.44-6.943-.39-9.45-2.82-2.507-7.23-2.34-9.84.372-2.62 2.712-2.44 6.943.38 9.45 2.83 2.507 7.24 2.34 9.85-.372zm15.38-15.96c2.61-2.712 2.44-6.943-.39-9.45s-7.24-2.34-9.85.372-2.44 6.943.39 9.45c2.82 2.507 7.23 2.34 9.85-.372z"/></g><g clip-path="url(#I)" class="B D"><path d="M1054.16 108.063a3.59 3.59 0 0 0 2.62-.45c.78-.478 1.33-1.233 1.53-2.1l1.49-6.532c.2-.866.03-1.772-.47-2.519s-1.28-1.273-2.19-1.463l-5.1-1.074-.89-8.129c-.08-.726-.41-1.406-.93-1.936-.53-.53-1.22-.882-1.97-1.001l-13.65-2.872c-.73-.193-1.51-.151-2.22.121-.7.272-1.3.758-1.69 1.384l-4.18 7.062-6.81-1.432a3.59 3.59 0 0 0-2.62.45c-.78.478-1.33 1.234-1.53 2.1l-1.49 6.532c-.2.866-.03 1.772.47 2.519a3.48 3.48 0 0 0 2.19 1.463" class="C"/><path d="M1022.03 108.149c3.76.791 7.48-1.492 8.3-5.1.83-3.607-1.55-7.173-5.31-7.964s-7.48 1.492-8.3 5.099c-.83 3.608 1.55 7.174 5.31 7.965zm23.83 5.016c3.76.791 7.47-1.492 8.3-5.1.82-3.608-1.56-7.173-5.32-7.965s-7.47 1.492-8.3 5.1c-.82 3.608 1.56 7.173 5.32 7.965z"/><g class="C"><path d="M1030.33 103.051l10.21 2.149m.12-23.937l1.5-6.532"/></g></g><g clip-path="url(#J)" class="D B"><g class="C"><path d="M1078.13 64.071l-9.66-7.863 15.23-17.911c.57-.679 1.41-1.099 2.32-1.168a3.59 3.59 0 0 1 2.54.799l12.12 9.856c2.85 2.324 4.67 5.63 5.06 9.193a12.91 12.91 0 0 1-3 9.803l-6.53 7.676c-.58.679-1.41 1.099-2.33 1.168-.91.069-1.82-.218-2.54-.799l-5.62-4.578m-17.25-14.042l-9.42-7.666 4.35-5.117"/></g><path d="M1077.57 72.274c2.23 1.814 5.5 1.567 7.3-.553s1.46-5.309-.77-7.124-5.5-1.567-7.3.552-1.46 5.309.77 7.124z"/><path d="M1088.77 51.078l8.07 6.571" class="C"/></g><g clip-path="url(#K)" class="D B"><g class="C"><path d="M1245.6 124.878l12.2 2.691 5.46-22.81a3.22 3.22 0 0 0-.44-2.524c-.49-.752-1.27-1.286-2.17-1.484l-15.28-3.373c-3.61-.795-7.39-.184-10.53 1.698-3.13 1.882-5.35 4.882-6.18 8.339l-2.35 9.776c-.2.864-.04 1.772.45 2.523a3.48 3.48 0 0 0 2.17 1.485l7.1 1.566m21.77 4.801l11.88 2.623 1.56-6.517"/></g><path d="M1239.25 130.335c-2.81-.621-4.57-3.312-3.92-6.012s3.45-4.384 6.27-3.764c2.81.621 4.57 3.313 3.92 6.012s-3.45 4.385-6.27 3.764z"/><path d="M1249.81 108.652l-10.18-2.248" class="C"/></g><g clip-path="url(#L)" class="D B"><g class="C"><path d="M1317.46 20.85l-5.47 2.373-4.83-10.238c-.18-.388-.19-.83-.04-1.228.16-.398.47-.721.88-.896l6.86-2.975c1.61-.701 3.46-.757 5.12-.156s3 1.811 3.73 3.362l2.07 4.387c.18.388.19.83.04 1.228-.16.398-.47.72-.88.896l-3.18 1.381m-9.77 4.237l-5.34 2.314-1.38-2.925"/></g><path d="M1320.98 22.841c1.27-.548 1.83-1.974 1.26-3.185s-2.06-1.75-3.32-1.202c-1.27.548-1.83 1.974-1.26 3.185.58 1.212 2.06 1.75 3.32 1.202z"/><path d="M1313.88 13.598l4.57-1.983" class="C"/></g><g clip-path="url(#M)" class="B D"><path d="M1266.02 58.29l-36.62-25.594-2.72 9.266c-.38 1.316-.34 2.713.13 4.003s1.34 2.411 2.5 3.212l20.33 14.215c1.15.808 2.53 1.259 3.95 1.293 1.43.034 2.83-.352 4.02-1.105l8.41-5.289z"/><g class="C"><path d="M1246.3 44.507l18.47-24.323"/><path d="M1264.77 20.184l-26.4 6.371 14.09 9.844m13.84-6.872l1.65 17.701-9.86-6.891"/></g></g><g clip-path="url(#N)" class="B D"><path d="M1139.86 73.119l-21.74.377 1.76 4.304a3.23 3.23 0 0 0 1.26 1.495c.57.363 1.24.55 1.92.537l12.07-.209a3.46 3.46 0 0 0 1.91-.603c.55-.383.97-.919 1.2-1.538l1.62-4.362z"/><g class="C"><path d="M1128.16 73.321l-.27-14.442m0 .003l-8.19 9.773 8.37-.145m3.22-6.479l5.97 6.317-5.85.102"/></g></g><g clip-path="url(#O)" class="B D"><path d="M1011.86 120.58l-21.737.377 1.754 4.304c.25.61.69 1.132 1.259 1.495a3.45 3.45 0 0 0 1.924.536l12.07-.209a3.46 3.46 0 0 0 1.91-.603c.55-.383.97-.919 1.2-1.538l1.62-4.362z"/><g class="C"><path d="M1000.16 120.782l-.275-14.442"/><path d="M999.885 106.343l-8.181 9.773 8.366-.145m3.22-6.479l5.97 6.317-5.85.102"/></g></g><g clip-path="url(#P)" class="B D"><path d="M1302.86 43.08l-21.74.377 1.76 4.304a3.23 3.23 0 0 0 1.26 1.495c.57.363 1.24.55 1.92.536l12.07-.209a3.46 3.46 0 0 0 1.91-.603c.55-.383.97-.919 1.2-1.538l1.62-4.362z"/><g class="C"><path d="M1291.16 43.282l-.27-14.442m0 .003l-8.19 9.773 8.37-.145m3.22-6.479l5.97 6.317-5.85.102"/></g></g><g class="B D"><path d="M1360.24 72.574h-15.06c-.92 0-1.67.719-1.67 1.605v15.247c0 .886.75 1.605 1.67 1.605h15.06c.92 0 1.67-.719 1.67-1.605V74.179c0-.886-.75-1.605-1.67-1.605z"/><path d="M1346.85 91.031v2.407m11.71-2.407v2.407m-15.05-10.43h18.4" class="C"/><path d="M1347.69 87.82c.46 0 .84-.359.84-.802s-.38-.803-.84-.803-.84.359-.84.803.38.802.84.802zm10.04 0c.46 0 .83-.359.83-.802s-.37-.803-.83-.803c-.47 0-.84.359-.84.803s.37.802.84.802z"/></g><g clip-path="url(#Q)" class="D B"><g class="C"><path d="M1231.86 71.977h-5.02c-.88 0-1.73.338-2.36.94s-.98 1.418-.98 2.27v6.42h2.51m17.56-.002h1.67V70.371a1.55 1.55 0 0 0-.49-1.135c-.31-.301-.73-.47-1.18-.47h-10.03c-.45 0-.87.169-1.19.47-.31.301-.49.709-.49 1.135v9.116m.84 2.119h4.18"/></g><path d="M1229.35 84.814c1.85 0 3.35-1.437 3.35-3.21s-1.5-3.21-3.35-3.21c-1.84 0-3.34 1.437-3.34 3.21s1.5 3.21 3.34 3.21zm10.88 0c1.84 0 3.34-1.437 3.34-3.21s-1.5-3.21-3.34-3.21c-1.85 0-3.35 1.437-3.35 3.21s1.5 3.21 3.35 3.21z"/></g><g clip-path="url(#R)" class="B D"><path d="M1191.76 61.95l-13.37 4.798c-4.74 1.702-4.9 4.343-4.43 7.338l1.7 10.655 30.47-10.935-6.01-9.111c-1.69-2.558-3.62-4.448-8.36-2.746z"/><g class="C"><path d="M1174.88 90.708c-.8-2.836-1.12-5.281 3.87-7.072l24.29-8.721c4.99-1.791 6.42.258 7.75 2.903l5.41 10.743c1.04 2.062-.03 4.55-2.32 5.37l-3.58 1.285c-2.05.738-2.66 0-3.43-.911l-.81-.959c-1.12-1.307-1.85-2.188-4.59-1.204l-9.75 3.499c-2.74.984-2.7 2.26-2.64 3.801l.04 1.233c.05 1.171.09 2.114-1.97 2.852l-3.58 1.285c-2.28.82-4.79-.383-5.41-2.595l-1.11-3.893m-3.52-19.062l-1.91.683m34.27-12.3l-1.9.683m-18.79-3.668l1.42 3.654m-2.85 1.026l5.71-2.05"/><path d="M1182.32 90.684l5.71-2.05m11.43-4.099l5.71-2.05"/></g></g><g clip-path="url(#S)" class="D B"><g class="C"><path d="M1121.57 100.712c-.57-4.276 2.58-8.18 7.04-8.723l18.15-2.213 2.56 19.349c.28 2.129-1.3 4.091-3.52 4.362l-22.18 2.705-.77-5.825"/><path d="M1159.44 123.621l-2.02.246c-.28-2.129-2.32-3.649-4.54-3.378s-3.81 2.233-3.52 4.361l-8.07.984c-.28-2.129-2.33-3.649-4.55-3.378-2.21.27-3.8 2.233-3.52 4.361l-2.01.246c-3.35.408-6.4-1.855-6.82-5.067l-.77-5.804 22.18-2.705c2.22-.271 3.8-2.233 3.52-4.362l-1.79-13.544 3.71-.452a4.19 4.19 0 0 1 3.77 1.526l4.21 5.365-2.6.317c-1.11.135-1.9 1.117-1.76 2.181l.77 5.804c.14 1.065 1.16 1.825 2.27 1.69l6.05-.738.77 5.805"/></g><path d="M1137.77 130.193c2.23-.271 3.8-2.224 3.52-4.361s-2.32-3.65-4.55-3.378c-2.22.271-3.8 2.224-3.52 4.361.29 2.137 2.32 3.65 4.55 3.378zm16.13-1.965c2.23-.271 3.81-2.224 3.52-4.361-.28-2.138-2.32-3.65-4.54-3.378-2.23.271-3.81 2.224-3.52 4.361.28 2.138 2.31 3.65 4.54 3.378zm9.54-20.825l.51 3.87-6.05.738c-1.11.135-2.13-.625-2.27-1.689l-.77-5.805c-.14-1.064.65-2.046 1.76-2.181l2.6-.317 4.22 5.384z"/></g><g clip-path="url(#T)" class="D B"><g class="C"><path d="M1044.88 136.196c-.07.421-.25.82-.51 1.166-.27.346-.61.63-1 .83-.4.2-.83.31-1.28.323s-.89-.072-1.3-.249a3.02 3.02 0 0 1-1.05-.77 2.89 2.89 0 0 1-.59-1.135c-.1-.416-.1-.85 0-1.268a2.66 2.66 0 0 1 .57-1.142m-7.37-2.431c-.32.678-.91 1.207-1.64 1.469a3.01 3.01 0 0 1-2.23-.07c-.71-.307-1.26-.871-1.54-1.568-.27-.697-.24-1.47.08-2.149l5.33 2.318z"/><path d="M1042.82 122.965l1.33.579c.37.16 1.15.963.73 1.859l-2.75 5.821c-.48 1.023-2.55 2.938-5.62 1.605"/></g><path d="M1042.16 131.157l2 .869c3.23 1.405 1.82 4.647 1.82 4.647l-7.83-3.404 4.01-2.112zm-9.7-4.985a5.3 5.3 0 0 0-3.91-.122c-1.28.459-2.31 1.384-2.87 2.572l10.67 4.635a4.73 4.73 0 0 0 .13-3.76c-.48-1.22-1.45-2.207-2.68-2.745l-1.34-.58z"/><path d="M1046.39 126.445l-.9 1.919m-9.19-3.606l-7.3-3.172c-.58 2.096 1.1 3.558 3.43 4.572l1.33.58c1.03.487 2.15.751 3.29.774 1.29-.095 2.09-1.522-.75-2.754z" class="C"/></g><g clip-path="url(#U)" class="D B"><g class="C"><path d="M1196.46 131.139l-5.47 2.374-4.83-10.238c-.18-.388-.19-.83-.04-1.228.16-.398.47-.72.88-.896l6.86-2.974c1.61-.701 3.46-.758 5.12-.156s3 1.81 3.73 3.362l2.07 4.387c.18.388.19.83.04 1.228-.16.398-.47.721-.88.896l-3.18 1.381m-9.77 4.235l-5.34 2.313-1.38-2.925"/></g><path d="M1199.98 133.13c1.27-.547 1.83-1.973 1.26-3.185s-2.06-1.75-3.32-1.202c-1.27.547-1.83 1.974-1.26 3.185.58 1.212 2.06 1.75 3.32 1.202z"/><path d="M1192.88 123.887l4.57-1.983" class="C"/></g><g class="B D"><path d="M567.46 59.779l-15.197-44.482-8.459 6.45c-1.198.919-2.074 2.168-2.51 3.578a6.92 6.92 0 0 0 .072 4.313l8.44 24.705c.473 1.4 1.381 2.627 2.603 3.516s2.698 1.398 4.23 1.458l10.821.462z"/><path d="M559.278 35.829l32.095-10.095m-.003 0l-27.242-10.379 5.845 17.109m16.603 2.356l-10.173 16.463-4.092-11.976" class="C"/></g><g clip-path="url(#V)" class="B D"><path d="M631.235 5.008h-15.054c-.924 0-1.673.719-1.673 1.605V21.86c0 .886.749 1.605 1.673 1.605h15.054c.924 0 1.673-.719 1.673-1.605V6.613c0-.886-.749-1.605-1.673-1.605z"/><g class="C"><path d="M617.854 23.465v2.407m11.708-2.407v2.407m-15.054-10.431h18.4"/></g><use xlink:href="#AQ"/><path d="M628.726 20.253c.462 0 .836-.359.836-.802s-.374-.803-.836-.803-.836.359-.836.803.374.802.836.802z"/></g><path d="M758.326 5.406h-2.693c-.186-.001-.367.059-.513.17s-.248.266-.29.44l-.853 3.21-8.364-1.605c-.89-.167-1.807-.145-2.687.067s-1.7.606-2.403 1.156a5.97 5.97 0 0 0-1.662 2.027 5.72 5.72 0 0 0-.608 2.512c0 .426.177.834.49 1.135a1.71 1.71 0 0 0 1.183.47h7.36l1.673 2.536c.302.452.718.824 1.209 1.082s1.041.394 1.601.395h1.84a.86.86 0 0 0 .407-.105.82.82 0 0 0 .303-.283.78.78 0 0 0 .119-.388.77.77 0 0 0-.093-.395l-1.472-2.793h4.616c.444 0 .87-.169 1.183-.47a1.57 1.57 0 0 0 .49-1.135V6.209c0-.213-.088-.417-.245-.567s-.369-.235-.591-.235z" class="B D"/><g clip-path="url(#W)" class="B D"><path d="M878.76 130.66c.906.129 1.837-.098 2.588-.631a3.46 3.46 0 0 0 1.416-2.21l1.174-6.654c.155-.883-.055-1.78-.586-2.495s-1.338-1.189-2.244-1.318l-5.125-.729-1.268-8.092c-.116-.723-.474-1.382-1.019-1.878s-1.247-.802-1.999-.87l-13.7-1.947a3.59 3.59 0 0 0-2.2.273c-.689.32-1.256.849-1.616 1.503l-3.821 7.37-6.833-.972c-.907-.128-1.837.099-2.588.631a3.46 3.46 0 0 0-1.416 2.211l-1.174 6.654c-.156.882.055 1.78.585 2.495s1.338 1.189 2.244 1.317" class="C"/><path d="M846.837 132.943c3.774.537 7.359-2.008 8.007-5.682s-1.885-7.089-5.658-7.626-7.359 2.008-8.008 5.683 1.886 7.089 5.659 7.625zm23.916 3.403c3.774.536 7.359-2.008 8.007-5.683s-1.885-7.089-5.659-7.625-7.359 2.008-8.007 5.682 1.885 7.089 5.659 7.626z"/><g class="C"><path d="M854.844 127.262l10.25 1.457m-1.015-24.018l1.174-6.654"/></g></g><g clip-path="url(#X)" class="B D"><path d="M845.26 74.712l-28.395-12.78c-1.742-.784-3.817-.065-4.634 1.607l-14.06 28.758c-.817 1.672-.067 3.663 1.675 4.447l28.395 12.78c1.742.784 3.817.065 4.635-1.607l14.059-28.758c.817-1.672.067-3.663-1.675-4.447z"/><g class="C"><path d="M803.001 98.164l-2.219 4.541m24.304 5.4l-2.22 4.541m-18.775-32.458l34.704 15.62"/></g><path d="M807.538 92.819c.872.392 1.909.032 2.318-.804s.034-1.832-.838-2.224-1.908-.032-2.317.804-.034 1.831.837 2.224zm18.93 8.52c.871.392 1.909.032 2.318-.804s.033-1.831-.838-2.223-1.909-.032-2.317.803-.034 1.832.837 2.224z"/></g><g clip-path="url(#Y)" class="B D"><path d="M528.26 20.825l-28.395-12.78c-1.742-.784-3.817-.065-4.635 1.607L481.171 38.41c-.817 1.672-.067 3.663 1.675 4.447l28.395 12.78c1.742.784 3.817.065 4.634-1.607l14.06-28.758c.817-1.672.067-3.663-1.675-4.447z"/><g class="C"><path d="M486.001 44.277l-2.22 4.541m24.305 5.401l-2.22 4.541m-18.775-32.459l34.704 15.62"/></g><path d="M490.538 38.933c.871.392 1.909.032 2.318-.804s.033-1.831-.838-2.224-1.909-.032-2.317.804-.034 1.831.837 2.224z"/><use xlink:href="#AR"/></g><g clip-path="url(#Z)" class="B D"><path d="M633.755 114.051l-1.55 1.262c-1.447-1.635-4.026-1.837-5.731-.449s-1.915 3.863-.468 5.499l-6.198 5.049c-1.448-1.636-4.026-1.838-5.731-.449s-1.915 3.863-.468 5.498l-1.55 1.262c-2.572 2.096-6.412 1.795-8.595-.673l-3.947-4.461 17.046-13.885c1.705-1.389 1.915-3.863.468-5.499l-9.209-10.408 2.851-2.323c1.116-.909 2.652-1.162 4.025-.695l6.584 2.287-1.999 1.628a1.9 1.9 0 0 0-.234 2.749l3.947 4.461a2.1 2.1 0 0 0 2.865.225l4.649-3.787 3.947 4.46" class="C"/><path d="M619.34 130.911c1.711-1.394 1.921-3.856.468-5.498s-4.019-1.844-5.731-.449-1.921 3.856-.468 5.498 4.019 1.844 5.731.449zm12.397-10.101c1.712-1.395 1.921-3.856.468-5.499s-4.019-1.843-5.73-.449-1.922 3.856-.469 5.499a4.19 4.19 0 0 0 5.731.449zm-3.858-22.442l2.631 2.974-4.649 3.787c-.852.694-2.142.593-2.865-.224l-3.947-4.461a1.9 1.9 0 0 1 .234-2.749l1.999-1.628 6.597 2.302z"/></g><path d="M679.048 20.509l-5.521.959c-.382.064-.73.252-.986.531s-.406.634-.424 1.005l-.508 6.884-17.766-.312c-1.889-.026-3.761.347-5.482 1.093s-3.251 1.848-4.479 3.226a12.18 12.18 0 0 0-2.625 4.746 11.85 11.85 0 0 0-.273 5.367c.165.873.684 1.647 1.443 2.152s1.697.7 2.607.542l15.088-2.62 4.409 4.603c.795.819 1.791 1.434 2.897 1.788a7.25 7.25 0 0 0 3.435.239l3.772-.655a1.77 1.77 0 0 0 .795-.361 1.67 1.67 0 0 0 .51-.687c.106-.267.139-.556.095-.839a1.64 1.64 0 0 0-.344-.777l-4.098-5.201 9.465-1.644c.909-.158 1.716-.656 2.242-1.385s.73-1.628.566-2.501l-2.793-14.806a1.67 1.67 0 0 0-.722-1.076 1.8 1.8 0 0 0-1.303-.271z" class="B D"/><g clip-path="url(#a)" class="B D"><path d="M476.67 105.701l4.297-1.055c.296-.075.617-.025.908.141s.537.44.695.775l3.059 6.144 12.495-6.518a8.38 8.38 0 0 1 4.322-.919c1.516.082 3.033.557 4.445 1.392s2.684 2.009 3.725 3.438a14.77 14.77 0 0 1 2.298 4.833c.225.86.16 1.753-.182 2.483s-.93 1.239-1.638 1.413l-11.743 2.885-1.327 5.774c-.243 1.031-.71 1.945-1.357 2.658a4.67 4.67 0 0 1-2.346 1.424l-2.935.722a1.21 1.21 0 0 1-.706-.053 1.57 1.57 0 0 1-.632-.453 1.97 1.97 0 0 1-.396-.737c-.08-.275-.101-.562-.06-.834l.871-6.213-7.365 1.81c-.708.174-1.476-.001-2.136-.486s-1.157-1.239-1.382-2.098l-3.82-14.578c-.112-.43-.08-.876.091-1.241s.465-.62.819-.707z"/></g><g class="B D"><g class="C"><path d="M739.84 39.563a5.63 5.63 0 0 1 .063 2.641c-.189.873-.584 1.694-1.154 2.398s-1.3 1.275-2.135 1.667a6.31 6.31 0 0 1-5.364 0c-.835-.392-1.566-.962-2.136-1.667s-.964-1.525-1.153-2.398-.168-1.777.063-2.641m-16.161 1.463c0 1.552-.642 3.04-1.786 4.138s-2.695 1.714-4.312 1.714-3.169-.617-4.312-1.714-1.786-2.586-1.786-4.138h12.196z"/><path d="M724.06 16.156h3.049c.839 0 3.049.878 3.049 2.926v13.312c0 2.34-2.21 7.68-9.223 7.68"/></g><path d="M730.158 32.248h4.574c7.394 0 7.623 7.314 7.623 7.314h-17.914l5.717-7.314zm-22.869-1.463c-2.83 0-5.545 1.079-7.546 2.999s-3.126 4.525-3.126 7.241h24.394c0-2.716-1.125-5.32-3.126-7.241s-4.716-2.999-7.546-2.999h-3.05z"/><g class="C"><path d="M733.97 19.813v4.389m-20.658.731h-16.695c.762 4.462 5.26 5.851 10.596 5.851h3.049a16.76 16.76 0 0 0 6.937-1.243c2.363-1.244 2.592-4.608-3.887-4.608zM519.886 85.362a5.66 5.66 0 0 1 .001 2.649 5.73 5.73 0 0 1-1.207 2.369 5.99 5.99 0 0 1-2.169 1.607 6.24 6.24 0 0 1-2.688.518 6.3 6.3 0 0 1-2.66-.678 6.09 6.09 0 0 1-2.089-1.735c-.552-.723-.926-1.557-1.094-2.438a5.65 5.65 0 0 1 .126-2.645m-16.148.984c-.037 1.555-.712 3.028-1.879 4.094a6.16 6.16 0 0 1-4.34 1.589 6.24 6.24 0 0 1-4.259-1.846c-1.114-1.134-1.719-2.645-1.683-4.2l12.161.364z"/><path d="M504.707 61.433l3.041.091c.836.025 3.019.971 2.971 3.023l-.316 13.342c-.055 2.346-2.386 7.631-9.378 7.422"/></g><path d="M510.407 77.74l4.56.136c7.373.221 7.427 7.558 7.427 7.558l-17.861-.534 5.874-7.16zm-22.767-2.148c-2.822-.084-5.554.916-7.595 2.781s-3.224 4.442-3.288 7.164l24.322.727c.064-2.722-.996-5.366-2.946-7.35s-4.631-3.147-7.453-3.231l-3.04-.091z"/><path d="M514.502 65.391l-.104 4.398m-20.615.117l-16.645-.498c.654 4.495 5.106 6.021 10.426 6.181l3.04.091c2.371.152 4.743-.203 6.946-1.039 2.386-1.176 2.693-4.541-3.767-4.734z" class="C"/></g><g clip-path="url(#b)" class="D B"><g class="C"><path d="M877.954 47.082l-7.248-7.195c-1.282-1.272-2.998-1.96-4.772-1.912s-3.46.828-4.687 2.167l-9.254 10.105 3.624 3.598m25.368 25.184l2.417 2.398 16.194-17.683c.614-.67.948-1.565.928-2.489a3.54 3.54 0 0 0-1.03-2.436l-14.497-14.39a3.26 3.26 0 0 0-2.386-.956 3.3 3.3 0 0 0-2.343 1.084l-13.141 14.348m-1.846 4.533l6.04 5.996"/></g><path d="M855.822 63.694c2.668 2.649 6.903 2.535 9.459-.255s2.464-7.2-.205-9.849-6.904-2.535-9.459.255-2.464 7.2.205 9.849zm15.704 15.59c2.669 2.649 6.904 2.535 9.46-.255s2.463-7.2-.206-9.849-6.903-2.535-9.459.256-2.463 7.2.205 9.849z"/></g><g clip-path="url(#c)" class="B D"><path d="M584.159 108.063a3.61 3.61 0 0 0 2.626-.45c.778-.478 1.326-1.233 1.524-2.1l1.493-6.532c.198-.866.03-1.772-.469-2.519s-1.285-1.273-2.188-1.463l-5.106-1.074-.889-8.129c-.082-.726-.41-1.406-.933-1.936s-1.213-.882-1.963-1.001l-13.65-2.872c-.734-.193-1.513-.151-2.22.121s-1.3.758-1.692 1.384l-4.182 7.062-6.808-1.432a3.61 3.61 0 0 0-2.626.45c-.778.478-1.326 1.234-1.524 2.1l-1.493 6.532c-.198.866-.03 1.772.469 2.519s1.285 1.273 2.188 1.463" class="C"/><path d="M552.031 108.149c3.76.791 7.476-1.492 8.301-5.1s-1.555-7.173-5.315-7.964-7.476 1.492-8.301 5.099 1.555 7.174 5.315 7.965zm23.827 5.016c3.76.791 7.477-1.492 8.301-5.1s-1.555-7.173-5.315-7.965-7.476 1.492-8.301 5.1 1.555 7.173 5.315 7.965z"/><g class="C"><path d="M560.332 103.051l10.211 2.149m.12-23.937l1.493-6.532"/></g></g><g clip-path="url(#d)" class="D B"><g class="C"><path d="M608.128 64.071l-9.661-7.863 15.23-17.911a3.38 3.38 0 0 1 2.327-1.168 3.61 3.61 0 0 1 2.541.799l12.11 9.856c2.855 2.324 4.677 5.63 5.063 9.193a12.93 12.93 0 0 1-3.001 9.803l-6.527 7.676a3.38 3.38 0 0 1-2.327 1.168c-.913.069-1.827-.218-2.541-.799l-5.624-4.578m-17.252-14.042l-9.419-7.666 4.352-5.117"/></g><path d="M607.571 72.274c2.23 1.814 5.499 1.567 7.301-.553s1.456-5.309-.773-7.124-5.498-1.567-7.301.552-1.456 5.309.773 7.124z"/><path d="M618.765 51.078l8.074 6.571" class="C"/></g><g clip-path="url(#e)" class="D B"><g class="C"><path d="M775.603 124.878l12.192 2.691 5.468-22.81a3.23 3.23 0 0 0-.443-2.524c-.49-.752-1.271-1.286-2.172-1.484l-15.283-3.373a14.44 14.44 0 0 0-10.521 1.698c-3.133 1.882-5.359 4.882-6.188 8.339l-2.343 9.776c-.207.864-.048 1.772.443 2.523a3.49 3.49 0 0 0 2.172 1.485l7.098 1.566m21.769 4.801l11.887 2.623 1.562-6.517"/></g><path d="M769.253 130.335c-2.814-.621-4.57-3.312-3.923-6.012s3.452-4.384 6.266-3.764 4.569 3.313 3.922 6.012-3.452 4.385-6.265 3.764z"/><path d="M779.814 108.652l-10.188-2.248" class="C"/></g><g clip-path="url(#f)" class="D B"><g class="C"><path d="M847.458 20.85l-5.472 2.373-4.823-10.238c-.183-.388-.197-.83-.041-1.228s.472-.721.876-.896l6.859-2.975c1.617-.701 3.459-.757 5.119-.156s3.003 1.811 3.734 3.362l2.067 4.387c.183.388.197.83.041 1.228s-.472.72-.876.896l-3.186 1.381m-9.77 4.237l-5.335 2.314-1.378-2.925"/></g><path d="M850.984 22.841c1.263-.548 1.824-1.974 1.253-3.185s-2.057-1.75-3.319-1.202-1.824 1.974-1.253 3.185 2.057 1.75 3.319 1.202z"/><path d="M843.875 13.598l4.573-1.983" class="C"/></g><g clip-path="url(#g)" class="B D"><path d="M796.257 54.255L759.641 28.66l-2.724 9.266c-.383 1.316-.336 2.713.134 4.003s1.34 2.411 2.494 3.212l20.336 14.215c1.148.808 2.527 1.259 3.951 1.293s2.824-.352 4.012-1.105l8.413-5.289z"/><g class="C"><path d="M776.541 40.472l18.467-24.323"/><path d="M795.008 16.149l-26.395 6.371 14.083 9.844m13.841-6.872l1.651 17.701-9.859-6.891"/></g></g><g clip-path="url(#h)" class="B D"><path d="M669.864 73.119l-21.741.377 1.754 4.304c.25.61.69 1.132 1.259 1.495a3.45 3.45 0 0 0 1.924.537l12.075-.209c.683-.01 1.347-.22 1.903-.603a3.23 3.23 0 0 0 1.202-1.538l1.624-4.362z"/><g class="C"><path d="M658.157 73.321l-.272-14.442m0 .003l-8.181 9.773 8.362-.145m3.225-6.479l5.974 6.317-5.854.102"/></g></g><g clip-path="url(#i)" class="B D"><path d="M541.864 120.58l-21.742.377 1.754 4.304c.251.61.691 1.132 1.26 1.495a3.45 3.45 0 0 0 1.924.536l12.075-.209a3.44 3.44 0 0 0 1.902-.603 3.23 3.23 0 0 0 1.203-1.538l1.624-4.362z"/><g class="C"><path d="M530.157 120.782l-.272-14.442m0 .003l-8.181 9.773 8.362-.145m3.224-6.479l5.975 6.317-5.854.102"/></g></g><g clip-path="url(#j)" class="B D"><path d="M832.864 43.08l-21.741.377 1.754 4.304c.25.61.69 1.132 1.259 1.495a3.45 3.45 0 0 0 1.924.536l12.075-.209c.683-.01 1.347-.22 1.903-.603a3.23 3.23 0 0 0 1.202-1.538l1.624-4.362z"/><g class="C"><path d="M821.157 43.282l-.272-14.442m0 .003l-8.181 9.773 8.362-.145m3.225-6.479l5.974 6.317-5.854.102"/></g></g><g clip-path="url(#k)" class="B D"><path d="M910.235 87.801h-15.054c-.924 0-1.673.719-1.673 1.605v15.247c0 .886.749 1.605 1.673 1.605h15.054c.924 0 1.673-.719 1.673-1.605V89.406c0-.886-.749-1.605-1.673-1.605z"/><g class="C"><path d="M896.854 106.258v2.407m11.708-2.407v2.407m-15.054-10.431h18.4"/></g><path d="M897.69 103.046c.462 0 .836-.359.836-.802s-.374-.803-.836-.803-.836.36-.836.803.374.802.836.802zm10.036 0c.462 0 .837-.359.837-.802s-.375-.803-.837-.803-.836.36-.836.803.375.802.836.802z"/></g><g clip-path="url(#l)" class="D B"><g class="C"><path d="M761.863 71.977h-5.018a3.42 3.42 0 0 0-2.366.94c-.627.602-.979 1.418-.979 2.27v6.42h2.509m17.563-.002h1.673V70.371c0-.426-.177-.834-.49-1.135a1.71 1.71 0 0 0-1.183-.47h-10.036a1.71 1.71 0 0 0-1.183.47 1.57 1.57 0 0 0-.49 1.135v9.116m.836 2.119h4.182"/></g><use xlink:href="#AS"/><use xlink:href="#AT"/></g><g clip-path="url(#m)" class="B D"><path d="M721.758 61.95l-13.365 4.798c-4.741 1.702-4.905 4.343-4.432 7.338l1.702 10.655 30.463-10.935-6.005-9.111c-1.692-2.558-3.622-4.448-8.363-2.746z"/><g class="C"><path d="M704.884 90.708c-.802-2.836-1.126-5.281 3.863-7.072l24.294-8.721c4.988-1.791 6.416.258 7.751 2.903l5.404 10.743c1.043 2.062-.027 4.55-2.312 5.37l-3.579 1.285c-2.057.738-2.67 0-3.438-.911l-.808-.959c-1.117-1.307-1.851-2.188-4.593-1.204l-9.748 3.499c-2.742.984-2.7 2.26-2.642 3.801l.047 1.233c.044 1.171.086 2.114-1.97 2.852l-3.58 1.285c-2.284.82-4.793-.383-5.417-2.595l-1.106-3.893m-3.522-19.062l-1.904.683m34.27-12.3l-1.904.683m-18.792-3.668l1.424 3.654m-2.856 1.026l5.712-2.05"/><path d="M712.322 90.684l5.711-2.05m11.424-4.099l5.712-2.05"/></g></g><g clip-path="url(#n)" class="D B"><g class="C"><path d="M651.57 100.712c-.567-4.276 2.584-8.18 7.041-8.723l18.149-2.213 2.563 19.349c.282 2.129-1.303 4.091-3.521 4.362l-22.182 2.705-.772-5.825"/><path d="M689.439 123.621l-2.016.246c-.282-2.129-2.328-3.649-4.546-3.378s-3.803 2.233-3.521 4.361l-8.066.984c-.282-2.129-2.327-3.649-4.546-3.378s-3.802 2.233-3.52 4.361l-2.017.246c-3.347.408-6.393-1.855-6.818-5.067l-.769-5.804 22.182-2.705c2.218-.271 3.803-2.233 3.521-4.362l-1.794-13.544 3.711-.452a4.18 4.18 0 0 1 3.767 1.526l4.215 5.365-2.602.317c-1.109.135-1.901 1.117-1.76 2.181l.769 5.804c.141 1.065 1.164 1.825 2.273 1.69l6.049-.738.769 5.805"/></g><path d="M667.769 130.193c2.228-.271 3.804-2.224 3.521-4.361s-2.318-3.65-4.546-3.378-3.803 2.224-3.52 4.361 2.318 3.65 4.545 3.378zm16.133-1.965c2.227-.271 3.804-2.224 3.521-4.361s-2.319-3.65-4.546-3.378-3.804 2.224-3.521 4.361 2.318 3.65 4.546 3.378zm9.537-20.825l.512 3.87-6.049.738c-1.109.135-2.132-.625-2.273-1.689l-.769-5.805c-.141-1.064.651-2.046 1.76-2.181l2.602-.317 4.217 5.384z"/></g><g clip-path="url(#o)" class="D B"><g class="C"><path d="M574.884 136.196c-.077.421-.254.82-.517 1.166s-.605.63-.999.83-.832.31-1.278.323a3.03 3.03 0 0 1-1.296-.249c-.406-.176-.765-.44-1.05-.77s-.485-.718-.589-1.135-.107-.85-.01-1.268a2.77 2.77 0 0 1 .573-1.142m-7.368-2.431c-.32.678-.908 1.207-1.635 1.469s-1.532.238-2.239-.07a2.86 2.86 0 0 1-1.532-1.568c-.274-.697-.247-1.47.073-2.149l5.333 2.318z"/><path d="M572.815 122.965l1.334.579c.366.16 1.152.963.729 1.859l-2.747 5.821c-.483 1.023-2.552 2.938-5.619 1.605"/></g><path d="M572.161 131.157l2 .869c3.233 1.405 1.823 4.647 1.823 4.647l-7.832-3.404 4.009-2.112zm-9.698-4.985a5.32 5.32 0 0 0-3.918-.122c-1.272.459-2.301 1.384-2.861 2.572l10.666 4.635c.56-1.188.606-2.54.127-3.76s-1.443-2.207-2.68-2.745l-1.334-.58z"/><path d="M576.394 126.445l-.906 1.919m-9.184-3.606l-7.299-3.172c-.588 2.096 1.092 3.558 3.425 4.572l1.333.58a8.04 8.04 0 0 0 3.29.774c1.29-.095 2.084-1.522-.749-2.754z" class="C"/></g><g clip-path="url(#p)" class="D B"><g class="C"><path d="M726.458 131.139l-5.472 2.374-4.823-10.238c-.183-.388-.197-.83-.041-1.228a1.64 1.64 0 0 1 .876-.896l6.859-2.974a6.95 6.95 0 0 1 5.119-.156c1.66.601 3.003 1.81 3.734 3.362l2.067 4.387c.183.388.197.83.041 1.228s-.472.721-.876.896l-3.186 1.381m-9.77 4.235l-5.335 2.313-1.378-2.925"/></g><path d="M729.984 133.13c1.263-.547 1.824-1.973 1.253-3.185s-2.057-1.75-3.319-1.202-1.824 1.974-1.253 3.185 2.057 1.75 3.319 1.202z"/><path d="M722.875 123.887l4.573-1.983" class="C"/></g><g class="B D"><path d="M96.46 56.576L81.263 12.094l-8.46 6.45c-1.198.919-2.074 2.168-2.51 3.578s-.411 2.916.072 4.313l8.44 24.705c.473 1.4 1.381 2.627 2.603 3.516s2.698 1.398 4.23 1.458l10.821.462z"/><path d="M88.278 32.626l32.095-10.095m-.003-.001L93.128 12.152l5.845 17.109m16.603 2.356L105.403 48.08l-4.092-11.976" class="C"/></g><g clip-path="url(#q)" class="B D"><path d="M160.235 4.012h-15.054c-.924 0-1.673.719-1.673 1.605v15.247c0 .886.749 1.605 1.673 1.605h15.054c.924 0 1.673-.719 1.673-1.605V5.617c0-.886-.749-1.605-1.673-1.605z"/><g class="C"><path d="M146.854 22.469v2.407m11.708-2.407v2.407m-15.054-10.431h18.4"/></g><use xlink:href="#AU"/><path d="M157.726 19.257c.462 0 .836-.359.836-.803s-.374-.802-.836-.802-.836.359-.836.802.374.803.836.803z"/></g><path d="M287.326 4.414h-2.693c-.186-.001-.367.059-.513.17s-.248.266-.29.44l-.853 3.21-8.363-1.605a6.43 6.43 0 0 0-2.688.067c-.879.211-1.7.606-2.402 1.156a5.96 5.96 0 0 0-1.663 2.026 5.72 5.72 0 0 0-.607 2.512 1.57 1.57 0 0 0 .49 1.135c.313.301.739.47 1.182.47h7.36l1.673 2.536c.302.452.718.824 1.209 1.082s1.041.394 1.601.395h1.84c.143-.001.283-.037.408-.105s.228-.165.302-.283a.77.77 0 0 0 .026-.784l-1.472-2.793h4.617a1.71 1.71 0 0 0 1.183-.47c.313-.301.489-.709.489-1.135V5.217c0-.213-.088-.417-.245-.567a.85.85 0 0 0-.591-.235z" class="B D"/><g clip-path="url(#r)" class="B D"><path d="M407.76 129.668c.906.129 1.837-.098 2.588-.631a3.46 3.46 0 0 0 1.416-2.211l1.174-6.654a3.23 3.23 0 0 0-.586-2.494c-.53-.715-1.338-1.19-2.244-1.318l-5.125-.729-1.268-8.092a3.23 3.23 0 0 0-1.019-1.879c-.545-.496-1.247-.801-1.999-.869l-13.7-1.948c-.738-.143-1.511-.047-2.2.273s-1.256.849-1.616 1.504l-3.821 7.369-6.833-.971c-.907-.129-1.837.098-2.588.631a3.46 3.46 0 0 0-1.416 2.211l-1.174 6.654a3.23 3.23 0 0 0 .585 2.494c.531.715 1.338 1.19 2.244 1.318" class="C"/><path d="M375.837 131.951c3.774.537 7.359-2.008 8.007-5.683s-1.885-7.089-5.658-7.625-7.359 2.008-8.008 5.683 1.886 7.089 5.659 7.625zm23.916 3.403c3.774.536 7.359-2.008 8.007-5.683s-1.885-7.089-5.659-7.626-7.359 2.008-8.007 5.683 1.885 7.089 5.659 7.626z"/><g class="C"><path d="M383.844 126.27l10.25 1.456m-1.015-24.017l1.174-6.654"/></g></g><g clip-path="url(#s)" class="B D"><path d="M374.26 73.719l-28.395-12.78c-1.742-.784-3.817-.065-4.635 1.607l-14.059 28.758c-.817 1.672-.067 3.663 1.675 4.447l28.395 12.78c1.742.784 3.817.064 4.634-1.607l14.06-28.758c.817-1.672.067-3.663-1.675-4.447z"/><g class="C"><path d="M332.001 97.172l-2.22 4.541m24.305 5.4l-2.22 4.541m-18.775-32.459l34.704 15.62"/></g><path d="M336.538 91.827c.871.392 1.909.032 2.318-.804s.033-1.831-.838-2.224-1.909-.032-2.317.804-.034 1.832.837 2.224zm18.93 8.52c.871.392 1.909.032 2.317-.804s.034-1.831-.837-2.224-1.909-.032-2.318.804-.033 1.831.838 2.224z"/></g><g clip-path="url(#t)" class="B D"><path d="M57.26 19.829L28.865 7.049c-1.742-.784-3.818-.065-4.635 1.607L10.171 37.414c-.817 1.672-.067 3.663 1.675 4.447l28.394 12.78c1.742.784 3.818.065 4.635-1.607l14.059-28.758c.817-1.672.067-3.663-1.675-4.447z"/><g class="C"><path d="M15.001 43.281l-2.22 4.541m24.305 5.401l-2.22 4.541M16.091 25.305l34.704 15.62"/></g><path d="M19.538 37.936c.871.392 1.909.032 2.317-.804s.034-1.832-.838-2.224-1.909-.032-2.317.804-.034 1.831.837 2.224zm18.93 8.52c.871.392 1.909.032 2.317-.804s.034-1.831-.837-2.224-1.909-.032-2.317.804-.034 1.831.837 2.224z"/></g><g clip-path="url(#u)" class="B D"><path d="M159.755 107.824l-1.55 1.263c-1.447-1.636-4.026-1.838-5.731-.449s-1.915 3.862-.468 5.498l-6.198 5.049c-1.447-1.635-4.026-1.837-5.731-.449s-1.915 3.863-.468 5.499l-1.55 1.262c-2.572 2.095-6.411 1.794-8.595-.674l-3.947-4.46 17.046-13.886c1.705-1.389 1.915-3.863.468-5.498l-9.209-10.409 2.851-2.323c1.116-.909 2.652-1.162 4.025-.695l6.584 2.287-1.999 1.628c-.852.694-.958 1.931-.234 2.749l3.947 4.461a2.1 2.1 0 0 0 2.865.225l4.649-3.787 3.947 4.461" class="C"/><path d="M145.34 124.685c1.711-1.395 1.921-3.856.468-5.499a4.19 4.19 0 0 0-5.731-.449c-1.711 1.394-1.921 3.856-.468 5.499a4.19 4.19 0 0 0 5.731.449zm12.397-10.102c1.712-1.394 1.921-3.856.468-5.498s-4.019-1.844-5.731-.449-1.921 3.856-.468 5.498a4.19 4.19 0 0 0 5.731.449zm-3.858-22.441l2.631 2.974-4.649 3.787a2.1 2.1 0 0 1-2.865-.225l-3.947-4.461a1.9 1.9 0 0 1 .234-2.749l1.999-1.628 6.597 2.302z"/></g><g clip-path="url(#v)" class="B D"><path d="M208.427 14.791l-5.521.959c-.382.064-.73.252-.986.531s-.406.634-.424 1.005l-.508 6.884-17.766-.312a13.32 13.32 0 0 0-5.482 1.093 12.83 12.83 0 0 0-4.479 3.226 12.18 12.18 0 0 0-2.625 4.746 11.85 11.85 0 0 0-.273 5.367c.164.873.684 1.647 1.443 2.152s1.697.7 2.607.543l15.087-2.621 4.41 4.603c.795.819 1.791 1.434 2.897 1.788a7.25 7.25 0 0 0 3.435.239l3.772-.655c.293-.053.567-.178.795-.361a1.68 1.68 0 0 0 .51-.687c.106-.267.139-.556.095-.839a1.64 1.64 0 0 0-.344-.776l-4.098-5.201 9.464-1.644c.91-.158 1.717-.656 2.243-1.385s.73-1.628.566-2.501l-2.793-14.806a1.67 1.67 0 0 0-.722-1.076 1.8 1.8 0 0 0-1.303-.271z"/></g><g clip-path="url(#w)" class="B D"><path d="M5.67 104.709l4.297-1.056c.296-.074.617-.024.908.142s.537.44.695.775l3.059 6.144 12.495-6.518c1.331-.687 2.807-1.001 4.322-.919s3.033.557 4.445 1.392 2.684 2.009 3.725 3.438 1.825 3.08 2.298 4.833c.225.859.16 1.752-.181 2.483s-.931 1.239-1.639 1.413l-11.742 2.885-1.328 5.774c-.243 1.031-.71 1.945-1.356 2.658s-1.454 1.203-2.346 1.424l-2.936.722c-.229.053-.472.035-.706-.053s-.452-.244-.632-.453a1.97 1.97 0 0 1-.396-.737c-.08-.275-.101-.562-.06-.834l.872-6.214-7.366 1.81c-.708.174-1.476 0-2.136-.485s-1.157-1.239-1.382-2.098l-3.82-14.578a1.85 1.85 0 0 1 .091-1.241c.171-.366.465-.62.819-.707z"/></g><g class="B D"><g class="C"><path d="M268.84 38.57a5.63 5.63 0 0 1 .063 2.641c-.189.873-.583 1.694-1.154 2.398s-1.3 1.275-2.135 1.667a6.31 6.31 0 0 1-5.364 0c-.835-.392-1.565-.962-2.135-1.667s-.965-1.525-1.154-2.398a5.63 5.63 0 0 1 .063-2.641m-16.16 1.463c0 1.552-.643 3.04-1.787 4.137s-2.694 1.714-4.312 1.714-3.168-.617-4.312-1.714-1.786-2.586-1.786-4.137h12.197z"/><path d="M253.06 15.164h3.049c.839 0 3.05.878 3.05 2.926v13.312c0 2.341-2.211 7.68-9.224 7.68"/></g><path d="M259.159 31.256h4.573c7.395 0 7.623 7.314 7.623 7.314h-17.914l5.718-7.314zm-22.869-1.463c-2.831 0-5.545 1.079-7.547 2.999s-3.126 4.525-3.126 7.241h24.394c0-2.716-1.124-5.32-3.126-7.241s-4.716-2.999-7.546-2.999h-3.049z"/><path d="M262.97 18.82v4.389m-20.658.731h-16.695c.763 4.462 5.26 5.851 10.596 5.851h3.05c2.379.081 4.748-.344 6.936-1.243 2.364-1.244 2.592-4.608-3.887-4.608z" class="C"/></g><g clip-path="url(#x)" class="D B"><g class="C"><path d="M70.249 68.202c.724.531 1.31 1.222 1.713 2.02s.612 1.684.611 2.588a5.99 5.99 0 0 1-.615 2.628c-.404.825-.991 1.555-1.716 2.133s-1.569.99-2.467 1.203a6.1 6.1 0 0 1-2.716.028c-.888-.195-1.713-.59-2.41-1.153a5.66 5.66 0 0 1-1.614-2.099M49.351 86.74c.977 1.21 1.414 2.771 1.213 4.338s-1.022 3.013-2.284 4.018-2.86 1.489-4.443 1.345a5.8 5.8 0 0 1-3.999-2.116l9.513-7.585z"/><path d="M43.199 59.76l2.378-1.896c.654-.522 2.931-1.212 4.221.386l8.385 10.382c1.474 1.825 3.114 7.365-2.356 11.726"/></g><path d="M58.091 68.518l3.567-2.844c5.767-4.598 10.553.964 10.553.964l-13.972 11.14-.148-9.26zm-18.758 13.08c-2.208 1.76-3.645 4.29-3.996 7.032s.412 5.473 2.123 7.591l19.025-15.169c-1.711-2.118-4.228-3.45-6.999-3.704s-5.567.593-7.775 2.354l-2.378 1.896z"/><path d="M53.232 56.448l2.764 3.423M40.345 73.288l-13.02 10.381c3.405 3.006 7.788 1.293 11.95-2.025l2.378-1.896a16.59 16.59 0 0 0 4.627-5.283c1.06-2.439-.881-5.206-5.935-1.176z" class="C"/></g><g clip-path="url(#y)" class="D B"><g class="C"><path d="M382.135 44.556l-5.449 8.64c-.963 1.528-1.262 3.353-.83 5.074s1.559 3.197 3.134 4.103l11.873 6.833 2.725-4.32m19.072-30.245l1.817-2.88-20.778-11.957a3.58 3.58 0 0 0-2.631-.364c-.898.22-1.672.772-2.154 1.536l-10.899 17.281c-.481.764-.631 1.676-.415 2.537a3.3 3.3 0 0 0 1.567 2.051l16.86 9.702m4.827.816l4.541-7.2"/></g><path d="M403.157 62.541c2.007-3.181.975-7.29-2.304-9.177s-7.563-.837-9.569 2.344-.975 7.29 2.304 9.177 7.563.837 9.569-2.344zm11.807-18.722c2.006-3.181.975-7.29-2.304-9.177s-7.563-.837-9.569 2.344-.975 7.29 2.304 9.177 7.563.837 9.569-2.344z"/></g><g clip-path="url(#z)" class="B D"><path d="M113.159 107.067a3.61 3.61 0 0 0 2.626-.45c.778-.478 1.326-1.233 1.524-2.1l1.493-6.532c.198-.866.03-1.772-.469-2.519s-1.285-1.273-2.188-1.463l-5.106-1.074-.889-8.129c-.082-.726-.41-1.406-.933-1.936s-1.213-.882-1.963-1.001l-13.65-2.872c-.734-.193-1.513-.151-2.22.121a3.45 3.45 0 0 0-1.692 1.384l-4.183 7.062-6.808-1.432c-.903-.19-1.847-.028-2.626.45s-1.327 1.234-1.525 2.1l-1.493 6.532a3.23 3.23 0 0 0 .469 2.519c.498.747 1.286 1.273 2.188 1.463" class="C"/><path d="M81.031 107.153c3.76.791 7.476-1.492 8.301-5.1s-1.555-7.173-5.315-7.964-7.476 1.492-8.301 5.1 1.555 7.174 5.315 7.965zm23.827 5.016c3.76.791 7.477-1.492 8.301-5.1s-1.555-7.174-5.315-7.965-7.476 1.492-8.301 5.1 1.555 7.173 5.315 7.965z"/><g class="C"><path d="M89.332 102.055l10.212 2.148m.119-23.936l1.493-6.532"/></g></g><g clip-path="url(#AA)" class="D B"><g class="C"><path d="M137.128 63.079l-9.661-7.863 15.23-17.911a3.38 3.38 0 0 1 2.327-1.168c.913-.069 1.827.218 2.541.799l12.11 9.856c2.855 2.324 4.677 5.63 5.063 9.193a12.93 12.93 0 0 1-3.001 9.803l-6.527 7.676c-.577.679-1.414 1.099-2.327 1.168s-1.827-.218-2.541-.799l-5.624-4.578m-17.252-14.042l-9.419-7.666 4.352-5.117"/></g><path d="M136.571 71.282c2.23 1.815 5.499 1.567 7.301-.553s1.456-5.309-.773-7.123-5.498-1.567-7.301.553-1.456 5.309.773 7.123z"/><path d="M147.765 50.086l8.074 6.571" class="C"/></g><g clip-path="url(#AB)" class="D B"><g class="C"><path d="M304.603 123.882l12.192 2.691 5.468-22.811c.207-.864.048-1.772-.443-2.523a3.49 3.49 0 0 0-2.172-1.485l-15.283-3.372a14.44 14.44 0 0 0-10.521 1.698c-3.133 1.882-5.359 4.882-6.188 8.339l-2.343 9.775c-.207.865-.048 1.772.442 2.524a3.48 3.48 0 0 0 2.173 1.484l7.098 1.567m21.769 4.801l11.887 2.623 1.562-6.517"/></g><path d="M298.252 129.339c-2.813-.621-4.569-3.312-3.922-6.012s3.452-4.384 6.265-3.764 4.57 3.313 3.923 6.012-3.452 4.385-6.266 3.764z"/><path d="M308.814 107.656l-10.188-2.248" class="C"/></g><g clip-path="url(#AC)" class="D B"><g class="C"><path d="M376.457 19.858l-5.472 2.373-4.822-10.237c-.183-.388-.198-.83-.041-1.228a1.64 1.64 0 0 1 .876-.896l6.859-2.975a6.95 6.95 0 0 1 5.118-.156c1.66.601 3.004 1.811 3.735 3.362l2.066 4.388c.183.388.198.83.041 1.228s-.472.721-.876.896l-3.186 1.381m-9.77 4.235l-5.335 2.314-1.378-2.925"/></g><path d="M379.984 21.849c1.263-.548 1.824-1.974 1.253-3.185s-2.057-1.75-3.32-1.202-1.823 1.974-1.253 3.185 2.058 1.75 3.32 1.202z"/><path d="M372.875 12.606l4.573-1.983" class="C"/></g><g clip-path="url(#AD)" class="B D"><path d="M325.019 57.294l-36.617-25.594-2.723 9.266c-.383 1.316-.336 2.713.134 4.003s1.34 2.411 2.494 3.212l20.336 14.215c1.148.808 2.527 1.259 3.95 1.293a7.19 7.19 0 0 0 4.013-1.105l8.413-5.289z"/><g class="C"><path d="M305.302 43.511l18.468-24.323m-.001 0l-26.394 6.371 14.083 9.844m13.841-6.872l1.65 17.701-9.858-6.891"/></g></g><g clip-path="url(#AE)" class="B D"><path d="M198.864 72.127l-21.742.377 1.754 4.304c.251.61.691 1.132 1.26 1.495s1.24.55 1.924.537l12.075-.209a3.44 3.44 0 0 0 1.902-.603 3.23 3.23 0 0 0 1.203-1.538l1.624-4.362z"/><g class="C"><path d="M187.157 72.329l-.272-14.442m0 .003l-8.181 9.773 8.362-.145m3.224-6.479l5.975 6.317-5.854.101"/></g></g><g class="B D"><path d="M475.013 80.018l-21.742.377 1.754 4.304a3.24 3.24 0 0 0 1.259 1.495 3.45 3.45 0 0 0 1.924.537l12.075-.209a3.44 3.44 0 0 0 1.903-.603c.555-.383.975-.919 1.202-1.538l1.625-4.362z"/><path d="M463.305 80.219l-.272-14.442m-.001.004l-8.181 9.773 8.362-.145m3.226-6.479l5.974 6.317-5.853.102" class="C"/><path d="M945.013 81.01l-21.742.377 1.754 4.304a3.24 3.24 0 0 0 1.259 1.495 3.45 3.45 0 0 0 1.924.536l12.075-.209a3.44 3.44 0 0 0 1.903-.603 3.22 3.22 0 0 0 1.202-1.538l1.625-4.362z"/><path d="M933.305 81.212l-.272-14.442m-.001.003l-8.181 9.773 8.362-.145m3.226-6.479l5.974 6.317-5.853.102" class="C"/></g><g clip-path="url(#AF)" class="B D"><path d="M361.864 42.088l-21.742.377 1.754 4.304c.251.61.691 1.132 1.26 1.495s1.24.55 1.924.536l12.075-.209a3.44 3.44 0 0 0 1.902-.603 3.23 3.23 0 0 0 1.203-1.538l1.624-4.362z"/><g class="C"><path d="M350.157 42.29l-.272-14.442m0 .003l-8.181 9.773 8.362-.145M353.29 31l5.975 6.317-5.854.101"/></g></g><g class="B D"><path d="M433.235 71.578h-15.054c-.924 0-1.673.719-1.673 1.605V88.43c0 .886.749 1.605 1.673 1.605h15.054c.924 0 1.673-.719 1.673-1.605V73.183c0-.886-.749-1.605-1.673-1.605z"/><path d="M419.854 90.035v2.407m11.708-2.407v2.407m-15.054-10.43h18.4" class="C"/><use xlink:href="#AU" x="273" y="67.567"/><use xlink:href="#AU" x="283.036" y="67.567"/></g><g clip-path="url(#AG)" class="D B"><g class="C"><path d="M290.863 70.981h-5.018a3.42 3.42 0 0 0-2.366.94c-.627.602-.98 1.419-.98 2.27v6.42h2.509m17.564-.002h1.673V69.375c0-.426-.177-.834-.49-1.135a1.71 1.71 0 0 0-1.183-.47h-10.036a1.71 1.71 0 0 0-1.183.47 1.57 1.57 0 0 0-.49 1.135v9.116m.836 2.118h4.182"/></g><path d="M288.354 83.818c1.847 0 3.345-1.437 3.345-3.21s-1.498-3.21-3.345-3.21-3.346 1.437-3.346 3.21 1.498 3.21 3.346 3.21zm10.872 0c1.848 0 3.346-1.437 3.346-3.21s-1.498-3.21-3.346-3.21-3.345 1.437-3.345 3.21 1.498 3.21 3.345 3.21z"/></g><g clip-path="url(#AH)" class="B D"><path d="M250.758 60.958l-13.365 4.798c-4.741 1.702-4.905 4.343-4.432 7.338l1.702 10.655 30.463-10.935-6.005-9.111c-1.692-2.558-3.622-4.447-8.363-2.746z"/><g class="C"><path d="M233.884 89.716c-.802-2.836-1.126-5.281 3.863-7.072l24.294-8.721c4.988-1.791 6.416.258 7.751 2.903l5.404 10.743c1.043 2.062-.027 4.55-2.312 5.37l-3.579 1.285c-2.057.738-2.67 0-3.438-.911l-.808-.959c-1.117-1.307-1.851-2.188-4.593-1.204l-9.748 3.499c-2.742.984-2.7 2.26-2.642 3.801l.047 1.233c.044 1.171.086 2.114-1.97 2.852l-3.579 1.285c-2.285.82-4.794-.383-5.418-2.595l-1.106-3.893m-3.522-19.062l-1.904.683m34.271-12.3l-1.904.683m-18.793-3.668l1.424 3.654m-2.856 1.026l5.712-2.05"/><path d="M241.322 89.691l5.711-2.05m11.424-4.098l5.712-2.05"/></g></g><g clip-path="url(#AI)" class="D B"><g class="C"><path d="M180.57 99.72c-.567-4.276 2.584-8.18 7.041-8.723l18.149-2.213 2.563 19.349c.282 2.128-1.303 4.091-3.521 4.362l-22.182 2.704-.772-5.824"/><path d="M218.439 122.629l-2.016.246c-.282-2.129-2.328-3.649-4.546-3.378s-3.803 2.233-3.521 4.361l-8.066.984c-.282-2.129-2.327-3.649-4.546-3.378s-3.802 2.233-3.52 4.361l-2.017.246c-3.347.408-6.393-1.855-6.818-5.067l-.769-5.805 22.182-2.704c2.218-.271 3.803-2.234 3.521-4.362l-1.794-13.544 3.711-.452a4.18 4.18 0 0 1 3.767 1.526l4.215 5.365-2.602.317c-1.109.135-1.901 1.116-1.76 2.181l.769 5.804c.141 1.065 1.164 1.825 2.273 1.689l6.049-.737.769 5.804"/></g><path d="M196.769 129.201c2.228-.272 3.804-2.224 3.521-4.362s-2.318-3.649-4.546-3.378-3.803 2.225-3.52 4.362 2.318 3.65 4.545 3.378zm16.133-1.965c2.228-.271 3.804-2.224 3.521-4.361s-2.318-3.65-4.546-3.378-3.804 2.224-3.521 4.361 2.319 3.65 4.546 3.378zm9.537-20.825l.512 3.87-6.049.737c-1.109.136-2.132-.624-2.273-1.689l-.769-5.804c-.141-1.064.651-2.046 1.76-2.181l2.602-.317 4.217 5.384z"/></g><g clip-path="url(#AJ)" class="D B"><g class="C"><path d="M83.884 134.934a2.75 2.75 0 0 1-.517 1.167c-.263.346-.605.629-.999.829a3.01 3.01 0 0 1-1.278.323 3.04 3.04 0 0 1-1.296-.248c-.406-.177-.765-.441-1.05-.771s-.486-.718-.59-1.134a2.7 2.7 0 0 1-.009-1.268 2.76 2.76 0 0 1 .573-1.143m-7.368-2.431c-.32.678-.908 1.207-1.635 1.47s-1.532.237-2.239-.07-1.258-.872-1.532-1.569-.247-1.47.073-2.149l5.333 2.318z"/><path d="M81.815 121.703l1.333.58c.367.159 1.152.963.73 1.858l-2.747 5.821c-.483 1.023-2.552 2.938-5.618 1.605"/></g><path d="M81.161 129.896l2 .869c3.233 1.405 1.824 4.646 1.824 4.646l-7.833-3.404 4.009-2.111zm-9.697-4.985c-1.238-.538-2.647-.582-3.919-.123s-2.301 1.385-2.861 2.572l10.666 4.635c.561-1.187.606-2.54.128-3.76s-1.443-2.207-2.681-2.745l-1.333-.579z"/><path d="M85.394 125.183l-.906 1.919m-9.184-3.605l-7.3-3.172c-.588 2.095 1.092 3.558 3.425 4.571l1.333.58c1.024.487 2.147.752 3.29.774 1.29-.094 2.084-1.522-.749-2.753z" class="C"/></g><g clip-path="url(#AK)" class="D B"><g class="C"><path d="M255.457 130.143l-5.472 2.373-4.822-10.237c-.183-.388-.198-.83-.041-1.228a1.64 1.64 0 0 1 .876-.896l6.859-2.974c1.617-.702 3.458-.758 5.118-.156s3.004 1.81 3.735 3.362l2.066 4.387c.183.388.198.83.041 1.228a1.64 1.64 0 0 1-.876.896l-3.186 1.381m-9.77 4.235l-5.335 2.313-1.378-2.925"/></g><path d="M258.984 132.134c1.263-.547 1.824-1.973 1.253-3.185s-2.057-1.75-3.32-1.202-1.823 1.973-1.253 3.185 2.058 1.75 3.32 1.202z"/><path d="M251.875 122.891l4.573-1.983" class="C"/></g><g clip-path="url(#AL)" class="F B"><g class="C"><path d="M446.899 38.271l-12.192-2.69 5.467-22.81c.207-.864.764-1.614 1.547-2.085a3.61 3.61 0 0 1 2.63-.425l15.283 3.372c3.603.795 6.729 2.931 8.69 5.937s2.599 6.638 1.77 10.095l-2.343 9.776c-.207.864-.764 1.614-1.547 2.085a3.61 3.61 0 0 1-2.63.425l-7.098-1.566m-21.769-4.803l-11.887-2.623 1.562-6.517"/></g><use xlink:href="#AV"/><path d="M450.498 21.914l10.189 2.248" class="C"/></g><g clip-path="url(#AM)" class="F B"><g class="C"><path d="M918.898 41.271l-12.192-2.69 5.468-22.81a3.35 3.35 0 0 1 1.547-2.085 3.61 3.61 0 0 1 2.63-.425l15.282 3.373c3.603.795 6.729 2.931 8.691 5.937s2.598 6.638 1.77 10.095l-2.344 9.776a3.35 3.35 0 0 1-1.547 2.085 3.61 3.61 0 0 1-2.63.425l-7.098-1.566m-21.769-4.804l-11.886-2.623 1.562-6.517"/></g><path d="M922.125 48.845c2.813.621 5.619-1.064 6.266-3.764s-1.109-5.391-3.923-6.012-5.619 1.064-6.266 3.764 1.11 5.391 3.923 6.012z"/><path d="M922.498 24.914l10.188 2.248" class="C"/></g><g clip-path="url(#AN)" class="F B"><g class="C"><path d="M445.199 121.102h-5.018a3.42 3.42 0 0 0-2.366.94c-.627.602-.98 1.418-.98 2.269v6.42h2.51"/><use xlink:href="#AW"/><path d="M446.035 130.73h4.182"/></g><use xlink:href="#AX"/><use xlink:href="#AY"/></g><g clip-path="url(#AO)" class="F B"><g class="C"><path d="M914.199 121.102h-5.018a3.42 3.42 0 0 0-2.366.94c-.627.602-.98 1.418-.98 2.269v6.42h2.51m17.563-.001h1.673v-11.234c0-.426-.177-.834-.49-1.135a1.71 1.71 0 0 0-1.183-.47h-10.036a1.71 1.71 0 0 0-1.183.47 1.57 1.57 0 0 0-.49 1.135v9.116m.836 2.118h4.182"/></g><path d="M911.69 133.939c1.848 0 3.346-1.437 3.346-3.21s-1.498-3.209-3.346-3.209-3.345 1.437-3.345 3.209 1.498 3.21 3.345 3.21zm10.873 0c1.847 0 3.345-1.437 3.345-3.21s-1.498-3.209-3.345-3.209-3.346 1.437-3.346 3.209 1.498 3.21 3.346 3.21z"/></g><defs><clipPath id="A"><path transform="translate(1082 4.207)" d="M0 0h23.418v22.469H0z" class="E"/></clipPath><clipPath id="B"><path transform="matrix(.99005 .140718 -.173767 .984787 1312.22 89.6562)" d="M0 0h48.312v47.298H0z" class="E"/></clipPath><clipPath id="C"><path transform="matrix(.911893 .410427 -.439204 .898387 1279.72 56.8672)" d="M0 0h48.437v47.174H0z" class="E"/></clipPath><clipPath id="D"><path transform="matrix(.911893 .410427 -.439204 .898387 962.718 2.98047)" d="M0 0h48.437v47.174H0z" class="E"/></clipPath><clipPath id="E"><path transform="matrix(.775323 -.631565 .662652 .748927 1045 103.062)" d="M0 0h47.969v47.649H0z" class="E"/></clipPath><clipPath id="F"><path transform="matrix(-.971111 .238629 .253466 .967344 978.362 88.4297)" d="M0 0h38.474v46.884H0z" class="E"/></clipPath><clipPath id="G"><path transform="matrix(.931966 -.362547 .366617 .930372 959.464 63.1875)" d="M0 0h48.746v46.852H0z" class="E"/></clipPath><clipPath id="H"><path transform="matrix(.693766 -.7202 .748167 .663511 1295.84 45.0938)" d="M0 0h47.732v47.887H0z" class="E"/></clipPath><clipPath id="I"><path transform="matrix(.978571 .205909 -.222811 .974862 1019.45 64.8164)" d="M0 0h48.698v46.904H0z" class="E"/></clipPath><clipPath id="J"><path transform="matrix(.775601 .631224 -.647813 .761799 1079.46 21.8594)" d="M0 0h48.579v47.022H0z" class="E"/></clipPath><clipPath id="K"><path transform="matrix(-.976507 -.215487 -.233091 .972455 1279.19 97.9805)" d="M0 0h48.69v46.912H0z" class="E"/></clipPath><clipPath id="L"><path transform="matrix(.91744 -.397873 .426147 .904654 1299 11.2422)" d="M0 0h23.26v22.633H0z" class="E"/></clipPath><clipPath id="M"><path transform="matrix(.819621 .572907 -.604702 .796452 1247.49 6.03516)" d="M0 0h48.111v47.506H0z" class="E"/></clipPath><clipPath id="N"><path transform="matrix(.99985 -.017335 .018829 .999823 1117 58.2656)" d="M0 0h23.417v22.47H0z" class="E"/></clipPath><clipPath id="O"><path transform="matrix(.99985 -.017335 .018829 .999823 988.999 105.727)" d="M0 0h23.417v22.47H0z" class="E"/></clipPath><clipPath id="P"><path transform="matrix(.99985 -.017335 .018829 .999823 1280 28.2266)" d="M0 0h23.417v22.47H0z" class="E"/></clipPath><clipPath id="Q"><path transform="translate(1222.66 63.148)" d="M0 0h23.418v22.469H0z" class="E"/></clipPath><clipPath id="R"><path transform="matrix(.941199 -.337854 .363268 .931685 1160.21 67.3828)" d="M0 0h48.549v47.058H0z" class="E"/></clipPath><clipPath id="S"><path transform="matrix(.992648 -.121034 .131294 .991343 1116 89.5938)" d="M0 0h48.756v46.843H0z" class="E"/></clipPath><clipPath id="T"><path transform="matrix(.917146 .39855 -.426852 .904321 1031.66 114.262)" d="M0 0h23.259v22.634H0z" class="E"/></clipPath><clipPath id="U"><path transform="matrix(.91744 -.397873 .426147 .904654 1178 121.531)" d="M0 0h23.26v22.633H0z" class="E"/></clipPath><clipPath id="V"><path transform="translate(611.999 4.207)" d="M0 0h23.418v22.469H0z" class="E"/></clipPath><clipPath id="W"><path transform="matrix(.99005 .140718 -.173767 .984787 842.218 89.6562)" d="M0 0h48.312v47.298H0z" class="E"/></clipPath><clipPath id="X"><path transform="matrix(.911893 .410427 -.439204 .898387 809.718 56.8672)" d="M0 0h48.437v47.174H0z" class="E"/></clipPath><clipPath id="Y"><path transform="matrix(.911893 .410427 -.439204 .898387 492.718 2.98047)" d="M0 0h48.437v47.174H0z" class="E"/></clipPath><clipPath id="Z"><path transform="matrix(.775323 -.631565 .662652 .748927 577.999 108.297)" d="M0 0h47.969v47.649H0z" class="E"/></clipPath><clipPath id="a"><path transform="matrix(-.971111 .238629 .253466 .967344 508.362 88.4297)" d="M0 0h38.474v46.884H0z" class="E"/></clipPath><clipPath id="b"><path transform="matrix(.709699 .704505 -.67539 .737461 877.39 20)" d="M0 0h47.661v47.956H0z" class="E"/></clipPath><clipPath id="c"><path transform="matrix(.978571 .205909 -.222811 .974862 549.448 64.8164)" d="M0 0h48.698v46.904H0z" class="E"/></clipPath><clipPath id="d"><path transform="matrix(.775601 .631224 -.647813 .761799 609.46 21.8594)" d="M0 0h48.579v47.022H0z" class="E"/></clipPath><clipPath id="e"><path transform="matrix(-.976507 -.215487 -.233091 .972455 809.19 97.9805)" d="M0 0h48.69v46.912H0z" class="E"/></clipPath><clipPath id="f"><path transform="matrix(.91744 -.397873 .426147 .904654 828.999 11.2422)" d="M0 0h23.26v22.633H0z" class="E"/></clipPath><clipPath id="g"><path transform="matrix(.819621 .572907 -.604702 .796452 777.726 2)" d="M0 0h48.111v47.506H0z" class="E"/></clipPath><clipPath id="h"><path transform="matrix(.99985 -.017335 .018829 .999823 646.999 58.2656)" d="M0 0h23.417v22.47H0z" class="E"/></clipPath><clipPath id="i"><path transform="matrix(.99985 -.017335 .018829 .999823 518.999 105.727)" d="M0 0h23.417v22.47H0z" class="E"/></clipPath><clipPath id="j"><path transform="matrix(.99985 -.017335 .018829 .999823 809.999 28.2266)" d="M0 0h23.417v22.47H0z" class="E"/></clipPath><clipPath id="k"><path transform="translate(890.999 87)" d="M0 0h23.418v22.469H0z" class="E"/></clipPath><clipPath id="l"><path transform="translate(752.663 63.148)" d="M0 0h23.418v22.469H0z" class="E"/></clipPath><clipPath id="m"><path transform="matrix(.941199 -.337854 .363268 .931685 690.214 67.3828)" d="M0 0h48.549v47.058H0z" class="E"/></clipPath><clipPath id="n"><path transform="matrix(.992648 -.121034 .131294 .991343 645.999 89.5938)" d="M0 0h48.756v46.843H0z" class="E"/></clipPath><clipPath id="o"><path transform="matrix(.917146 .39855 -.426852 .904321 561.659 114.262)" d="M0 0h23.259v22.634H0z" class="E"/></clipPath><clipPath id="p"><path transform="matrix(.91744 -.397873 .426147 .904654 707.999 121.531)" d="M0 0h23.26v22.633H0z" class="E"/></clipPath><clipPath id="q"><path transform="translate(140.999 3.211)" d="M0 0h23.418v22.469H0z" class="E"/></clipPath><clipPath id="r"><path transform="matrix(.99005 .140718 -.173767 .984787 371.218 88.6641)" d="M0 0h48.312v47.298H0z" class="E"/></clipPath><clipPath id="s"><path transform="matrix(.911893 .410427 -.439204 .898387 338.718 55.875)" d="M0 0h48.437v47.174H0z" class="E"/></clipPath><clipPath id="t"><path transform="matrix(.911893 .410427 -.439204 .898387 21.7178 1.98438)" d="M0 0h48.437v47.174H0z" class="E"/></clipPath><clipPath id="u"><path transform="matrix(.775323 -.631565 .662652 .748927 103.999 102.07)" d="M0 0h47.969v47.649H0z" class="E"/></clipPath><clipPath id="v"><path transform="matrix(.98525 -.171124 .185388 .982665 162.999 13.3359)" d="M0 0h48.726v46.875H0z" class="E"/></clipPath><clipPath id="w"><path transform="matrix(-.971111 .238629 .253466 .967344 37.3623 87.4375)" d="M0 0h38.474v46.884H0z" class="E"/></clipPath><clipPath id="x"><path transform="matrix(.781895 -.62341 .628312 .777961 15.9989 72.0664)" d="M0 0h48.665v46.93H0z" class="E"/></clipPath><clipPath id="y"><path transform="matrix(.533445 -.845835 .86673 .498778 355.819 51)" d="M0 0h47.671v47.946H0z" class="E"/></clipPath><clipPath id="z"><path transform="matrix(.978571 .205909 -.222811 .974862 78.4482 63.8203)" d="M0 0h48.698v46.904H0z" class="E"/></clipPath><clipPath id="AA"><path transform="matrix(.775601 .631224 -.647813 .761799 138.46 20.8672)" d="M0 0h48.579v47.022H0z" class="E"/></clipPath><clipPath id="AB"><path transform="matrix(-.976507 -.215487 -.233091 .972455 338.19 96.9844)" d="M0 0h48.69v46.912H0z" class="E"/></clipPath><clipPath id="AC"><path transform="matrix(.91744 -.397873 .426147 .904654 357.999 10.25)" d="M0 0h23.26v22.633H0z" class="E"/></clipPath><clipPath id="AD"><path transform="matrix(.819621 .572907 -.604702 .796452 306.487 5.03906)" d="M0 0h48.111v47.506H0z" class="E"/></clipPath><clipPath id="AE"><path transform="matrix(.99985 -.017335 .018829 .999823 175.999 57.2734)" d="M0 0h23.417v22.47H0z" class="E"/></clipPath><clipPath id="AF"><path transform="matrix(.99985 -.017335 .018829 .999823 338.999 27.2344)" d="M0 0h23.417v22.47H0z" class="E"/></clipPath><clipPath id="AG"><path transform="translate(281.663 62.152)" d="M0 0h23.418v22.469H0z" class="E"/></clipPath><clipPath id="AH"><path transform="matrix(.941199 -.337854 .363268 .931685 219.214 66.3906)" d="M0 0h48.549v47.058H0z" class="E"/></clipPath><clipPath id="AI"><path transform="matrix(.992648 -.121034 .131294 .991343 174.999 88.6016)" d="M0 0h48.756v46.843H0z" class="E"/></clipPath><clipPath id="AJ"><path transform="matrix(.917146 .39855 -.426852 .904321 70.6591 113)" d="M0 0h23.259v22.634H0z" class="E"/></clipPath><clipPath id="AK"><path transform="matrix(.91744 -.397873 .426147 .904654 236.999 120.535)" d="M0 0h23.26v22.633H0z" class="E"/></clipPath><clipPath id="AL"><path transform="matrix(.976507 .215487 -.233091 .972455 428.933 0)" d="M0 0h48.69v46.912H0z" class="E"/></clipPath><clipPath id="AM"><path transform="matrix(.976507 .215487 -.233091 .972455 900.933 3)" d="M0 0h48.69v46.912H0z" class="E"/></clipPath><clipPath id="AN"><path transform="translate(435.999 112.273)" d="M0 0h23.418v22.469H0z" class="E"/></clipPath><clipPath id="AO"><path transform="translate(904.999 112.273)" d="M0 0h23.418v22.469H0z" class="E"/></clipPath><path id="AP" d="M979.468 47.452c.871.392 1.909.032 2.318-.804s.033-1.831-.838-2.224-1.909-.032-2.317.804-.034 1.831.837 2.224z"/><path id="AQ" d="M618.69 20.253c.462 0 .836-.359.836-.802s-.374-.803-.836-.803-.836.359-.836.803.374.802.836.802z"/><path id="AR" d="M509.468 47.452c.871.392 1.909.032 2.317-.804s.034-1.831-.837-2.224-1.909-.032-2.318.804-.033 1.831.838 2.224z"/><path id="AS" d="M759.354 84.814c1.848 0 3.346-1.437 3.346-3.21s-1.498-3.21-3.346-3.21-3.345 1.437-3.345 3.21 1.498 3.21 3.345 3.21z"/><path id="AT" d="M770.227 84.814c1.847 0 3.345-1.437 3.345-3.21s-1.498-3.21-3.345-3.21-3.346 1.437-3.346 3.21 1.498 3.21 3.346 3.21z"/><path id="AU" d="M147.69 19.257c.462 0 .836-.359.836-.803s-.374-.802-.836-.802-.836.359-.836.802.374.803.836.803z"/><path id="AV" d="M450.125 45.845c2.813.621 5.619-1.064 6.266-3.764s-1.109-5.391-3.923-6.012-5.619 1.064-6.266 3.764 1.11 5.391 3.923 6.012z"/><path id="AW" d="M456.908 130.73h1.673v-11.234c0-.426-.177-.834-.49-1.135a1.71 1.71 0 0 0-1.183-.47h-10.036a1.71 1.71 0 0 0-1.183.47 1.57 1.57 0 0 0-.49 1.135v9.116"/><path id="AX" d="M442.69 133.939c1.847 0 3.345-1.437 3.345-3.21s-1.498-3.209-3.345-3.209-3.346 1.437-3.346 3.209 1.498 3.21 3.346 3.21z"/><path id="AY" d="M453.562 133.939c1.848 0 3.346-1.437 3.346-3.21s-1.498-3.209-3.346-3.209-3.345 1.437-3.345 3.209 1.498 3.21 3.345 3.21z"/></defs></svg>