<svg width="80" height="86" viewBox="0 0 80 86" fill="none" xmlns="http://www.w3.org/2000/svg">
<path d="M63.4009 16.9206C62.8282 14.2298 61.6827 11.953 59.9646 9.88322C58.6283 7.60644 56.9101 5.9506 54.6194 4.70872C53.8558 4.29476 53.0923 3.88085 52.3287 3.46689C50.8015 2.22501 49.0835 1.39711 47.1745 0.776175C43.7383 -0.258725 39.9202 -0.258725 36.2931 0.776175C31.9024 2.01805 28.4662 4.70877 25.7936 8.64139C24.8391 10.0902 24.4573 10.7111 23.8846 11.539C20.8302 16.5065 20.4485 22.716 21.5939 28.5114C22.5484 33.065 25.7937 36.9976 29.4208 39.4813C30.9479 40.5162 32.2842 40.9303 34.1932 41.7582C34.575 41.9652 34.9568 41.9652 35.3386 42.1722C36.8658 42.5861 38.9658 43 40.6839 43C41.6383 43 42.5928 43.0001 43.5473 42.7931C45.6472 43.0001 47.7472 42.7931 50.038 42.1722C51.5652 41.5512 53.0922 40.7233 54.6194 40.1024C57.4828 38.2395 59.7736 35.7558 61.3008 32.8581C62.6371 30.5813 63.4009 27.8905 63.5918 25.1998C64.1644 22.3021 64.1645 19.6113 63.4009 16.9206Z" fill="#F4AB76"/>
<path d="M22.3327 65.9993H13.8328C9.0661 65.9993 6.66602 63.5993 6.66602 58.8326V19.8328C6.66602 15.0661 9.0661 12.666 13.8328 12.666H28.1661C32.9327 12.666 35.3326 15.0661 35.3326 19.8328V25.9993" stroke="#292D32" stroke-width="1.5" stroke-miterlimit="10" stroke-linecap="round" stroke-linejoin="round"/>
<path d="M57.9006 34.0666V71.2667C57.9006 76.6334 55.234 79.3333 49.8673 79.3333H30.4006C25.0339 79.3333 22.334 76.6334 22.334 71.2667V34.0666C22.334 28.6999 25.0339 26 30.4006 26H49.8673C55.234 26 57.9006 28.6999 57.9006 34.0666Z" stroke="#292D32" stroke-width="1.5" stroke-miterlimit="10" stroke-linecap="round" stroke-linejoin="round"/>
<path d="M44.666 25.9993V19.8328C44.666 15.0661 47.0659 12.666 51.8326 12.666H66.1659C70.9325 12.666 73.3326 15.0661 73.3326 19.8328V58.8326C73.3326 63.5993 70.9325 65.9993 66.1659 65.9993H57.8993" stroke="#292D32" stroke-width="1.5" stroke-miterlimit="10" stroke-linecap="round" stroke-linejoin="round"/>
<path d="M33.334 42.666H46.6673" stroke="#292D32" stroke-width="1.5" stroke-miterlimit="10" stroke-linecap="round" stroke-linejoin="round"/>
<path d="M33.334 52.666H46.6673" stroke="#292D32" stroke-width="1.5" stroke-miterlimit="10" stroke-linecap="round" stroke-linejoin="round"/>
<path d="M40 79.334V69.334" stroke="#292D32" stroke-width="1.5" stroke-miterlimit="10" stroke-linecap="round" stroke-linejoin="round"/>
</svg>
