<svg width="88" height="63" viewBox="0 0 88 63" fill="none" xmlns="http://www.w3.org/2000/svg">
<path d="M86.1509 27.0807C85.5782 24.39 84.4327 22.1132 82.7146 20.0434C81.3783 17.7666 79.6601 16.1108 77.3693 14.8689C76.6058 14.4549 75.8422 14.041 75.0787 13.627C73.5515 12.3852 71.8335 11.5573 69.9245 10.9363C66.4883 9.90143 62.6702 9.90143 59.0431 10.9363C54.6524 12.1782 51.2162 14.8689 48.5436 18.8015C47.5891 20.2504 47.2073 20.8713 46.6346 21.6992C43.5802 26.6667 43.1985 32.8761 44.3439 38.6716C45.2984 43.2251 48.5437 47.1577 52.1708 49.6415C53.6979 50.6764 55.0342 51.0904 56.9432 51.9183C57.325 52.1253 57.7068 52.1253 58.0886 52.3323C59.6158 52.7463 61.7158 53.1601 63.4338 53.1601C64.3883 53.1601 65.3428 53.1602 66.2973 52.9532C68.3972 53.1602 70.4972 52.9532 72.788 52.3323C74.3151 51.7114 75.8422 50.8834 77.3693 50.2625C80.2328 48.3997 82.5236 45.9159 84.0508 43.0182C85.3871 40.7414 86.1508 38.0507 86.3417 35.3599C86.9144 32.4622 86.9145 29.7715 86.1509 27.0807Z" fill="#F4AB76"/>
<path d="M28.7109 5.75H28.2109V6.25L28.2109 41.6656C28.2109 42.351 28.4832 43.0084 28.9679 43.4931C29.4525 43.9777 30.1099 44.25 30.7953 44.25L42.7734 44.25C44.1493 44.25 45.4687 43.7035 46.4416 42.7306C47.4144 41.7578 47.9609 40.4383 47.9609 39.0625C47.9609 37.6867 47.4144 36.3672 46.4416 35.3944C45.4687 34.4215 44.1493 33.875 42.7734 33.875H41.2109C39.6859 33.875 38.2234 33.2692 37.1451 32.1909C36.0667 31.1125 35.4609 29.65 35.4609 28.125V23.4375C35.4609 23.1557 35.5729 22.8855 35.7721 22.6862C35.9714 22.4869 36.2416 22.375 36.5234 22.375L69.3359 22.375C71.6897 22.375 73.9471 23.31 75.6115 24.9744C77.2759 26.6388 78.2109 28.8962 78.2109 31.25V31.293C76.9652 30.9388 75.6515 30.75 74.2922 30.75L61.5234 30.75C58.5121 30.7503 55.5749 31.6841 53.1163 33.4229C50.6577 35.1616 48.7985 37.6198 47.7949 40.459C46.7912 43.2981 46.6924 46.3786 47.5121 49.2762C48.2098 51.7427 49.5437 53.9734 51.3697 55.75L27.1753 55.75C28.4173 54.8193 29.2109 53.3321 29.2109 51.6906C29.2109 43.7553 23.9697 36.9126 16.7109 34.6588L16.7109 6.25C16.7109 4.72501 17.3167 3.26247 18.3951 2.18414C19.4734 1.1058 20.9359 0.5 22.4609 0.5L31.8359 0.5C32.5321 0.5 33.1998 0.776562 33.6921 1.26885C34.1844 1.76113 34.4609 2.42881 34.4609 3.125C34.4609 3.82119 34.1844 4.48887 33.6921 4.98115C33.1998 5.47344 32.5321 5.75 31.8359 5.75L28.7109 5.75Z" stroke="#2D4D58"/>
<path d="M3.23438 49.9102H1.42408C1.17819 49.9083 0.943013 49.8092 0.769881 49.6345C0.596497 49.4596 0.499459 49.2232 0.500003 48.9769V48.9758C0.500003 41.4804 6.5789 35.2852 14.0625 35.2852C21.5461 35.2852 27.625 41.4804 27.625 48.9758L27.625 48.9769C27.6256 49.2228 27.5288 49.459 27.3558 49.6338C27.1834 49.8082 26.9491 49.9075 26.7038 49.9102H24.8906H24.3151L24.3955 50.48C24.4641 50.9661 24.5 51.4644 24.5 51.9718C24.4974 53.4038 24.2002 54.82 23.6268 56.1323C23.0534 57.4445 22.2161 58.6247 21.1669 59.5995C20.1178 60.5742 18.8793 61.3226 17.5285 61.7982C16.1777 62.2737 14.7435 62.4662 13.3152 62.3637C11.8868 62.2611 10.4948 61.8658 9.22577 61.2021C7.95676 60.5385 6.83788 59.6209 5.93875 58.5063C5.03962 57.3917 4.37947 56.1039 3.99938 54.7233C3.61928 53.3426 3.52738 51.8984 3.72938 50.4807L3.81067 49.9102H3.23438ZM9.64063 49.9102H9.28649L9.16896 50.2442C8.89379 51.0265 8.81015 51.8632 8.92504 52.6845C9.03993 53.5057 9.35001 54.2874 9.82929 54.964C10.3086 55.6407 10.9431 56.1926 11.6796 56.5735C12.4162 56.9544 13.2333 57.1532 14.0625 57.1532C14.8917 57.1532 15.7088 56.9544 16.4454 56.5735C17.1819 56.1926 17.8164 55.6407 18.2957 54.964C18.775 54.2874 19.0851 53.5057 19.2 52.6845C19.3149 51.8632 19.2312 51.0265 18.956 50.2442L18.8385 49.9102H18.4844H9.64063ZM84.2656 53.0352H83.8329L83.7708 53.4635C83.4098 55.9551 82.1606 58.2325 80.2533 59.8759C78.346 61.5194 75.9091 62.4182 73.3914 62.407C70.8737 62.3957 68.4449 61.4751 66.5524 59.8146C64.6598 58.1542 63.431 55.8658 63.0923 53.371L63.0411 52.9933L62.6633 52.9427C60.0377 52.5909 57.6441 51.254 55.9677 49.2028C54.2913 47.1517 53.4575 44.5399 53.6354 41.8968C53.8133 39.2537 54.9895 36.7772 56.9256 34.9692C58.8617 33.1612 61.4129 32.157 64.0619 32.1602H64.0625H76.8313C79.5282 32.1602 82.1146 33.2315 84.0217 35.1385C85.9287 37.0455 87 39.632 87 42.3289V50.4102C87 51.1064 86.7235 51.774 86.2312 52.2663C85.7389 52.7586 85.0712 53.0352 84.375 53.0352H84.2656ZM69.0156 53.0352H68.3097L68.544 53.7011C68.9004 54.7144 69.5626 55.592 70.4392 56.2128C71.3157 56.8337 72.3634 57.1671 73.4375 57.1671C74.5117 57.1671 75.5593 56.8337 76.4359 56.2128C77.3124 55.592 77.9746 54.7144 78.3311 53.7011L78.5653 53.0352H77.8594H69.0156ZM38 14.9945C38 12.3927 40.1103 10.2852 42.7094 10.2852L60.4156 10.2852C63.0174 10.2852 65.125 12.3955 65.125 14.9945C65.125 15.2912 64.8823 15.5352 64.5844 15.5352L38.5406 15.5352C38.2439 15.5352 38 15.2924 38 14.9945Z" stroke="#2D4D58"/>
</svg>
