<svg width="80" height="81" viewBox="0 0 80 81" fill="none" xmlns="http://www.w3.org/2000/svg">
<g filter="url(#filter0_d_2392_29973)">
<path d="M48.4009 27.9206C47.8282 25.2298 46.6827 22.953 44.9646 20.8832C43.6283 18.6064 41.9101 16.9506 39.6194 15.7087C38.8558 15.2948 38.0923 14.8808 37.3287 14.4669C35.8015 13.225 34.0835 12.3971 32.1745 11.7762C28.7383 10.7413 24.9202 10.7413 21.2931 11.7762C16.9024 13.0181 13.4662 15.7088 10.7936 19.6414C9.83913 21.0902 9.45733 21.7111 8.88463 22.539C5.83024 27.5065 5.44854 33.716 6.59393 39.5114C7.54843 44.065 10.7937 47.9976 14.4208 50.4813C15.9479 51.5162 17.2842 51.9303 19.1932 52.7582C19.575 52.9652 19.9568 52.9652 20.3386 53.1722C21.8658 53.5861 23.9658 54 25.6839 54C26.6383 54 27.5928 54.0001 28.5473 53.7931C30.6472 54.0001 32.7472 53.7931 35.038 53.1722C36.5652 52.5512 38.0922 51.7233 39.6194 51.1024C42.4828 49.2395 44.7736 46.7558 46.3008 43.8581C47.6371 41.5813 48.4009 38.8905 48.5918 36.1998C49.1644 33.3021 49.1645 30.6113 48.4009 27.9206Z" fill="#F4AB76"/>
<path d="M54.8009 29.666C66.8009 30.6993 71.7009 36.866 71.7009 50.366V50.7993C71.7009 65.6993 65.7342 71.666 50.8342 71.666H29.1342C14.2342 71.666 8.26758 65.6993 8.26758 50.7993V50.366C8.26758 36.966 13.1009 30.7993 24.9009 29.6993" stroke="#333333" stroke-width="1.5" stroke-linecap="round" stroke-linejoin="round"/>
<path d="M40 6.66602V49.5994" stroke="#333333" stroke-width="1.5" stroke-linecap="round" stroke-linejoin="round"/>
<path d="M51.1673 42.166L40.0007 53.3327L28.834 42.166" stroke="#333333" stroke-width="1.5" stroke-linecap="round" stroke-linejoin="round"/>
</g>
<defs>
<filter id="filter0_d_2392_29973" x="-4" y="0" width="88" height="88" filterUnits="userSpaceOnUse" color-interpolation-filters="sRGB">
<feFlood flood-opacity="0" result="BackgroundImageFix"/>
<feColorMatrix in="SourceAlpha" type="matrix" values="0 0 0 0 0 0 0 0 0 0 0 0 0 0 0 0 0 0 127 0" result="hardAlpha"/>
<feOffset dy="4"/>
<feGaussianBlur stdDeviation="2"/>
<feComposite in2="hardAlpha" operator="out"/>
<feColorMatrix type="matrix" values="0 0 0 0 0 0 0 0 0 0 0 0 0 0 0 0 0 0 0.25 0"/>
<feBlend mode="normal" in2="BackgroundImageFix" result="effect1_dropShadow_2392_29973"/>
<feBlend mode="normal" in="SourceGraphic" in2="effect1_dropShadow_2392_29973" result="shape"/>
</filter>
</defs>
</svg>
