<svg width="80" height="80" viewBox="0 0 80 80" fill="none" xmlns="http://www.w3.org/2000/svg">
<path d="M26.9667 38.7662H11.3334C11.6001 23.1996 14.6667 20.6329 24.2334 14.9662C25.3334 14.2996 25.7001 12.8996 25.0334 11.7662C24.4001 10.6662 22.9667 10.2996 21.8667 10.9662C10.6001 17.6329 6.66675 21.6996 6.66675 41.0662V59.0329C6.66675 64.7329 11.3001 69.3329 16.9667 69.3329H26.9667C32.8334 69.3329 37.2667 64.8996 37.2667 59.0329V49.0329C37.2667 43.1996 32.8334 38.7662 26.9667 38.7662Z" fill="#B5E1E3"/>
<path d="M63.0333 38.7662H47.4C47.6666 23.1996 50.7333 20.6329 60.2999 14.9662C61.4 14.2996 61.7666 12.8996 61.0999 11.7662C60.4333 10.6662 59.0333 10.2996 57.9 10.9662C46.6333 17.6329 42.7 21.6996 42.7 41.0996V59.0662C42.7 64.7662 47.3333 69.3662 52.9999 69.3662H62.9999C68.8666 69.3662 73.2999 64.9329 73.2999 59.0662V49.0662C73.3333 43.1996 68.8999 38.7662 63.0333 38.7662Z" fill="#B5E1E3"/>
</svg>
