<svg width="1366" height="357" viewBox="0 0 1366 357" fill="none" xmlns="http://www.w3.org/2000/svg">
<path d="M732.282 0H1179V357H289L732.282 0Z" fill="#E3F3F3"/>
<path d="M919.282 0H1366V357H476L919.282 0Z" fill="#B5E1E3"/>
<line x1="580" y1="146.617" x2="580" y2="125.997" stroke="white" stroke-width="2" stroke-linecap="round"/>
<rect x="780" y="243.117" width="11" height="6.83305" fill="white"/>
<rect x="780" y="232.375" width="11" height="5.8569" rx="2.92845" fill="white"/>
<rect x="833" y="255.805" width="11" height="6.83305" fill="white"/>
<rect x="894" y="202.117" width="11" height="5.8569" fill="white"/>
<line x1="1.5" y1="-1.5" x2="152.893" y2="-1.5" transform="matrix(-0.0197065 0.999806 -0.999917 -0.0128623 579.686 174.781)" stroke="white" stroke-width="3" stroke-linecap="square"/>
<line x1="1.5" y1="-1.5" x2="152.872" y2="-1.5" transform="matrix(-0.0104651 -0.999945 0.999976 -0.00686214 582.107 329.156)" stroke="white" stroke-width="3" stroke-linecap="square"/>
<rect x="767.5" y="214.328" width="62" height="115.162" stroke="white"/>
<rect x="816.5" y="236.781" width="62" height="92.7105" stroke="white"/>
<path d="M858.873 290.495C858.873 294.019 856.594 297.284 852.752 299.694C848.917 302.099 843.587 303.603 837.675 303.603C831.762 303.603 826.433 302.099 822.597 299.694C818.755 297.284 816.477 294.019 816.477 290.495C816.477 288.739 817.181 286.681 818.435 284.501C819.685 282.329 821.458 280.075 823.542 277.938C827.661 273.713 832.939 269.999 837.656 268.288C841.515 270.007 846.793 273.723 851.134 277.947C853.335 280.089 855.28 282.346 856.671 284.521C858.068 286.706 858.873 288.756 858.873 290.495Z" fill="#E3F3F3" stroke="white"/>
<path d="M835.201 298.05C835.201 302.161 832.486 305.963 827.928 308.763C823.378 311.558 817.061 313.303 810.057 313.303C803.053 313.303 796.736 311.558 792.187 308.763C787.629 305.963 784.914 302.161 784.914 298.05C784.914 293.939 787.629 290.137 792.187 287.337C796.736 284.542 803.053 282.797 810.057 282.797C817.061 282.797 823.378 284.542 827.928 287.337C832.486 290.137 835.201 293.939 835.201 298.05Z" fill="#E3F3F3" stroke="white"/>
<line x1="811.562" y1="313.805" x2="811.562" y2="329.962" stroke="white" stroke-width="3"/>
<line x1="839.176" y1="304.102" x2="839.176" y2="329.953" stroke="white" stroke-width="3"/>
<rect x="780" y="222.617" width="11" height="5.8569" fill="white"/>
<rect x="854" y="245.07" width="11" height="5.8569" fill="white"/>
<rect x="801" y="222.617" width="11" height="5.8569" fill="white"/>
<rect x="854" y="255.805" width="11" height="6.83305" fill="white"/>
<rect x="879.5" y="194.805" width="62" height="134.685" stroke="white"/>
<rect x="894" y="233.352" width="11" height="5.8569" rx="2.92845" fill="white"/>
<rect x="916" y="210.906" width="10" height="6.83305" rx="3.41653" fill="white"/>
<rect x="916" y="202.117" width="10" height="5.8569" rx="2.92845" fill="white"/>
<rect x="922.5" y="236.5" width="61" height="93" stroke="white"/>
<rect x="932" y="246.047" width="11" height="5.8569" fill="white"/>
<rect x="932" y="267.516" width="11" height="5.8569" fill="white"/>
<rect x="959" y="248" width="11" height="5.8569" fill="white"/>
<path d="M578.025 174.633L555.066 165.101C551.367 163.566 551.367 158.325 555.066 156.789L578.025 147.258C579.13 146.799 580.372 146.799 581.476 147.258L604.435 156.789C608.134 158.325 608.134 163.566 604.435 165.101L581.476 174.633C580.372 175.092 579.13 175.092 578.025 174.633Z" fill="white" stroke="white"/>
<rect x="694" y="233.352" width="11" height="5.8569" fill="white"/>
<rect x="530" y="207.977" width="11" height="6.83305" rx="3.41653" fill="white"/>
<rect x="672" y="255.805" width="11" height="5.8569" fill="white"/>
<rect x="586" y="249.945" width="10" height="5.8569" fill="white"/>
<rect x="634" y="226.523" width="10" height="6.83305" rx="3.41653" fill="white"/>
<rect x="603.5" y="204.57" width="62" height="124.923" stroke="white"/>
<rect x="383.5" y="202.617" width="55" height="126.876" stroke="#E6E6E6"/>
<rect x="594.5" y="220.188" width="62" height="109.305" stroke="white"/>
<rect x="493.5" y="201.641" width="63" height="127.852" stroke="#E6E6E6"/>
<rect x="425.5" y="184.07" width="62" height="145.423" stroke="#E6E6E6"/>
<rect x="463.5" y="241.664" width="61" height="87.8297" stroke="white"/>
<rect x="549.5" y="225.07" width="62" height="104.424" stroke="white"/>
<rect x="656.5" y="225.07" width="62" height="104.424" stroke="white"/>
<path d="M723.751 294.415C723.751 298.644 721.03 302.546 716.474 305.416C711.925 308.283 705.61 310.072 698.608 310.072C691.606 310.072 685.291 308.283 680.742 305.416C676.187 302.546 673.465 298.644 673.465 294.415C673.465 290.186 676.187 286.283 680.742 283.413C685.291 280.547 691.606 278.758 698.608 278.758C705.61 278.758 711.925 280.547 716.474 283.413C721.03 286.283 723.751 290.186 723.751 294.415Z" fill="white" stroke="#E6E6E6"/>
<path d="M517.619 302.62C517.619 306.144 515.34 309.409 511.498 311.819C507.663 314.224 502.334 315.728 496.421 315.728C490.508 315.728 485.179 314.224 481.344 311.819C477.502 309.409 475.223 306.144 475.223 302.62C475.223 300.864 475.927 298.806 477.181 296.626C478.431 294.454 480.204 292.2 482.288 290.063C486.407 285.838 491.685 282.124 496.402 280.413C500.261 282.132 505.539 285.848 509.88 290.072C512.081 292.214 514.026 294.471 515.417 296.646C516.815 298.831 517.619 300.881 517.619 302.62Z" fill="#B5E1E3" stroke="white"/>
<line x1="496.934" y1="316.227" x2="496.934" y2="329.96" stroke="white" stroke-width="3"/>
<line x1="701.094" y1="309.758" x2="701.094" y2="329.954" stroke="white" stroke-width="3"/>
<line x1="720.824" y1="304.102" x2="720.824" y2="329.953" stroke="white" stroke-width="3"/>
<rect x="672" y="233.352" width="11" height="5.8569" fill="white"/>
<rect x="509" y="207.977" width="11" height="5.8569" rx="2.92845" fill="white"/>
<rect x="443" y="195.281" width="11" height="5.8569" fill="white"/>
<rect x="480" y="248.977" width="11" height="5.8569" rx="2.92845" fill="white"/>
<rect x="394" y="212.859" width="10" height="6.83305" rx="3.41653" fill="white"/>
<rect x="564.477" y="267.75" width="10.8491" height="6.46279" fill="white"/>
<rect x="612" y="239.211" width="11" height="5.8569" rx="2.92845" fill="white"/>
<rect x="394" y="236.281" width="10" height="5.8569" fill="white"/>
<rect x="465" y="195.281" width="11" height="5.8569" fill="white"/>
<rect x="501" y="248.977" width="11" height="5.8569" fill="#E6E6E6"/>
<rect x="415" y="212.859" width="10" height="6.83305" fill="white"/>
<rect x="634" y="239.211" width="10" height="5.8569" fill="white"/>
<rect x="530" y="219.688" width="11" height="6.83305" rx="3.41653" fill="#E6E6E6"/>
<rect x="465" y="217.734" width="11" height="5.8569" fill="white"/>
<rect x="415" y="236.281" width="10" height="5.8569" fill="#E6E6E6"/>
<rect x="612" y="226.523" width="11" height="6.83305" rx="3.41653" fill="white"/>
<rect x="618" y="209.93" width="11" height="5.8569" fill="white"/>
<rect x="564.477" y="279.062" width="10.8491" height="6.46279" fill="white"/>
<rect x="694" y="244.094" width="11" height="6.83305" fill="white"/>
<rect x="465" y="206.023" width="11" height="6.83305" fill="#E6E6E6"/>
<rect x="501" y="258.734" width="11" height="5.8569" fill="white"/>
<rect x="415" y="223.594" width="10" height="6.83305" fill="#E6E6E6"/>
<rect x="530" y="230.43" width="11" height="6.83305" fill="white"/>
<path d="M740.517 290.495C740.517 294.019 738.239 297.284 734.397 299.694C730.561 302.099 725.232 303.603 719.319 303.603C713.407 303.603 708.077 302.099 704.242 299.694C700.4 297.284 698.121 294.019 698.121 290.495C698.121 288.739 698.825 286.681 700.079 284.501C701.329 282.329 703.103 280.075 705.187 277.938C709.306 273.713 714.583 269.999 719.3 268.288C723.16 270.007 728.438 273.723 732.779 277.947C734.98 280.089 736.925 282.346 738.315 284.521C739.713 286.706 740.517 288.756 740.517 290.495Z" fill="#E3F3F3" stroke="white"/>
<line x1="970.266" y1="343.461" x2="944.494" y2="343.461" stroke="white" stroke-width="6" stroke-linecap="round"/>
<line x1="885.543" y1="343.461" x2="859.771" y2="343.461" stroke="white" stroke-width="6" stroke-linecap="round"/>
<line x1="577.469" y1="343.461" x2="551.697" y2="343.461" stroke="white" stroke-width="6" stroke-linecap="round"/>
<line x1="689.027" y1="343.461" x2="663.255" y2="343.461" stroke="white" stroke-width="6" stroke-linecap="round"/>
<line x1="804.258" y1="343.461" x2="778.486" y2="343.461" stroke="white" stroke-width="6" stroke-linecap="round"/>
<rect width="11" height="5.8569" rx="2.92845" transform="matrix(-1 0 0 1 1188.01 232.375)" fill="white"/>
<rect width="11" height="6.83305" transform="matrix(-1 0 0 1 1135 255.805)" fill="white"/>
<rect width="11" height="5.8569" transform="matrix(-1 0 0 1 1074 202.117)" fill="white"/>
<rect x="-0.5" y="0.5" width="62" height="115.162" transform="matrix(-1 0 0 1 1200.01 213.828)" stroke="white"/>
<rect x="-0.5" y="0.5" width="62" height="92.7105" transform="matrix(-1 0 0 1 1150.99 236.281)" stroke="white"/>
<path d="M1109.12 290.495C1109.12 294.019 1111.4 297.284 1115.24 299.694C1119.07 302.099 1124.4 303.603 1130.32 303.603C1136.23 303.603 1141.56 302.099 1145.39 299.694C1149.23 297.284 1151.51 294.019 1151.51 290.495C1151.51 288.739 1150.81 286.681 1149.56 284.501C1148.31 282.329 1146.53 280.075 1144.45 277.938C1140.33 273.713 1135.05 269.999 1130.33 268.288C1126.47 270.007 1121.2 273.723 1116.86 277.947C1114.65 280.089 1112.71 282.346 1111.32 284.521C1109.92 286.706 1109.12 288.756 1109.12 290.495Z" fill="#E3F3F3" stroke="white"/>
<path d="M1132.79 298.05C1132.79 302.161 1135.5 305.963 1140.06 308.763C1144.61 311.558 1150.93 313.303 1157.93 313.303C1164.94 313.303 1171.25 311.558 1175.8 308.763C1180.36 305.963 1183.08 302.161 1183.08 298.05C1183.08 293.939 1180.36 290.137 1175.8 287.337C1171.25 284.542 1164.94 282.797 1157.93 282.797C1150.93 282.797 1144.61 284.542 1140.06 287.337C1135.5 290.137 1132.79 293.939 1132.79 298.05Z" fill="white" stroke="#E6E6E6"/>
<line y1="-1.5" x2="16.157" y2="-1.5" transform="matrix(0 1 1 0 1157.93 313.805)" stroke="white" stroke-width="3"/>
<line y1="-1.5" x2="25.8512" y2="-1.5" transform="matrix(-5.98861e-08 1 1 3.19053e-08 1130.33 304.102)" stroke="white" stroke-width="3"/>
<rect width="11" height="5.8569" transform="matrix(-1 0 0 1 1188.01 222.617)" fill="white"/>
<rect width="11" height="5.8569" transform="matrix(-1 0 0 1 1113.99 245.07)" fill="white"/>
<rect width="11" height="5.8569" transform="matrix(-1 0 0 1 1167.01 222.617)" fill="white"/>
<rect width="11" height="6.83305" transform="matrix(-1 0 0 1 1113.99 255.805)" fill="white"/>
<rect x="-0.5" y="0.5" width="62" height="134.685" transform="matrix(-1 0 0 1 1087.99 194.305)" stroke="white"/>
<rect width="11" height="5.8569" rx="2.92845" transform="matrix(-1 0 0 1 1074 233.352)" fill="white"/>
<rect width="10" height="6.83305" rx="3.41653" transform="matrix(-1 0 0 1 1052.01 210.906)" fill="white"/>
<rect width="10" height="5.8569" rx="2.92845" transform="matrix(-1 0 0 1 1052.01 202.117)" fill="white"/>
<rect x="-0.5" y="0.5" width="61" height="96.6151" transform="matrix(-1 0 0 1 1045.01 232.375)" stroke="white"/>
<rect width="11" height="5.8569" transform="matrix(-1 0 0 1 1035.99 246.047)" fill="white"/>
<rect width="11" height="5.8569" transform="matrix(-1 0 0 1 1035.99 267.516)" fill="white"/>
<rect width="11" height="5.8569" transform="matrix(-1 0 0 1 1008.99 256.781)" fill="white"/>
<rect width="11" height="5.8569" transform="matrix(-1 0 0 1 1330.01 209.93)" fill="white"/>
<rect width="11" height="5.8569" transform="matrix(-1 0 0 1 1273.99 233.352)" fill="white"/>
<rect width="11" height="5.8569" transform="matrix(-1 0 0 1 1296.01 255.805)" fill="white"/>
<rect width="10" height="6.83305" rx="3.41653" transform="matrix(-1 0 0 1 1334 226.523)" fill="white"/>
<rect x="-0.5" y="0.5" width="63" height="125" transform="matrix(-1 0 0 1 1365 204)" stroke="white"/>
<rect x="-0.5" y="0.5" width="54" height="109" transform="matrix(-1 0 0 1 1365 220)" stroke="white"/>
<rect x="-0.5" y="0.5" width="62" height="104.424" transform="matrix(-1 0 0 1 1310.99 224.57)" stroke="white"/>
<path d="M1244.25 294.415C1244.25 298.644 1246.97 302.546 1251.53 305.416C1256.08 308.283 1262.39 310.072 1269.4 310.072C1276.4 310.072 1282.71 308.283 1287.26 305.416C1291.82 302.546 1294.54 298.644 1294.54 294.415C1294.54 290.186 1291.82 286.283 1287.26 283.413C1282.71 280.547 1276.4 278.758 1269.4 278.758C1262.39 278.758 1256.08 280.547 1251.53 283.413C1246.97 286.283 1244.25 290.186 1244.25 294.415Z" fill="#E3F3F3" stroke="white"/>
<line y1="-1.5" x2="20.1962" y2="-1.5" transform="matrix(-9.43034e-08 1 1 2.0261e-08 1268.4 309.758)" stroke="white" stroke-width="3"/>
<line y1="-1.5" x2="25.8512" y2="-1.5" transform="matrix(-8.9206e-08 1 1 4.7526e-08 1248.66 304.102)" stroke="white" stroke-width="3"/>
<rect width="11" height="5.8569" transform="matrix(-1 0 0 1 1296.01 233.352)" fill="white"/>
<rect width="10" height="5.8569" transform="matrix(-1 0 0 1 1334 239.211)" fill="white"/>
<rect width="11" height="6.83305" rx="3.41653" transform="matrix(-1 0 0 1 1356.01 226.523)" fill="white"/>
<rect width="11" height="5.8569" transform="matrix(-1 0 0 1 1350.01 209.93)" fill="white"/>
<rect width="11" height="5.8569" rx="2.92845" transform="matrix(-1 0 0 1 1356.01 249.945)" fill="white"/>
<rect width="11" height="6.83305" transform="matrix(-1 0 0 1 1273.99 244.094)" fill="white"/>
<path d="M1227.49 290.495C1227.49 294.019 1229.77 297.284 1233.61 299.694C1237.45 302.099 1242.78 303.603 1248.69 303.603C1254.6 303.603 1259.93 302.099 1263.77 299.694C1267.61 297.284 1269.89 294.019 1269.89 290.495C1269.89 288.739 1269.18 286.681 1267.93 284.501C1266.68 282.329 1264.91 280.075 1262.82 277.938C1258.7 273.713 1253.43 269.999 1248.71 268.288C1244.85 270.007 1239.57 273.723 1235.23 277.947C1233.03 280.089 1231.09 282.346 1229.69 284.521C1228.3 286.706 1227.49 288.756 1227.49 290.495Z" fill="#E3F3F3" stroke="white"/>
<line x1="3" y1="-3" x2="28.7719" y2="-3" transform="matrix(1 -5.57087e-08 -1.37191e-07 -1 994.727 340.461)" stroke="white" stroke-width="6" stroke-linecap="round"/>
<line x1="3" y1="-3" x2="28.7719" y2="-3" transform="matrix(1 -5.57087e-08 -1.37191e-07 -1 1079.46 340.461)" stroke="white" stroke-width="6" stroke-linecap="round"/>
<line x1="3" y1="-3" x2="28.7719" y2="-3" transform="matrix(1 -5.57087e-08 -1.37191e-07 -1 1275.97 340.461)" stroke="white" stroke-width="6" stroke-linecap="round"/>
<line x1="3" y1="-3" x2="28.7719" y2="-3" transform="matrix(1 -5.57087e-08 -1.37191e-07 -1 1160.75 340.461)" stroke="white" stroke-width="6" stroke-linecap="round"/>
<rect x="179" y="243.117" width="11" height="6.83305" fill="#E6E6E6"/>
<rect x="179" y="232.375" width="11" height="5.8569" rx="2.92845" fill="#E6E6E6"/>
<rect x="232" y="255.805" width="11" height="6.83305" fill="#E6E6E6"/>
<rect x="293" y="210.906" width="11" height="6.83305" fill="#E6E6E6"/>
<rect x="293" y="202.117" width="11" height="5.8569" fill="#E6E6E6"/>
<rect x="166.5" y="214.328" width="62" height="115.162" stroke="#E6E6E6"/>
<rect x="215.5" y="236.781" width="62" height="92.7105" stroke="#E6E6E6"/>
<path d="M257.873 290.495C257.873 294.019 255.594 297.284 251.752 299.694C247.917 302.099 242.587 303.603 236.675 303.603C230.762 303.603 225.433 302.099 221.597 299.694C217.755 297.284 215.477 294.019 215.477 290.495C215.477 288.739 216.181 286.681 217.435 284.501C218.685 282.329 220.458 280.075 222.542 277.938C226.661 273.713 231.939 269.999 236.656 268.288C240.515 270.007 245.793 273.723 250.134 277.947C252.335 280.089 254.28 282.346 255.671 284.521C257.068 286.706 257.873 288.756 257.873 290.495Z" fill="#B5E1E3" stroke="#E6E6E6"/>
<path d="M234.201 298.05C234.201 302.161 231.486 305.963 226.928 308.763C222.378 311.558 216.061 313.303 209.057 313.303C202.053 313.303 195.736 311.558 191.187 308.763C186.629 305.963 183.914 302.161 183.914 298.05C183.914 293.939 186.629 290.137 191.187 287.337C195.736 284.542 202.053 282.797 209.057 282.797C216.061 282.797 222.378 284.542 226.928 287.337C231.486 290.137 234.201 293.939 234.201 298.05Z" fill="white" stroke="#E6E6E6"/>
<line x1="210.562" y1="313.805" x2="210.562" y2="329.962" stroke="#E6E6E6" stroke-width="3"/>
<line x1="238.176" y1="304.102" x2="238.176" y2="329.953" stroke="#E6E6E6" stroke-width="3"/>
<rect x="179" y="222.617" width="11" height="5.8569" fill="#E6E6E6"/>
<rect x="253" y="245.07" width="11" height="5.8569" fill="#E6E6E6"/>
<rect x="200" y="222.617" width="11" height="5.8569" fill="#E6E6E6"/>
<rect x="278.5" y="194.805" width="62" height="134.685" stroke="#E6E6E6"/>
<rect x="293" y="233.352" width="11" height="5.8569" rx="2.92845" fill="#E6E6E6"/>
<rect x="315" y="210.906" width="10" height="6.83305" rx="3.41653" fill="#E6E6E6"/>
<rect x="315" y="202.117" width="10" height="5.8569" rx="2.92845" fill="#E6E6E6"/>
<rect x="321.5" y="232.875" width="61" height="96.6151" stroke="#E6E6E6"/>
<rect x="331" y="246.047" width="11" height="5.8569" fill="#E6E6E6"/>
<rect x="331" y="267.516" width="11" height="5.8569" fill="#E6E6E6"/>
<rect x="358" y="256.781" width="11" height="5.8569" fill="#E6E6E6"/>
<path d="M332.147 301.875C323.262 299.508 314.167 298.364 305.055 298.329C305.055 298.329 305.055 298.329 305.055 298.329M332.147 301.875L276.118 301.63C285.617 299.271 295.341 298.043 305.056 298.079L305.055 298.329M332.147 301.875L331.617 303.59H276.69L276.188 301.87M332.147 301.875L276.188 301.87M305.055 298.329C295.365 298.293 285.665 299.518 276.188 301.87M305.055 298.329L276.188 301.87M291.702 333.438V333.188H291.452H285.024V330.064C285.024 329.3 285.506 328.573 286.357 328.025C287.206 327.478 288.392 327.132 289.714 327.132H318.594C319.919 327.132 321.103 327.478 321.948 328.025C322.796 328.573 323.276 329.3 323.276 330.064V333.188H316.856H316.606V333.438V336.807H313.664V333.438V333.188H313.414H294.894H294.644V333.438V336.807H291.702V333.438ZM335.593 309.13C335.593 307.732 336.473 306.43 337.971 305.466C339.466 304.503 341.548 303.898 343.866 303.898C346.167 303.898 348.245 304.503 349.74 305.466C351.238 306.43 352.123 307.732 352.123 309.13C352.123 310.521 351.239 311.82 349.74 312.784C348.245 313.746 346.167 314.35 343.866 314.35C341.548 314.35 339.466 313.746 337.971 312.784C336.473 311.821 335.593 310.522 335.593 309.13ZM349.18 309.13C349.18 308.116 348.537 307.231 347.576 306.611C346.612 305.99 345.297 305.612 343.866 305.612C342.434 305.612 341.12 305.99 340.156 306.611C339.194 307.231 338.552 308.116 338.552 309.13C338.552 310.143 339.195 311.026 340.156 311.643C341.12 312.262 342.435 312.636 343.866 312.636C345.297 312.636 346.611 312.262 347.576 311.643C348.537 311.026 349.18 310.143 349.18 309.13ZM331.104 308.315H277.189V306.602H331.104V308.315ZM277.475 336.764V311.37H280.423V336.764H277.475ZM330.757 336.764H327.798V311.37H330.757V336.764ZM345.321 336.743H342.378V317.277H345.321V336.743Z" fill="white" stroke="#E6E6E6" stroke-width="0.5"/>
<rect x="37" y="209.93" width="11" height="5.8569" fill="#E6E6E6"/>
<rect x="93" y="233.352" width="11" height="5.8569" fill="#E6E6E6"/>
<rect x="71" y="255.805" width="11" height="5.8569" fill="#E6E6E6"/>
<rect x="33" y="226.523" width="10" height="6.83305" rx="3.41653" fill="#E6E6E6"/>
<rect x="2.5" y="204.57" width="62" height="124.923" stroke="#E6E6E6"/>
<rect x="0.5" y="220.5" width="55" height="109" stroke="#E6E6E6"/>
<rect x="55.5" y="225.07" width="62" height="104.424" stroke="#E6E6E6"/>
<path d="M122.751 294.415C122.751 298.644 120.03 302.546 115.474 305.416C110.925 308.283 104.61 310.072 97.6082 310.072C90.6064 310.072 84.2912 308.283 79.7421 305.416C75.1866 302.546 72.4648 298.644 72.4648 294.415C72.4648 290.186 75.1866 286.283 79.7421 283.413C84.2912 280.547 90.6064 278.758 97.6082 278.758C104.61 278.758 110.925 280.547 115.474 283.413C120.03 286.283 122.751 290.186 122.751 294.415Z" fill="#B5E1E3" stroke="#E6E6E6"/>
<line x1="100.094" y1="309.758" x2="100.094" y2="329.954" stroke="#E6E6E6" stroke-width="3"/>
<line x1="119.824" y1="304.102" x2="119.824" y2="329.953" stroke="#E6E6E6" stroke-width="3"/>
<rect x="71" y="233.352" width="11" height="5.8569" fill="#E6E6E6"/>
<rect x="11" y="239.211" width="11" height="5.8569" rx="2.92845" fill="#E6E6E6"/>
<rect x="33" y="239.211" width="10" height="5.8569" fill="#E6E6E6"/>
<rect x="11" y="226.523" width="11" height="6.83305" rx="3.41653" fill="#E6E6E6"/>
<rect x="17" y="209.93" width="11" height="5.8569" fill="#E6E6E6"/>
<rect x="93" y="244.094" width="11" height="6.83305" fill="#E6E6E6"/>
<line x1="8.74228e-08" y1="329" x2="383" y2="329" stroke="#E6E6E6" stroke-width="2"/>
<path d="M139.517 290.495C139.517 294.019 137.239 297.284 133.397 299.694C129.561 302.099 124.232 303.603 118.319 303.603C112.407 303.603 107.077 302.099 103.242 299.694C99.4 297.284 97.1211 294.019 97.1211 290.495C97.1211 288.739 97.8251 286.681 99.0792 284.501C100.329 282.329 102.103 280.075 104.187 277.938C108.306 273.713 113.583 269.999 118.3 268.288C122.16 270.007 127.438 273.723 131.779 277.947C133.98 280.089 135.925 282.346 137.315 284.521C138.713 286.706 139.517 288.756 139.517 290.495Z" fill="#B5E1E3" stroke="#E6E6E6"/>
<line x1="369.266" y1="343.461" x2="343.494" y2="343.461" stroke="#E6E6E6" stroke-width="6" stroke-linecap="round"/>
<line x1="284.543" y1="343.461" x2="258.771" y2="343.461" stroke="#E6E6E6" stroke-width="6" stroke-linecap="round"/>
<line x1="88.0273" y1="343.461" x2="62.2555" y2="343.461" stroke="#E6E6E6" stroke-width="6" stroke-linecap="round"/>
<line x1="203.258" y1="343.461" x2="177.486" y2="343.461" stroke="#E6E6E6" stroke-width="6" stroke-linecap="round"/>
<path d="M316.395 325.85C316.395 322.601 311.707 319.969 305.919 319.969H282.349V334.673C282.349 336.29 284.706 337.614 287.587 337.614H316.395V333.188" fill="#F4AB76"/>
<path d="M316.395 325.85C316.395 322.601 311.707 319.969 305.919 319.969H282.349V334.673C282.349 336.29 284.706 337.614 287.587 337.614H316.395V333.188" stroke="#E6E6E6" stroke-linecap="round" stroke-linejoin="round"/>
<path d="M271.874 346.439H274.493C274.493 344.822 276.85 343.498 279.731 343.498C282.611 343.498 284.968 344.822 284.968 346.439H295.444C295.444 344.822 297.801 343.498 300.682 343.498C303.562 343.498 305.919 344.822 305.919 346.439H308.538C312.886 346.439 316.395 344.469 316.395 342.028V337.617H287.587C284.706 337.617 282.349 336.293 282.349 334.676V324.383H277.531C275.645 324.383 273.917 324.956 272.974 325.868L268.495 330.265H271.874C273.314 330.265 274.493 330.926 274.493 331.735V336.146C274.493 336.955 273.314 337.617 271.874 337.617H264.017V342.028" fill="#F4AB76"/>
<path d="M271.874 346.439H274.493C274.493 344.822 276.85 343.498 279.731 343.498C282.611 343.498 284.968 344.822 284.968 346.439H295.444C295.444 344.822 297.801 343.498 300.682 343.498C303.562 343.498 305.919 344.822 305.919 346.439H308.538C312.886 346.439 316.395 344.469 316.395 342.028V337.617H287.587C284.706 337.617 282.349 336.293 282.349 334.676V324.383H277.531C275.645 324.383 273.917 324.956 272.974 325.868L268.495 330.265H271.874C273.314 330.265 274.493 330.926 274.493 331.735V336.146C274.493 336.955 273.314 337.617 271.874 337.617H264.017V342.028" stroke="#E6E6E6" stroke-linecap="round" stroke-linejoin="round"/>
<path d="M300.682 349.382C297.789 349.382 295.444 348.065 295.444 346.441C295.444 344.817 297.789 343.5 300.682 343.5C303.574 343.5 305.919 344.817 305.919 346.441C305.919 348.065 303.574 349.382 300.682 349.382Z" fill="#F4AB76" stroke="#E6E6E6" stroke-linecap="round" stroke-linejoin="round"/>
<path d="M279.73 349.382C276.838 349.382 274.493 348.065 274.493 346.441C274.493 344.817 276.838 343.5 279.73 343.5C282.623 343.5 284.968 344.817 284.968 346.441C284.968 348.065 282.623 349.382 279.73 349.382Z" fill="#F4AB76" stroke="#E6E6E6" stroke-linecap="round" stroke-linejoin="round"/>
<path d="M264.017 334.677V337.618H271.874C273.314 337.618 274.493 336.956 274.493 336.147V331.736C274.493 330.927 273.314 330.266 271.874 330.266H268.495L264.017 334.677Z" stroke="#E6E6E6" stroke-linecap="round" stroke-linejoin="round"/>
<path d="M153.552 348.291H150.933C150.933 346.673 148.576 345.35 145.695 345.35C142.814 345.35 140.457 346.673 140.457 348.291H129.982C129.982 346.673 127.625 345.35 124.744 345.35C121.863 345.35 119.506 346.673 119.506 348.291H116.887C112.54 348.291 109.031 346.32 109.031 343.879V339.468H137.839C140.719 339.468 143.076 338.145 143.076 336.527V326.234H147.895C149.781 326.234 151.509 326.808 152.452 327.72L156.93 332.116H153.552C152.112 332.116 150.933 332.778 150.933 333.587V337.998C150.933 338.807 152.112 339.468 153.552 339.468H161.409V343.879" fill="#F4AB76"/>
<path d="M153.552 348.291H150.933C150.933 346.673 148.576 345.35 145.695 345.35C142.814 345.35 140.457 346.673 140.457 348.291H129.982C129.982 346.673 127.625 345.35 124.744 345.35C121.863 345.35 119.506 346.673 119.506 348.291H116.887C112.54 348.291 109.031 346.32 109.031 343.879V339.468H137.839C140.719 339.468 143.076 338.145 143.076 336.527V326.234H147.895C149.781 326.234 151.509 326.808 152.452 327.72L156.93 332.116H153.552C152.112 332.116 150.933 332.778 150.933 333.587V337.998C150.933 338.807 152.112 339.468 153.552 339.468H161.409V343.879" stroke="#E6E6E6" stroke-linecap="round" stroke-linejoin="round"/>
<path d="M124.744 351.233C127.637 351.233 129.982 349.917 129.982 348.292C129.982 346.668 127.637 345.352 124.744 345.352C121.851 345.352 119.506 346.668 119.506 348.292C119.506 349.917 121.851 351.233 124.744 351.233Z" stroke="#E6E6E6" stroke-linecap="round" stroke-linejoin="round"/>
<path d="M145.695 351.233C148.588 351.233 150.933 349.917 150.933 348.292C150.933 346.668 148.588 345.352 145.695 345.352C142.802 345.352 140.458 346.668 140.458 348.292C140.458 349.917 142.802 351.233 145.695 351.233Z" stroke="#E6E6E6" stroke-linecap="round" stroke-linejoin="round"/>
<path d="M161.409 336.528V339.469H153.552C152.112 339.469 150.933 338.808 150.933 337.999V333.588C150.933 332.779 152.112 332.117 153.552 332.117H156.93L161.409 336.528Z" stroke="#E6E6E6" stroke-linecap="round" stroke-linejoin="round"/>
<line x1="383" y1="329" x2="554" y2="329" stroke="#E6E6E6" stroke-width="2"/>
<line x1="1366" y1="329" x2="554" y2="329" stroke="white" stroke-width="2"/>
<path d="M754.552 348.291H751.933C751.933 346.673 749.576 345.35 746.695 345.35C743.814 345.35 741.457 346.673 741.457 348.291H730.982C730.982 346.673 728.625 345.35 725.744 345.35C722.863 345.35 720.506 346.673 720.506 348.291H717.887C713.54 348.291 710.031 346.32 710.031 343.879V339.468H738.839C741.719 339.468 744.076 338.145 744.076 336.527V326.234H748.895C750.781 326.234 752.509 326.808 753.452 327.72L757.93 332.116H754.552C753.112 332.116 751.933 332.778 751.933 333.587V337.998C751.933 338.807 753.112 339.468 754.552 339.468H762.409V343.879" fill="#F4AB76"/>
<path d="M754.552 348.291H751.933C751.933 346.673 749.576 345.35 746.695 345.35C743.814 345.35 741.457 346.673 741.457 348.291H730.982C730.982 346.673 728.625 345.35 725.744 345.35C722.863 345.35 720.506 346.673 720.506 348.291H717.887C713.54 348.291 710.031 346.32 710.031 343.879V339.468H738.839C741.719 339.468 744.076 338.145 744.076 336.527V326.234H748.895C750.781 326.234 752.509 326.808 753.452 327.72L757.93 332.116H754.552C753.112 332.116 751.933 332.778 751.933 333.587V337.998C751.933 338.807 753.112 339.468 754.552 339.468H762.409V343.879" stroke="#E6E6E6" stroke-linecap="round" stroke-linejoin="round"/>
<path d="M725.744 351.233C728.637 351.233 730.982 349.917 730.982 348.292C730.982 346.668 728.637 345.352 725.744 345.352C722.851 345.352 720.506 346.668 720.506 348.292C720.506 349.917 722.851 351.233 725.744 351.233Z" fill="#F4AB76" stroke="#E6E6E6" stroke-linecap="round" stroke-linejoin="round"/>
<path d="M746.695 351.233C749.588 351.233 751.933 349.917 751.933 348.292C751.933 346.668 749.588 345.352 746.695 345.352C743.802 345.352 741.458 346.668 741.458 348.292C741.458 349.917 743.802 351.233 746.695 351.233Z" fill="#F4AB76" stroke="#E6E6E6" stroke-linecap="round" stroke-linejoin="round"/>
<path d="M762.409 336.528V339.469H754.552C753.112 339.469 751.933 338.808 751.933 337.999V333.588C751.933 332.779 753.112 332.117 754.552 332.117H757.93L762.409 336.528Z" stroke="#E6E6E6" stroke-linecap="round" stroke-linejoin="round"/>
<path d="M1050.6 325.85C1050.6 322.601 1055.29 319.969 1061.07 319.969H1084.64V334.673C1084.64 336.29 1082.29 337.614 1079.41 337.614H1050.6V333.188" fill="#F4AB76"/>
<path d="M1050.6 325.85C1050.6 322.601 1055.29 319.969 1061.07 319.969H1084.64V334.673C1084.64 336.29 1082.29 337.614 1079.41 337.614H1050.6V333.188" stroke="#E6E6E6" stroke-linecap="round" stroke-linejoin="round"/>
<path d="M1095.12 346.439H1092.5C1092.5 344.822 1090.14 343.498 1087.26 343.498C1084.38 343.498 1082.03 344.822 1082.03 346.439H1071.55C1071.55 344.822 1069.19 343.498 1066.31 343.498C1063.43 343.498 1061.07 344.822 1061.07 346.439H1058.46C1054.11 346.439 1050.6 344.469 1050.6 342.028V337.617H1079.41C1082.29 337.617 1084.64 336.293 1084.64 334.676V324.383H1089.46C1091.35 324.383 1093.08 324.956 1094.02 325.868L1098.5 330.265H1095.12C1093.68 330.265 1092.5 330.926 1092.5 331.735V336.146C1092.5 336.955 1093.68 337.617 1095.12 337.617H1102.98V342.028" fill="#F4AB76"/>
<path d="M1095.12 346.439H1092.5C1092.5 344.822 1090.14 343.498 1087.26 343.498C1084.38 343.498 1082.03 344.822 1082.03 346.439H1071.55C1071.55 344.822 1069.19 343.498 1066.31 343.498C1063.43 343.498 1061.07 344.822 1061.07 346.439H1058.46C1054.11 346.439 1050.6 344.469 1050.6 342.028V337.617H1079.41C1082.29 337.617 1084.64 336.293 1084.64 334.676V324.383H1089.46C1091.35 324.383 1093.08 324.956 1094.02 325.868L1098.5 330.265H1095.12C1093.68 330.265 1092.5 330.926 1092.5 331.735V336.146C1092.5 336.955 1093.68 337.617 1095.12 337.617H1102.98V342.028" stroke="#E6E6E6" stroke-linecap="round" stroke-linejoin="round"/>
<path d="M1066.31 349.382C1069.21 349.382 1071.55 348.065 1071.55 346.441C1071.55 344.817 1069.21 343.5 1066.31 343.5C1063.42 343.5 1061.07 344.817 1061.07 346.441C1061.07 348.065 1063.42 349.382 1066.31 349.382Z" fill="#F4AB76" stroke="#E6E6E6" stroke-linecap="round" stroke-linejoin="round"/>
<path d="M1087.26 349.382C1090.16 349.382 1092.5 348.065 1092.5 346.441C1092.5 344.817 1090.16 343.5 1087.26 343.5C1084.37 343.5 1082.03 344.817 1082.03 346.441C1082.03 348.065 1084.37 349.382 1087.26 349.382Z" fill="#F4AB76" stroke="#E6E6E6" stroke-linecap="round" stroke-linejoin="round"/>
<path d="M1102.98 334.677V337.618H1095.12C1093.68 337.618 1092.5 336.956 1092.5 336.147V331.736C1092.5 330.927 1093.68 330.266 1095.12 330.266H1098.5L1102.98 334.677Z" stroke="#E6E6E6" stroke-linecap="round" stroke-linejoin="round"/>
<path d="M1213.38 348.291H1215.99C1215.99 346.673 1218.35 345.35 1221.23 345.35C1224.11 345.35 1226.47 346.673 1226.47 348.291H1236.95C1236.95 346.673 1239.3 345.35 1242.18 345.35C1245.06 345.35 1247.42 346.673 1247.42 348.291H1250.04C1254.39 348.291 1257.9 346.32 1257.9 343.879V339.468H1229.09C1226.21 339.468 1223.85 338.145 1223.85 336.527V326.234H1219.03C1217.15 326.234 1215.42 326.808 1214.48 327.72L1210 332.116H1213.38C1214.82 332.116 1215.99 332.778 1215.99 333.587V337.998C1215.99 338.807 1214.82 339.468 1213.38 339.468H1205.52V343.879" fill="#F4AB76"/>
<path d="M1213.38 348.291H1215.99C1215.99 346.673 1218.35 345.35 1221.23 345.35C1224.11 345.35 1226.47 346.673 1226.47 348.291H1236.95C1236.95 346.673 1239.3 345.35 1242.18 345.35C1245.06 345.35 1247.42 346.673 1247.42 348.291H1250.04C1254.39 348.291 1257.9 346.32 1257.9 343.879V339.468H1229.09C1226.21 339.468 1223.85 338.145 1223.85 336.527V326.234H1219.03C1217.15 326.234 1215.42 326.808 1214.48 327.72L1210 332.116H1213.38C1214.82 332.116 1215.99 332.778 1215.99 333.587V337.998C1215.99 338.807 1214.82 339.468 1213.38 339.468H1205.52V343.879" stroke="#E6E6E6" stroke-linecap="round" stroke-linejoin="round"/>
<path d="M1242.18 351.233C1239.29 351.233 1236.95 349.917 1236.95 348.292C1236.95 346.668 1239.29 345.352 1242.18 345.352C1245.08 345.352 1247.42 346.668 1247.42 348.292C1247.42 349.917 1245.08 351.233 1242.18 351.233Z" stroke="#E6E6E6" stroke-linecap="round" stroke-linejoin="round"/>
<path d="M1221.23 351.233C1218.34 351.233 1215.99 349.917 1215.99 348.292C1215.99 346.668 1218.34 345.352 1221.23 345.352C1224.13 345.352 1226.47 346.668 1226.47 348.292C1226.47 349.917 1224.13 351.233 1221.23 351.233Z" stroke="#E6E6E6" stroke-linecap="round" stroke-linejoin="round"/>
<path d="M1205.52 336.528V339.469H1213.38C1214.82 339.469 1215.99 338.808 1215.99 337.999V333.588C1215.99 332.779 1214.82 332.117 1213.38 332.117H1210L1205.52 336.528Z" stroke="#E6E6E6" stroke-linecap="round" stroke-linejoin="round"/>
<path d="M456.608 340.017C456.608 341.194 455.78 342.324 454.307 343.157C452.833 343.99 450.835 344.458 448.751 344.458C446.667 344.458 444.669 343.99 443.196 343.157C441.722 342.324 440.895 341.194 440.895 340.017H456.608ZM492.65 338.906C492.947 339.562 492.975 340.248 492.732 340.911C492.488 341.574 491.98 342.196 491.246 342.731C490.511 343.266 489.57 343.699 488.495 343.996C487.419 344.294 486.237 344.449 485.039 344.449C483.842 344.449 482.66 344.294 481.584 343.996C480.508 343.699 479.567 343.266 478.833 342.731C478.098 342.196 477.59 341.574 477.347 340.911C477.103 340.248 477.131 339.562 477.428 338.906" fill="#F4AB76"/>
<path d="M492.65 338.906C492.947 339.562 492.975 340.248 492.732 340.911C492.488 341.574 491.98 342.196 491.246 342.731C490.511 343.266 489.57 343.699 488.495 343.996C487.419 344.294 486.237 344.449 485.039 344.449C483.842 344.449 482.66 344.294 481.584 343.996C480.508 343.699 479.567 343.266 478.833 342.731C478.098 342.196 477.59 341.574 477.347 340.911C477.103 340.248 477.131 339.562 477.428 338.906M456.608 340.017C456.608 341.194 455.78 342.324 454.307 343.157C452.833 343.99 450.835 344.458 448.751 344.458C446.667 344.458 444.669 343.99 443.196 343.157C441.722 342.324 440.895 341.194 440.895 340.017H456.608Z" stroke="#E6E6E6" stroke-linecap="round" stroke-linejoin="round"/>
<path d="M472.32 321.141H476.248C477.328 321.141 480.176 321.807 480.176 323.361V333.465C480.176 335.241 477.328 339.294 468.293 339.294" stroke="white" stroke-linecap="round" stroke-linejoin="round"/>
<path d="M480.177 333.36H486.069C495.595 333.36 495.89 338.912 495.89 338.912H472.811L480.177 333.36ZM450.714 332.25C447.068 332.25 443.57 333.069 440.992 334.526C438.413 335.984 436.965 337.961 436.965 340.022H468.392C468.392 337.961 466.943 335.984 464.365 334.526C461.786 333.069 458.289 332.25 454.642 332.25H450.714Z" fill="#F4AB76" stroke="#E6E6E6" stroke-linecap="round" stroke-linejoin="round"/>
<path d="M458.473 327.808H436.965C437.947 331.194 443.741 332.249 450.616 332.249H454.544C457.61 332.31 460.662 331.988 463.481 331.305C466.526 330.362 466.82 327.808 458.473 327.808ZM485.087 323.922V327.253Z" fill="#F4AB76"/>
<path d="M485.087 323.922V327.253M458.473 327.808H436.965C437.947 331.194 443.741 332.249 450.616 332.249H454.544C457.61 332.31 460.662 331.988 463.481 331.305C466.526 330.362 466.82 327.808 458.473 327.808Z" stroke="#E6E6E6" stroke-linecap="round" stroke-linejoin="round"/>
<path d="M933.147 301.875C924.262 299.508 915.167 298.364 906.055 298.329C906.055 298.329 906.055 298.329 906.055 298.329M933.147 301.875L877.118 301.63C886.617 299.271 896.341 298.043 906.056 298.079L906.055 298.329M933.147 301.875L932.617 303.59H877.69L877.188 301.87M933.147 301.875L877.188 301.87M906.055 298.329C896.365 298.293 886.665 299.518 877.188 301.87M906.055 298.329L877.188 301.87M892.702 333.438V333.188H892.452H886.024V330.064C886.024 329.3 886.506 328.573 887.357 328.025C888.206 327.478 889.392 327.132 890.714 327.132H919.594C920.919 327.132 922.103 327.478 922.948 328.025C923.796 328.573 924.276 329.3 924.276 330.064V333.188H917.856H917.606V333.438V336.807H914.664V333.438V333.188H914.414H895.894H895.644V333.438V336.807H892.702V333.438ZM936.593 309.13C936.593 307.732 937.473 306.43 938.971 305.466C940.466 304.503 942.548 303.898 944.866 303.898C947.167 303.898 949.245 304.503 950.74 305.466C952.238 306.43 953.123 307.732 953.123 309.13C953.123 310.521 952.239 311.82 950.74 312.784C949.245 313.746 947.167 314.35 944.866 314.35C942.548 314.35 940.466 313.746 938.971 312.784C937.473 311.821 936.593 310.522 936.593 309.13ZM950.18 309.13C950.18 308.116 949.537 307.231 948.576 306.611C947.612 305.99 946.297 305.612 944.866 305.612C943.434 305.612 942.12 305.99 941.156 306.611C940.194 307.231 939.552 308.116 939.552 309.13C939.552 310.143 940.195 311.026 941.156 311.643C942.12 312.262 943.435 312.636 944.866 312.636C946.297 312.636 947.611 312.262 948.576 311.643C949.537 311.026 950.18 310.143 950.18 309.13ZM932.104 308.315H878.189V306.602H932.104V308.315ZM878.475 336.764V311.37H881.423V336.764H878.475ZM931.757 336.764H928.798V311.37H931.757V336.764ZM946.321 336.743H943.378V317.277H946.321V336.743Z" fill="white" stroke="#E6E6E6" stroke-width="0.5"/>
<path d="M917.395 325.85C917.395 322.601 912.707 319.969 906.919 319.969H883.349V334.673C883.349 336.29 885.706 337.614 888.587 337.614H917.395V333.188" fill="#F4AB76"/>
<path d="M917.395 325.85C917.395 322.601 912.707 319.969 906.919 319.969H883.349V334.673C883.349 336.29 885.706 337.614 888.587 337.614H917.395V333.188" stroke="#E6E6E6" stroke-linecap="round" stroke-linejoin="round"/>
<path d="M872.874 346.439H875.493C875.493 344.822 877.85 343.498 880.731 343.498C883.611 343.498 885.968 344.822 885.968 346.439H896.444C896.444 344.822 898.801 343.498 901.682 343.498C904.562 343.498 906.919 344.822 906.919 346.439H909.538C913.886 346.439 917.395 344.469 917.395 342.028V337.617H888.587C885.706 337.617 883.349 336.293 883.349 334.676V324.383H878.531C876.645 324.383 874.917 324.956 873.974 325.868L869.495 330.265H872.874C874.314 330.265 875.493 330.926 875.493 331.735V336.146C875.493 336.955 874.314 337.617 872.874 337.617H865.017V342.028" fill="#F4AB76"/>
<path d="M872.874 346.439H875.493C875.493 344.822 877.85 343.498 880.731 343.498C883.611 343.498 885.968 344.822 885.968 346.439H896.444C896.444 344.822 898.801 343.498 901.682 343.498C904.562 343.498 906.919 344.822 906.919 346.439H909.538C913.886 346.439 917.395 344.469 917.395 342.028V337.617H888.587C885.706 337.617 883.349 336.293 883.349 334.676V324.383H878.531C876.645 324.383 874.917 324.956 873.974 325.868L869.495 330.265H872.874C874.314 330.265 875.493 330.926 875.493 331.735V336.146C875.493 336.955 874.314 337.617 872.874 337.617H865.017V342.028" stroke="#E6E6E6" stroke-linecap="round" stroke-linejoin="round"/>
<path d="M901.682 349.382C898.789 349.382 896.444 348.065 896.444 346.441C896.444 344.817 898.789 343.5 901.682 343.5C904.574 343.5 906.919 344.817 906.919 346.441C906.919 348.065 904.574 349.382 901.682 349.382Z" fill="#F4AB76" stroke="#E6E6E6" stroke-linecap="round" stroke-linejoin="round"/>
<path d="M880.73 349.382C877.838 349.382 875.493 348.065 875.493 346.441C875.493 344.817 877.838 343.5 880.73 343.5C883.623 343.5 885.968 344.817 885.968 346.441C885.968 348.065 883.623 349.382 880.73 349.382Z" fill="#F4AB76" stroke="#E6E6E6" stroke-linecap="round" stroke-linejoin="round"/>
<path d="M865.017 334.677V337.618H872.874C874.314 337.618 875.493 336.956 875.493 336.147V331.736C875.493 330.927 874.314 330.266 872.874 330.266H869.495L865.017 334.677Z" stroke="#E6E6E6" stroke-linecap="round" stroke-linejoin="round"/>
</svg>
