<svg xmlns="http://www.w3.org/2000/svg" xmlns:xlink="http://www.w3.org/1999/xlink" width="1367" height="480" fill="none" xmlns:v="https://vecta.io/nano"><style><![CDATA[.B{opacity:.5}.C{fill:#fff}.D{stroke-linecap:round}.E{stroke-linejoin:round}.F{fill:#f4ab76}.G{stroke:#0e2425}.H{stroke:#516163}.I{stroke:#333}.J{stroke:#000}.K{stroke:#949595}.L{stroke-width:2}.M{stroke-width:3}]]></style><path d="M0 0H1366V480H0V0Z" fill="#b5e1e3" fill-opacity=".8"/><path d="M197.742 217.984v-22.172" class="D G"/><g class="F"><path d="M397.473 343.449h10.849v7.448h-10.849z"/><rect x="397.473" y="331.859" width="10.849" height="6.621" rx="3.31" class="B"/><path d="M909.348 294.617h9.863v6.621h-9.863zm-459.606 52.141h10.849v7.448h-10.849z" class="B"/><use xlink:href="#B" class="B"/><rect x="800.859" y="297.93" width="10.849" height="7.448" rx="3.724" class="B"/><path d="M510.895 308.688h10.849v7.448h-10.849z"/><use xlink:href="#B" x="-451.719" y="-48.825"/><path d="M942.887 358.344h9.863v6.621h-9.863z"/><rect x="856.09" y="351.727" width="10.849" height="6.621" rx="3.31" class="B"/><rect x="903.434" y="326.07" width="10.849" height="7.448" rx="3.724" class="B"/><rect x="909.348" y="269.797" width="10.849" height="6.621" rx="3.31" class="B"/></g><g stroke-linecap="square" class="K"><path transform="matrix(-.00374 -.999993 .999997 -.002561 197 439.449)" d="M1-1h193.311" class="B L"/><g class="M"><path transform="matrix(-.019237 .999815 -.999913 -.013176 196.758 244.137)" d="M1.5-1.5h192.346" class="B"/><path transform="matrix(-.010215 -.999948 .999975 -.00703 199.75 439.449)" d="M1.5-1.5h192.321" class="B"/></g></g><g class="I"><path d="M873.359 261.188h62.122v178.586h-62.122zm-489.195 50.484h62.122v128.103h-62.122zm262.348-13.242h62.122v141.345h-62.122z" class="B"/><path d="M865.469 303.398h62.122v136.379h-62.122zM764.867 288.5h61.136v151.276h-61.136zm-163.719 14.898h62.122v136.379h-62.122zM433.477 326.57h62.122v113.207h-62.122zm263.339-30.625h61.136v143.828h-61.136z" class="B"/><path d="M733.305 342.297h62.122v97.483h-62.122zm86.797-18.211h61.136v115.69h-61.136zm107.503 2.484h62.122v113.207h-62.122z" class="B"/></g><g class="C G"><path d="M994.658 403.864c0 4.344-2.729 8.345-7.282 11.284s-10.862 4.768-17.862 4.768-13.313-1.832-17.861-4.768c-4.554-2.939-7.282-6.94-7.282-11.284s2.728-8.344 7.282-11.284c4.548-2.935 10.862-4.768 17.861-4.768s13.313 1.833 17.862 4.768 7.282 6.94 7.282 11.284zm-518.785-4.013c0 3.622-2.286 6.97-6.126 9.437-3.834 2.464-9.162 4.004-15.072 4.004s-11.238-1.54-15.073-4.004-6.125-5.815-6.125-9.437c0-1.804.706-3.917 1.96-6.15 1.251-2.227 3.025-4.537 5.109-6.727 4.119-4.327 9.394-8.13 14.109-9.884 3.859 1.762 9.135 5.568 13.475 9.894 2.201 2.194 4.146 4.507 5.538 6.736 1.398 2.24 2.205 4.343 2.205 6.131zm311.664 12.418c0 3.622-2.286 6.97-6.126 9.437-3.834 2.464-9.162 4.004-15.072 4.004s-11.238-1.54-15.073-4.004-6.125-5.815-6.125-9.437c0-1.805.706-3.917 1.96-6.151 1.251-2.226 3.025-4.536 5.109-6.726 4.119-4.327 9.395-8.13 14.109-9.884 3.859 1.762 9.135 5.568 13.475 9.894 2.201 2.194 4.147 4.507 5.538 6.736 1.398 2.239 2.205 4.343 2.205 6.131z" class="B"/><path d="M452.201 407.587c0 4.224-2.722 8.121-7.277 10.988-4.549 2.863-10.865 4.65-17.867 4.65s-13.317-1.787-17.866-4.65c-4.556-2.867-7.277-6.764-7.277-10.988s2.721-8.121 7.277-10.988c4.549-2.863 10.865-4.65 17.866-4.65s13.318 1.787 17.867 4.65c4.555 2.867 7.277 6.765 7.277 10.988z" class="B"/></g><g class="K M"><path d="M428.562 423.727v16.551m339.278-14.067v14.069m-108.492-26.491v26.483m311.668-20.686v20.69m20.711-26.487v26.483m-535.551-26.483v26.483" class="B"/></g><g class="F"><path d="M942.887 333.516h9.863v6.621h-9.863z"/><rect x="882.719" y="314.484" width="9.863" height="6.621" rx="3.31" class="B"/><rect x="779.164" y="297.93" width="10.849" height="6.621" rx="3.31" class="B"/><use xlink:href="#B" x="-254.465" y="-28.133" class="B"/><rect x="750.562" y="350.066" width="9.863" height="6.621" rx="3.31" class="B"/><use xlink:href="#B" x="-347.18" y="-17.379" class="B"/><rect x="663.766" y="311.172" width="10.849" height="6.621" rx="3.31" class="B"/><rect x="834.395" y="376.551" width="10.849" height="6.621" rx="3.31"/><rect x="882.719" y="339.312" width="9.863" height="6.621" rx="3.31" class="B"/><rect x="616.422" y="340.969" width="10.849" height="6.621" rx="3.31"/><use xlink:href="#B" x="-299.836" y="2.484"/><use xlink:href="#B" x="-566.129" y="-12.414" class="B"/><use xlink:href="#B" x="-232.77" y="-28.133" class="B"/><path d="M771.27 350.066h10.849v6.621H771.27z"/><use xlink:href="#B" x="-492.161" y="1.656" class="B"/><use xlink:href="#B" x="-278.137" y="-22.344" class="B"/><use xlink:href="#B" x="-60.168" y="5.796" class="B"/><rect x="800.859" y="311.172" width="10.849" height="6.621" rx="3.31" class="B"/><path d="M730.832 329.379h10.849v7.448h-10.849z"/><use xlink:href="#B" x="-325.473" y="7.453" class="B"/><use xlink:href="#B" x="-278.137" y="2.484"/><use xlink:href="#B" x="-545.418" y="-12.414" class="B"/><rect x="882.719" y="326.07" width="9.863" height="7.448" rx="3.724"/><rect x="887.652" y="269.797" width="10.849" height="6.621" rx="3.31"/><use xlink:href="#B" x="-75.95" y="-38.899"/><rect x="750.562" y="361.656" width="9.863" height="7.448" rx="3.724" class="B"/><rect x="616.422" y="328.551" width="10.849" height="6.621" rx="3.31"/><path d="M942.887 369.934h9.863v6.621h-9.863z" class="B"/><rect x="834.395" y="388.141" width="10.849" height="6.621" rx="3.31" class="B"/><rect x="882.719" y="350.895" width="9.863" height="7.448" rx="3.724" class="B"/><path d="M779.164 322.758h10.849v7.448h-10.849z" class="B"/><rect x="616.422" y="352.555" width="10.849" height="7.448" rx="3.724"/><path d="M963.602 345.102h10.849v7.448h-10.849z"/><use xlink:href="#B" x="-232.77" y="-16.551"/><path d="M771.27 361.656h10.849v7.448H771.27z" class="B"/><use xlink:href="#B" x="-325.473" y="-4.965" class="B"/><path d="M471.441 346.758h10.849v7.448h-10.849zm214.024-24h10.849v7.448h-10.849z"/><use xlink:href="#B" y="36.418"/><rect x="856.09" y="388.141" width="10.849" height="6.621" rx="3.31" class="B"/><path d="M903.434 350.895h10.849v7.448h-10.849z"/><path d="M800.859 322.758h10.849v7.448h-10.849z" class="B"/></g><path d="M496.598 276.086h62.122v163.69h-62.122z" class="B I"/><g class="F"><rect x="510.895" y="333.516" width="10.849" height="6.621" rx="3.31" class="B"/><rect x="532.594" y="308.688" width="10.849" height="7.448" rx="3.724"/><rect x="533.578" y="284.691" width="10.849" height="6.621" rx="3.31"/><rect x="510.895" y="345.93" width="10.849" height="6.621" rx="3.31" class="B"/></g><path d="M539.012 326.57h61.136v113.207h-61.136z" class="B I"/><g class="F"><use xlink:href="#B" x="-414.243" y="5.796" class="B"/><use xlink:href="#B" x="-414.243" y="30.621" class="B"/><path d="M575.988 350.895h10.849v7.448h-10.849z" class="B"/></g><path d="M195.99 246.153l-23.224-9.877c-3.652-1.553-3.652-6.729 0-8.282l23.224-9.877c1.125-.479 2.397-.479 3.522 0l23.224 9.877c3.651 1.553 3.651 6.729 0 8.282l-23.224 9.877c-1.125.479-2.397.479-3.522 0z" class="B C J"/><g class="G"><path d="M352.102 439.277h660.808" class="B L"/><g class="C"><path d="M682.994 397.654c0 4.223-2.722 8.121-7.277 10.988-4.549 2.862-10.865 4.649-17.867 4.649s-13.317-1.787-17.866-4.649c-4.556-2.867-7.277-6.765-7.277-10.988s2.721-8.122 7.277-10.989c4.549-2.862 10.864-4.649 17.866-4.649s13.318 1.787 17.867 4.649c4.555 2.867 7.277 6.765 7.277 10.989zm328.426 2.197c0 3.622-2.29 6.97-6.13 9.437-3.83 2.464-9.158 4.004-15.068 4.004s-11.238-1.54-15.073-4.004-6.126-5.815-6.126-9.437c0-1.804.707-3.917 1.961-6.15 1.251-2.227 3.025-4.537 5.109-6.727 4.119-4.327 9.394-8.13 14.109-9.884 3.859 1.762 9.135 5.568 13.478 9.894 2.2 2.194 4.14 4.507 5.53 6.736 1.4 2.24 2.21 4.343 2.21 6.131z" class="B"/></g></g><g class="B C J"><path d="M550.147 407.188c-8.885-2.367-17.98-3.512-27.092-3.547m27.092 3.547l-56.029-.246c9.499-2.358 19.223-3.586 28.938-3.551l-.001.25m27.092 3.547l-.53 1.714H494.69l-.502-1.72m55.959.006l-55.959-.006m28.867-3.541c-9.69-.035-19.39 1.189-28.867 3.541m28.867-3.541l-28.867 3.541m15.514 31.569v-.25h-.25-6.428v-3.124c0-.764.482-1.491 1.333-2.04s2.035-.892 3.357-.892h28.88c1.325 0 2.509.346 3.354.892s1.328 1.275 1.328 2.04v3.124h-6.42-.25v.25 3.368h-2.942v-3.368-.25h-.25-18.52-.25v.25 3.368h-2.942v-3.368zm43.891-24.309c0-1.398.88-2.699 2.378-3.664s3.577-1.567 5.895-1.567c2.301 0 4.379.604 5.874 1.567s2.383 2.267 2.383 3.664-.884 2.691-2.383 3.655-3.573 1.566-5.874 1.566c-2.318 0-4.4-.605-5.895-1.566s-2.378-2.263-2.378-3.655zm13.587 0c0-1.014-.643-1.899-1.604-2.518s-2.279-.999-3.71-.999-2.746.377-3.71.999-1.604 1.504-1.604 2.518.643 1.897 1.604 2.513 2.279.994 3.71.994 2.745-.375 3.71-.994 1.604-1.499 1.604-2.513zm-18.076-.814h-53.915v-1.714h53.915v1.714zm-53.629 28.449v-25.395h2.948v25.395h-2.948zm53.282 0h-2.959v-25.395h2.959v25.395zm14.564-.022h-2.943v-19.466h2.943v19.466z" stroke-width=".5"/></g><g class="F"><use xlink:href="#B" x="-708.157" y="-38.899" class="B"/><path d="M310.68 333.516h10.849v6.621H310.68z" class="B"/><rect x="146.957" y="297.93" width="10.849" height="7.448" rx="3.724" class="B"/><path d="M288.98 358.344h10.849v6.621H288.98zm-85.808-6.617h9.863v6.621h-9.863z"/><rect x="250.516" y="326.07" width="10.849" height="7.448" rx="3.724" class="B"/></g><g class="I"><path d="M220.441 285.191h62.122v154.586h-62.122zM.5 298.43h55.218v141.345H.5z" class="B"/><path d="M211.566 303.398h62.122v136.379h-62.122zM110.965 288.5h62.122v151.276h-62.122zM42.91 268.641h61.136v171.138H42.91z" class="B"/><path d="M80.387 342.297h61.136v97.483H80.387zm85.808-18.211h62.122v115.69h-62.122zm107.504-20.688h62.122v136.379h-62.122z" class="B"/></g><g class="C G"><path d="M340.751 403.864c0 4.344-2.728 8.345-7.281 11.284s-10.862 4.768-17.862 4.768-13.313-1.832-17.861-4.768c-4.554-2.939-7.282-6.94-7.282-11.284s2.728-8.344 7.282-11.284c4.548-2.935 10.862-4.768 17.861-4.768s13.313 1.833 17.862 4.768 7.281 6.94 7.281 11.284zm-206.132 8.405c0 3.622-2.286 6.97-6.125 9.437s-9.163 4.004-15.073 4.004-11.238-1.54-15.073-4.004-6.126-5.815-6.126-9.437c0-1.805.706-3.917 1.961-6.151 1.251-2.226 3.025-4.536 5.109-6.726 4.119-4.327 9.395-8.13 14.109-9.884 3.859 1.762 9.135 5.568 13.475 9.894 2.201 2.194 4.147 4.507 5.538 6.736 1.398 2.239 2.205 4.343 2.205 6.131z" class="B"/></g><g class="K M"><path d="M113.934 426.211v14.069m204.16-20.694v20.69m19.73-26.487v26.483" class="B"/></g><g class="F"><path d="M288.98 333.516h10.849v6.621H288.98z" class="B"/><rect x="228.816" y="314.484" width="10.849" height="6.621" rx="3.31"/><rect x="126.246" y="297.93" width="10.849" height="6.621" rx="3.31"/><path d="M60.164 276.414h10.849v6.621H60.164z"/><rect x="96.656" y="350.066" width="10.849" height="6.621" rx="3.31"/><rect x="10.852" y="311.172" width="9.863" height="6.621" rx="3.31" class="B"/><use xlink:href="#B" x="-782.125" y="43.035" class="B"/><rect x="228.816" y="339.312" width="10.849" height="6.621" rx="3.31" class="B"/><path d="M10.852 336h9.863v6.621h-9.863z"/><path d="M81.859 276.414h10.849v6.621H81.859z" class="B"/><use xlink:href="#B" x="-845.25" y="16.55"/><path d="M31.563 311.172h10.849v6.621H31.563z" class="B"/><use xlink:href="#B" x="-713.086" y="5.796"/><rect x="146.957" y="311.172" width="10.849" height="6.621" rx="3.31" class="B"/><path d="M81.859 301.242h10.849v6.621H81.859zM31.563 336h10.849v6.621H31.563z" class="B"/><rect x="228.816" y="326.07" width="10.849" height="7.448" rx="3.724" class="B"/><use xlink:href="#B" x="-728.868" y="-38.899"/><rect x="96.656" y="361.656" width="10.849" height="7.448" rx="3.724"/><path d="M288.98 369.934h10.849v6.621H288.98z" class="B"/><use xlink:href="#B" x="-782.125" y="54.625"/><rect x="228.816" y="350.895" width="10.849" height="7.448" rx="3.724" class="B"/><path d="M126.246 322.758h10.849v7.448h-10.849zm184.434 22.344h10.849v7.448H310.68zM81.859 288h10.849v7.448H81.859zm36.493 73.656h10.849v7.448h-10.849zm-86.789-38.898h10.849v7.448H31.563z"/><path d="M310.68 369.934h10.849v6.621H310.68zm-107.508 18.207h9.863v6.621h-9.863zm47.344-37.246h10.849v7.448h-10.849z" class="B"/><path d="M146.957 322.758h10.849v7.448h-10.849z"/></g><g class="G"><path d="M0 439.277h359.006" class="B L"/><path d="M357.517 399.851c0 3.622-2.285 6.97-6.125 9.437-3.835 2.464-9.162 4.004-15.073 4.004s-11.238-1.54-15.072-4.004c-3.84-2.467-6.126-5.815-6.126-9.437 0-1.804.706-3.917 1.961-6.15 1.25-2.227 3.025-4.537 5.109-6.727 4.119-4.327 9.394-8.13 14.109-9.884 3.858 1.762 9.134 5.568 13.474 9.894 2.202 2.194 4.147 4.507 5.539 6.736 1.397 2.24 2.204 4.343 2.204 6.131z" class="B C"/></g><g class="F"><path d="M1058.28 343.449h9.863v7.448h-9.863z"/><use xlink:href="#B" x="94.678" y="-27.305"/><rect x="1058.28" y="331.859" width="9.863" height="6.621" rx="3.31" class="B"/><path d="M1110.55 346.758h9.863v7.448h-9.863zm61.15-38.07h10.849v7.448H1171.7z" class="B"/></g><g class="I"><path d="M1044.97 276.086h62.122v163.69h-62.122zm262.35-14.898h58.177v178.586h-58.177z" class="B"/><path d="M1261.95 303.398h62.122v136.379h-62.122zm-167.66 23.172h61.136v113.207h-61.136z" class="B"/></g><g class="C G"><path d="M1136.68 399.851c0 3.622-2.28 6.97-6.12 9.437s-9.17 4.004-15.08 4.004-11.23-1.54-15.07-4.004-6.12-5.815-6.12-9.437c0-1.804.7-3.917 1.96-6.15 1.25-2.227 3.02-4.537 5.1-6.727 4.12-4.327 9.4-8.13 14.11-9.884 3.86 1.762 9.14 5.568 13.48 9.894 2.2 2.194 4.15 4.507 5.54 6.736 1.39 2.24 2.2 4.343 2.2 6.131z" class="B"/><path d="M1113.01 407.587c0 4.224-2.72 8.121-7.28 10.988-4.55 2.863-10.86 4.65-17.86 4.65-7.01 0-13.32-1.787-17.87-4.65-4.56-2.867-7.28-6.764-7.28-10.988s2.72-8.121 7.28-10.988c4.55-2.863 10.86-4.65 17.87-4.65 7 0 13.31 1.787 17.86 4.65 4.56 2.867 7.28 6.765 7.28 10.988z" class="B"/></g><g class="K M"><path d="M1089.37 423.727v16.551m230.79-26.489v26.483M1116 413.789v26.483" class="B"/></g><g class="F"><use xlink:href="#B" x="313.628" y="-17.379" class="B"/><rect x="1323.6" y="267.312" width="9.863" height="6.621" rx="3.31" class="B"/><rect x="1277.23" y="340.969" width="10.849" height="6.621" rx="3.31" class="B"/><path d="M1323.59 292.141h9.863v6.621h-9.863z"/><use xlink:href="#B" x="93.688" y="-12.414"/><use xlink:href="#B" x="93.688" y="-50.481"/><use xlink:href="#B" x="167.668" y="1.656" class="B"/><path d="M1344.3 267.312h10.849v6.621H1344.3z"/><use xlink:href="#B" x="335.328" y="7.453" class="B"/><path d="M1344.3 292.141h10.849v6.621H1344.3z" class="B"/><use xlink:href="#B" x="115.388" y="-12.414" class="B"/><rect x="1277.23" y="328.551" width="10.849" height="6.621" rx="3.31" class="B"/><rect x="1277.23" y="352.555" width="10.849" height="7.448" rx="3.724"/><use xlink:href="#B" x="335.328" y="-4.965" class="B"/><path d="M1131.27 346.758h10.849v7.448h-10.849zm213.03-67.86h10.849v7.448H1344.3z"/></g><path d="M1157.41 303.398h61.136v136.379h-61.136z" class="B I"/><g class="F"><rect x="1171.7" y="333.516" width="10.849" height="6.621" rx="3.31"/><rect x="1193.4" y="308.688" width="9.863" height="7.448" rx="3.724"/><rect x="1171.7" y="345.93" width="10.849" height="6.621" rx="3.31" class="B"/></g><path d="M1198.83 326.57h62.122v113.207h-62.122z" class="B I"/><g class="F"><use xlink:href="#B" x="246.568" y="5.796"/><use xlink:href="#B" x="246.568" y="30.621" class="B"/><path d="M1236.8 350.895h10.849v7.448H1236.8z"/></g><g class="G"><path d="M1012.91 439.277H1366" class="B L"/><path d="M1343.8 397.654c0 4.223-2.72 8.121-7.28 10.988-4.55 2.862-10.86 4.649-17.86 4.649-7.01 0-13.32-1.787-17.87-4.649-4.56-2.867-7.28-6.765-7.28-10.988s2.72-8.122 7.28-10.989c4.55-2.862 10.86-4.649 17.87-4.649 7 0 13.31 1.787 17.86 4.649 4.56 2.867 7.28 6.765 7.28 10.989z" class="B C"/></g><g class="B C J"><path d="M1183.26 403.891c9.12.035 18.21 1.156 27.1 3.472l-.41 1.289h-55.2l-.38-1.289c9.49-2.307 19.2-3.507 28.89-3.472zm-13.26 34.86v-.5h-.5-6.25v-2.874c0-.648.41-1.306 1.23-1.828.81-.518 1.97-.854 3.27-.854h29.21c1.3 0 2.45.336 3.26.854.82.52 1.23 1.179 1.23 1.828v2.874h-6.25-.5v.5 3.118h-2.48v-3.118-.5h-.5-18.73-.5v.5 3.118H1170v-3.118zm44.41-24.309c0-1.281.81-2.514 2.29-3.452 1.46-.934 3.52-1.529 5.83-1.529 2.29 0 4.34.595 5.81 1.529s2.29 2.172 2.29 3.452c0 1.275-.82 2.505-2.29 3.443s-3.52 1.528-5.81 1.528c-2.31 0-4.37-.595-5.83-1.528-1.48-.937-2.29-2.168-2.29-3.443zm13.74 0c0-1.131-.72-2.084-1.74-2.73s-2.39-1.037-3.88-1.037-2.87.387-3.89 1.037c-1.01.646-1.74 1.599-1.74 2.73s.73 2.082 1.74 2.725c1.02.647 2.4 1.032 3.89 1.032 1.48 0 2.86-.385 3.88-1.032s1.74-1.594 1.74-2.725zm-18.78-1.064h-54.05v-1.214h54.05v1.214zm-53.76 28.449v-24.895h2.49v24.895h-2.49zm53.41 0h-2.5v-24.895h2.5v24.895zm14.73-.022h-2.48v-18.966h2.48v18.966z"/></g><g stroke-width="6" class="D G"><path d="M587.266 454.031h-25.772m278.986 0h-25.771m-312.166 0h-25.772m475.268 0h-25.772m141.013 0h-25.77m-370.002 0h-25.772m-451.267 0h-25.772m137.33 0h-25.772m141.003 0h-25.772m844.694 0h-25.77m-58.95 0h-25.77" class="B"/></g><g class="E H"><path d="M821.115 452.211c.297.656.325 1.341.082 2.004s-.752 1.286-1.487 1.821-1.675.967-2.751 1.265a13.05 13.05 0 0 1-3.455.453 13.05 13.05 0 0 1-3.455-.453c-1.076-.298-2.017-.73-2.751-1.265s-1.243-1.158-1.487-1.821-.215-1.348.082-2.004m-20.82 1.11c0 1.178-.828 2.308-2.301 3.141s-3.472 1.3-5.556 1.3-4.082-.468-5.555-1.3-2.302-1.963-2.302-3.141h15.714z" class="D"/><path d="M800.784 434.449h3.929c1.08 0 3.928.666 3.928 2.221v10.103c0 1.777-2.848 5.829-11.883 5.829" class="D"/><path d="M808.641 446.665h5.893c9.526 0 9.821 5.551 9.821 5.551h-23.079l7.365-5.551zm-29.462-1.11c-3.647 0-7.144.819-9.722 2.276s-4.027 3.434-4.027 5.496h31.426c0-2.062-1.448-4.038-4.027-5.496s-6.075-2.276-9.722-2.276h-3.928z" class="C"/></g><path d="M786.937 441.113H765.43c.982 3.386 6.776 4.441 13.651 4.441h3.928c3.066.061 6.117-.261 8.937-.944 3.044-.944 3.339-3.497-5.009-3.497zm26.615-3.886v3.33z" class="C"/><path d="M813.552 437.227v3.33m-26.615.556H765.43c.982 3.386 6.776 4.441 13.651 4.441h3.928c3.066.061 6.117-.261 8.937-.944 3.044-.944 3.339-3.497-5.009-3.497z" class="D E H"/><use xlink:href="#C" class="C"/><use xlink:href="#C" class="D E H"/><use xlink:href="#D" class="C"/><g class="E H"><use xlink:href="#D" class="D"/><path d="M518.682 460.17c-2.893 0-5.238-1.349-5.238-3.013s2.345-3.012 5.238-3.012 5.237 1.348 5.237 3.012-2.345 3.013-5.237 3.013zm-20.952 0c-2.892 0-5.237-1.349-5.237-3.013s2.345-3.012 5.237-3.012 5.238 1.348 5.238 3.012-2.345 3.013-5.238 3.013z" class="C"/><path d="M482.017 445.109v3.013h7.857c1.44 0 2.619-.678 2.619-1.507v-4.519c0-.828-1.179-1.506-2.619-1.506h-3.379l-4.478 4.519z"/></g><use xlink:href="#E" class="C"/><g class="E J"><use xlink:href="#E" class="D"/><path d="M996.182 462.076c2.892 0 5.238-1.349 5.238-3.013s-2.346-3.012-5.238-3.012-5.238 1.349-5.238 3.012 2.345 3.013 5.238 3.013zm20.948 0c2.9 0 5.24-1.349 5.24-3.013s-2.34-3.012-5.24-3.012c-2.89 0-5.23 1.349-5.23 3.012s2.34 3.013 5.23 3.013zm15.72-15.061v3.013h-7.86c-1.44 0-2.62-.678-2.62-1.507v-4.519c0-.828 1.18-1.506 2.62-1.506h3.38l4.48 4.519z"/></g><g class="D H E"><path d="M167.65 452.211c.297.656.325 1.341.082 2.004s-.752 1.286-1.486 1.821-1.676.967-2.751 1.265-2.258.453-3.456.453a13.06 13.06 0 0 1-3.455-.453c-1.076-.298-2.017-.73-2.751-1.265s-1.243-1.158-1.486-1.821a2.58 2.58 0 0 1 .081-2.004m-20.82 1.11c0 1.178-.828 2.308-2.301 3.141s-3.472 1.3-5.556 1.3-4.082-.468-5.555-1.3-2.301-1.963-2.301-3.141h15.713z"/><path d="M147.32 434.449h3.928c1.08 0 3.928.666 3.928 2.221v10.103c0 1.777-2.848 5.829-11.883 5.829"/></g><g class="C"><path d="M155.177 446.665h5.892c9.526 0 9.821 5.551 9.821 5.551h-23.079l7.366-5.551zm-29.463-1.11c-3.646 0-7.144.819-9.722 2.276s-4.027 3.434-4.027 5.496h31.427c0-2.062-1.449-4.038-4.027-5.496s-6.076-2.276-9.723-2.276h-3.928z" class="E H"/><path d="M133.473 441.113h-21.508c.982 3.386 6.776 4.441 13.651 4.441h3.928c3.066.061 6.118-.261 8.937-.944 3.045-.944 3.339-3.497-5.008-3.497zm26.614-3.886v3.33z"/></g><path d="M160.087 437.227v3.33m-26.614.556h-21.508c.982 3.386 6.776 4.441 13.651 4.441h3.928c3.066.061 6.118-.261 8.937-.944 3.045-.944 3.339-3.497-5.008-3.497z" class="D E H"/><use xlink:href="#F" class="C"/><g class="E H"><use xlink:href="#F" class="D"/><path d="M342.744 462.076c2.893 0 5.238-1.349 5.238-3.013s-2.345-3.012-5.238-3.012-5.238 1.349-5.238 3.012 2.345 3.013 5.238 3.013zm20.951 0c2.893 0 5.238-1.349 5.238-3.013s-2.345-3.012-5.238-3.012-5.237 1.349-5.237 3.012 2.344 3.013 5.237 3.013zm15.714-15.061v3.013h-7.857c-1.44 0-2.619-.678-2.619-1.507v-4.519c0-.828 1.179-1.506 2.619-1.506h3.378l4.479 4.519z"/></g><use xlink:href="#G" class="C"/><use xlink:href="#G" class="D E J"/><use xlink:href="#H" class="C"/><g class="E J"><use xlink:href="#H" class="D"/><g class="C"><use xlink:href="#I"/><use xlink:href="#I" x="-20.95"/></g><path d="M1142.45 445.109v3.013h7.85c1.44 0 2.62-.678 2.62-1.507v-4.519c0-.828-1.18-1.506-2.62-1.506h-3.37l-4.48 4.519z"/></g><defs ><path id="B" d="M963.602 333.516h10.849v6.621h-10.849z"/><path id="C" d="M534.395 436.068c0-3.329-4.688-6.025-10.476-6.025h-23.57v15.063c0 1.657 2.357 3.013 5.238 3.013h28.808v-4.534"/><path id="D" d="M489.874 457.158h2.619c0-1.657 2.357-3.013 5.238-3.013s5.237 1.356 5.237 3.013h10.476c0-1.657 2.357-3.013 5.238-3.013s5.237 1.356 5.237 3.013h2.619c4.348 0 7.857-2.019 7.857-4.519v-4.519h-28.808c-2.881 0-5.238-1.356-5.238-3.013v-10.545h-4.818c-1.886 0-3.614.588-4.557 1.522l-4.479 4.504h3.379c1.44 0 2.619.678 2.619 1.506v4.519c0 .829-1.179 1.507-2.619 1.507h-7.857v4.519"/><path id="E" d="M1024.99 459.064h-2.62c0-1.657-2.36-3.013-5.24-3.013s-5.24 1.356-5.24 3.013h-10.47c0-1.657-2.358-3.013-5.238-3.013s-5.238 1.356-5.238 3.013h-2.619c-4.347 0-7.857-2.018-7.857-4.519v-4.519h28.812c2.88 0 5.23-1.356 5.23-3.013v-10.544h4.82c1.89 0 3.62.587 4.56 1.521l4.48 4.504h-3.38c-1.44 0-2.62.678-2.62 1.507v4.519c0 .828 1.18 1.506 2.62 1.506h7.86v4.519"/><path id="F" d="M371.552 459.064h-2.619c0-1.657-2.357-3.013-5.238-3.013s-5.238 1.356-5.238 3.013h-10.475c0-1.657-2.357-3.013-5.238-3.013s-5.238 1.356-5.238 3.013h-2.619c-4.347 0-7.856-2.018-7.856-4.519v-4.519h28.808c2.88 0 5.237-1.356 5.237-3.013v-10.544h4.819c1.886 0 3.614.587 4.557 1.521l4.478 4.504h-3.378c-1.44 0-2.619.678-2.619 1.507v4.519c0 .828 1.179 1.506 2.619 1.506h7.857v4.519"/><path id="G" d="M1194.82 436.068c0-3.329-4.68-6.025-10.47-6.025h-23.57v15.063c0 1.657 2.36 3.013 5.24 3.013h28.8v-4.534"/><path id="H" d="M1150.3 457.158h2.62c0-1.657 2.36-3.013 5.24-3.013s5.24 1.356 5.24 3.013h10.47c0-1.657 2.36-3.013 5.24-3.013s5.24 1.356 5.24 3.013h2.62c4.35 0 7.85-2.019 7.85-4.519v-4.519h-28.8c-2.88 0-5.24-1.356-5.24-3.013v-10.545h-4.82c-1.89 0-3.61.588-4.56 1.522l-4.47 4.504h3.37c1.44 0 2.62.678 2.62 1.506v4.519c0 .829-1.18 1.507-2.62 1.507h-7.85v4.519"/><path id="I" d="M1179.11 460.17c-2.89 0-5.24-1.349-5.24-3.013s2.35-3.012 5.24-3.012 5.24 1.348 5.24 3.012-2.35 3.013-5.24 3.013z"/></defs></svg>