<svg width="360" height="187" viewBox="0 0 360 187" fill="none" xmlns="http://www.w3.org/2000/svg">
<path d="M161.475 0H298V186H26L161.475 0Z" fill="#E3F3F3"/>
<path d="M221.969 0H360V186H85L221.969 0Z" fill="#B5E1E3"/>
<line x1="143" y1="165" x2="143" y2="72" stroke="white" stroke-width="2" stroke-linecap="square"/>
<line x1="141.5" y1="71.5" x2="141.5" y2="164.5" stroke="white" stroke-width="3" stroke-linecap="square"/>
<rect x="230.25" y="97.25" width="29.5" height="69.5" stroke="white" stroke-width="0.5"/>
<rect x="21.25" y="93.25" width="29.5" height="73.5" stroke="#E6E6E6" stroke-width="0.5"/>
<rect x="199.25" y="101.25" width="37.5" height="65.5" stroke="white" stroke-width="0.5"/>
<rect x="307.25" y="101.25" width="23.5" height="65.5" stroke="white" stroke-width="0.5"/>
<rect x="73.25" y="105.25" width="28.5" height="61.5" stroke="#E6E6E6" stroke-width="0.5"/>
<rect x="151.25" y="100.25" width="25.5" height="65.5" stroke="white" stroke-width="0.5"/>
<rect x="123.25" y="93.25" width="27.5" height="73.5" stroke="#E6E6E6" stroke-width="0.5"/>
<rect x="46.25" y="80.25" width="30.5" height="86.5" stroke="#E6E6E6" stroke-width="0.5"/>
<rect x="0.25" y="80.25" width="30.5" height="86.5" stroke="#E6E6E6" stroke-width="0.5"/>
<rect x="252.25" y="80.25" width="30.5" height="86.5" stroke="white" stroke-width="0.5"/>
<rect x="94.25" y="101.25" width="32.5" height="65.5" stroke="#E6E6E6" stroke-width="0.5"/>
<rect x="174.25" y="93.25" width="29.5" height="73.5" stroke="white" stroke-width="0.5"/>
<rect x="274.25" y="88.25" width="37.5" height="78.5" stroke="white" stroke-width="0.5"/>
<rect x="326.25" y="97.25" width="29.5" height="68.5" stroke="white" stroke-width="0.5"/>
<path d="M329.75 130.5C329.75 136.14 324.735 140.75 318.5 140.75C312.265 140.75 307.25 136.14 307.25 130.5C307.25 124.86 312.265 120.25 318.5 120.25C324.735 120.25 329.75 124.86 329.75 130.5Z" fill="#E3F3F3" stroke="white" stroke-width="0.5"/>
<path d="M126.75 139.39C126.75 141.662 125.413 143.746 123.197 145.272C120.982 146.798 117.908 147.75 114.5 147.75C111.092 147.75 108.018 146.798 105.803 145.272C103.587 143.746 102.25 141.662 102.25 139.39C102.25 138.257 102.663 136.94 103.388 135.556C104.111 134.176 105.137 132.745 106.339 131.391C108.718 128.711 111.766 126.356 114.49 125.273C116.718 126.361 119.766 128.717 122.272 131.395C123.542 132.752 124.665 134.184 125.47 135.566C126.277 136.952 126.75 138.265 126.75 139.39Z" fill="#B5E1E3" stroke="white" stroke-width="0.5"/>
<path d="M24.75 123.016C24.75 125.396 23.4083 127.573 21.1929 129.166C18.978 130.758 15.9053 131.75 12.5 131.75C9.09466 131.75 6.02205 130.758 3.80707 129.166C1.5917 127.573 0.25 125.396 0.25 123.016C0.25 121.829 0.664332 120.452 1.38983 119.006C2.11386 117.564 3.1397 116.071 4.3425 114.657C6.7214 111.861 9.76764 109.406 12.4893 108.275C14.7166 109.411 17.7628 111.868 20.2684 114.662C21.5384 116.078 22.6625 117.573 23.4678 119.016C24.2753 120.463 24.75 121.837 24.75 123.016Z" fill="#B5E1E3" stroke="#E6E6E6" stroke-width="0.5"/>
<line opacity="0.5" x1="113.5" y1="148" x2="113.5" y2="167" stroke="white" stroke-width="3"/>
<line opacity="0.5" x1="12.5" y1="132" x2="12.5" y2="166" stroke="#E6E6E6" stroke-width="3"/>
<line opacity="0.5" x1="318.5" y1="141" x2="318.5" y2="167" stroke="white" stroke-width="3"/>
<line opacity="0.5" x1="337.5" y1="132" x2="337.5" y2="167" stroke="white" stroke-width="3"/>
<rect x="25" y="108" width="6" height="6" rx="3" fill="#E6E6E6"/>
<rect x="286" y="99" width="6" height="6" rx="3" fill="white"/>
<rect x="316" y="108" width="6" height="6" rx="3" fill="white"/>
<rect x="210" y="122" width="6" height="7" rx="3" fill="white"/>
<rect x="260" y="99" width="6" height="6" rx="3" fill="white"/>
<rect x="351" y="101" width="7" height="6" rx="3" transform="rotate(90 351 101)" fill="white"/>
<rect x="337" y="101" width="7" height="6" rx="3" transform="rotate(90 337 101)" fill="white"/>
<rect x="165" y="119" width="6" height="6" rx="3" fill="white"/>
<rect x="8" y="100" width="6" height="6" rx="3" fill="white"/>
<rect x="90" y="113" width="6" height="7" rx="3" fill="white"/>
<rect x="64" y="99" width="6" height="6" rx="3" fill="white"/>
<rect x="25" y="99" width="6" height="6" fill="#E6E6E6"/>
<rect x="55" y="88" width="6" height="5" fill="#E6E6E6"/>
<rect x="106" y="111" width="6" height="7" fill="white"/>
<rect x="260" y="88" width="6" height="5" fill="white"/>
<rect x="210" y="110" width="6" height="7" fill="white"/>
<rect x="64" y="88" width="6" height="5" fill="#E6E6E6"/>
<rect x="115" y="111" width="6" height="7" fill="white"/>
<rect x="269" y="88" width="6" height="5" fill="white"/>
<rect x="219" y="110" width="6" height="7" fill="white"/>
<rect x="171" y="108" width="7" height="6" transform="rotate(90 171 108)" fill="white"/>
<rect x="8" y="90" width="6" height="5" fill="#E6E6E6"/>
<rect x="129" y="111" width="6" height="7" fill="white"/>
<rect x="36" y="99" width="6" height="6" fill="#E6E6E6"/>
<rect x="297" y="97" width="6" height="6" fill="white"/>
<rect x="219" y="121" width="6" height="7" fill="white"/>
<rect x="182" y="104" width="6" height="7" fill="white"/>
<rect x="192" y="103" width="6" height="6" fill="white"/>
<rect x="161" y="108" width="6" height="6" transform="rotate(90 161 108)" fill="white"/>
<rect x="129" y="100" width="6" height="6" fill="white"/>
<rect x="8" y="100" width="6" height="7" fill="#E6E6E6"/>
<rect x="90" y="123" width="6" height="7" fill="white"/>
<rect x="64" y="99" width="6" height="6" fill="#E6E6E6"/>
<rect x="238" y="104" width="6" height="6" fill="white"/>
<rect x="238" y="104" width="6" height="7" fill="white"/>
<line x1="98" y1="166" x2="360" y2="166" stroke="white" stroke-width="2"/>
<line x1="-8.74228e-08" y1="166" x2="98" y2="166" stroke="#E6E6E6" stroke-width="2"/>
<path d="M349.75 123.016C349.75 125.391 348.357 127.569 346.05 129.163C343.745 130.756 340.546 131.75 337 131.75C333.454 131.75 330.255 130.756 327.95 129.163C325.643 127.569 324.25 125.391 324.25 123.016C324.25 121.831 324.68 120.455 325.435 119.01C326.188 117.568 327.254 116.075 328.505 114.661C330.982 111.863 334.154 109.403 336.99 108.273C339.309 109.408 342.481 111.869 345.09 114.666C346.411 116.082 347.58 117.577 348.417 119.02C349.257 120.467 349.75 121.839 349.75 123.016Z" fill="#E3F3F3" stroke="white" stroke-width="0.5"/>
<path d="M328.403 176.652H326.686C326.686 175.303 325.141 174.199 323.253 174.199C321.364 174.199 319.819 175.303 319.819 176.652H312.951C312.951 175.303 311.406 174.199 309.517 174.199C307.628 174.199 306.083 175.303 306.083 176.652H304.366C301.516 176.652 299.215 175.008 299.215 172.972V169.291H318.102C319.99 169.291 321.536 168.187 321.536 166.838V158.25H324.695C325.931 158.25 327.064 158.728 327.682 159.489L330.618 163.157H328.403C327.459 163.157 326.686 163.709 326.686 164.384V168.064C326.686 168.739 327.459 169.291 328.403 169.291H333.554V172.972" fill="#F4AB76"/>
<path d="M328.403 176.652H326.686C326.686 175.303 325.141 174.199 323.253 174.199C321.364 174.199 319.819 175.303 319.819 176.652H312.951C312.951 175.303 311.406 174.199 309.517 174.199C307.628 174.199 306.083 175.303 306.083 176.652H304.366C301.516 176.652 299.215 175.008 299.215 172.972V169.291H318.102C319.99 169.291 321.536 168.187 321.536 166.838V158.25H324.695C325.931 158.25 327.064 158.728 327.682 159.489L330.618 163.157H328.403C327.459 163.157 326.686 163.709 326.686 164.384V168.064C326.686 168.739 327.459 169.291 328.403 169.291H333.554V172.972" stroke="#E6E6E6" stroke-width="0.5" stroke-linecap="round" stroke-linejoin="round"/>
<path d="M309.517 179.11C311.413 179.11 312.951 178.012 312.951 176.657C312.951 175.302 311.413 174.203 309.517 174.203C307.62 174.203 306.083 175.302 306.083 176.657C306.083 178.012 307.62 179.11 309.517 179.11Z" fill="#F4AB76" stroke="#E6E6E6" stroke-width="0.5" stroke-linecap="round" stroke-linejoin="round"/>
<path d="M323.253 179.11C325.149 179.11 326.686 178.012 326.686 176.657C326.686 175.302 325.149 174.203 323.253 174.203C321.356 174.203 319.819 175.302 319.819 176.657C319.819 178.012 321.356 179.11 323.253 179.11Z" fill="#F4AB76" stroke="#E6E6E6" stroke-width="0.5" stroke-linecap="round" stroke-linejoin="round"/>
<path d="M333.554 166.837V169.29H328.403C327.459 169.29 326.687 168.738 326.687 168.063V164.383C326.687 163.708 327.459 163.156 328.403 163.156H330.618L333.554 166.837Z" stroke="#E6E6E6" stroke-width="0.5" stroke-linecap="round" stroke-linejoin="round"/>
<path d="M192 165.317C192 162.777 189.315 160.719 185.999 160.719H172.499V172.215C172.499 173.48 173.849 174.515 175.499 174.515H192V171.054" fill="#F4AB76"/>
<path d="M192 165.317C192 162.777 189.315 160.719 185.999 160.719H172.499V172.215C172.499 173.48 173.849 174.515 175.499 174.515H192V171.054" stroke="#E6E6E6" stroke-width="0.5" stroke-linecap="round" stroke-linejoin="round"/>
<path d="M166.498 181.417H167.999C167.999 180.152 169.349 179.117 170.999 179.117C172.649 179.117 173.999 180.152 173.999 181.417H179.999C179.999 180.152 181.349 179.117 182.999 179.117C184.649 179.117 185.999 180.152 185.999 181.417H187.5C189.99 181.417 192 179.876 192 177.968V174.519H175.499C173.849 174.519 172.499 173.484 172.499 172.219V164.172H169.739C168.659 164.172 167.668 164.62 167.128 165.333L164.563 168.77H166.498C167.323 168.77 167.999 169.288 167.999 169.92V173.369C167.999 174.001 167.323 174.519 166.498 174.519H161.998V177.968" fill="#F4AB76"/>
<path d="M166.498 181.417H167.999C167.999 180.152 169.349 179.117 170.999 179.117C172.649 179.117 173.999 180.152 173.999 181.417H179.999C179.999 180.152 181.349 179.117 182.999 179.117C184.649 179.117 185.999 180.152 185.999 181.417H187.5C189.99 181.417 192 179.876 192 177.968V174.519H175.499C173.849 174.519 172.499 173.484 172.499 172.219V164.172H169.739C168.659 164.172 167.668 164.62 167.128 165.333L164.563 168.77H166.498C167.323 168.77 167.999 169.288 167.999 169.92V173.369C167.999 174.001 167.323 174.519 166.498 174.519H161.998V177.968" stroke="#E6E6E6" stroke-width="0.5" stroke-linecap="round" stroke-linejoin="round"/>
<path d="M182.999 183.716C181.342 183.716 179.999 182.686 179.999 181.416C179.999 180.147 181.342 179.117 182.999 179.117C184.656 179.117 186 180.147 186 181.416C186 182.686 184.656 183.716 182.999 183.716Z" fill="#F4AB76" stroke="#E6E6E6" stroke-width="0.5" stroke-linecap="round" stroke-linejoin="round"/>
<path d="M170.999 183.716C169.342 183.716 167.999 182.686 167.999 181.416C167.999 180.147 169.342 179.117 170.999 179.117C172.656 179.117 173.999 180.147 173.999 181.416C173.999 182.686 172.656 183.716 170.999 183.716Z" fill="#F4AB76" stroke="#E6E6E6" stroke-width="0.5" stroke-linecap="round" stroke-linejoin="round"/>
<path d="M161.998 172.215V174.514H166.498C167.323 174.514 167.999 173.997 167.999 173.364V169.915C167.999 169.283 167.323 168.766 166.498 168.766H164.563L161.998 172.215Z" stroke="#E6E6E6" stroke-width="0.5" stroke-linecap="round" stroke-linejoin="round"/>
<g clip-path="url(#clip0_3887_15660)">
<path d="M36.4062 172.4C36.4062 173.397 35.8926 174.353 34.9784 175.057C34.0642 175.762 32.8242 176.158 31.5312 176.158C30.2383 176.158 28.9983 175.762 28.0841 175.057C27.1699 174.353 26.6562 173.397 26.6562 172.4H36.4062ZM58.7703 171.461C58.9546 172.016 58.9719 172.596 58.8209 173.157C58.6698 173.718 58.3544 174.245 57.8987 174.697C57.443 175.15 56.8591 175.516 56.1916 175.768C55.5242 176.02 54.7908 176.151 54.0477 176.151C53.3045 176.151 52.5711 176.02 51.9037 175.768C51.2362 175.516 50.6523 175.15 50.1967 174.697C49.741 174.245 49.4255 173.718 49.2744 173.157C49.1234 172.596 49.1407 172.016 49.325 171.461" fill="#F4AB76"/>
<path d="M58.7703 171.461C58.9546 172.016 58.9719 172.596 58.8209 173.157C58.6698 173.718 58.3544 174.245 57.8987 174.697C57.443 175.15 56.8591 175.516 56.1916 175.768C55.5242 176.02 54.7908 176.151 54.0477 176.151C53.3045 176.151 52.5711 176.02 51.9037 175.768C51.2362 175.516 50.6523 175.15 50.1967 174.697C49.741 174.245 49.4255 173.718 49.2744 173.157C49.1234 172.596 49.1407 172.016 49.325 171.461M36.4062 172.4C36.4062 173.397 35.8926 174.353 34.9784 175.057C34.0642 175.762 32.8242 176.158 31.5312 176.158C30.2383 176.158 28.9983 175.762 28.0841 175.057C27.1699 174.353 26.6562 173.397 26.6562 172.4H36.4062Z" stroke="#E6E6E6" stroke-width="0.5" stroke-linecap="round" stroke-linejoin="round"/>
<path d="M51.0312 166.76H54.6875C60.5984 166.76 60.7812 171.457 60.7812 171.457H46.4609L51.0312 166.76ZM32.75 165.82C30.4874 165.82 28.3174 166.513 26.7175 167.746C25.1176 168.98 24.2188 170.652 24.2188 172.396H43.7187C43.7187 170.652 42.8199 168.98 41.22 167.746C39.6201 166.513 37.4501 165.82 35.1875 165.82H32.75Z" fill="#F4AB76" stroke="#E6E6E6" stroke-width="0.5" stroke-linecap="round" stroke-linejoin="round"/>
<path d="M37.5641 162.069H24.2188C24.8281 164.935 28.4234 165.827 32.6891 165.827H35.1266C37.0287 165.879 38.9223 165.606 40.6719 165.028C42.5609 164.23 42.7437 162.069 37.5641 162.069ZM54.0781 158.781V161.6Z" fill="#F4AB76"/>
<path d="M54.0781 158.781V161.6M37.5641 162.069H24.2188C24.8281 164.935 28.4234 165.827 32.6891 165.827H35.1266C37.0287 165.879 38.9223 165.606 40.6719 165.028C42.5609 164.23 42.7437 162.069 37.5641 162.069Z" stroke="#E6E6E6" stroke-width="0.5" stroke-linecap="round" stroke-linejoin="round"/>
<path d="M46.1547 156.43H48.5922C49.2625 156.43 51.0297 156.993 51.0297 158.309V166.857C51.0297 168.36 49.2625 171.789 43.6562 171.789" stroke="white" stroke-width="0.5" stroke-linecap="round" stroke-linejoin="round"/>
</g>
<line x1="141.5" y1="47.5" x2="141.5" y2="33.5" stroke="white" stroke-linecap="round"/>
<path d="M139.584 70.5457L125.827 64.0717C122.381 62.4504 122.381 57.5496 125.827 55.9283L139.584 49.4543C140.797 48.8832 142.203 48.8832 143.416 49.4543L157.173 55.9283C160.619 57.5496 160.619 62.4504 157.173 64.0717L143.416 70.5457C142.203 71.1168 140.797 71.1168 139.584 70.5457Z" fill="white" stroke="white"/>
<line x1="118.5" y1="174.5" x2="95.5" y2="174.5" stroke="white" stroke-width="3" stroke-linecap="round"/>
<line x1="29.5" y1="177.5" x2="6.5" y2="177.5" stroke="#E6E6E6" stroke-width="3" stroke-linecap="round"/>
<line x1="270.5" y1="174.5" x2="248.5" y2="174.5" stroke="white" stroke-width="3" stroke-linecap="round"/>
<path d="M232.995 164.938V164.688H232.745H229.452V163.13C229.452 162.772 229.676 162.414 230.106 162.134C230.535 161.856 231.141 161.675 231.823 161.675H247.145C247.828 161.675 248.433 161.856 248.86 162.134C249.289 162.414 249.511 162.772 249.511 163.13V164.688H246.223H245.973V164.938V166.627H244.646V164.938V164.688H244.396H234.571H234.321V164.938V166.627H232.995V164.938ZM239.961 146.243C244.746 146.261 249.521 146.863 254.188 148.107L253.966 148.829H225.001L224.793 148.107C229.774 146.868 234.871 146.224 239.961 146.243ZM256.28 151.913C256.28 151.216 256.715 150.551 257.489 150.047C258.261 149.546 259.342 149.227 260.552 149.227C261.753 149.227 262.833 149.545 263.604 150.047C264.379 150.551 264.815 151.217 264.815 151.913C264.815 152.607 264.379 153.271 263.604 153.774C262.833 154.276 261.753 154.594 260.552 154.594C259.342 154.594 258.261 154.276 257.489 153.774C256.715 153.272 256.28 152.607 256.28 151.913ZM263.489 151.913C263.489 151.318 263.115 150.812 262.585 150.467C262.052 150.12 261.332 149.913 260.552 149.913C259.773 149.913 259.052 150.12 258.519 150.467C257.989 150.812 257.615 151.318 257.615 151.913C257.615 152.509 257.989 153.013 258.52 153.357C259.053 153.703 259.773 153.908 260.552 153.908C261.331 153.908 262.052 153.703 262.585 153.357C263.115 153.013 263.489 152.509 263.489 151.913ZM253.664 151.361H225.295V150.675H253.664V151.361ZM225.447 166.604V153.23H226.776V166.604H225.447ZM253.48 166.604H252.145V153.23H253.48V166.604ZM261.207 166.592H259.88V156.395H261.207V166.592Z" fill="white" stroke="#E6E6E6" stroke-width="0.5"/>
<defs>
<clipPath id="clip0_3887_15660">
<rect width="39" height="25.2046" fill="white" transform="translate(23 160.773)"/>
</clipPath>
</defs>
</svg>
