<svg width="769" height="280" viewBox="0 0 769 280" fill="none" xmlns="http://www.w3.org/2000/svg">
<path d="M380.861 0H677V280H87L380.861 0Z" fill="#E3F3F3"/>
<path d="M481.896 0H769V280H197L481.896 0Z" fill="#B5E1E3"/>
<line x1="325" y1="84" x2="325" y2="63" stroke="white" stroke-width="2" stroke-linecap="round"/>
<rect x="502" y="168" width="11" height="4" fill="white"/>
<rect x="502" y="157" width="11" height="6" rx="3" fill="white"/>
<rect x="555" y="178" width="11" height="7" fill="white"/>
<rect x="616" y="126" width="11" height="6" fill="white"/>
<line x1="1.5" y1="-1.5" x2="143.017" y2="-1.5" transform="matrix(-0.0210532 0.999779 -0.999928 -0.0120393 323.686 108.781)" stroke="white" stroke-width="3" stroke-linecap="square"/>
<line x1="1.5" y1="-1.5" x2="142.994" y2="-1.5" transform="matrix(-0.0111805 -0.999938 0.999979 -0.00642301 326.107 253.273)" stroke="white" stroke-width="3" stroke-linecap="square"/>
<rect x="489.5" y="138.5" width="62" height="114" stroke="white"/>
<rect x="538.5" y="161.5" width="62" height="91" stroke="white"/>
<path d="M705.5 213.149C705.5 216.747 703.236 220.072 699.432 222.523C695.633 224.97 690.355 226.5 684.5 226.5C678.645 226.5 673.367 224.97 669.568 222.523C665.764 220.072 663.5 216.747 663.5 213.149C663.5 211.357 664.199 209.259 665.442 207.04C666.681 204.828 668.44 202.533 670.504 200.358C674.585 196.059 679.81 192.282 684.481 190.54C688.303 192.29 693.529 196.07 697.828 200.367C700.01 202.547 701.937 204.845 703.316 207.06C704.7 209.284 705.5 211.374 705.5 213.149Z" fill="#E3F3F3" stroke="white"/>
<line x1="27.5" y1="237" x2="27.5" y2="253" stroke="#E6E6E6" stroke-width="3"/>
<line x1="686.5" y1="227" x2="686.5" y2="253" stroke="white" stroke-width="3"/>
<rect x="502" y="147" width="11" height="6" fill="white"/>
<rect x="576" y="170" width="11" height="3" fill="white"/>
<rect x="523" y="147" width="11" height="6" fill="white"/>
<rect x="576" y="178" width="11" height="7" fill="white"/>
<rect x="601.5" y="119.5" width="62" height="133" stroke="white"/>
<rect x="616" y="158" width="11" height="6" rx="3" fill="white"/>
<rect x="638" y="135" width="10" height="7" rx="3.5" fill="white"/>
<rect x="638" y="126" width="10" height="6" rx="3" fill="white"/>
<rect x="644.5" y="163.5" width="61" height="89" stroke="white"/>
<rect x="654" y="171" width="11" height="3" fill="white"/>
<rect x="654" y="190" width="11" height="6" fill="white"/>
<rect x="680" y="171" width="11" height="5" fill="white"/>
<path d="M323.09 109.553L302.87 100.075C299.417 98.4558 299.417 93.5442 302.87 91.9254L323.09 82.4475C324.3 81.8803 325.7 81.8803 326.91 82.4475L347.13 91.9254C350.583 93.5442 350.583 98.4558 347.13 100.075L326.91 109.553C325.7 110.12 324.3 110.12 323.09 109.553Z" fill="white" stroke="white"/>
<rect x="416" y="158" width="11" height="6" fill="white"/>
<rect x="252" y="132" width="11" height="7" rx="3.5" fill="white"/>
<rect x="394" y="178" width="11" height="6" fill="white"/>
<rect x="308" y="172" width="10" height="6" fill="white"/>
<rect x="356" y="151" width="10" height="7" rx="3.5" fill="white"/>
<rect x="325.5" y="128.5" width="62" height="124" stroke="white"/>
<rect x="105.5" y="126.5" width="55" height="126" stroke="#E6E6E6"/>
<rect x="316.5" y="144.5" width="62" height="108" stroke="white"/>
<rect x="215.5" y="125.5" width="63" height="127" stroke="#E6E6E6"/>
<rect x="147.5" y="108.5" width="62" height="144" stroke="#E6E6E6"/>
<rect x="185.5" y="166.5" width="61" height="86" stroke="#E6E6E6"/>
<rect x="271.5" y="149.5" width="62" height="103" stroke="white"/>
<rect x="378.5" y="149.5" width="62" height="103" stroke="white"/>
<path d="M445.5 217C445.5 221.185 442.795 225.048 438.265 227.89C433.742 230.728 427.463 232.5 420.5 232.5C413.537 232.5 407.258 230.728 402.735 227.89C398.205 225.048 395.5 221.185 395.5 217C395.5 212.815 398.205 208.952 402.735 206.11C407.258 203.272 413.537 201.5 420.5 201.5C427.463 201.5 433.742 203.272 438.265 206.11C442.795 208.952 445.5 212.815 445.5 217Z" fill="white" stroke="white"/>
<path d="M239.5 225.524C239.5 229.011 237.243 232.243 233.437 234.629C229.638 237.011 224.358 238.5 218.5 238.5C212.642 238.5 207.362 237.011 203.563 234.629C199.757 232.243 197.5 229.011 197.5 225.524C197.5 223.786 198.197 221.749 199.44 219.591C200.678 217.44 202.435 215.208 204.499 213.092C208.58 208.909 213.808 205.233 218.481 203.538C222.305 205.24 227.533 208.92 231.833 213.101C234.014 215.222 235.941 217.458 237.319 219.611C238.703 221.775 239.5 223.803 239.5 225.524Z" fill="#B5E1E3" stroke="white"/>
<line x1="218.5" y1="239" x2="218.5" y2="253" stroke="white" stroke-width="3"/>
<line x1="423.5" y1="233" x2="423.5" y2="253" stroke="white" stroke-width="3"/>
<line x1="442.5" y1="227" x2="442.5" y2="253" stroke="white" stroke-width="3"/>
<rect x="394" y="158" width="11" height="6" fill="white"/>
<rect x="231" y="132" width="11" height="6" rx="3" fill="white"/>
<rect x="165" y="120" width="11" height="5" fill="#E6E6E6"/>
<rect x="202" y="171" width="11" height="6" rx="3" fill="white"/>
<rect x="116" y="137" width="10" height="7" rx="3.5" fill="#E6E6E6"/>
<rect x="286" y="190" width="11" height="7" fill="white"/>
<rect x="334" y="164" width="11" height="6" rx="3" fill="white"/>
<rect x="116" y="161" width="10" height="6" fill="#E6E6E6"/>
<rect x="187" y="120" width="11" height="5" fill="white"/>
<rect x="223" y="171" width="11" height="6" fill="#E6E6E6"/>
<rect x="137" y="137" width="10" height="7" fill="white"/>
<rect x="356" y="164" width="10" height="6" fill="white"/>
<rect x="252" y="144" width="11" height="7" rx="3.5" fill="#E6E6E6"/>
<rect x="187" y="142" width="11" height="6" fill="white"/>
<rect x="137" y="161" width="10" height="6" fill="#E6E6E6"/>
<rect x="334" y="151" width="11" height="7" rx="3.5" fill="white"/>
<rect x="340" y="134" width="11" height="6" fill="white"/>
<rect x="286" y="202" width="11" height="6" fill="white"/>
<rect x="416" y="169" width="11" height="4" fill="white"/>
<rect x="187" y="130" width="11" height="7" fill="#E6E6E6"/>
<rect x="223" y="181" width="11" height="6" fill="white"/>
<rect x="137" y="148" width="10" height="7" fill="#E6E6E6"/>
<rect x="252" y="155" width="11" height="7" fill="white"/>
<path d="M462.5 213.149C462.5 216.747 460.236 220.072 456.432 222.523C452.633 224.97 447.355 226.5 441.5 226.5C435.645 226.5 430.367 224.97 426.568 222.523C422.764 220.072 420.5 216.747 420.5 213.149C420.5 211.357 421.199 209.259 422.442 207.04C423.681 204.828 425.44 202.533 427.504 200.358C431.585 196.059 436.81 192.282 441.481 190.54C445.303 192.29 450.529 196.07 454.828 200.367C457.01 202.547 458.937 204.845 460.316 207.06C461.7 209.284 462.5 211.374 462.5 213.149Z" fill="#E3F3F3" stroke="white"/>
<line x1="692" y1="266" x2="666" y2="266" stroke="white" stroke-width="6" stroke-linecap="round"/>
<line x1="299" y1="266" x2="274" y2="266" stroke="white" stroke-width="6" stroke-linecap="round"/>
<line x1="411" y1="266" x2="385" y2="266" stroke="white" stroke-width="6" stroke-linecap="round"/>
<line x1="526" y1="266" x2="500" y2="266" stroke="white" stroke-width="6" stroke-linecap="round"/>
<rect x="-0.5" y="0.5" width="61" height="95" transform="matrix(-1 0 0 1 767 157)" stroke="white"/>
<rect width="11" height="3" transform="matrix(-1 0 0 1 758 171)" fill="white"/>
<rect width="11" height="6" transform="matrix(-1 0 0 1 758 190)" fill="white"/>
<rect width="11" height="6" transform="matrix(-1 0 0 1 731 179)" fill="white"/>
<rect x="15" y="135" width="11" height="7" fill="#E6E6E6"/>
<rect x="15" y="126" width="11" height="6" fill="#E6E6E6"/>
<rect x="0.5" y="119.5" width="62" height="133" stroke="#E6E6E6"/>
<rect x="15" y="158" width="11" height="6" rx="3" fill="#E6E6E6"/>
<rect x="37" y="135" width="10" height="7" rx="3.5" fill="#E6E6E6"/>
<rect x="37" y="126" width="10" height="6" rx="3" fill="#E6E6E6"/>
<rect x="43.5" y="157.5" width="61" height="95" stroke="#E6E6E6"/>
<rect x="53" y="171" width="11" height="3" fill="#E6E6E6"/>
<rect x="53" y="190" width="11" height="6" fill="#E6E6E6"/>
<rect x="80" y="179" width="11" height="6" fill="#E6E6E6"/>
<path d="M516.928 212.72C526.06 212.755 535.175 213.918 544.079 216.324L543.545 218.074H488.503L487.997 216.318C497.495 213.928 507.217 212.683 516.928 212.72ZM503.546 248.4V248.15H503.296H496.854V244.972C496.854 244.191 497.339 243.452 498.191 242.895C499.041 242.34 500.23 241.988 501.554 241.988H530.495C531.822 241.988 533.009 242.34 533.856 242.895C534.705 243.451 535.188 244.191 535.188 244.972V248.15H528.754H528.504V248.4V251.827H525.554V248.4V248.15H525.304H506.745H506.495V248.4V251.827H503.546V248.4ZM547.529 223.699C547.529 222.275 548.414 220.951 549.914 219.971C551.413 218.993 553.499 218.379 555.821 218.379C558.126 218.379 560.208 218.993 561.707 219.971C563.208 220.951 564.096 222.275 564.096 223.699C564.096 225.116 563.208 226.438 561.707 227.416C560.208 228.394 558.126 229.008 555.821 229.008C553.499 229.008 551.412 228.393 549.914 227.416C548.413 226.438 547.529 225.117 547.529 223.699ZM561.146 223.699C561.146 222.672 560.504 221.774 559.54 221.144C558.574 220.512 557.256 220.128 555.821 220.128C554.386 220.128 553.068 220.512 552.102 221.144C551.138 221.774 550.496 222.672 550.496 223.699C550.496 224.725 551.138 225.621 552.102 226.248C553.068 226.877 554.386 227.258 555.821 227.258C557.256 227.258 558.573 226.877 559.54 226.248C560.503 225.621 561.146 224.725 561.146 223.699ZM543.032 222.875H489.002V221.126H543.032V222.875ZM489.289 251.784V225.971H492.244V251.784H489.289ZM542.684 251.784H539.718V225.971H542.684V251.784ZM557.279 251.762H554.329V231.973H557.279V251.762Z" fill="white" stroke="#E6E6E6" stroke-width="0.5"/>
<line x1="91" y1="266" x2="65" y2="266" stroke="white" stroke-width="6" stroke-linecap="round"/>
<line x1="1" y1="252" x2="276" y2="252" stroke="#E6E6E6" stroke-width="2"/>
<line x1="768" y1="252" x2="276" y2="252" stroke="white" stroke-width="2"/>
<path d="M476.552 271.353H473.933C473.933 269.743 471.576 268.426 468.695 268.426C465.814 268.426 463.457 269.743 463.457 271.353H452.982C452.982 269.743 450.625 268.426 447.744 268.426C444.863 268.426 442.506 269.743 442.506 271.353H439.887C435.54 271.353 432.031 269.392 432.031 266.962V262.571H460.839C463.719 262.571 466.076 261.254 466.076 259.644V249.398H470.895C472.781 249.398 474.509 249.969 475.452 250.877L479.93 255.253H476.552C475.112 255.253 473.933 255.912 473.933 256.717V261.108C473.933 261.913 475.112 262.571 476.552 262.571H484.409V266.962" fill="#F4AB76"/>
<path d="M476.552 271.353H473.933C473.933 269.743 471.576 268.426 468.695 268.426C465.814 268.426 463.457 269.743 463.457 271.353H452.982C452.982 269.743 450.625 268.426 447.744 268.426C444.863 268.426 442.506 269.743 442.506 271.353H439.887C435.54 271.353 432.031 269.392 432.031 266.962V262.571H460.839C463.719 262.571 466.076 261.254 466.076 259.644V249.398H470.895C472.781 249.398 474.509 249.969 475.452 250.877L479.93 255.253H476.552C475.112 255.253 473.933 255.912 473.933 256.717V261.108C473.933 261.913 475.112 262.571 476.552 262.571H484.409V266.962" stroke="white" stroke-linecap="round" stroke-linejoin="round"/>
<path d="M447.744 274.277C450.637 274.277 452.982 272.966 452.982 271.349C452.982 269.732 450.637 268.422 447.744 268.422C444.851 268.422 442.506 269.732 442.506 271.349C442.506 272.966 444.851 274.277 447.744 274.277Z" fill="#F4AB76" stroke="white" stroke-linecap="round" stroke-linejoin="round"/>
<path d="M468.695 274.277C471.588 274.277 473.933 272.966 473.933 271.349C473.933 269.732 471.588 268.422 468.695 268.422C465.802 268.422 463.458 269.732 463.458 271.349C463.458 272.966 465.802 274.277 468.695 274.277Z" fill="#F4AB76" stroke="white" stroke-linecap="round" stroke-linejoin="round"/>
<path d="M484.409 259.641V262.568H476.552C475.112 262.568 473.933 261.91 473.933 261.105V256.714C473.933 255.909 475.112 255.25 476.552 255.25H479.93L484.409 259.641Z" stroke="white" stroke-linecap="round" stroke-linejoin="round"/>
<path d="M236.608 271.043C236.608 272.215 235.78 273.34 234.307 274.169C232.833 274.998 230.835 275.463 228.751 275.463C226.667 275.463 224.669 274.998 223.196 274.169C221.722 273.34 220.895 272.215 220.895 271.043H236.608ZM272.65 269.938C272.947 270.59 272.975 271.273 272.732 271.933C272.488 272.593 271.98 273.212 271.246 273.745C270.511 274.277 269.57 274.708 268.495 275.004C267.419 275.301 266.237 275.455 265.039 275.455C263.842 275.455 262.66 275.301 261.584 275.004C260.508 274.708 259.567 274.277 258.833 273.745C258.098 273.212 257.59 272.593 257.347 271.933C257.103 271.273 257.131 270.59 257.428 269.938" fill="#F4AB76"/>
<path d="M272.65 269.938C272.947 270.59 272.975 271.273 272.732 271.933C272.488 272.593 271.98 273.212 271.246 273.745C270.511 274.277 269.57 274.708 268.495 275.004C267.419 275.301 266.237 275.455 265.039 275.455C263.842 275.455 262.66 275.301 261.584 275.004C260.508 274.708 259.567 274.277 258.833 273.745C258.098 273.212 257.59 272.593 257.347 271.933C257.103 271.273 257.131 270.59 257.428 269.938M236.608 271.043C236.608 272.215 235.78 273.34 234.307 274.169C232.833 274.998 230.835 275.463 228.751 275.463C226.667 275.463 224.669 274.998 223.196 274.169C221.722 273.34 220.895 272.215 220.895 271.043H236.608Z" stroke="#E6E6E6" stroke-linecap="round" stroke-linejoin="round"/>
<path d="M252.32 252.258H256.248C257.328 252.258 260.176 252.921 260.176 254.468V264.525C260.176 266.294 257.328 270.327 248.293 270.327" stroke="white" stroke-linecap="round" stroke-linejoin="round"/>
<path d="M260.177 264.418H266.069C275.595 264.418 275.89 269.944 275.89 269.944H252.811L260.177 264.418ZM230.714 263.312C227.068 263.312 223.57 264.128 220.992 265.578C218.413 267.029 216.965 268.997 216.965 271.049H248.392C248.392 268.997 246.943 267.029 244.365 265.578C241.786 264.128 238.289 263.312 234.642 263.312H230.714Z" fill="#F4AB76" stroke="#E6E6E6" stroke-linecap="round" stroke-linejoin="round"/>
<path d="M238.473 258.892H216.965C217.947 262.262 223.741 263.312 230.616 263.312H234.544C237.61 263.373 240.662 263.053 243.481 262.373C246.526 261.433 246.82 258.892 238.473 258.892ZM265.087 255.023V258.339Z" fill="#F4AB76"/>
<path d="M265.087 255.023V258.339M238.473 258.892H216.965C217.947 262.262 223.741 263.312 230.616 263.312H234.544C237.61 263.373 240.662 263.053 243.481 262.373C246.526 261.433 246.82 258.892 238.473 258.892Z" stroke="#E6E6E6" stroke-linecap="round" stroke-linejoin="round"/>
<path d="M639.395 248.98C639.395 245.745 634.707 243.125 628.919 243.125H605.349V257.762C605.349 259.372 607.706 260.689 610.587 260.689H639.395V256.283" fill="#F4AB76"/>
<path d="M639.395 248.98C639.395 245.745 634.707 243.125 628.919 243.125H605.349V257.762C605.349 259.372 607.706 260.689 610.587 260.689H639.395V256.283" stroke="white" stroke-linecap="round" stroke-linejoin="round"/>
<path d="M594.874 269.471H597.493C597.493 267.86 599.85 266.543 602.731 266.543C605.611 266.543 607.968 267.86 607.968 269.471H618.444C618.444 267.86 620.801 266.543 623.682 266.543C626.562 266.543 628.919 267.86 628.919 269.471H631.538C635.886 269.471 639.395 267.509 639.395 265.08V260.689H610.587C607.706 260.689 605.349 259.371 605.349 257.761V247.516H600.531C598.645 247.516 596.917 248.086 595.974 248.994L591.495 253.37H594.874C596.314 253.37 597.493 254.029 597.493 254.834V259.225C597.493 260.03 596.314 260.689 594.874 260.689H587.017V265.08" fill="#F4AB76"/>
<path d="M594.874 269.471H597.493C597.493 267.86 599.85 266.543 602.731 266.543C605.611 266.543 607.968 267.86 607.968 269.471H618.444C618.444 267.86 620.801 266.543 623.682 266.543C626.562 266.543 628.919 267.86 628.919 269.471H631.538C635.886 269.471 639.395 267.509 639.395 265.08V260.689H610.587C607.706 260.689 605.349 259.371 605.349 257.761V247.516H600.531C598.645 247.516 596.917 248.086 595.974 248.994L591.495 253.37H594.874C596.314 253.37 597.493 254.029 597.493 254.834V259.225C597.493 260.03 596.314 260.689 594.874 260.689H587.017V265.08" stroke="white" stroke-linecap="round" stroke-linejoin="round"/>
<path d="M623.682 272.394C620.789 272.394 618.444 271.083 618.444 269.466C618.444 267.85 620.789 266.539 623.682 266.539C626.574 266.539 628.919 267.85 628.919 269.466C628.919 271.083 626.574 272.394 623.682 272.394Z" fill="#F4AB76" stroke="white" stroke-linecap="round" stroke-linejoin="round"/>
<path d="M602.73 272.394C599.838 272.394 597.493 271.083 597.493 269.466C597.493 267.85 599.838 266.539 602.73 266.539C605.623 266.539 607.968 267.85 607.968 269.466C607.968 271.083 605.623 272.394 602.73 272.394Z" fill="#F4AB76" stroke="white" stroke-linecap="round" stroke-linejoin="round"/>
<path d="M587.017 257.758V260.685H594.874C596.314 260.685 597.493 260.027 597.493 259.222V254.831C597.493 254.026 596.314 253.367 594.874 253.367H591.495L587.017 257.758Z" stroke="white" stroke-linecap="round" stroke-linejoin="round"/>
<path d="M84.395 248.98C84.395 245.745 79.7072 243.125 73.9194 243.125H50.3494V257.762C50.3494 259.372 52.7064 260.689 55.5872 260.689H84.395V256.283" fill="#F4AB76"/>
<path d="M84.395 248.98C84.395 245.745 79.7072 243.125 73.9194 243.125H50.3494V257.762C50.3494 259.372 52.7064 260.689 55.5872 260.689H84.395V256.283" stroke="#E6E6E6" stroke-linecap="round" stroke-linejoin="round"/>
<path d="M39.8738 269.471H42.4927C42.4927 267.86 44.8497 266.543 47.7305 266.543C50.6113 266.543 52.9683 267.86 52.9683 269.471H63.4439C63.4439 267.86 65.8009 266.543 68.6817 266.543C71.5624 266.543 73.9194 267.86 73.9194 269.471H76.5383C80.8857 269.471 84.395 267.509 84.395 265.08V260.689H55.5872C52.7064 260.689 50.3494 259.371 50.3494 257.761V247.516H45.5306C43.645 247.516 41.9166 248.086 40.9738 248.994L36.4955 253.37H39.8738C41.3142 253.37 42.4927 254.029 42.4927 254.834V259.225C42.4927 260.03 41.3142 260.689 39.8738 260.689H32.0172V265.08" fill="#F4AB76"/>
<path d="M39.8738 269.471H42.4927C42.4927 267.86 44.8497 266.543 47.7305 266.543C50.6113 266.543 52.9683 267.86 52.9683 269.471H63.4439C63.4439 267.86 65.8009 266.543 68.6817 266.543C71.5624 266.543 73.9194 267.86 73.9194 269.471H76.5383C80.8857 269.471 84.395 267.509 84.395 265.08V260.689H55.5872C52.7064 260.689 50.3494 259.371 50.3494 257.761V247.516H45.5306C43.645 247.516 41.9166 248.086 40.9738 248.994L36.4955 253.37H39.8738C41.3142 253.37 42.4927 254.029 42.4927 254.834V259.225C42.4927 260.03 41.3142 260.689 39.8738 260.689H32.0172V265.08" stroke="#E6E6E6" stroke-linecap="round" stroke-linejoin="round"/>
<path d="M68.6816 272.394C65.7889 272.394 63.4439 271.083 63.4439 269.466C63.4439 267.85 65.7889 266.539 68.6816 266.539C71.5744 266.539 73.9194 267.85 73.9194 269.466C73.9194 271.083 71.5744 272.394 68.6816 272.394Z" fill="#F4AB76" stroke="#E6E6E6" stroke-linecap="round" stroke-linejoin="round"/>
<path d="M47.7305 272.394C44.8376 272.394 42.4927 271.083 42.4927 269.466C42.4927 267.85 44.8376 266.539 47.7305 266.539C50.6233 266.539 52.9683 267.85 52.9683 269.466C52.9683 271.083 50.6233 272.394 47.7305 272.394Z" fill="#F4AB76" stroke="#E6E6E6" stroke-linecap="round" stroke-linejoin="round"/>
<path d="M32.0171 257.758V260.685H39.8738C41.3142 260.685 42.4927 260.027 42.4927 259.222V254.831C42.4927 254.026 41.3142 253.367 39.8738 253.367H36.4954L32.0171 257.758Z" stroke="#E6E6E6" stroke-linecap="round" stroke-linejoin="round"/>
<path d="M51.5 221C51.5 225.214 49.0989 229.077 45.1201 231.906C41.1425 234.735 35.6215 236.5 29.5 236.5C23.3785 236.5 17.8575 234.735 13.8799 231.906C9.90109 229.077 7.5 225.214 7.5 221C7.5 216.786 9.90109 212.923 13.8799 210.094C17.8575 207.265 23.3785 205.5 29.5 205.5C35.6215 205.5 41.1425 207.265 45.1201 210.094C49.0989 212.923 51.5 216.786 51.5 221Z" fill="#B5E1E3" stroke="#E6E6E6"/>
</svg>
