<svg width="80" height="80" viewBox="0 0 80 80" fill="none" xmlns="http://www.w3.org/2000/svg">
<path d="M42.4009 19.9206C41.8282 17.2298 40.6827 14.953 38.9646 12.8832C37.6283 10.6064 35.9101 8.9506 33.6194 7.70872C32.8558 7.29476 32.0923 6.88085 31.3287 6.46689C29.8015 5.22501 28.0835 4.39711 26.1745 3.77617C22.7383 2.74128 18.9202 2.74128 15.2931 3.77617C10.9024 5.01805 7.46621 7.70877 4.79362 11.6414C3.83913 13.0902 3.45733 13.7111 2.88463 14.539C-0.169757 19.5065 -0.551462 25.716 0.593933 31.5114C1.54843 36.065 4.79367 39.9976 8.42075 42.4813C9.94795 43.5162 11.2842 43.9303 13.1932 44.7582C13.575 44.9652 13.9568 44.9652 14.3386 45.1722C15.8658 45.5861 17.9658 46 19.6839 46C20.6383 46 21.5928 46.0001 22.5473 45.7931C24.6472 46.0001 26.7472 45.7931 29.038 45.1722C30.5652 44.5512 32.0922 43.7233 33.6194 43.1024C36.4828 41.2395 38.7736 38.7558 40.3008 35.8581C41.6371 33.5813 42.4009 30.8905 42.5918 28.1998C43.1644 25.3021 43.1645 22.6113 42.4009 19.9206Z" fill="#F4AB76"/>
<path d="M26.666 40.666H49.9994" stroke="#292D32" stroke-width="1.5" stroke-miterlimit="10" stroke-linecap="round" stroke-linejoin="round"/>
<path d="M26.666 54H41.266" stroke="#292D32" stroke-width="1.5" stroke-miterlimit="10" stroke-linecap="round" stroke-linejoin="round"/>
<path d="M33.3327 19.9993H46.666C53.3327 19.9993 53.3327 16.666 53.3327 13.3327C53.3327 6.66602 49.9993 6.66602 46.666 6.66602H33.3327C29.9993 6.66602 26.666 6.66602 26.666 13.3327C26.666 19.9993 29.9993 19.9993 33.3327 19.9993Z" stroke="#292D32" stroke-width="1.5" stroke-miterlimit="10" stroke-linecap="round" stroke-linejoin="round"/>
<path d="M53.3333 13.4004C64.4333 14.0004 70 18.1004 70 33.3337V53.3337C70 66.6671 66.6667 73.3337 50 73.3337H30C13.3333 73.3337 10 66.6671 10 53.3337V33.3337C10 18.1337 15.5667 14.0004 26.6667 13.4004" stroke="#292D32" stroke-width="1.5" stroke-miterlimit="10" stroke-linecap="round" stroke-linejoin="round"/>
</svg>
