<svg width="80" height="80" viewBox="0 0 80 80" fill="none" xmlns="http://www.w3.org/2000/svg">
<path d="M66.5263 23.3791C66.0735 21.2515 65.1677 19.4512 63.8092 17.8146C62.7526 16.0144 61.3941 14.7051 59.5827 13.7232C58.979 13.3959 58.3753 13.0686 57.7715 12.7413C56.5639 11.7593 55.2055 11.1047 53.6961 10.6137C50.9791 9.79543 47.9601 9.79543 45.0922 10.6137C41.6205 11.5957 38.9035 13.7232 36.7903 16.8327C36.0356 17.9783 35.7337 18.4692 35.2809 19.1239C32.8658 23.0517 32.564 27.9615 33.4696 32.5439C34.2243 36.1444 36.7903 39.2539 39.6583 41.2178C40.8658 42.0361 41.9224 42.3635 43.4319 43.0181C43.7337 43.1817 44.0356 43.1818 44.3375 43.3454C45.545 43.6727 47.2055 44 48.564 44C49.3187 44 50.0734 44 50.8281 43.8364C52.4885 44 54.1489 43.8364 55.9602 43.3454C57.1678 42.8545 58.3752 42.1998 59.5827 41.7088C61.8469 40.2359 63.6582 38.272 64.8658 35.9808C65.9224 34.1805 66.5263 32.053 66.6772 29.9254C67.13 27.6342 67.1301 25.5066 66.5263 23.3791Z" fill="#F4AB76"/>
<path d="M40.0013 13.3359V26.6693M13.3347 26.6693L21.668 35.0026M58.3347 35.0026L66.668 26.6693M10.0013 56.6693H20.0013M40.0013 56.6693L43.3347 36.6693M60.0013 56.6693H70.0013M28.3347 66.6726H13.3347C8.99705 60.9068 6.65665 53.8845 6.66801 46.6693C6.66801 28.2593 21.5913 13.3359 40.0013 13.3359C58.4113 13.3359 73.3347 28.2593 73.3347 46.6693C73.3347 54.1759 70.8547 61.1026 66.668 66.6726L51.668 66.6693" stroke="#333333" stroke-linecap="round" stroke-linejoin="round"/>
<path d="M40 76.6719C42.6522 76.6719 45.1957 75.6183 47.0711 73.7429C48.9464 71.8676 50 69.324 50 66.6719C50 64.0197 48.9464 61.4762 47.0711 59.6008C45.1957 57.7254 42.6522 56.6719 40 56.6719C37.3478 56.6719 34.8043 57.7254 32.9289 59.6008C31.0536 61.4762 30 64.0197 30 66.6719C30 69.324 31.0536 71.8676 32.9289 73.7429C34.8043 75.6183 37.3478 76.6719 40 76.6719V76.6719Z" stroke="#333333" stroke-linecap="round" stroke-linejoin="round"/>
</svg>
