<svg width="80" height="80" viewBox="0 0 80 80" fill="none" xmlns="http://www.w3.org/2000/svg">
<path d="M53.5263 54.3791C53.0735 52.2515 52.1677 50.4512 50.8092 48.8146C49.7526 47.0144 48.3941 45.7051 46.5827 44.7232C45.979 44.3959 45.3753 44.0686 44.7715 43.7413C43.5639 42.7593 42.2055 42.1047 40.6961 41.6137C37.9791 40.7954 34.9601 40.7954 32.0922 41.6137C28.6205 42.5957 25.9035 44.7232 23.7903 47.8327C23.0356 48.9783 22.7337 49.4692 22.2809 50.1239C19.8658 54.0517 19.564 58.9615 20.4696 63.5439C21.2243 67.1444 23.7903 70.2539 26.6583 72.2178C27.8658 73.0361 28.9224 73.3635 30.4319 74.0181C30.7337 74.1817 31.0356 74.1818 31.3375 74.3454C32.545 74.6727 34.2055 75 35.564 75C36.3187 75 37.0734 75 37.8281 74.8364C39.4885 75 41.1489 74.8364 42.9602 74.3454C44.1678 73.8545 45.3752 73.1998 46.5827 72.7088C48.8469 71.2359 50.6582 69.272 51.8658 66.9808C52.9224 65.1805 53.5263 63.053 53.6772 60.9254C54.13 58.6342 54.1301 56.5066 53.5263 54.3791Z" fill="#F4AB76"/>
<path d="M50.1999 64.6333C48.1333 66.0333 45.5333 67.2 42.3666 68.2333L37.0999 69.9667C23.8666 74.2333 16.8999 70.6667 12.5999 57.4333L8.33325 44.2667C4.06658 31.0333 7.59992 24.0333 20.8332 19.7667L26.0999 18.0333C27.4666 17.6 28.7666 17.2333 29.9999 17C28.9999 19.0333 28.1999 21.5 27.5333 24.3333L24.2666 38.3C20.9999 52.2333 25.2999 59.1 39.1999 62.4L44.7999 63.7333C46.7333 64.2 48.5333 64.5 50.1999 64.6333Z" stroke="#333333" stroke-linecap="round" stroke-linejoin="round"/>
<path d="M72.1999 34.8017L68.9333 48.735C66.1333 60.7683 60.5999 65.635 50.1999 64.635C48.5333 64.5016 46.7333 64.2017 44.7999 63.735L39.1999 62.4016C25.2999 59.1016 20.9999 52.235 24.2666 38.3017L27.5333 24.335C28.1999 21.5017 28.9999 19.035 29.9999 17.0017C33.8999 8.93499 40.5333 6.76832 51.6666 9.40165L57.2333 10.7017C71.1999 13.9683 75.4666 20.8683 72.1999 34.8017Z" stroke="#333333" stroke-linecap="round" stroke-linejoin="round"/>
<path d="M42.1333 28.4336L58.3 32.5336" stroke="#333333" stroke-linecap="round" stroke-linejoin="round"/>
<path d="M38.8667 41.332L48.5334 43.7987" stroke="#333333" stroke-linecap="round" stroke-linejoin="round"/>
</svg>
