<svg width="80" height="84" viewBox="0 0 80 84" fill="none" xmlns="http://www.w3.org/2000/svg">
<path d="M78.4009 57.9206C77.8282 55.2298 76.6827 52.953 74.9646 50.8832C73.6283 48.6064 71.9101 46.9506 69.6194 45.7087C68.8558 45.2948 68.0923 44.8808 67.3287 44.4669C65.8015 43.225 64.0835 42.3971 62.1745 41.7762C58.7383 40.7413 54.9202 40.7413 51.2931 41.7762C46.9024 43.0181 43.4662 45.7088 40.7936 49.6414C39.8391 51.0902 39.4573 51.7111 38.8846 52.539C35.8302 57.5065 35.4485 63.716 36.5939 69.5114C37.5484 74.065 40.7937 77.9976 44.4208 80.4813C45.9479 81.5162 47.2842 81.9303 49.1932 82.7582C49.575 82.9652 49.9568 82.9652 50.3386 83.1722C51.8658 83.5861 53.9658 84 55.6839 84C56.6383 84 57.5928 84.0001 58.5473 83.7931C60.6472 84.0001 62.7472 83.7931 65.038 83.1722C66.5652 82.5512 68.0922 81.7233 69.6194 81.1024C72.4828 79.2395 74.7736 76.7558 76.3008 73.8581C77.6371 71.5813 78.4009 68.8905 78.5918 66.1998C79.1644 63.3021 79.1645 60.6113 78.4009 57.9206Z" fill="#F4AB76"/>
<path d="M61.6673 65H48.334" stroke="#333333" stroke-width="1.5" stroke-linecap="round" stroke-linejoin="round"/>
<path d="M55 71.6673V58.334" stroke="#333333" stroke-width="1.5" stroke-linecap="round" stroke-linejoin="round"/>
<path d="M40.5327 36.2327C40.1993 36.1993 39.7993 36.1993 39.4327 36.2327C31.4993 35.966 25.1993 29.466 25.1993 21.466C25.166 13.2993 31.7993 6.66602 39.966 6.66602C48.1327 6.66602 54.766 13.2993 54.766 21.466C54.766 29.466 48.4327 35.966 40.5327 36.2327Z" stroke="#333333" stroke-width="1.5" stroke-linecap="round" stroke-linejoin="round"/>
<path d="M39.9668 72.7003C33.9001 72.7003 27.8668 71.1669 23.2668 68.1003C15.2001 62.7003 15.2001 53.9003 23.2668 48.5336C32.4335 42.4003 47.4668 42.4003 56.6335 48.5336" stroke="#333333" stroke-width="1.5" stroke-linecap="round" stroke-linejoin="round"/>
</svg>
