<svg width="80" height="80" viewBox="0 0 80 80" fill="none" xmlns="http://www.w3.org/2000/svg">
<path d="M36.5263 46.3791C36.0735 44.2515 35.1677 42.4512 33.8092 40.8146C32.7526 39.0144 31.3941 37.7051 29.5827 36.7232C28.979 36.3959 28.3753 36.0686 27.7715 35.7413C26.5639 34.7593 25.2055 34.1047 23.6961 33.6137C20.9791 32.7954 17.9601 32.7954 15.0922 33.6137C11.6205 34.5957 8.90352 36.7232 6.79031 39.8327C6.03559 40.9783 5.7337 41.4692 5.28087 42.1239C2.86577 46.0517 2.56396 50.9615 3.46962 55.5439C4.22434 59.1444 6.79034 62.2539 9.65827 64.2178C10.8658 65.0361 11.9224 65.3635 13.4319 66.0181C13.7337 66.1817 14.0356 66.1818 14.3375 66.3454C15.545 66.6727 17.2055 67 18.564 67C19.3187 67 20.0734 67 20.8281 66.8364C22.4885 67 24.1489 66.8364 25.9602 66.3454C27.1678 65.8545 28.3752 65.1998 29.5827 64.7088C31.8469 63.2359 33.6582 61.272 34.8658 58.9808C35.9224 57.1805 36.5263 55.053 36.6772 52.9254C37.13 50.6342 37.1301 48.5066 36.5263 46.3791Z" fill="#F4AB76"/>
<path d="M73.3332 33.3346V50.0013C73.3332 66.668 66.6665 73.3346 49.9998 73.3346H29.9998C13.3332 73.3346 6.6665 66.668 6.6665 50.0013V30.0013C6.6665 13.3346 13.3332 6.66797 29.9998 6.66797H46.6665" stroke="#333333" stroke-linecap="round" stroke-linejoin="round"/>
<path d="M73.3332 33.3346H59.9998C49.9998 33.3346 46.6665 30.0013 46.6665 20.0013V6.66797L73.3332 33.3346Z" stroke="#333333" stroke-linecap="round" stroke-linejoin="round"/>
<path fill-rule="evenodd" clip-rule="evenodd" d="M27.7332 40H36.5665C37.4665 40 38.5998 40.6 39.0665 41.3333L42.8332 47C43.5998 48.1333 43.4332 49.8333 42.4665 50.8L34.2665 59C33.0998 60.1667 31.1665 60.1667 29.9998 59L21.7998 50.8C20.8332 49.8333 20.6665 48.1333 21.4332 47L25.1998 41.3333C25.7332 40.6 26.8665 40 27.7332 40Z" stroke="#333333" stroke-miterlimit="10" stroke-linecap="round" stroke-linejoin="round"/>
</svg>
