<svg width="30" height="30" viewBox="0 0 30 30" fill="none" xmlns="http://www.w3.org/2000/svg">
<path d="M21.25 15.75V19.5C21.25 24.5 19.25 26.5 14.25 26.5H9.5C4.5 26.5 2.5 24.5 2.5 19.5V14.75C2.5 9.75 4.5 7.75 9.5 7.75H13.25" stroke="#F4AB76" stroke-linecap="round" stroke-linejoin="round"/>
<path d="M21.25 16.75H17.25C14.25 16.75 13.25 15.75 13.25 12.75V8.75L21.25 16.75Z" stroke="#F4AB76" stroke-linecap="round" stroke-linejoin="round"/>
<path d="M14.5 2.5H19.5" stroke="#F4AB76" stroke-linecap="round" stroke-linejoin="round"/>
<path d="M8.75 6.25C8.75 4.175 10.425 2.5 12.5 2.5H15.775" stroke="#F4AB76" stroke-linecap="round" stroke-linejoin="round"/>
<path d="M27.4998 10V17.7375C27.4998 19.675 25.9248 21.25 23.9873 21.25" stroke="#F4AB76" stroke-linecap="round" stroke-linejoin="round"/>
<path d="M27.5 10H23.75C20.9375 10 20 9.0625 20 6.25V2.5L27.5 10Z" stroke="#F4AB76" stroke-linecap="round" stroke-linejoin="round"/>
</svg>
