<svg width="30" height="30" viewBox="0 0 30 30" fill="none" xmlns="http://www.w3.org/2000/svg">
<path d="M13.75 2.5H11.25C5 2.5 2.5 5 2.5 11.25V18.75C2.5 25 5 27.5 11.25 27.5H18.75C25 27.5 27.5 25 27.5 18.75V16.25" stroke="#F4AB76" stroke-linecap="round" stroke-linejoin="round"/>
<path d="M20.0503 3.77654L10.2003 13.6265C9.82534 14.0015 9.45034 14.739 9.37534 15.2765L8.83784 19.039C8.63784 20.4015 9.60034 21.3515 10.9628 21.164L14.7253 20.6265C15.2503 20.5515 15.9878 20.1765 16.3753 19.8015L26.2253 9.95154C27.9253 8.25154 28.7253 6.27654 26.2253 3.77654C23.7253 1.27654 21.7503 2.07654 20.0503 3.77654Z" stroke="#F4AB76" stroke-miterlimit="10" stroke-linecap="round" stroke-linejoin="round"/>
<path d="M18.6377 5.1875C19.4752 8.175 21.8127 10.5125 24.8127 11.3625" stroke="#F4AB76" stroke-miterlimit="10" stroke-linecap="round" stroke-linejoin="round"/>
</svg>
