<svg width="305" height="426" viewBox="0 0 305 426" fill="none" xmlns="http://www.w3.org/2000/svg">
<circle cx="98.5" cy="105.5" r="85.5" fill="#E3F3F3"/>
<circle cx="155.5" cy="315.5" r="85.5" fill="#E3F3F3"/>
<circle cx="103.5" cy="248.5" r="84" stroke="#F4AB76"/>
<circle cx="243" cy="233" r="61.5" stroke="#B5E1E3"/>
<circle cx="181.5" cy="190.5" r="57.5" fill="#B5E1E3"/>
<g filter="url(#filter0_d_3904_15218)">
<rect x="99" y="120" width="60" height="60" rx="14" fill="white"/>
</g>
<mask id="path-7-inside-1_3904_15218" fill="white">
<path d="M123.333 149.105L125.762 141.053H140.333L142.762 149.105M140.333 158.053C139.689 158.053 139.072 157.77 138.616 157.266C138.161 156.763 137.905 156.08 137.905 155.368C137.905 154.657 138.161 153.974 138.616 153.47C139.072 152.967 139.689 152.684 140.333 152.684C140.977 152.684 141.595 152.967 142.051 153.47C142.506 153.974 142.762 154.657 142.762 155.368C142.762 156.08 142.506 156.763 142.051 157.266C141.595 157.77 140.977 158.053 140.333 158.053ZM125.762 158.053C125.118 158.053 124.5 157.77 124.045 157.266C123.589 156.763 123.333 156.08 123.333 155.368C123.333 154.657 123.589 153.974 124.045 153.47C124.5 152.967 125.118 152.684 125.762 152.684C126.406 152.684 127.024 152.967 127.479 153.47C127.935 153.974 128.19 154.657 128.19 155.368C128.19 156.08 127.935 156.763 127.479 157.266C127.024 157.77 126.406 158.053 125.762 158.053ZM142.632 140.158C142.292 139.084 141.37 138.368 140.333 138.368H125.762C124.726 138.368 123.803 139.084 123.463 140.158L120.095 150.895V165.211C120.095 165.685 120.266 166.14 120.569 166.476C120.873 166.811 121.285 167 121.714 167H123.333C123.763 167 124.175 166.811 124.478 166.476C124.782 166.14 124.952 165.685 124.952 165.211V163.421H141.143V165.211C141.143 165.685 141.313 166.14 141.617 166.476C141.921 166.811 142.333 167 142.762 167H144.381C144.81 167 145.222 166.811 145.526 166.476C145.829 166.14 146 165.685 146 165.211V150.895L142.632 140.158ZM134.537 134.789C134.197 133.716 133.274 133 132.238 133H117.667C116.63 133 115.708 133.716 115.368 134.789L112 145.526V159.842C112 160.317 112.171 160.772 112.474 161.107C112.778 161.443 113.19 161.632 113.619 161.632H115.238C115.667 161.632 116.079 161.443 116.383 161.107C116.687 160.772 116.857 160.317 116.857 159.842V152.523C116.558 152.405 116.283 152.222 116.048 151.986C115.813 151.75 115.623 151.466 115.488 151.148C115.352 150.831 115.275 150.487 115.26 150.136C115.245 149.786 115.292 149.435 115.4 149.105C115.756 148.032 116.647 147.316 117.667 147.316H117.78L118.913 143.737H115.238L117.667 135.684H134.812L134.537 134.789V134.789Z"/>
</mask>
<path d="M125.762 141.053V140.053H125.019L124.804 140.764L125.762 141.053ZM140.333 141.053L141.291 140.764L141.076 140.053H140.333V141.053ZM140.333 158.053V159.053V158.053ZM140.333 152.684V151.684V152.684ZM125.762 158.053V159.053V158.053ZM123.333 155.368H122.333H123.333ZM125.762 152.684V151.684V152.684ZM128.19 155.368H129.19H128.19ZM142.632 140.158L143.587 139.859L143.586 139.856L142.632 140.158ZM123.463 140.158L122.51 139.856L122.509 139.859L123.463 140.158ZM120.095 150.895L119.141 150.595L119.095 150.742V150.895H120.095ZM124.952 163.421V162.421H123.952V163.421H124.952ZM141.143 163.421H142.143V162.421H141.143V163.421ZM146 150.895H147V150.742L146.954 150.595L146 150.895ZM115.368 134.789L114.414 134.488L114.413 134.49L115.368 134.789ZM112 145.526L111.046 145.227L111 145.373V145.526H112ZM112 159.842H111H112ZM116.857 159.842H117.857H116.857ZM116.857 152.523H117.857V151.844L117.226 151.594L116.857 152.523ZM115.4 149.105L114.451 148.79L114.449 148.795L115.4 149.105ZM117.78 147.316V148.316H118.512L118.733 147.618L117.78 147.316ZM118.913 143.737L119.867 144.039L120.279 142.737H118.913V143.737ZM115.238 143.737L114.281 143.448L113.892 144.737H115.238V143.737ZM117.667 135.684V134.684H116.924L116.709 135.395L117.667 135.684ZM134.812 135.684V136.684H136.166L135.768 135.39L134.812 135.684ZM124.291 149.394L126.719 141.341L124.804 140.764L122.376 148.817L124.291 149.394ZM125.762 142.053H140.333V140.053H125.762V142.053ZM139.376 141.341L141.804 149.394L143.719 148.817L141.291 140.764L139.376 141.341ZM140.333 157.053C139.989 157.053 139.635 156.902 139.358 156.596L137.875 157.937C138.508 158.638 139.39 159.053 140.333 159.053V157.053ZM139.358 156.596C139.077 156.286 138.905 155.846 138.905 155.368H136.905C136.905 156.315 137.244 157.241 137.875 157.937L139.358 156.596ZM138.905 155.368C138.905 154.891 139.077 154.451 139.358 154.141L137.875 152.799C137.244 153.496 136.905 154.422 136.905 155.368H138.905ZM139.358 154.141C139.635 153.835 139.989 153.684 140.333 153.684V151.684C139.39 151.684 138.508 152.099 137.875 152.799L139.358 154.141ZM140.333 153.684C140.678 153.684 141.032 153.835 141.309 154.141L142.792 152.799C142.159 152.099 141.277 151.684 140.333 151.684V153.684ZM141.309 154.141C141.589 154.451 141.762 154.891 141.762 155.368H143.762C143.762 154.422 143.423 153.496 142.792 152.799L141.309 154.141ZM141.762 155.368C141.762 155.846 141.589 156.286 141.309 156.596L142.792 157.937C143.423 157.241 143.762 156.315 143.762 155.368H141.762ZM141.309 156.596C141.032 156.902 140.678 157.053 140.333 157.053V159.053C141.277 159.053 142.159 158.638 142.792 157.937L141.309 156.596ZM125.762 157.053C125.417 157.053 125.064 156.902 124.786 156.596L123.303 157.937C123.937 158.638 124.818 159.053 125.762 159.053V157.053ZM124.786 156.596C124.506 156.286 124.333 155.846 124.333 155.368H122.333C122.333 156.315 122.673 157.241 123.303 157.937L124.786 156.596ZM124.333 155.368C124.333 154.891 124.506 154.451 124.786 154.141L123.303 152.799C122.673 153.496 122.333 154.422 122.333 155.368H124.333ZM124.786 154.141C125.064 153.835 125.417 153.684 125.762 153.684V151.684C124.818 151.684 123.937 152.099 123.303 152.799L124.786 154.141ZM125.762 153.684C126.107 153.684 126.46 153.835 126.738 154.141L128.221 152.799C127.587 152.099 126.705 151.684 125.762 151.684V153.684ZM126.738 154.141C127.018 154.451 127.19 154.891 127.19 155.368H129.19C129.19 154.422 128.851 153.496 128.221 152.799L126.738 154.141ZM127.19 155.368C127.19 155.846 127.018 156.286 126.738 156.596L128.221 157.937C128.851 157.241 129.19 156.315 129.19 155.368H127.19ZM126.738 156.596C126.46 156.902 126.107 157.053 125.762 157.053V159.053C126.705 159.053 127.587 158.638 128.221 157.937L126.738 156.596ZM143.586 139.856C143.129 138.413 141.852 137.368 140.333 137.368V139.368C140.887 139.368 141.456 139.755 141.679 140.46L143.586 139.856ZM140.333 137.368H125.762V139.368H140.333V137.368ZM125.762 137.368C124.243 137.368 122.966 138.413 122.51 139.856L124.416 140.46C124.639 139.755 125.208 139.368 125.762 139.368V137.368ZM122.509 139.859L119.141 150.595L121.049 151.194L124.417 140.457L122.509 139.859ZM119.095 150.895V165.211H121.095V150.895H119.095ZM119.095 165.211C119.095 165.92 119.349 166.618 119.828 167.147L121.311 165.805C121.182 165.663 121.095 165.45 121.095 165.211H119.095ZM119.828 167.147C120.31 167.679 120.986 168 121.714 168V166C121.584 166 121.437 165.944 121.311 165.805L119.828 167.147ZM121.714 168H123.333V166H121.714V168ZM123.333 168C124.062 168 124.738 167.679 125.22 167.147L123.737 165.805C123.611 165.944 123.463 166 123.333 166V168ZM125.22 167.147C125.698 166.618 125.952 165.92 125.952 165.211H123.952C123.952 165.45 123.865 165.663 123.737 165.805L125.22 167.147ZM125.952 165.211V163.421H123.952V165.211H125.952ZM124.952 164.421H141.143V162.421H124.952V164.421ZM140.143 163.421V165.211H142.143V163.421H140.143ZM140.143 165.211C140.143 165.92 140.397 166.618 140.876 167.147L142.359 165.805C142.23 165.663 142.143 165.45 142.143 165.211H140.143ZM140.876 167.147C141.357 167.679 142.033 168 142.762 168V166C142.632 166 142.484 165.944 142.359 165.805L140.876 167.147ZM142.762 168H144.381V166H142.762V168ZM144.381 168C145.11 168 145.786 167.679 146.267 167.147L144.784 165.805C144.659 165.944 144.511 166 144.381 166V168ZM146.267 167.147C146.746 166.618 147 165.92 147 165.211H145C145 165.45 144.913 165.663 144.784 165.805L146.267 167.147ZM147 165.211V150.895H145V165.211H147ZM146.954 150.595L143.587 139.859L141.678 140.457L145.046 151.194L146.954 150.595ZM135.49 134.488C135.034 133.045 133.757 132 132.238 132V134C132.792 134 133.361 134.387 133.584 135.091L135.49 134.488ZM132.238 132H117.667V134H132.238V132ZM117.667 132C116.148 132 114.871 133.045 114.414 134.488L116.321 135.091C116.544 134.387 117.113 134 117.667 134V132ZM114.413 134.49L111.046 145.227L112.954 145.826L116.322 135.089L114.413 134.49ZM111 145.526V159.842H113V145.526H111ZM111 159.842C111 160.551 111.254 161.249 111.733 161.778L113.216 160.437C113.087 160.294 113 160.082 113 159.842H111ZM111.733 161.778C112.214 162.311 112.89 162.632 113.619 162.632V160.632C113.489 160.632 113.341 160.575 113.216 160.437L111.733 161.778ZM113.619 162.632H115.238V160.632H113.619V162.632ZM115.238 162.632C115.967 162.632 116.643 162.311 117.124 161.778L115.641 160.437C115.516 160.575 115.368 160.632 115.238 160.632V162.632ZM117.124 161.778C117.603 161.249 117.857 160.551 117.857 159.842H115.857C115.857 160.082 115.77 160.294 115.641 160.437L117.124 161.778ZM117.857 159.842V152.523H115.857V159.842H117.857ZM117.226 151.594C117.059 151.527 116.899 151.423 116.757 151.281L115.34 152.692C115.668 153.022 116.058 153.282 116.489 153.453L117.226 151.594ZM116.757 151.281C116.615 151.138 116.495 150.961 116.407 150.756L114.568 151.54C114.751 151.97 115.012 152.363 115.34 152.692L116.757 151.281ZM116.407 150.756C116.32 150.551 116.269 150.326 116.259 150.093L114.261 150.179C114.281 150.648 114.384 151.11 114.568 151.54L116.407 150.756ZM116.259 150.093C116.249 149.861 116.281 149.63 116.351 149.415L114.449 148.795C114.304 149.24 114.241 149.71 114.261 150.179L116.259 150.093ZM116.349 149.42C116.594 148.682 117.15 148.316 117.667 148.316V146.316C116.143 146.316 114.918 147.381 114.451 148.79L116.349 149.42ZM117.667 148.316H117.78V146.316H117.667V148.316ZM118.733 147.618L119.867 144.039L117.96 143.435L116.827 147.014L118.733 147.618ZM118.913 142.737H115.238V144.737H118.913V142.737ZM116.196 144.026L118.624 135.973L116.709 135.395L114.281 143.448L116.196 144.026ZM117.667 136.684H134.812V134.684H117.667V136.684ZM135.768 135.39L135.493 134.495L133.581 135.083L133.857 135.978L135.768 135.39Z" fill="#516163" mask="url(#path-7-inside-1_3904_15218)"/>
<g filter="url(#filter1_d_3904_15218)">
<rect x="36" y="257" width="60" height="60" rx="14" fill="white"/>
</g>
<g clip-path="url(#clip0_3904_15218)">
<mask id="path-10-inside-2_3904_15218" fill="white">
<path d="M51.125 270.002L49 272.127L53.675 278.674C53.8718 278.95 54.1317 279.174 54.4329 279.329C54.7342 279.484 55.0681 279.565 55.4069 279.564H55.5556C55.835 279.564 56.1117 279.619 56.3699 279.726C56.628 279.833 56.8626 279.989 57.0601 280.187L62.7445 285.871L57.1834 291.511C56.2322 291.231 55.2289 291.177 54.253 291.352C53.2771 291.527 52.3555 291.928 51.5613 292.521C50.767 293.115 50.122 293.885 49.6775 294.771C49.2329 295.658 49.0009 296.635 49 297.627C49.0013 298.541 49.1989 299.443 49.5795 300.274C49.9601 301.104 50.5148 301.843 51.206 302.441C51.8972 303.038 52.7087 303.48 53.5856 303.737C54.4625 303.993 55.3842 304.058 56.2884 303.927C57.1926 303.796 58.0581 303.473 58.8263 302.978C59.5944 302.483 60.2473 301.829 60.7406 301.06C61.234 300.291 61.5563 299.425 61.6857 298.521C61.8151 297.617 61.7486 296.695 61.4907 295.819L67.1305 290.257L69.1875 292.314L68.5394 294.257C68.4148 294.631 68.397 295.033 68.4878 295.417C68.5786 295.801 68.7746 296.152 69.0536 296.431L76.1851 303.562C76.5836 303.96 77.124 304.184 77.6875 304.184C78.251 304.184 78.7914 303.96 79.1899 303.562L82.5601 300.192C82.9585 299.793 83.1823 299.253 83.1823 298.689C83.1823 298.126 82.9585 297.586 82.5601 297.187L75.4286 290.056C75.1497 289.776 74.7987 289.581 74.4147 289.49C74.0308 289.399 73.6291 289.417 73.2547 289.541L71.3125 290.189L69.2725 288.149L74.9675 282.533C75.9122 282.785 76.9023 282.817 77.8613 282.626C78.8203 282.435 79.7226 282.027 80.4988 281.432C81.2749 280.837 81.904 280.072 82.3377 279.195C82.7713 278.319 82.9979 277.355 83 276.377C83 275.805 82.9256 275.251 82.7832 274.726L78.2358 279.275L74.5 278.502L73.7265 274.768L78.2761 270.219C77.1939 269.928 76.054 269.927 74.9714 270.217C73.8889 270.507 72.9019 271.077 72.11 271.87C71.3181 272.663 70.7492 273.651 70.4607 274.734C70.1722 275.817 70.1743 276.957 70.4668 278.039L64.8567 283.729L59.1851 278.062C58.7866 277.664 58.5626 277.123 58.5625 276.56V276.409C58.5625 276.07 58.4818 275.737 58.3269 275.436C58.172 275.135 57.9475 274.876 57.6721 274.679L51.125 270.002ZM71.6227 292.625C71.7214 292.526 71.8387 292.447 71.9678 292.394C72.0969 292.34 72.2352 292.313 72.375 292.313C72.5148 292.313 72.6531 292.34 72.7822 292.394C72.9113 292.447 73.0286 292.526 73.1273 292.625L79.5023 299C79.601 299.098 79.6794 299.216 79.7329 299.345C79.7863 299.474 79.8138 299.612 79.8138 299.752C79.8138 299.892 79.7863 300.03 79.7329 300.159C79.6794 300.288 79.601 300.405 79.5023 300.504C79.4035 300.603 79.2862 300.681 79.1571 300.735C79.028 300.788 78.8897 300.816 78.75 300.816C78.6103 300.816 78.472 300.788 78.3429 300.735C78.2138 300.681 78.0965 300.603 77.9977 300.504L71.6227 294.129C71.5238 294.03 71.4453 293.913 71.3917 293.784C71.3382 293.655 71.3106 293.517 71.3106 293.377C71.3106 293.237 71.3382 293.099 71.3917 292.97C71.4453 292.841 71.5238 292.723 71.6227 292.625ZM55.375 293.377L56.3759 293.891L57.5 293.946L58.1099 294.892L59.0555 295.502L59.1107 296.626L59.625 297.627L59.1107 298.628L59.0555 299.752L58.1099 300.362L57.5 301.307L56.3759 301.363L55.375 301.877L54.3741 301.363L53.25 301.307L52.6401 300.362L51.6945 299.752L51.6392 298.628L51.125 297.627L51.6392 296.626L51.6945 295.502L52.6401 294.892L53.25 293.946L54.3741 293.891L55.375 293.377Z"/>
</mask>
<path d="M51.125 270.002L49 272.127L53.675 278.674C53.8718 278.95 54.1317 279.174 54.4329 279.329C54.7342 279.484 55.0681 279.565 55.4069 279.564H55.5556C55.835 279.564 56.1117 279.619 56.3699 279.726C56.628 279.833 56.8626 279.989 57.0601 280.187L62.7445 285.871L57.1834 291.511C56.2322 291.231 55.2289 291.177 54.253 291.352C53.2771 291.527 52.3555 291.928 51.5613 292.521C50.767 293.115 50.122 293.885 49.6775 294.771C49.2329 295.658 49.0009 296.635 49 297.627C49.0013 298.541 49.1989 299.443 49.5795 300.274C49.9601 301.104 50.5148 301.843 51.206 302.441C51.8972 303.038 52.7087 303.48 53.5856 303.737C54.4625 303.993 55.3842 304.058 56.2884 303.927C57.1926 303.796 58.0581 303.473 58.8263 302.978C59.5944 302.483 60.2473 301.829 60.7406 301.06C61.234 300.291 61.5563 299.425 61.6857 298.521C61.8151 297.617 61.7486 296.695 61.4907 295.819L67.1305 290.257L69.1875 292.314L68.5394 294.257C68.4148 294.631 68.397 295.033 68.4878 295.417C68.5786 295.801 68.7746 296.152 69.0536 296.431L76.1851 303.562C76.5836 303.96 77.124 304.184 77.6875 304.184C78.251 304.184 78.7914 303.96 79.1899 303.562L82.5601 300.192C82.9585 299.793 83.1823 299.253 83.1823 298.689C83.1823 298.126 82.9585 297.586 82.5601 297.187L75.4286 290.056C75.1497 289.776 74.7987 289.581 74.4147 289.49C74.0308 289.399 73.6291 289.417 73.2547 289.541L71.3125 290.189L69.2725 288.149L74.9675 282.533C75.9122 282.785 76.9023 282.817 77.8613 282.626C78.8203 282.435 79.7226 282.027 80.4988 281.432C81.2749 280.837 81.904 280.072 82.3377 279.195C82.7713 278.319 82.9979 277.355 83 276.377C83 275.805 82.9256 275.251 82.7832 274.726L78.2358 279.275L74.5 278.502L73.7265 274.768L78.2761 270.219C77.1939 269.928 76.054 269.927 74.9714 270.217C73.8889 270.507 72.9019 271.077 72.11 271.87C71.3181 272.663 70.7492 273.651 70.4607 274.734C70.1722 275.817 70.1743 276.957 70.4668 278.039L64.8567 283.729L59.1851 278.062C58.7866 277.664 58.5626 277.123 58.5625 276.56V276.409C58.5625 276.07 58.4818 275.737 58.3269 275.436C58.172 275.135 57.9475 274.876 57.6721 274.679L51.125 270.002ZM71.6227 292.625C71.7214 292.526 71.8387 292.447 71.9678 292.394C72.0969 292.34 72.2352 292.313 72.375 292.313C72.5148 292.313 72.6531 292.34 72.7822 292.394C72.9113 292.447 73.0286 292.526 73.1273 292.625L79.5023 299C79.601 299.098 79.6794 299.216 79.7329 299.345C79.7863 299.474 79.8138 299.612 79.8138 299.752C79.8138 299.892 79.7863 300.03 79.7329 300.159C79.6794 300.288 79.601 300.405 79.5023 300.504C79.4035 300.603 79.2862 300.681 79.1571 300.735C79.028 300.788 78.8897 300.816 78.75 300.816C78.6103 300.816 78.472 300.788 78.3429 300.735C78.2138 300.681 78.0965 300.603 77.9977 300.504L71.6227 294.129C71.5238 294.03 71.4453 293.913 71.3917 293.784C71.3382 293.655 71.3106 293.517 71.3106 293.377C71.3106 293.237 71.3382 293.099 71.3917 292.97C71.4453 292.841 71.5238 292.723 71.6227 292.625ZM55.375 293.377L56.3759 293.891L57.5 293.946L58.1099 294.892L59.0555 295.502L59.1107 296.626L59.625 297.627L59.1107 298.628L59.0555 299.752L58.1099 300.362L57.5 301.307L56.3759 301.363L55.375 301.877L54.3741 301.363L53.25 301.307L52.6401 300.362L51.6945 299.752L51.6392 298.628L51.125 297.627L51.6392 296.626L51.6945 295.502L52.6401 294.892L53.25 293.946L54.3741 293.891L55.375 293.377Z" stroke="#516163" stroke-width="2" mask="url(#path-10-inside-2_3904_15218)"/>
</g>
<g filter="url(#filter2_d_3904_15218)">
<rect x="141" y="206" width="60" height="60" rx="14" fill="white"/>
</g>
<g clip-path="url(#clip1_3904_15218)">
<path d="M176.277 231.51L176.277 231.51L177.349 235.36C176.652 235.42 175.899 235.454 175.106 235.454C174.313 235.454 173.559 235.421 172.863 235.359L173.936 231.51L173.936 231.51C174.078 230.998 174.561 230.711 175.106 230.711C175.652 230.711 176.134 230.998 176.277 231.51ZM184.689 248.259L184.69 248.259C184.785 248.28 184.863 248.327 184.916 248.385C184.968 248.443 184.993 248.508 184.996 248.569C184.998 248.631 184.979 248.696 184.934 248.755C184.887 248.815 184.815 248.866 184.723 248.893L184.722 248.894L175.248 251.727C175.248 251.727 175.248 251.727 175.248 251.727C175.156 251.754 175.056 251.754 174.964 251.727C174.964 251.727 174.964 251.727 174.964 251.727L165.49 248.894L165.49 248.893C165.398 248.866 165.325 248.815 165.279 248.755C165.233 248.696 165.214 248.631 165.217 248.569C165.219 248.508 165.244 248.443 165.297 248.385C165.349 248.327 165.427 248.28 165.523 248.259L165.523 248.259L169.299 247.411L169.518 247.362L169.578 247.146L170.376 244.287C171.71 244.55 173.345 244.703 175.106 244.703C176.868 244.703 178.503 244.55 179.837 244.287L180.635 247.146L180.695 247.362L180.914 247.411L184.689 248.259ZM175.106 237.621C176.104 237.621 177.058 237.572 177.941 237.483L179.252 242.188C178.127 242.401 176.695 242.538 175.106 242.538C173.517 242.538 172.086 242.401 170.96 242.188L172.272 237.483C173.154 237.572 174.109 237.621 175.106 237.621Z" stroke="#516163" stroke-width="0.75"/>
</g>
<path d="M167.758 225.807C167.485 225.909 167.191 225.961 166.895 225.961C166.296 225.961 165.724 225.747 165.304 225.371C164.884 224.994 164.652 224.487 164.652 223.961C164.652 223.435 164.884 222.928 165.304 222.551C165.724 222.175 166.296 221.961 166.895 221.961C167.191 221.961 167.485 222.013 167.758 222.115C168.031 222.216 168.279 222.365 168.486 222.551C168.694 222.738 168.858 222.958 168.97 223.2C169.081 223.442 169.139 223.7 169.139 223.961C169.139 224.222 169.081 224.48 168.97 224.722C168.858 224.964 168.694 225.184 168.486 225.371C168.279 225.557 168.031 225.706 167.758 225.807ZM168.486 231.038C168.066 231.414 167.494 231.628 166.895 231.628C166.296 231.628 165.724 231.414 165.304 231.038C164.884 230.661 164.652 230.154 164.652 229.628C164.652 229.102 164.884 228.595 165.304 228.218C165.724 227.842 166.296 227.628 166.895 227.628C167.494 227.628 168.066 227.842 168.486 228.218C168.906 228.595 169.139 229.102 169.139 229.628C169.139 230.154 168.906 230.661 168.486 231.038ZM169.139 235.295C169.139 235.821 168.906 236.328 168.486 236.704C168.066 237.081 167.494 237.295 166.895 237.295C166.296 237.295 165.724 237.081 165.304 236.704C164.884 236.328 164.652 235.821 164.652 235.295C164.652 234.769 164.884 234.262 165.304 233.885C165.724 233.508 166.296 233.295 166.895 233.295C167.494 233.295 168.066 233.508 168.486 233.885C168.906 234.262 169.139 234.769 169.139 235.295Z" stroke="#516163" stroke-width="0.25"/>
<path d="M160.316 222.208H160.691V221.833C160.691 221.195 160.973 220.574 161.491 220.109C162.011 219.643 162.723 219.375 163.474 219.375H169.79C170.54 219.375 171.253 219.643 171.772 220.109C172.291 220.574 172.573 221.195 172.573 221.833V222.208H172.948H175.504C175.081 222.917 174.214 223.897 172.84 224.308L172.573 224.388V224.667V227.5V227.875H172.948H175.504C175.081 228.584 174.214 229.564 172.84 229.975L172.573 230.055V230.334V233.167V233.542H172.948H175.504C175.081 234.251 174.214 235.231 172.84 235.641L172.573 235.721V236.001V237.417C172.573 238.056 172.291 238.677 171.772 239.142C171.253 239.608 170.54 239.876 169.79 239.876H163.474C162.723 239.876 162.011 239.608 161.491 239.142C160.973 238.677 160.691 238.056 160.691 237.417V236.001V235.721L160.423 235.641C159.05 235.231 158.183 234.251 157.76 233.542H160.316H160.691V233.167V230.334V230.055L160.423 229.975C159.05 229.564 158.183 228.584 157.76 227.875H160.316H160.691V227.5V224.667V224.388L160.423 224.308C159.05 223.897 158.183 222.917 157.76 222.208H160.316ZM163.474 220.042C162.968 220.042 162.476 220.222 162.107 220.553C161.737 220.885 161.52 221.344 161.52 221.833V237.417C161.52 237.907 161.737 238.366 162.107 238.698C162.476 239.029 162.968 239.209 163.474 239.209H169.79C170.296 239.209 170.788 239.029 171.157 238.698C171.527 238.366 171.744 237.907 171.744 237.417V221.833C171.744 221.344 171.527 220.885 171.157 220.553C170.788 220.222 170.296 220.042 169.79 220.042H163.474Z" stroke="#516163" stroke-width="0.75"/>
<path d="M167.083 250.836L167.083 239.502" stroke="#516163"/>
<g filter="url(#filter3_d_3904_15218)">
<rect x="226" y="240" width="60" height="60" rx="14" fill="white"/>
</g>
<path d="M263.231 279.723C263.73 279.723 264.21 279.474 264.563 279.032C264.917 278.589 265.115 277.988 265.115 277.362V272.641C265.115 272.015 264.917 271.415 264.563 270.972C264.21 270.529 263.73 270.28 263.231 270.28H260.404L258.953 264.804C258.822 264.315 258.567 263.894 258.227 263.604C257.886 263.314 257.48 263.172 257.069 263.199H249.512C249.101 263.172 248.695 263.314 248.355 263.604C248.014 263.894 247.759 264.315 247.628 264.804L246.271 270.28H242.503C242.003 270.28 241.523 270.529 241.17 270.972C240.817 271.415 240.618 272.015 240.618 272.641V277.362C240.618 277.988 240.817 278.589 241.17 279.032C241.523 279.474 242.003 279.723 242.503 279.723" stroke="#516163" stroke-linejoin="round"/>
<path d="M246.275 284.45C248.357 284.45 250.044 282.337 250.044 279.729C250.044 277.122 248.357 275.008 246.275 275.008C244.193 275.008 242.506 277.122 242.506 279.729C242.506 282.337 244.193 284.45 246.275 284.45Z" stroke="#516163" stroke-linejoin="round"/>
<path d="M259.461 284.45C261.543 284.45 263.23 282.337 263.23 279.729C263.23 277.122 261.543 275.008 259.461 275.008C257.379 275.008 255.692 277.122 255.692 279.729C255.692 282.337 257.379 284.45 259.461 284.45Z" stroke="#516163" stroke-linejoin="round"/>
<path d="M250.043 279.719H255.697" stroke="#516163" stroke-linejoin="round"/>
<path d="M239 285.586H276.643" stroke="#516163" stroke-miterlimit="10" stroke-linecap="round" stroke-linejoin="round"/>
<path d="M270.372 284.448L270.372 264.898" stroke="#516163" stroke-miterlimit="10" stroke-linejoin="round"/>
<path d="M270.381 254.984C268.928 254.984 267.762 256.373 267.762 258.101V261.317C267.762 263.045 268.928 264.434 270.381 264.434C271.833 264.434 273 263.045 273 261.317V258.101C273 256.373 271.833 254.984 270.381 254.984Z" stroke="#516163" stroke-miterlimit="10" stroke-linejoin="round"/>
<g filter="url(#filter4_d_3904_15218)">
<rect x="10" y="163" width="60" height="60" rx="14" fill="white"/>
</g>
<g clip-path="url(#clip2_3904_15218)">
<path d="M39.6358 188.261H28.7072L23.8501 183.404L28.7072 178.547H39.6358" stroke="#516163" stroke-linecap="round" stroke-linejoin="round"/>
<path d="M39.6367 195.542H50.5653L55.4224 190.685L50.5653 185.828H39.6367" stroke="#516163" stroke-linecap="round" stroke-linejoin="round"/>
<path d="M39.6358 202.831H28.7072L23.8501 197.974L28.7072 193.117H39.6358" stroke="#516163" stroke-linecap="round" stroke-linejoin="round"/>
<path d="M39.6365 178.547V210.118" stroke="#516163" stroke-linecap="round" stroke-linejoin="round"/>
</g>
<g filter="url(#filter5_d_3904_15218)">
<rect x="166" y="313" width="60" height="60" rx="14" fill="white"/>
</g>
<path d="M196.001 331.664V337.331M184.667 337.331L188.209 340.872M203.792 340.872L207.334 337.331M183.251 350.081H187.501M196.001 350.081L197.417 341.581M204.501 350.081H208.751M191.042 354.332H184.667C182.824 351.882 181.829 348.897 181.834 345.831C181.834 338.006 188.176 331.664 196.001 331.664C203.825 331.664 210.167 338.006 210.167 345.831C210.167 349.021 209.113 351.965 207.334 354.332L200.959 354.331" stroke="#516163" stroke-linecap="round" stroke-linejoin="round"/>
<path d="M196 358.578C197.127 358.578 198.208 358.13 199.005 357.333C199.802 356.536 200.25 355.455 200.25 354.328C200.25 353.201 199.802 352.12 199.005 351.323C198.208 350.526 197.127 350.078 196 350.078C194.873 350.078 193.792 350.526 192.995 351.323C192.198 352.12 191.75 353.201 191.75 354.328C191.75 355.455 192.198 356.536 192.995 357.333C193.792 358.13 194.873 358.578 196 358.578V358.578Z" stroke="#516163" stroke-linecap="round" stroke-linejoin="round"/>
<g filter="url(#filter6_d_3904_15218)">
<rect x="83" y="352" width="60" height="60" rx="14" fill="white"/>
</g>
<path d="M112.533 375.363C110.812 376.787 108.348 377.224 106.184 376.662L102.249 379.925C101.965 380.168 101.405 380.314 101.004 380.266L99.183 380.057C98.5815 379.988 98.0218 379.516 97.9299 379.016L97.6792 377.502C97.6207 377.169 97.8129 376.704 98.0886 376.467L102.015 373.204C101.347 371.399 101.865 369.35 103.586 367.927C106.05 365.879 110.052 365.879 112.525 367.927C114.998 369.975 114.998 373.315 112.533 375.363Z" stroke="#516163" stroke-miterlimit="10" stroke-linecap="round" stroke-linejoin="round"/>
<path d="M101.756 377.141L103.678 378.738" stroke="#516163" stroke-miterlimit="10" stroke-linecap="round" stroke-linejoin="round"/>
<path d="M108.114 372.638C108.806 372.638 109.367 372.171 109.367 371.596C109.367 371.021 108.806 370.555 108.114 370.555C107.422 370.555 106.861 371.021 106.861 371.596C106.861 372.171 107.422 372.638 108.114 372.638Z" stroke="#516163" stroke-linecap="round" stroke-linejoin="round"/>
<path d="M120.025 377.516H111.777C108.852 377.516 108.206 378.774 107.83 380.317L106.502 385.807H125.3L123.973 380.317C123.597 378.774 122.951 377.516 120.025 377.516Z" stroke="#516163" stroke-linecap="round" stroke-linejoin="round"/>
<path d="M127.639 394.756C127.768 395.944 126.663 396.969 125.254 396.969H123.045C121.776 396.969 121.6 396.502 121.376 395.923L121.141 395.314C120.813 394.482 120.601 393.924 118.909 393.924H112.894C111.202 393.924 110.955 394.553 110.661 395.314L110.426 395.923C110.203 396.502 110.027 396.969 108.758 396.969H106.549C105.14 396.969 104.035 395.944 104.164 394.756L104.822 388.575C104.987 387.053 105.327 385.805 108.406 385.805H123.397C126.475 385.805 126.816 387.053 126.981 388.575L127.639 394.756Z" stroke="#516163" stroke-linecap="round" stroke-linejoin="round"/>
<path d="M106.502 382.758H105.327" stroke="#516163" stroke-linecap="round" stroke-linejoin="round"/>
<path d="M126.475 382.758H125.301" stroke="#516163" stroke-linecap="round" stroke-linejoin="round"/>
<path d="M115.901 377.688V379.717" stroke="#516163" stroke-linecap="round" stroke-linejoin="round"/>
<path d="M114.139 379.719H117.664" stroke="#516163" stroke-linecap="round" stroke-linejoin="round"/>
<path d="M108.852 389.867H112.377" stroke="#516163" stroke-linecap="round" stroke-linejoin="round"/>
<path d="M119.426 389.867H122.951" stroke="#516163" stroke-linecap="round" stroke-linejoin="round"/>
<circle cx="209" cy="78" r="77.5" stroke="#F4AB76"/>
<g filter="url(#filter7_d_3904_15218)">
<rect x="220" y="116" width="60" height="60" rx="14" fill="white"/>
</g>
<path d="M249.479 141.188H242.021C239.375 141.188 238.791 142.465 238.451 144.031L237.25 149.606H254.25L253.049 144.031C252.709 142.465 252.125 141.188 249.479 141.188Z" stroke="#516163" stroke-linecap="round" stroke-linejoin="round"/>
<path d="M256.364 158.697C256.481 159.903 255.482 160.944 254.207 160.944H252.21C251.062 160.944 250.903 160.47 250.701 159.882L250.489 159.264C250.191 158.419 250 157.853 248.47 157.853H243.03C241.5 157.853 241.277 158.491 241.011 159.264L240.799 159.882C240.597 160.47 240.437 160.944 239.29 160.944H237.292C236.017 160.944 235.019 159.903 235.136 158.697L235.731 152.422C235.879 150.877 236.187 149.609 238.971 149.609H252.529C255.312 149.609 255.62 150.877 255.769 152.422L256.364 158.697Z" stroke="#516163" stroke-linecap="round" stroke-linejoin="round"/>
<path d="M237.25 146.516H236.188" stroke="#516163" stroke-linecap="round" stroke-linejoin="round"/>
<path d="M239.375 153.727H242.562" stroke="#516163" stroke-linecap="round" stroke-linejoin="round"/>
<path d="M248.938 153.727H252.125" stroke="#516163" stroke-linecap="round" stroke-linejoin="round"/>
<path d="M257.43 130.535L253.896 131.826C253.081 132.122 252.415 133.056 252.415 133.894V138.998C252.415 139.808 252.968 140.873 253.641 141.361L256.687 143.566C257.685 144.294 259.329 144.294 260.327 143.566L263.373 141.361C264.046 140.873 264.599 139.808 264.599 138.998V133.894C264.599 133.049 263.933 132.115 263.118 131.819L259.584 130.535C258.981 130.322 258.018 130.322 257.43 130.535Z" stroke="#516163" stroke-linecap="round" stroke-linejoin="round"/>
<path d="M256.41 137.153L257.551 138.258L260.597 135.305" stroke="#516163" stroke-linecap="round" stroke-linejoin="round"/>
<defs>
<filter id="filter0_d_3904_15218" x="89" y="114" width="80" height="80" filterUnits="userSpaceOnUse" color-interpolation-filters="sRGB">
<feFlood flood-opacity="0" result="BackgroundImageFix"/>
<feColorMatrix in="SourceAlpha" type="matrix" values="0 0 0 0 0 0 0 0 0 0 0 0 0 0 0 0 0 0 127 0" result="hardAlpha"/>
<feOffset dy="4"/>
<feGaussianBlur stdDeviation="5"/>
<feComposite in2="hardAlpha" operator="out"/>
<feColorMatrix type="matrix" values="0 0 0 0 0 0 0 0 0 0 0 0 0 0 0 0 0 0 0.15 0"/>
<feBlend mode="normal" in2="BackgroundImageFix" result="effect1_dropShadow_3904_15218"/>
<feBlend mode="normal" in="SourceGraphic" in2="effect1_dropShadow_3904_15218" result="shape"/>
</filter>
<filter id="filter1_d_3904_15218" x="26" y="251" width="80" height="80" filterUnits="userSpaceOnUse" color-interpolation-filters="sRGB">
<feFlood flood-opacity="0" result="BackgroundImageFix"/>
<feColorMatrix in="SourceAlpha" type="matrix" values="0 0 0 0 0 0 0 0 0 0 0 0 0 0 0 0 0 0 127 0" result="hardAlpha"/>
<feOffset dy="4"/>
<feGaussianBlur stdDeviation="5"/>
<feComposite in2="hardAlpha" operator="out"/>
<feColorMatrix type="matrix" values="0 0 0 0 0 0 0 0 0 0 0 0 0 0 0 0 0 0 0.15 0"/>
<feBlend mode="normal" in2="BackgroundImageFix" result="effect1_dropShadow_3904_15218"/>
<feBlend mode="normal" in="SourceGraphic" in2="effect1_dropShadow_3904_15218" result="shape"/>
</filter>
<filter id="filter2_d_3904_15218" x="131" y="200" width="80" height="80" filterUnits="userSpaceOnUse" color-interpolation-filters="sRGB">
<feFlood flood-opacity="0" result="BackgroundImageFix"/>
<feColorMatrix in="SourceAlpha" type="matrix" values="0 0 0 0 0 0 0 0 0 0 0 0 0 0 0 0 0 0 127 0" result="hardAlpha"/>
<feOffset dy="4"/>
<feGaussianBlur stdDeviation="5"/>
<feComposite in2="hardAlpha" operator="out"/>
<feColorMatrix type="matrix" values="0 0 0 0 0 0 0 0 0 0 0 0 0 0 0 0 0 0 0.15 0"/>
<feBlend mode="normal" in2="BackgroundImageFix" result="effect1_dropShadow_3904_15218"/>
<feBlend mode="normal" in="SourceGraphic" in2="effect1_dropShadow_3904_15218" result="shape"/>
</filter>
<filter id="filter3_d_3904_15218" x="216" y="234" width="80" height="80" filterUnits="userSpaceOnUse" color-interpolation-filters="sRGB">
<feFlood flood-opacity="0" result="BackgroundImageFix"/>
<feColorMatrix in="SourceAlpha" type="matrix" values="0 0 0 0 0 0 0 0 0 0 0 0 0 0 0 0 0 0 127 0" result="hardAlpha"/>
<feOffset dy="4"/>
<feGaussianBlur stdDeviation="5"/>
<feComposite in2="hardAlpha" operator="out"/>
<feColorMatrix type="matrix" values="0 0 0 0 0 0 0 0 0 0 0 0 0 0 0 0 0 0 0.15 0"/>
<feBlend mode="normal" in2="BackgroundImageFix" result="effect1_dropShadow_3904_15218"/>
<feBlend mode="normal" in="SourceGraphic" in2="effect1_dropShadow_3904_15218" result="shape"/>
</filter>
<filter id="filter4_d_3904_15218" x="0" y="157" width="80" height="80" filterUnits="userSpaceOnUse" color-interpolation-filters="sRGB">
<feFlood flood-opacity="0" result="BackgroundImageFix"/>
<feColorMatrix in="SourceAlpha" type="matrix" values="0 0 0 0 0 0 0 0 0 0 0 0 0 0 0 0 0 0 127 0" result="hardAlpha"/>
<feOffset dy="4"/>
<feGaussianBlur stdDeviation="5"/>
<feComposite in2="hardAlpha" operator="out"/>
<feColorMatrix type="matrix" values="0 0 0 0 0 0 0 0 0 0 0 0 0 0 0 0 0 0 0.15 0"/>
<feBlend mode="normal" in2="BackgroundImageFix" result="effect1_dropShadow_3904_15218"/>
<feBlend mode="normal" in="SourceGraphic" in2="effect1_dropShadow_3904_15218" result="shape"/>
</filter>
<filter id="filter5_d_3904_15218" x="156" y="307" width="80" height="80" filterUnits="userSpaceOnUse" color-interpolation-filters="sRGB">
<feFlood flood-opacity="0" result="BackgroundImageFix"/>
<feColorMatrix in="SourceAlpha" type="matrix" values="0 0 0 0 0 0 0 0 0 0 0 0 0 0 0 0 0 0 127 0" result="hardAlpha"/>
<feOffset dy="4"/>
<feGaussianBlur stdDeviation="5"/>
<feComposite in2="hardAlpha" operator="out"/>
<feColorMatrix type="matrix" values="0 0 0 0 0 0 0 0 0 0 0 0 0 0 0 0 0 0 0.15 0"/>
<feBlend mode="normal" in2="BackgroundImageFix" result="effect1_dropShadow_3904_15218"/>
<feBlend mode="normal" in="SourceGraphic" in2="effect1_dropShadow_3904_15218" result="shape"/>
</filter>
<filter id="filter6_d_3904_15218" x="73" y="346" width="80" height="80" filterUnits="userSpaceOnUse" color-interpolation-filters="sRGB">
<feFlood flood-opacity="0" result="BackgroundImageFix"/>
<feColorMatrix in="SourceAlpha" type="matrix" values="0 0 0 0 0 0 0 0 0 0 0 0 0 0 0 0 0 0 127 0" result="hardAlpha"/>
<feOffset dy="4"/>
<feGaussianBlur stdDeviation="5"/>
<feComposite in2="hardAlpha" operator="out"/>
<feColorMatrix type="matrix" values="0 0 0 0 0 0 0 0 0 0 0 0 0 0 0 0 0 0 0.15 0"/>
<feBlend mode="normal" in2="BackgroundImageFix" result="effect1_dropShadow_3904_15218"/>
<feBlend mode="normal" in="SourceGraphic" in2="effect1_dropShadow_3904_15218" result="shape"/>
</filter>
<filter id="filter7_d_3904_15218" x="210" y="110" width="80" height="80" filterUnits="userSpaceOnUse" color-interpolation-filters="sRGB">
<feFlood flood-opacity="0" result="BackgroundImageFix"/>
<feColorMatrix in="SourceAlpha" type="matrix" values="0 0 0 0 0 0 0 0 0 0 0 0 0 0 0 0 0 0 127 0" result="hardAlpha"/>
<feOffset dy="4"/>
<feGaussianBlur stdDeviation="5"/>
<feComposite in2="hardAlpha" operator="out"/>
<feColorMatrix type="matrix" values="0 0 0 0 0 0 0 0 0 0 0 0 0 0 0 0 0 0 0.15 0"/>
<feBlend mode="normal" in2="BackgroundImageFix" result="effect1_dropShadow_3904_15218"/>
<feBlend mode="normal" in="SourceGraphic" in2="effect1_dropShadow_3904_15218" result="shape"/>
</filter>
<clipPath id="clip0_3904_15218">
<rect width="34" height="34" fill="white" transform="translate(49 270)"/>
</clipPath>
<clipPath id="clip1_3904_15218">
<rect width="25.2637" height="22.6677" fill="white" transform="translate(162.736 230.336)"/>
</clipPath>
<clipPath id="clip2_3904_15218">
<rect width="34" height="34" fill="white" transform="translate(23 176)"/>
</clipPath>
</defs>
</svg>
