<svg width="73" height="71" viewBox="0 0 73 71" fill="none" xmlns="http://www.w3.org/2000/svg">
<path d="M72.4009 17.3946C71.8282 14.7043 70.6827 12.4278 68.9646 10.3583C67.6283 8.08186 65.9101 6.42627 63.6193 5.18457C62.8558 4.77068 62.0922 4.35683 61.3287 3.94293C59.8015 2.70124 58.0835 1.87347 56.1745 1.25262C52.7383 0.217876 48.9202 0.217876 45.2931 1.25262C40.9024 2.49431 37.4662 5.18462 34.7936 9.11665C33.8391 10.5653 33.4573 11.1861 32.8846 12.0139C29.8302 16.9806 29.4485 23.1891 30.5939 28.9837C31.5484 33.5366 34.7937 37.4686 38.4208 39.952C39.9479 40.9867 41.2842 41.4007 43.1932 42.2285C43.575 42.4354 43.9568 42.4355 44.3386 42.6424C45.8658 43.0563 47.9658 43.4701 49.6838 43.4701C50.6383 43.4701 51.5928 43.4702 52.5473 43.2632C54.6472 43.4702 56.7472 43.2632 59.038 42.6424C60.5651 42.0216 62.0922 41.1938 63.6193 40.5729C66.4828 38.7104 68.7736 36.227 70.3008 33.3297C71.6371 31.0533 72.4008 28.3629 72.5917 25.6726C73.1644 22.7753 73.1645 20.0849 72.4009 17.3946Z" fill="#F4AB76"/>
<path d="M61.25 21.4193V50.5859C61.25 59.3359 56.875 65.1693 46.6667 65.1693H23.3333C13.125 65.1693 8.75 59.3359 8.75 50.5859V21.4193C8.75 12.6693 13.125 6.83594 23.3333 6.83594H46.6667C56.875 6.83594 61.25 12.6693 61.25 21.4193Z" stroke="#516163" stroke-miterlimit="10" stroke-linecap="round" stroke-linejoin="round"/>
<path d="M45.2082 6.83594V29.7609C45.2082 31.0442 43.6914 31.6859 42.7581 30.84L35.9916 24.5985C35.4374 24.0735 34.5623 24.0735 34.0081 24.5985L27.2416 30.84C26.3082 31.6859 24.7915 31.0442 24.7915 29.7609V6.83594H45.2082Z" stroke="#516163" stroke-miterlimit="10" stroke-linecap="round" stroke-linejoin="round"/>
<path d="M38.646 41.8359H51.0418" stroke="#516163" stroke-miterlimit="10" stroke-linecap="round" stroke-linejoin="round"/>
<path d="M26.25 53.5H51.0417" stroke="#516163" stroke-miterlimit="10" stroke-linecap="round" stroke-linejoin="round"/>
</svg>
