<svg width="81" height="71" viewBox="0 0 81 71" fill="none" xmlns="http://www.w3.org/2000/svg">
<path d="M80.4009 17.3946C79.8282 14.7043 78.6827 12.4278 76.9646 10.3583C75.6283 8.08186 73.9101 6.42627 71.6193 5.18457C70.8557 4.77068 70.0922 4.35683 69.3286 3.94293C67.8015 2.70124 66.0835 1.87347 64.1745 1.25262C60.7383 0.217876 56.9202 0.217876 53.2931 1.25262C48.9024 2.49431 45.4662 5.18462 42.7936 9.11665C41.8391 10.5653 41.4573 11.1861 40.8846 12.0139C37.8302 16.9806 37.4485 23.1891 38.5939 28.9837C39.5484 33.5366 42.7937 37.4686 46.4208 39.952C47.9479 40.9867 49.2842 41.4007 51.1932 42.2285C51.575 42.4354 51.9568 42.4355 52.3386 42.6424C53.8658 43.0563 55.9658 43.4701 57.6838 43.4701C58.6383 43.4701 59.5928 43.4702 60.5473 43.2632C62.6472 43.4702 64.7472 43.2632 67.038 42.6424C68.5651 42.0216 70.0922 41.1938 71.6193 40.5729C74.4828 38.7104 76.7736 36.227 78.3008 33.3297C79.6371 31.0533 80.4008 28.3629 80.5917 25.6726C81.1644 22.7753 81.1645 20.0849 80.4009 17.3946Z" fill="#F4AB76"/>
<path d="M23.3335 36.5859H43.7502" stroke="#516163" stroke-miterlimit="10" stroke-linecap="round" stroke-linejoin="round"/>
<path d="M23.3335 48.25H36.1085" stroke="#516163" stroke-miterlimit="10" stroke-linecap="round" stroke-linejoin="round"/>
<path d="M29.1668 18.5026H40.8335C46.6668 18.5026 46.6668 15.5859 46.6668 12.6693C46.6668 6.83594 43.7502 6.83594 40.8335 6.83594H29.1668C26.2502 6.83594 23.3335 6.83594 23.3335 12.6693C23.3335 18.5026 26.2502 18.5026 29.1668 18.5026Z" stroke="#516163" stroke-miterlimit="10" stroke-linecap="round" stroke-linejoin="round"/>
<path d="M46.6667 12.7266C56.3792 13.2516 61.25 16.8391 61.25 30.1682V47.6682C61.25 59.3349 58.3333 65.1682 43.75 65.1682H26.25C11.6667 65.1682 8.75 59.3349 8.75 47.6682V30.1682C8.75 16.8682 13.6208 13.2516 23.3333 12.7266" stroke="#516163" stroke-miterlimit="10" stroke-linecap="round" stroke-linejoin="round"/>
</svg>
