<svg width="76" height="71" viewBox="0 0 76 71" fill="none" xmlns="http://www.w3.org/2000/svg">
<path d="M75.4009 17.3946C74.8282 14.7043 73.6827 12.4278 71.9646 10.3583C70.6283 8.08186 68.9101 6.42627 66.6193 5.18457C65.8557 4.77068 65.0922 4.35683 64.3286 3.94293C62.8015 2.70124 61.0835 1.87347 59.1745 1.25262C55.7383 0.217876 51.9202 0.217876 48.2931 1.25262C43.9024 2.49431 40.4662 5.18462 37.7936 9.11665C36.8391 10.5653 36.4573 11.1861 35.8846 12.0139C32.8302 16.9806 32.4485 23.1891 33.5939 28.9837C34.5484 33.5366 37.7937 37.4686 41.4208 39.952C42.9479 40.9867 44.2842 41.4007 46.1932 42.2285C46.575 42.4354 46.9568 42.4355 47.3386 42.6424C48.8658 43.0563 50.9658 43.4701 52.6838 43.4701C53.6383 43.4701 54.5928 43.4702 55.5473 43.2632C57.6472 43.4702 59.7472 43.2632 62.038 42.6424C63.5651 42.0216 65.0922 41.1938 66.6193 40.5729C69.4828 38.7104 71.7736 36.227 73.3008 33.3297C74.6371 31.0533 75.4008 28.3629 75.5917 25.6726C76.1644 22.7753 76.1645 20.0849 75.4009 17.3946Z" fill="#F4AB76"/>
<path d="M64.1668 30.1693V44.7526C64.1668 59.3359 58.3335 65.1693 43.7502 65.1693H26.2502C11.6668 65.1693 5.8335 59.3359 5.8335 44.7526V27.2526C5.8335 12.6693 11.6668 6.83594 26.2502 6.83594H40.8335" stroke="#516163" stroke-linecap="round" stroke-linejoin="round"/>
<path d="M64.1668 30.1693H52.5002C43.7502 30.1693 40.8335 27.2526 40.8335 18.5026V6.83594L64.1668 30.1693Z" stroke="#516163" stroke-linecap="round" stroke-linejoin="round"/>
<path d="M20.4165 38.9141H37.9165" stroke="#516163" stroke-linecap="round" stroke-linejoin="round"/>
<path d="M20.4165 50.5859H32.0832" stroke="#516163" stroke-linecap="round" stroke-linejoin="round"/>
</svg>
