<svg width="76" height="71" viewBox="0 0 76 71" fill="none" xmlns="http://www.w3.org/2000/svg">
<path d="M75.4009 17.3946C74.8282 14.7043 73.6827 12.4278 71.9646 10.3583C70.6283 8.08186 68.9101 6.42627 66.6193 5.18457C65.8557 4.77068 65.0922 4.35683 64.3286 3.94293C62.8015 2.70124 61.0835 1.87347 59.1745 1.25262C55.7383 0.217876 51.9202 0.217876 48.2931 1.25262C43.9024 2.49431 40.4662 5.18462 37.7936 9.11665C36.8391 10.5653 36.4573 11.1861 35.8846 12.0139C32.8302 16.9806 32.4485 23.1891 33.5939 28.9837C34.5484 33.5366 37.7937 37.4686 41.4208 39.952C42.9479 40.9867 44.2842 41.4007 46.1932 42.2285C46.575 42.4354 46.9568 42.4355 47.3386 42.6424C48.8658 43.0563 50.9658 43.4701 52.6838 43.4701C53.6383 43.4701 54.5928 43.4702 55.5473 43.2632C57.6472 43.4702 59.7472 43.2632 62.038 42.6424C63.5651 42.0216 65.0922 41.1938 66.6193 40.5729C69.4828 38.7104 71.7736 36.227 73.3008 33.3297C74.6371 31.0533 75.4008 28.3629 75.5917 25.6726C76.1644 22.7753 76.1645 20.0849 75.4009 17.3946Z" fill="#F4AB76"/>
<path d="M26.2502 65.1693H43.7502C58.3335 65.1693 64.1668 59.3359 64.1668 44.7526V27.2526C64.1668 12.6693 58.3335 6.83594 43.7502 6.83594H26.2502C11.6668 6.83594 5.8335 12.6693 5.8335 27.2526V44.7526C5.8335 59.3359 11.6668 65.1693 26.2502 65.1693Z" stroke="#516163" stroke-linecap="round" stroke-linejoin="round"/>
<path d="M53.6083 45.5345V23.1053C53.6083 20.8595 51.7999 19.2262 49.5833 19.4012H49.4667C45.5583 19.722 39.6375 21.7346 36.3125 23.8054L35.9917 24.0096C35.4667 24.3304 34.5624 24.3304 34.0082 24.0096L33.5416 23.7179C30.2458 21.6471 24.3249 19.6929 20.4166 19.372C18.1999 19.197 16.3916 20.8596 16.3916 23.0762V45.5345C16.3916 47.3137 17.8499 49.0054 19.6291 49.2095L20.154 49.297C24.179 49.822 30.4209 51.8929 33.9792 53.847L34.0666 53.8762C34.5624 54.1679 35.3791 54.1679 35.8457 53.8762C39.4041 51.8929 45.6749 49.8512 49.7291 49.297L50.3416 49.2095C52.15 49.0054 53.6083 47.3429 53.6083 45.5345Z" stroke="#516163" stroke-linecap="round" stroke-linejoin="round"/>
<path d="M35 24.625V52.5083" stroke="#516163" stroke-linecap="round" stroke-linejoin="round"/>
</svg>
