<svg width="460" height="432" viewBox="0 0 460 432" fill="none" xmlns="http://www.w3.org/2000/svg">
<circle cx="289" cy="110" r="105.5" stroke="#F4AB76"/>
<circle cx="106" cy="149" r="106" fill="#E3F3F3"/>
<circle cx="124" cy="326" r="105.5" stroke="#F4AB76"/>
<circle cx="334.5" cy="318.5" r="75" stroke="#B5E1E3"/>
<circle cx="242" cy="256" r="66" fill="#B5E1E3"/>
<g filter="url(#filter0_d_3904_15112)">
<rect x="143" y="56" width="80" height="80" rx="14" fill="white"/>
</g>
<mask id="path-7-inside-1_3904_15112" fill="white">
<path d="M176.333 94.9474L179.19 85.4737H196.333L199.19 94.9474M196.333 105.474C195.576 105.474 194.849 105.141 194.313 104.549C193.777 103.957 193.476 103.153 193.476 102.316C193.476 101.478 193.777 100.675 194.313 100.083C194.849 99.4906 195.576 99.1579 196.333 99.1579C197.091 99.1579 197.818 99.4906 198.354 100.083C198.889 100.675 199.19 101.478 199.19 102.316C199.19 103.153 198.889 103.957 198.354 104.549C197.818 105.141 197.091 105.474 196.333 105.474ZM179.19 105.474C178.433 105.474 177.706 105.141 177.17 104.549C176.634 103.957 176.333 103.153 176.333 102.316C176.333 101.478 176.634 100.675 177.17 100.083C177.706 99.4906 178.433 99.1579 179.19 99.1579C179.948 99.1579 180.675 99.4906 181.211 100.083C181.747 100.675 182.048 101.478 182.048 102.316C182.048 103.153 181.747 103.957 181.211 104.549C180.675 105.141 179.948 105.474 179.19 105.474ZM199.038 84.4211C198.638 83.1579 197.552 82.3158 196.333 82.3158H179.19C177.971 82.3158 176.886 83.1579 176.486 84.4211L172.524 97.0526V113.895C172.524 114.453 172.724 114.989 173.082 115.383C173.439 115.778 173.923 116 174.429 116H176.333C176.839 116 177.323 115.778 177.68 115.383C178.037 114.989 178.238 114.453 178.238 113.895V111.789H197.286V113.895C197.286 114.453 197.486 114.989 197.844 115.383C198.201 115.778 198.685 116 199.19 116H201.095C201.6 116 202.085 115.778 202.442 115.383C202.799 114.989 203 114.453 203 113.895V97.0526L199.038 84.4211ZM189.514 78.1053C189.114 76.8421 188.029 76 186.81 76H169.667C168.448 76 167.362 76.8421 166.962 78.1053L163 90.7368V107.579C163 108.137 163.201 108.673 163.558 109.068C163.915 109.462 164.4 109.684 164.905 109.684H166.81C167.315 109.684 167.799 109.462 168.156 109.068C168.514 108.673 168.714 108.137 168.714 107.579V98.9684C168.363 98.829 168.039 98.6144 167.763 98.3368C167.486 98.0592 167.262 97.7241 167.103 97.3507C166.944 96.9772 166.853 96.5727 166.835 96.1604C166.817 95.748 166.873 95.3358 167 94.9474C167.419 93.6842 168.467 92.8421 169.667 92.8421H169.8L171.133 88.6316H166.81L169.667 79.1579H189.838L189.514 78.1053V78.1053Z"/>
</mask>
<path d="M179.19 85.4737V84.4737H178.448L178.233 85.1849L179.19 85.4737ZM196.333 85.4737L197.291 85.1849L197.076 84.4737H196.333V85.4737ZM196.333 105.474V106.474V105.474ZM196.333 99.1579V98.1579V99.1579ZM179.19 105.474V106.474V105.474ZM176.333 102.316H175.333H176.333ZM179.19 99.1579V98.1579V99.1579ZM182.048 102.316H183.048H182.048ZM199.038 84.4211L199.992 84.1218L199.991 84.1192L199.038 84.4211ZM176.486 84.4211L175.532 84.1192L175.532 84.1218L176.486 84.4211ZM172.524 97.0526L171.57 96.7534L171.524 96.8995V97.0526H172.524ZM178.238 111.789V110.789H177.238V111.789H178.238ZM197.286 111.789H198.286V110.789H197.286V111.789ZM203 97.0526H204V96.8995L203.954 96.7534L203 97.0526ZM166.962 78.1053L166.009 77.8034L166.008 77.806L166.962 78.1053ZM163 90.7368L162.046 90.4376L162 90.5837V90.7368H163ZM163 107.579H162H163ZM168.714 107.579H169.714H168.714ZM168.714 98.9684H169.714V98.2891L169.083 98.0388L168.714 98.9684ZM167 94.9474L166.051 94.6325L166.049 94.6375L167 94.9474ZM169.8 92.8421V93.8421H170.532L170.753 93.144L169.8 92.8421ZM171.133 88.6316L172.087 88.9335L172.499 87.6316H171.133V88.6316ZM166.81 88.6316L165.852 88.3428L165.463 89.6316H166.81V88.6316ZM169.667 79.1579V78.1579H168.924L168.709 78.8692L169.667 79.1579ZM189.838 79.1579V80.1579H191.192L190.794 78.8639L189.838 79.1579ZM177.291 95.2361L180.148 85.7624L178.233 85.1849L175.376 94.6586L177.291 95.2361ZM179.19 86.4737H196.333V84.4737H179.19V86.4737ZM195.376 85.7624L198.233 95.2361L200.148 94.6586L197.291 85.1849L195.376 85.7624ZM196.333 104.474C195.875 104.474 195.412 104.273 195.055 103.878L193.571 105.22C194.285 106.009 195.276 106.474 196.333 106.474V104.474ZM195.055 103.878C194.694 103.479 194.476 102.919 194.476 102.316H192.476C192.476 103.388 192.861 104.434 193.571 105.22L195.055 103.878ZM194.476 102.316C194.476 101.713 194.694 101.153 195.055 100.754L193.571 99.4119C192.861 100.198 192.476 101.244 192.476 102.316H194.476ZM195.055 100.754C195.412 100.358 195.875 100.158 196.333 100.158V98.1579C195.276 98.1579 194.285 98.6229 193.571 99.4119L195.055 100.754ZM196.333 100.158C196.792 100.158 197.254 100.358 197.612 100.754L199.095 99.4119C198.381 98.6229 197.39 98.1579 196.333 98.1579V100.158ZM197.612 100.754C197.973 101.153 198.19 101.713 198.19 102.316H200.19C200.19 101.244 199.806 100.198 199.095 99.4119L197.612 100.754ZM198.19 102.316C198.19 102.919 197.973 103.479 197.612 103.878L199.095 105.22C199.806 104.434 200.19 103.388 200.19 102.316H198.19ZM197.612 103.878C197.254 104.273 196.792 104.474 196.333 104.474V106.474C197.39 106.474 198.381 106.009 199.095 105.22L197.612 103.878ZM179.19 104.474C178.732 104.474 178.269 104.273 177.912 103.878L176.429 105.22C177.142 106.009 178.133 106.474 179.19 106.474V104.474ZM177.912 103.878C177.551 103.479 177.333 102.919 177.333 102.316H175.333C175.333 103.388 175.718 104.434 176.429 105.22L177.912 103.878ZM177.333 102.316C177.333 101.713 177.551 101.153 177.912 100.754L176.429 99.4119C175.718 100.198 175.333 101.244 175.333 102.316H177.333ZM177.912 100.754C178.269 100.358 178.732 100.158 179.19 100.158V98.1579C178.133 98.1579 177.142 98.6229 176.429 99.4119L177.912 100.754ZM179.19 100.158C179.649 100.158 180.111 100.358 180.469 100.754L181.952 99.4119C181.238 98.6229 180.248 98.1579 179.19 98.1579V100.158ZM180.469 100.754C180.83 101.153 181.048 101.713 181.048 102.316H183.048C183.048 101.244 182.663 100.198 181.952 99.4119L180.469 100.754ZM181.048 102.316C181.048 102.919 180.83 103.479 180.469 103.878L181.952 105.22C182.663 104.434 183.048 103.388 183.048 102.316H181.048ZM180.469 103.878C180.111 104.273 179.649 104.474 179.19 104.474V106.474C180.248 106.474 181.238 106.009 181.952 105.22L180.469 103.878ZM199.991 84.1192C199.474 82.4867 198.035 81.3158 196.333 81.3158V83.3158C197.07 83.3158 197.802 83.8291 198.085 84.7229L199.991 84.1192ZM196.333 81.3158H179.19V83.3158H196.333V81.3158ZM179.19 81.3158C177.489 81.3158 176.049 82.4867 175.532 84.1192L177.439 84.7229C177.722 83.8291 178.454 83.3158 179.19 83.3158V81.3158ZM175.532 84.1218L171.57 96.7534L173.478 97.3519L177.44 84.7203L175.532 84.1218ZM171.524 97.0526V113.895H173.524V97.0526H171.524ZM171.524 113.895C171.524 114.688 171.808 115.466 172.34 116.054L173.823 114.712C173.641 114.511 173.524 114.218 173.524 113.895H171.524ZM172.34 116.054C172.875 116.646 173.624 117 174.429 117V115C174.223 115 174.002 114.911 173.823 114.712L172.34 116.054ZM174.429 117H176.333V115H174.429V117ZM176.333 117C177.138 117 177.887 116.646 178.422 116.054L176.939 114.712C176.759 114.911 176.539 115 176.333 115V117ZM178.422 116.054C178.954 115.466 179.238 114.688 179.238 113.895H177.238C177.238 114.218 177.121 114.511 176.939 114.712L178.422 116.054ZM179.238 113.895V111.789H177.238V113.895H179.238ZM178.238 112.789H197.286V110.789H178.238V112.789ZM196.286 111.789V113.895H198.286V111.789H196.286ZM196.286 113.895C196.286 114.688 196.57 115.466 197.102 116.054L198.585 114.712C198.403 114.511 198.286 114.218 198.286 113.895H196.286ZM197.102 116.054C197.637 116.646 198.386 117 199.19 117V115C198.985 115 198.764 114.911 198.585 114.712L197.102 116.054ZM199.19 117H201.095V115H199.19V117ZM201.095 117C201.9 117 202.648 116.646 203.184 116.054L201.701 114.712C201.521 114.911 201.301 115 201.095 115V117ZM203.184 116.054C203.716 115.466 204 114.688 204 113.895H202C202 114.218 201.883 114.511 201.701 114.712L203.184 116.054ZM204 113.895V97.0526H202V113.895H204ZM203.954 96.7534L199.992 84.1218L198.084 84.7203L202.046 97.3519L203.954 96.7534ZM190.468 77.8034C189.951 76.1709 188.511 75 186.81 75V77C187.546 77 188.278 77.5133 188.561 78.4072L190.468 77.8034ZM186.81 75H169.667V77H186.81V75ZM169.667 75C167.965 75 166.526 76.1709 166.009 77.8034L167.915 78.4072C168.198 77.5133 168.93 77 169.667 77V75ZM166.008 77.806L162.046 90.4376L163.954 91.0361L167.916 78.4045L166.008 77.806ZM162 90.7368V107.579H164V90.7368H162ZM162 107.579C162 108.372 162.284 109.15 162.816 109.739L164.299 108.397C164.117 108.195 164 107.903 164 107.579H162ZM162.816 109.739C163.352 110.33 164.1 110.684 164.905 110.684V108.684C164.699 108.684 164.479 108.595 164.299 108.397L162.816 109.739ZM164.905 110.684H166.81V108.684H164.905V110.684ZM166.81 110.684C167.614 110.684 168.363 110.33 168.898 109.739L167.415 108.397C167.236 108.595 167.015 108.684 166.81 108.684V110.684ZM168.898 109.739C169.43 109.15 169.714 108.372 169.714 107.579H167.714C167.714 107.903 167.597 108.195 167.415 108.397L168.898 109.739ZM169.714 107.579V98.9684H167.714V107.579H169.714ZM169.083 98.0388C168.863 97.9518 168.655 97.8151 168.471 97.6311L167.054 99.0425C167.424 99.4137 167.862 99.7063 168.346 99.898L169.083 98.0388ZM168.471 97.6311C168.288 97.4469 168.134 97.2193 168.023 96.9585L166.183 97.7429C166.39 98.229 166.685 98.6716 167.054 99.0425L168.471 97.6311ZM168.023 96.9585C167.912 96.6977 167.847 96.4117 167.834 96.1176L165.836 96.2032C165.859 96.7338 165.976 97.2568 166.183 97.7429L168.023 96.9585ZM167.834 96.1176C167.822 95.8234 167.862 95.5307 167.951 95.2572L166.049 94.6375C165.885 95.1409 165.813 95.6725 165.836 96.2032L167.834 96.1176ZM167.949 95.2622C168.257 94.3348 168.97 93.8421 169.667 93.8421V91.8421C167.963 91.8421 166.581 93.0336 166.051 94.6325L167.949 95.2622ZM169.667 93.8421H169.8V91.8421H169.667V93.8421ZM170.753 93.144L172.087 88.9335L170.18 88.3297L168.847 92.5402L170.753 93.144ZM171.133 87.6316H166.81V89.6316H171.133V87.6316ZM167.767 88.9203L170.624 79.4466L168.709 78.8692L165.852 88.3428L167.767 88.9203ZM169.667 80.1579H189.838V78.1579H169.667V80.1579ZM190.794 78.8639L190.47 77.8112L188.558 78.3993L188.882 79.4519L190.794 78.8639Z" fill="#516163" mask="url(#path-7-inside-1_3904_15112)"/>
<g filter="url(#filter1_d_3904_15112)">
<rect x="253" y="105" width="80" height="80" rx="14" fill="white"/>
</g>
<path d="M292.387 139.336H283.612C280.5 139.336 279.812 140.839 279.412 142.681L278 149.239H298L296.587 142.681C296.187 140.839 295.5 139.336 292.387 139.336Z" stroke="#516163" stroke-linecap="round" stroke-linejoin="round"/>
<path d="M300.487 159.933C300.625 161.351 299.45 162.576 297.95 162.576H295.6C294.25 162.576 294.062 162.018 293.825 161.327L293.575 160.6C293.225 159.606 293 158.939 291.2 158.939H284.8C283 158.939 282.737 159.691 282.425 160.6L282.175 161.327C281.937 162.018 281.75 162.576 280.4 162.576H278.05C276.55 162.576 275.375 161.351 275.512 159.933L276.212 152.551C276.387 150.733 276.75 149.242 280.025 149.242H295.975C299.25 149.242 299.612 150.733 299.787 152.551L300.487 159.933Z" stroke="#516163" stroke-linecap="round" stroke-linejoin="round"/>
<path d="M278 145.602H276.75" stroke="#516163" stroke-linecap="round" stroke-linejoin="round"/>
<path d="M280.5 154.086H284.25" stroke="#516163" stroke-linecap="round" stroke-linejoin="round"/>
<path d="M291.75 154.086H295.5" stroke="#516163" stroke-linecap="round" stroke-linejoin="round"/>
<path d="M301.741 126.805L297.583 128.324C296.625 128.672 295.842 129.771 295.842 130.757V136.761C295.842 137.714 296.492 138.967 297.283 139.54L300.866 142.134C302.041 142.991 303.975 142.991 305.15 142.134L308.733 139.54C309.525 138.967 310.175 137.714 310.175 136.761V130.757C310.175 129.763 309.391 128.664 308.433 128.316L304.275 126.805C303.566 126.555 302.433 126.555 301.741 126.805Z" stroke="#516163" stroke-linecap="round" stroke-linejoin="round"/>
<path d="M300.542 134.596L301.883 135.897L305.466 132.422" stroke="#516163" stroke-linecap="round" stroke-linejoin="round"/>
<g filter="url(#filter2_d_3904_15112)">
<rect x="58" y="297" width="80" height="80" rx="14" fill="white"/>
</g>
<g clip-path="url(#clip0_3904_15112)">
<mask id="path-18-inside-2_3904_15112" fill="white">
<path d="M80.5 317.002L78 319.502L83.5 327.205C83.7315 327.529 84.0373 327.793 84.3917 327.976C84.7461 328.158 85.139 328.253 85.5375 328.252H85.7125C86.0412 328.252 86.3667 328.317 86.6704 328.442C86.9742 328.568 87.2501 328.752 87.4825 328.985L94.17 335.672L87.6275 342.307C86.5085 341.978 85.3281 341.914 84.18 342.12C83.0319 342.326 81.9476 342.797 81.0132 343.496C80.0789 344.194 79.3201 345.1 78.797 346.143C78.274 347.186 78.0011 348.336 78 349.502C78.0015 350.577 78.234 351.639 78.6818 352.616C79.1295 353.593 79.7821 354.463 80.5953 355.166C81.4084 355.869 82.3632 356.389 83.3948 356.69C84.4264 356.992 85.5109 357.068 86.5746 356.914C87.6384 356.76 88.6566 356.38 89.5603 355.798C90.464 355.216 91.2321 354.446 91.8125 353.542C92.3929 352.637 92.7721 351.618 92.9244 350.554C93.0766 349.49 92.9984 348.406 92.695 347.375L99.33 340.832L101.75 343.252L100.988 345.537C100.841 345.978 100.82 346.45 100.927 346.902C101.034 347.354 101.264 347.767 101.593 348.095L109.983 356.485C110.451 356.953 111.087 357.217 111.75 357.217C112.413 357.217 113.049 356.953 113.518 356.485L117.483 352.52C117.951 352.051 118.214 351.415 118.214 350.752C118.214 350.089 117.951 349.454 117.483 348.985L109.093 340.595C108.764 340.266 108.351 340.036 107.9 339.929C107.448 339.822 106.975 339.843 106.535 339.99L104.25 340.752L101.85 338.352L108.55 331.745C109.661 332.041 110.826 332.079 111.954 331.854C113.083 331.63 114.144 331.149 115.057 330.449C115.97 329.749 116.711 328.849 117.221 327.818C117.731 326.787 117.998 325.653 118 324.502C118 323.83 117.913 323.177 117.745 322.56L112.395 327.912L108 327.002L107.09 322.61L112.443 317.257C111.169 316.915 109.828 316.914 108.555 317.255C107.281 317.597 106.12 318.267 105.188 319.2C104.257 320.133 103.587 321.295 103.248 322.569C102.908 323.843 102.911 325.184 103.255 326.457L96.655 333.152L89.9825 326.485C89.5136 326.016 89.2501 325.38 89.25 324.717V324.54C89.25 324.142 89.155 323.749 88.9728 323.395C88.7906 323.041 88.5265 322.736 88.2025 322.505L80.5 317.002ZM104.615 343.617C104.731 343.501 104.869 343.408 105.021 343.345C105.173 343.282 105.336 343.25 105.5 343.25C105.664 343.25 105.827 343.282 105.979 343.345C106.131 343.408 106.269 343.501 106.385 343.617L113.885 351.117C114.001 351.233 114.093 351.371 114.156 351.523C114.219 351.675 114.252 351.838 114.252 352.002C114.252 352.167 114.219 352.329 114.156 352.481C114.093 352.633 114.001 352.771 113.885 352.887C113.769 353.003 113.631 353.096 113.479 353.159C113.327 353.221 113.164 353.254 113 353.254C112.836 353.254 112.673 353.221 112.521 353.159C112.369 353.096 112.231 353.003 112.115 352.887L104.615 345.387C104.499 345.271 104.406 345.133 104.343 344.981C104.28 344.829 104.248 344.667 104.248 344.502C104.248 344.338 104.28 344.175 104.343 344.023C104.406 343.871 104.499 343.733 104.615 343.617ZM85.5 344.502L86.6775 345.107L88 345.172L88.7175 346.285L89.83 347.002L89.895 348.325L90.5 349.502L89.895 350.68L89.83 352.002L88.7175 352.72L88 353.832L86.6775 353.897L85.5 354.502L84.3225 353.897L83 353.832L82.2825 352.72L81.17 352.002L81.105 350.68L80.5 349.502L81.105 348.325L81.17 347.002L82.2825 346.285L83 345.172L84.3225 345.107L85.5 344.502Z"/>
</mask>
<path d="M80.5 317.002L78 319.502L83.5 327.205C83.7315 327.529 84.0373 327.793 84.3917 327.976C84.7461 328.158 85.139 328.253 85.5375 328.252H85.7125C86.0412 328.252 86.3667 328.317 86.6704 328.442C86.9742 328.568 87.2501 328.752 87.4825 328.985L94.17 335.672L87.6275 342.307C86.5085 341.978 85.3281 341.914 84.18 342.12C83.0319 342.326 81.9476 342.797 81.0132 343.496C80.0789 344.194 79.3201 345.1 78.797 346.143C78.274 347.186 78.0011 348.336 78 349.502C78.0015 350.577 78.234 351.639 78.6818 352.616C79.1295 353.593 79.7821 354.463 80.5953 355.166C81.4084 355.869 82.3632 356.389 83.3948 356.69C84.4264 356.992 85.5109 357.068 86.5746 356.914C87.6384 356.76 88.6566 356.38 89.5603 355.798C90.464 355.216 91.2321 354.446 91.8125 353.542C92.3929 352.637 92.7721 351.618 92.9244 350.554C93.0766 349.49 92.9984 348.406 92.695 347.375L99.33 340.832L101.75 343.252L100.988 345.537C100.841 345.978 100.82 346.45 100.927 346.902C101.034 347.354 101.264 347.767 101.593 348.095L109.983 356.485C110.451 356.953 111.087 357.217 111.75 357.217C112.413 357.217 113.049 356.953 113.518 356.485L117.483 352.52C117.951 352.051 118.214 351.415 118.214 350.752C118.214 350.089 117.951 349.454 117.483 348.985L109.093 340.595C108.764 340.266 108.351 340.036 107.9 339.929C107.448 339.822 106.975 339.843 106.535 339.99L104.25 340.752L101.85 338.352L108.55 331.745C109.661 332.041 110.826 332.079 111.954 331.854C113.083 331.63 114.144 331.149 115.057 330.449C115.97 329.749 116.711 328.849 117.221 327.818C117.731 326.787 117.998 325.653 118 324.502C118 323.83 117.913 323.177 117.745 322.56L112.395 327.912L108 327.002L107.09 322.61L112.443 317.257C111.169 316.915 109.828 316.914 108.555 317.255C107.281 317.597 106.12 318.267 105.188 319.2C104.257 320.133 103.587 321.295 103.248 322.569C102.908 323.843 102.911 325.184 103.255 326.457L96.655 333.152L89.9825 326.485C89.5136 326.016 89.2501 325.38 89.25 324.717V324.54C89.25 324.142 89.155 323.749 88.9728 323.395C88.7906 323.041 88.5265 322.736 88.2025 322.505L80.5 317.002ZM104.615 343.617C104.731 343.501 104.869 343.408 105.021 343.345C105.173 343.282 105.336 343.25 105.5 343.25C105.664 343.25 105.827 343.282 105.979 343.345C106.131 343.408 106.269 343.501 106.385 343.617L113.885 351.117C114.001 351.233 114.093 351.371 114.156 351.523C114.219 351.675 114.252 351.838 114.252 352.002C114.252 352.167 114.219 352.329 114.156 352.481C114.093 352.633 114.001 352.771 113.885 352.887C113.769 353.003 113.631 353.096 113.479 353.159C113.327 353.221 113.164 353.254 113 353.254C112.836 353.254 112.673 353.221 112.521 353.159C112.369 353.096 112.231 353.003 112.115 352.887L104.615 345.387C104.499 345.271 104.406 345.133 104.343 344.981C104.28 344.829 104.248 344.667 104.248 344.502C104.248 344.338 104.28 344.175 104.343 344.023C104.406 343.871 104.499 343.733 104.615 343.617ZM85.5 344.502L86.6775 345.107L88 345.172L88.7175 346.285L89.83 347.002L89.895 348.325L90.5 349.502L89.895 350.68L89.83 352.002L88.7175 352.72L88 353.832L86.6775 353.897L85.5 354.502L84.3225 353.897L83 353.832L82.2825 352.72L81.17 352.002L81.105 350.68L80.5 349.502L81.105 348.325L81.17 347.002L82.2825 346.285L83 345.172L84.3225 345.107L85.5 344.502Z" stroke="#516163" stroke-width="2" mask="url(#path-18-inside-2_3904_15112)"/>
</g>
<g filter="url(#filter3_d_3904_15112)">
<rect x="370" y="57" width="80" height="80" rx="14" fill="white"/>
</g>
<path d="M410.001 83.6719V90.3385M396.667 90.3385L400.834 94.5052M419.167 94.5052L423.334 90.3385M395.001 105.339H400.001M410.001 105.339L411.667 95.3385M420.001 105.339H425.001M404.167 110.34H396.667C394.499 107.457 393.328 103.946 393.334 100.339C393.334 91.1335 400.796 83.6719 410.001 83.6719C419.206 83.6719 426.667 91.1335 426.667 100.339C426.667 104.092 425.427 107.555 423.334 110.34L415.834 110.339" stroke="#516163" stroke-linecap="round" stroke-linejoin="round"/>
<path d="M410 115.344C411.326 115.344 412.598 114.817 413.536 113.879C414.473 112.942 415 111.67 415 110.344C415 109.018 414.473 107.746 413.536 106.808C412.598 105.871 411.326 105.344 410 105.344C408.674 105.344 407.402 105.871 406.464 106.808C405.527 107.746 405 109.018 405 110.344C405 111.67 405.527 112.942 406.464 113.879C407.402 114.817 408.674 115.344 410 115.344V115.344Z" stroke="#516163" stroke-linecap="round" stroke-linejoin="round"/>
<g filter="url(#filter4_d_3904_15112)">
<rect x="162" y="217" width="80" height="80" rx="14" fill="white"/>
</g>
<g clip-path="url(#clip1_3904_15112)">
<path d="M208.271 251.691L208.271 251.691L209.553 256.297C208.71 256.373 207.794 256.416 206.83 256.416C205.865 256.416 204.949 256.374 204.106 256.296L205.39 251.691L205.39 251.691C205.567 251.054 206.167 250.703 206.83 250.703C207.493 250.703 208.093 251.054 208.271 251.691ZM218.118 271.348L218.119 271.348C218.244 271.376 218.348 271.438 218.42 271.517C218.491 271.596 218.527 271.687 218.531 271.775C218.535 271.864 218.507 271.955 218.444 272.037C218.38 272.119 218.283 272.187 218.162 272.223L218.162 272.223L207.016 275.556C207.016 275.556 207.016 275.556 207.016 275.556C206.896 275.592 206.765 275.592 206.644 275.556C206.644 275.556 206.644 275.556 206.644 275.556L195.498 272.223L195.498 272.223C195.377 272.187 195.28 272.119 195.216 272.037C195.154 271.955 195.126 271.864 195.129 271.775C195.133 271.687 195.169 271.596 195.24 271.517C195.312 271.438 195.417 271.376 195.541 271.348L195.542 271.348L199.983 270.352L200.202 270.302L200.262 270.086L201.218 266.663C202.793 266.979 204.735 267.164 206.83 267.164C208.926 267.164 210.867 266.979 212.443 266.663L213.398 270.086L213.458 270.302L213.677 270.352L218.118 271.348ZM206.83 258.832C208.023 258.832 209.162 258.773 210.214 258.664L211.791 264.323C210.452 264.582 208.736 264.749 206.83 264.749C204.924 264.749 203.21 264.582 201.869 264.323L203.446 258.664C204.498 258.773 205.638 258.832 206.83 258.832Z" stroke="#516163" stroke-width="0.75"/>
</g>
<path d="M198.193 245.028C197.869 245.149 197.522 245.211 197.17 245.211C196.46 245.211 195.782 244.958 195.284 244.511C194.786 244.064 194.509 243.461 194.509 242.836C194.509 242.211 194.786 241.608 195.284 241.161C195.782 240.714 196.46 240.461 197.17 240.461C197.522 240.461 197.869 240.523 198.193 240.643C198.517 240.764 198.811 240.94 199.057 241.161C199.304 241.382 199.499 241.644 199.631 241.932C199.764 242.219 199.832 242.526 199.832 242.836C199.832 243.146 199.764 243.453 199.631 243.74C199.499 244.027 199.304 244.289 199.057 244.511C198.811 244.732 198.517 244.908 198.193 245.028ZM199.057 251.177C198.559 251.624 197.88 251.878 197.17 251.878C196.46 251.878 195.782 251.624 195.284 251.177C194.786 250.731 194.509 250.128 194.509 249.503C194.509 248.877 194.786 248.275 195.284 247.828C195.782 247.381 196.46 247.128 197.17 247.128C197.88 247.128 198.559 247.381 199.057 247.828C199.555 248.275 199.832 248.877 199.832 249.503C199.832 250.128 199.555 250.731 199.057 251.177ZM199.832 256.169C199.832 256.795 199.555 257.397 199.057 257.844C198.559 258.291 197.88 258.544 197.17 258.544C196.46 258.544 195.782 258.291 195.284 257.844C194.786 257.397 194.509 256.795 194.509 256.169C194.509 255.544 194.786 254.941 195.284 254.495C195.782 254.047 196.46 253.794 197.17 253.794C197.88 253.794 198.559 254.047 199.057 254.495C199.555 254.941 199.832 255.544 199.832 256.169Z" stroke="#516163" stroke-width="0.25"/>
<path d="M189.431 240.708H189.806V240.333C189.806 239.563 190.146 238.814 190.769 238.255C191.393 237.696 192.248 237.375 193.146 237.375H200.576C201.474 237.375 202.329 237.696 202.953 238.255C203.576 238.814 203.916 239.563 203.916 240.333V240.708H204.291H207.414C206.932 241.559 205.884 242.799 204.184 243.307L203.916 243.387V243.667V247V247.375H204.291H207.414C206.932 248.226 205.884 249.465 204.184 249.974L203.916 250.054V250.333V253.667V254.042H204.291H207.414C206.932 254.892 205.884 256.132 204.184 256.641L203.916 256.721V257V258.667C203.916 259.437 203.576 260.186 202.953 260.745C202.329 261.304 201.474 261.625 200.576 261.625H193.146C192.248 261.625 191.393 261.304 190.769 260.745C190.146 260.186 189.806 259.437 189.806 258.667V257V256.721L189.538 256.641C187.838 256.132 186.79 254.892 186.308 254.042H189.431H189.806V253.667V250.333V250.054L189.538 249.974C187.838 249.465 186.79 248.226 186.308 247.375H189.431H189.806V247V243.667V243.387L189.538 243.307C187.838 242.799 186.79 241.559 186.308 240.708H189.431ZM193.146 238.292C192.566 238.292 192.003 238.498 191.582 238.876C191.159 239.255 190.913 239.778 190.913 240.333V258.667C190.913 259.222 191.159 259.745 191.582 260.124C192.003 260.502 192.566 260.708 193.146 260.708H200.576C201.156 260.708 201.719 260.502 202.14 260.124C202.563 259.745 202.809 259.222 202.809 258.667V240.333C202.809 239.778 202.563 239.255 202.14 238.876C201.719 238.498 201.156 238.292 200.576 238.292H193.146Z" stroke="#516163" stroke-width="0.75"/>
<path d="M197.391 274.453L197.391 261.12" stroke="#516163"/>
<g filter="url(#filter5_d_3904_15112)">
<rect x="274" y="262" width="80" height="80" rx="14" fill="white"/>
</g>
<path d="M322.934 313.444C323.551 313.444 324.143 313.152 324.58 312.631C325.017 312.11 325.262 311.404 325.262 310.667V305.113C325.262 304.376 325.017 303.67 324.58 303.149C324.143 302.628 323.551 302.335 322.934 302.335H319.442L317.65 295.892C317.488 295.317 317.173 294.822 316.752 294.481C316.332 294.14 315.83 293.972 315.322 294.004H305.987C305.48 293.972 304.977 294.14 304.557 294.481C304.137 294.822 303.822 295.317 303.66 295.892L301.983 302.335H297.328C296.71 302.335 296.118 302.628 295.682 303.149C295.245 303.67 295 304.376 295 305.113V310.667C295 311.404 295.245 312.11 295.682 312.631C296.118 313.152 296.71 313.444 297.328 313.444" stroke="#516163" stroke-linejoin="round"/>
<path d="M301.986 319C304.558 319 306.643 316.513 306.643 313.445C306.643 310.377 304.558 307.891 301.986 307.891C299.415 307.891 297.33 310.377 297.33 313.445C297.33 316.513 299.415 319 301.986 319Z" stroke="#516163" stroke-linejoin="round"/>
<path d="M318.275 319C320.847 319 322.932 316.513 322.932 313.445C322.932 310.377 320.847 307.891 318.275 307.891C315.704 307.891 313.619 310.377 313.619 313.445C313.619 316.513 315.704 319 318.275 319Z" stroke="#516163" stroke-linejoin="round"/>
<path d="M306.642 313.438H313.627" stroke="#516163" stroke-linejoin="round"/>
<path d="M293 320.336H339.502" stroke="#516163" stroke-miterlimit="10" stroke-linecap="round" stroke-linejoin="round"/>
<path d="M331.756 319L331.756 296" stroke="#516163" stroke-miterlimit="10" stroke-linejoin="round"/>
<path d="M331.765 284.328C329.971 284.328 328.529 285.961 328.529 287.995V291.778C328.529 293.811 329.971 295.445 331.765 295.445C333.559 295.445 335 293.811 335 291.778V287.995C335 285.961 333.559 284.328 331.765 284.328Z" stroke="#516163" stroke-miterlimit="10" stroke-linejoin="round"/>
<g filter="url(#filter6_d_3904_15112)">
<rect x="53" y="157" width="80" height="80" rx="14" fill="white"/>
</g>
<g clip-path="url(#clip2_3904_15112)">
<path d="M92.5714 191.429H79.7143L74 185.714L79.7143 180H92.5714" stroke="#516163" stroke-linecap="round" stroke-linejoin="round"/>
<path d="M92.5723 199.999H105.429L111.144 194.285L105.429 188.57H92.5723" stroke="#516163" stroke-linecap="round" stroke-linejoin="round"/>
<path d="M92.5714 208.569H79.7143L74 202.855L79.7143 197.141H92.5714" stroke="#516163" stroke-linecap="round" stroke-linejoin="round"/>
<path d="M92.5723 180V217.143" stroke="#516163" stroke-linecap="round" stroke-linejoin="round"/>
</g>
<g filter="url(#filter7_d_3904_15112)">
<rect x="26" y="6" width="80" height="80" rx="14" fill="white"/>
</g>
<path d="M65.4508 38.197C63.4261 39.8717 60.5266 40.3863 57.981 39.7246L53.3518 43.5641C53.0176 43.85 52.3591 44.0215 51.8873 43.9643L49.7447 43.7193C49.037 43.6376 48.3785 43.0821 48.2704 42.4939L47.9755 40.7131C47.9067 40.321 48.1328 39.7736 48.4571 39.4959L53.0766 35.6565C52.2903 33.5325 52.8996 31.1227 54.9243 29.448C57.8238 27.0382 62.5317 27.0382 65.441 29.448C68.3502 31.8579 68.3502 35.7872 65.4508 38.197Z" stroke="#516163" stroke-miterlimit="10" stroke-linecap="round" stroke-linejoin="round"/>
<path d="M52.772 40.2891L55.0326 42.1679" stroke="#516163" stroke-miterlimit="10" stroke-linecap="round" stroke-linejoin="round"/>
<path d="M60.2514 34.9898C61.0656 34.9898 61.7257 34.4412 61.7257 33.7644C61.7257 33.0877 61.0656 32.5391 60.2514 32.5391C59.4372 32.5391 58.7771 33.0877 58.7771 33.7644C58.7771 34.4412 59.4372 34.9898 60.2514 34.9898Z" stroke="#516163" stroke-linecap="round" stroke-linejoin="round"/>
<path d="M74.2641 40.7266H64.5611C61.1194 40.7266 60.3592 42.2072 59.9169 44.0221L58.355 50.4819H80.4702L78.9083 44.0221C78.466 42.2072 77.7058 40.7266 74.2641 40.7266Z" stroke="#516163" stroke-linecap="round" stroke-linejoin="round"/>
<path d="M83.2208 61.008C83.3728 62.405 82.0735 63.611 80.4149 63.611H77.8164C76.3236 63.611 76.1162 63.0617 75.8536 62.3811L75.5772 61.6647C75.1902 60.6856 74.9414 60.0289 72.951 60.0289H65.8741C63.8838 60.0289 63.5935 60.7692 63.248 61.6647L62.9715 62.3811C62.7089 63.0617 62.5016 63.611 61.0088 63.611H58.4103C56.7516 63.611 55.4524 62.405 55.6044 61.008L56.3784 53.7363C56.5719 51.9452 56.9728 50.4766 60.5941 50.4766H78.231C81.8524 50.4766 82.2532 51.9452 82.4467 53.7363L83.2208 61.008Z" stroke="#516163" stroke-linecap="round" stroke-linejoin="round"/>
<path d="M58.3549 46.8984H56.9727" stroke="#516163" stroke-linecap="round" stroke-linejoin="round"/>
<path d="M81.8524 46.8984H80.4702" stroke="#516163" stroke-linecap="round" stroke-linejoin="round"/>
<path d="M69.4126 40.9297V43.3178" stroke="#516163" stroke-linecap="round" stroke-linejoin="round"/>
<path d="M67.3394 43.3125H71.486" stroke="#516163" stroke-linecap="round" stroke-linejoin="round"/>
<path d="M61.1194 55.2578H65.266" stroke="#516163" stroke-linecap="round" stroke-linejoin="round"/>
<path d="M73.5591 55.2578H77.7057" stroke="#516163" stroke-linecap="round" stroke-linejoin="round"/>
<defs>
<filter id="filter0_d_3904_15112" x="133" y="50" width="100" height="100" filterUnits="userSpaceOnUse" color-interpolation-filters="sRGB">
<feFlood flood-opacity="0" result="BackgroundImageFix"/>
<feColorMatrix in="SourceAlpha" type="matrix" values="0 0 0 0 0 0 0 0 0 0 0 0 0 0 0 0 0 0 127 0" result="hardAlpha"/>
<feOffset dy="4"/>
<feGaussianBlur stdDeviation="5"/>
<feComposite in2="hardAlpha" operator="out"/>
<feColorMatrix type="matrix" values="0 0 0 0 0 0 0 0 0 0 0 0 0 0 0 0 0 0 0.15 0"/>
<feBlend mode="normal" in2="BackgroundImageFix" result="effect1_dropShadow_3904_15112"/>
<feBlend mode="normal" in="SourceGraphic" in2="effect1_dropShadow_3904_15112" result="shape"/>
</filter>
<filter id="filter1_d_3904_15112" x="243" y="99" width="100" height="100" filterUnits="userSpaceOnUse" color-interpolation-filters="sRGB">
<feFlood flood-opacity="0" result="BackgroundImageFix"/>
<feColorMatrix in="SourceAlpha" type="matrix" values="0 0 0 0 0 0 0 0 0 0 0 0 0 0 0 0 0 0 127 0" result="hardAlpha"/>
<feOffset dy="4"/>
<feGaussianBlur stdDeviation="5"/>
<feComposite in2="hardAlpha" operator="out"/>
<feColorMatrix type="matrix" values="0 0 0 0 0 0 0 0 0 0 0 0 0 0 0 0 0 0 0.15 0"/>
<feBlend mode="normal" in2="BackgroundImageFix" result="effect1_dropShadow_3904_15112"/>
<feBlend mode="normal" in="SourceGraphic" in2="effect1_dropShadow_3904_15112" result="shape"/>
</filter>
<filter id="filter2_d_3904_15112" x="48" y="291" width="100" height="100" filterUnits="userSpaceOnUse" color-interpolation-filters="sRGB">
<feFlood flood-opacity="0" result="BackgroundImageFix"/>
<feColorMatrix in="SourceAlpha" type="matrix" values="0 0 0 0 0 0 0 0 0 0 0 0 0 0 0 0 0 0 127 0" result="hardAlpha"/>
<feOffset dy="4"/>
<feGaussianBlur stdDeviation="5"/>
<feComposite in2="hardAlpha" operator="out"/>
<feColorMatrix type="matrix" values="0 0 0 0 0 0 0 0 0 0 0 0 0 0 0 0 0 0 0.15 0"/>
<feBlend mode="normal" in2="BackgroundImageFix" result="effect1_dropShadow_3904_15112"/>
<feBlend mode="normal" in="SourceGraphic" in2="effect1_dropShadow_3904_15112" result="shape"/>
</filter>
<filter id="filter3_d_3904_15112" x="360" y="51" width="100" height="100" filterUnits="userSpaceOnUse" color-interpolation-filters="sRGB">
<feFlood flood-opacity="0" result="BackgroundImageFix"/>
<feColorMatrix in="SourceAlpha" type="matrix" values="0 0 0 0 0 0 0 0 0 0 0 0 0 0 0 0 0 0 127 0" result="hardAlpha"/>
<feOffset dy="4"/>
<feGaussianBlur stdDeviation="5"/>
<feComposite in2="hardAlpha" operator="out"/>
<feColorMatrix type="matrix" values="0 0 0 0 0 0 0 0 0 0 0 0 0 0 0 0 0 0 0.15 0"/>
<feBlend mode="normal" in2="BackgroundImageFix" result="effect1_dropShadow_3904_15112"/>
<feBlend mode="normal" in="SourceGraphic" in2="effect1_dropShadow_3904_15112" result="shape"/>
</filter>
<filter id="filter4_d_3904_15112" x="152" y="211" width="100" height="100" filterUnits="userSpaceOnUse" color-interpolation-filters="sRGB">
<feFlood flood-opacity="0" result="BackgroundImageFix"/>
<feColorMatrix in="SourceAlpha" type="matrix" values="0 0 0 0 0 0 0 0 0 0 0 0 0 0 0 0 0 0 127 0" result="hardAlpha"/>
<feOffset dy="4"/>
<feGaussianBlur stdDeviation="5"/>
<feComposite in2="hardAlpha" operator="out"/>
<feColorMatrix type="matrix" values="0 0 0 0 0 0 0 0 0 0 0 0 0 0 0 0 0 0 0.15 0"/>
<feBlend mode="normal" in2="BackgroundImageFix" result="effect1_dropShadow_3904_15112"/>
<feBlend mode="normal" in="SourceGraphic" in2="effect1_dropShadow_3904_15112" result="shape"/>
</filter>
<filter id="filter5_d_3904_15112" x="264" y="256" width="100" height="100" filterUnits="userSpaceOnUse" color-interpolation-filters="sRGB">
<feFlood flood-opacity="0" result="BackgroundImageFix"/>
<feColorMatrix in="SourceAlpha" type="matrix" values="0 0 0 0 0 0 0 0 0 0 0 0 0 0 0 0 0 0 127 0" result="hardAlpha"/>
<feOffset dy="4"/>
<feGaussianBlur stdDeviation="5"/>
<feComposite in2="hardAlpha" operator="out"/>
<feColorMatrix type="matrix" values="0 0 0 0 0 0 0 0 0 0 0 0 0 0 0 0 0 0 0.15 0"/>
<feBlend mode="normal" in2="BackgroundImageFix" result="effect1_dropShadow_3904_15112"/>
<feBlend mode="normal" in="SourceGraphic" in2="effect1_dropShadow_3904_15112" result="shape"/>
</filter>
<filter id="filter6_d_3904_15112" x="43" y="151" width="100" height="100" filterUnits="userSpaceOnUse" color-interpolation-filters="sRGB">
<feFlood flood-opacity="0" result="BackgroundImageFix"/>
<feColorMatrix in="SourceAlpha" type="matrix" values="0 0 0 0 0 0 0 0 0 0 0 0 0 0 0 0 0 0 127 0" result="hardAlpha"/>
<feOffset dy="4"/>
<feGaussianBlur stdDeviation="5"/>
<feComposite in2="hardAlpha" operator="out"/>
<feColorMatrix type="matrix" values="0 0 0 0 0 0 0 0 0 0 0 0 0 0 0 0 0 0 0.15 0"/>
<feBlend mode="normal" in2="BackgroundImageFix" result="effect1_dropShadow_3904_15112"/>
<feBlend mode="normal" in="SourceGraphic" in2="effect1_dropShadow_3904_15112" result="shape"/>
</filter>
<filter id="filter7_d_3904_15112" x="16" y="0" width="100" height="100" filterUnits="userSpaceOnUse" color-interpolation-filters="sRGB">
<feFlood flood-opacity="0" result="BackgroundImageFix"/>
<feColorMatrix in="SourceAlpha" type="matrix" values="0 0 0 0 0 0 0 0 0 0 0 0 0 0 0 0 0 0 127 0" result="hardAlpha"/>
<feOffset dy="4"/>
<feGaussianBlur stdDeviation="5"/>
<feComposite in2="hardAlpha" operator="out"/>
<feColorMatrix type="matrix" values="0 0 0 0 0 0 0 0 0 0 0 0 0 0 0 0 0 0 0.15 0"/>
<feBlend mode="normal" in2="BackgroundImageFix" result="effect1_dropShadow_3904_15112"/>
<feBlend mode="normal" in="SourceGraphic" in2="effect1_dropShadow_3904_15112" result="shape"/>
</filter>
<clipPath id="clip0_3904_15112">
<rect width="40" height="40" fill="white" transform="translate(78 317)"/>
</clipPath>
<clipPath id="clip1_3904_15112">
<rect width="29.7217" height="26.6667" fill="white" transform="translate(192.277 250.328)"/>
</clipPath>
<clipPath id="clip2_3904_15112">
<rect width="40" height="40" fill="white" transform="translate(73 177)"/>
</clipPath>
</defs>
</svg>
