<svg width="460" height="394" viewBox="0 0 460 394" fill="none" xmlns="http://www.w3.org/2000/svg">
<circle cx="291.5" cy="120.5" r="85" stroke="#F4AB76"/>
<circle cx="106" cy="149" r="106" fill="#E3F3F3"/>
<circle cx="102" cy="304" r="83.5" stroke="#F4AB76"/>
<circle cx="334.5" cy="318.5" r="75" stroke="#B5E1E3"/>
<circle cx="242" cy="256" r="66" fill="#B5E1E3"/>
<g filter="url(#filter0_d_3904_15114)">
<rect x="143" y="56" width="80" height="80" rx="14" fill="white"/>
</g>
<mask id="path-7-inside-1_3904_15114" fill="white">
<path d="M176.333 94.9474L179.19 85.4737H196.333L199.19 94.9474M196.333 105.474C195.576 105.474 194.849 105.141 194.313 104.549C193.777 103.957 193.476 103.153 193.476 102.316C193.476 101.478 193.777 100.675 194.313 100.083C194.849 99.4906 195.576 99.1579 196.333 99.1579C197.091 99.1579 197.818 99.4906 198.354 100.083C198.889 100.675 199.19 101.478 199.19 102.316C199.19 103.153 198.889 103.957 198.354 104.549C197.818 105.141 197.091 105.474 196.333 105.474ZM179.19 105.474C178.433 105.474 177.706 105.141 177.17 104.549C176.634 103.957 176.333 103.153 176.333 102.316C176.333 101.478 176.634 100.675 177.17 100.083C177.706 99.4906 178.433 99.1579 179.19 99.1579C179.948 99.1579 180.675 99.4906 181.211 100.083C181.747 100.675 182.048 101.478 182.048 102.316C182.048 103.153 181.747 103.957 181.211 104.549C180.675 105.141 179.948 105.474 179.19 105.474ZM199.038 84.4211C198.638 83.1579 197.552 82.3158 196.333 82.3158H179.19C177.971 82.3158 176.886 83.1579 176.486 84.4211L172.524 97.0526V113.895C172.524 114.453 172.724 114.989 173.082 115.383C173.439 115.778 173.923 116 174.429 116H176.333C176.839 116 177.323 115.778 177.68 115.383C178.037 114.989 178.238 114.453 178.238 113.895V111.789H197.286V113.895C197.286 114.453 197.486 114.989 197.844 115.383C198.201 115.778 198.685 116 199.19 116H201.095C201.6 116 202.085 115.778 202.442 115.383C202.799 114.989 203 114.453 203 113.895V97.0526L199.038 84.4211ZM189.514 78.1053C189.114 76.8421 188.029 76 186.81 76H169.667C168.448 76 167.362 76.8421 166.962 78.1053L163 90.7368V107.579C163 108.137 163.201 108.673 163.558 109.068C163.915 109.462 164.4 109.684 164.905 109.684H166.81C167.315 109.684 167.799 109.462 168.156 109.068C168.514 108.673 168.714 108.137 168.714 107.579V98.9684C168.363 98.829 168.039 98.6144 167.763 98.3368C167.486 98.0592 167.262 97.7241 167.103 97.3507C166.944 96.9772 166.853 96.5727 166.835 96.1604C166.817 95.748 166.873 95.3358 167 94.9474C167.419 93.6842 168.467 92.8421 169.667 92.8421H169.8L171.133 88.6316H166.81L169.667 79.1579H189.838L189.514 78.1053V78.1053Z"/>
</mask>
<path d="M179.19 85.4737V84.4737H178.448L178.233 85.1849L179.19 85.4737ZM196.333 85.4737L197.291 85.1849L197.076 84.4737H196.333V85.4737ZM196.333 105.474V106.474V105.474ZM196.333 99.1579V98.1579V99.1579ZM179.19 105.474V106.474V105.474ZM176.333 102.316H175.333H176.333ZM179.19 99.1579V98.1579V99.1579ZM182.048 102.316H183.048H182.048ZM199.038 84.4211L199.992 84.1218L199.991 84.1192L199.038 84.4211ZM176.486 84.4211L175.532 84.1192L175.532 84.1218L176.486 84.4211ZM172.524 97.0526L171.57 96.7534L171.524 96.8995V97.0526H172.524ZM178.238 111.789V110.789H177.238V111.789H178.238ZM197.286 111.789H198.286V110.789H197.286V111.789ZM203 97.0526H204V96.8995L203.954 96.7534L203 97.0526ZM166.962 78.1053L166.009 77.8034L166.008 77.806L166.962 78.1053ZM163 90.7368L162.046 90.4376L162 90.5837V90.7368H163ZM163 107.579H162H163ZM168.714 107.579H169.714H168.714ZM168.714 98.9684H169.714V98.2891L169.083 98.0388L168.714 98.9684ZM167 94.9474L166.051 94.6325L166.049 94.6375L167 94.9474ZM169.8 92.8421V93.8421H170.532L170.753 93.144L169.8 92.8421ZM171.133 88.6316L172.087 88.9335L172.499 87.6316H171.133V88.6316ZM166.81 88.6316L165.852 88.3428L165.463 89.6316H166.81V88.6316ZM169.667 79.1579V78.1579H168.924L168.709 78.8692L169.667 79.1579ZM189.838 79.1579V80.1579H191.192L190.794 78.8639L189.838 79.1579ZM177.291 95.2361L180.148 85.7624L178.233 85.1849L175.376 94.6586L177.291 95.2361ZM179.19 86.4737H196.333V84.4737H179.19V86.4737ZM195.376 85.7624L198.233 95.2361L200.148 94.6586L197.291 85.1849L195.376 85.7624ZM196.333 104.474C195.875 104.474 195.412 104.273 195.055 103.878L193.571 105.22C194.285 106.009 195.276 106.474 196.333 106.474V104.474ZM195.055 103.878C194.694 103.479 194.476 102.919 194.476 102.316H192.476C192.476 103.388 192.861 104.434 193.571 105.22L195.055 103.878ZM194.476 102.316C194.476 101.713 194.694 101.153 195.055 100.754L193.571 99.4119C192.861 100.198 192.476 101.244 192.476 102.316H194.476ZM195.055 100.754C195.412 100.358 195.875 100.158 196.333 100.158V98.1579C195.276 98.1579 194.285 98.6229 193.571 99.4119L195.055 100.754ZM196.333 100.158C196.792 100.158 197.254 100.358 197.612 100.754L199.095 99.4119C198.381 98.6229 197.39 98.1579 196.333 98.1579V100.158ZM197.612 100.754C197.973 101.153 198.19 101.713 198.19 102.316H200.19C200.19 101.244 199.806 100.198 199.095 99.4119L197.612 100.754ZM198.19 102.316C198.19 102.919 197.973 103.479 197.612 103.878L199.095 105.22C199.806 104.434 200.19 103.388 200.19 102.316H198.19ZM197.612 103.878C197.254 104.273 196.792 104.474 196.333 104.474V106.474C197.39 106.474 198.381 106.009 199.095 105.22L197.612 103.878ZM179.19 104.474C178.732 104.474 178.269 104.273 177.912 103.878L176.429 105.22C177.142 106.009 178.133 106.474 179.19 106.474V104.474ZM177.912 103.878C177.551 103.479 177.333 102.919 177.333 102.316H175.333C175.333 103.388 175.718 104.434 176.429 105.22L177.912 103.878ZM177.333 102.316C177.333 101.713 177.551 101.153 177.912 100.754L176.429 99.4119C175.718 100.198 175.333 101.244 175.333 102.316H177.333ZM177.912 100.754C178.269 100.358 178.732 100.158 179.19 100.158V98.1579C178.133 98.1579 177.142 98.6229 176.429 99.4119L177.912 100.754ZM179.19 100.158C179.649 100.158 180.111 100.358 180.469 100.754L181.952 99.4119C181.238 98.6229 180.248 98.1579 179.19 98.1579V100.158ZM180.469 100.754C180.83 101.153 181.048 101.713 181.048 102.316H183.048C183.048 101.244 182.663 100.198 181.952 99.4119L180.469 100.754ZM181.048 102.316C181.048 102.919 180.83 103.479 180.469 103.878L181.952 105.22C182.663 104.434 183.048 103.388 183.048 102.316H181.048ZM180.469 103.878C180.111 104.273 179.649 104.474 179.19 104.474V106.474C180.248 106.474 181.238 106.009 181.952 105.22L180.469 103.878ZM199.991 84.1192C199.474 82.4867 198.035 81.3158 196.333 81.3158V83.3158C197.07 83.3158 197.802 83.8291 198.085 84.7229L199.991 84.1192ZM196.333 81.3158H179.19V83.3158H196.333V81.3158ZM179.19 81.3158C177.489 81.3158 176.049 82.4867 175.532 84.1192L177.439 84.7229C177.722 83.8291 178.454 83.3158 179.19 83.3158V81.3158ZM175.532 84.1218L171.57 96.7534L173.478 97.3519L177.44 84.7203L175.532 84.1218ZM171.524 97.0526V113.895H173.524V97.0526H171.524ZM171.524 113.895C171.524 114.688 171.808 115.466 172.34 116.054L173.823 114.712C173.641 114.511 173.524 114.218 173.524 113.895H171.524ZM172.34 116.054C172.875 116.646 173.624 117 174.429 117V115C174.223 115 174.002 114.911 173.823 114.712L172.34 116.054ZM174.429 117H176.333V115H174.429V117ZM176.333 117C177.138 117 177.887 116.646 178.422 116.054L176.939 114.712C176.759 114.911 176.539 115 176.333 115V117ZM178.422 116.054C178.954 115.466 179.238 114.688 179.238 113.895H177.238C177.238 114.218 177.121 114.511 176.939 114.712L178.422 116.054ZM179.238 113.895V111.789H177.238V113.895H179.238ZM178.238 112.789H197.286V110.789H178.238V112.789ZM196.286 111.789V113.895H198.286V111.789H196.286ZM196.286 113.895C196.286 114.688 196.57 115.466 197.102 116.054L198.585 114.712C198.403 114.511 198.286 114.218 198.286 113.895H196.286ZM197.102 116.054C197.637 116.646 198.386 117 199.19 117V115C198.985 115 198.764 114.911 198.585 114.712L197.102 116.054ZM199.19 117H201.095V115H199.19V117ZM201.095 117C201.9 117 202.648 116.646 203.184 116.054L201.701 114.712C201.521 114.911 201.301 115 201.095 115V117ZM203.184 116.054C203.716 115.466 204 114.688 204 113.895H202C202 114.218 201.883 114.511 201.701 114.712L203.184 116.054ZM204 113.895V97.0526H202V113.895H204ZM203.954 96.7534L199.992 84.1218L198.084 84.7203L202.046 97.3519L203.954 96.7534ZM190.468 77.8034C189.951 76.1709 188.511 75 186.81 75V77C187.546 77 188.278 77.5133 188.561 78.4072L190.468 77.8034ZM186.81 75H169.667V77H186.81V75ZM169.667 75C167.965 75 166.526 76.1709 166.009 77.8034L167.915 78.4072C168.198 77.5133 168.93 77 169.667 77V75ZM166.008 77.806L162.046 90.4376L163.954 91.0361L167.916 78.4045L166.008 77.806ZM162 90.7368V107.579H164V90.7368H162ZM162 107.579C162 108.372 162.284 109.15 162.816 109.739L164.299 108.397C164.117 108.195 164 107.903 164 107.579H162ZM162.816 109.739C163.352 110.33 164.1 110.684 164.905 110.684V108.684C164.699 108.684 164.479 108.595 164.299 108.397L162.816 109.739ZM164.905 110.684H166.81V108.684H164.905V110.684ZM166.81 110.684C167.614 110.684 168.363 110.33 168.898 109.739L167.415 108.397C167.236 108.595 167.015 108.684 166.81 108.684V110.684ZM168.898 109.739C169.43 109.15 169.714 108.372 169.714 107.579H167.714C167.714 107.903 167.597 108.195 167.415 108.397L168.898 109.739ZM169.714 107.579V98.9684H167.714V107.579H169.714ZM169.083 98.0388C168.863 97.9518 168.655 97.8151 168.471 97.6311L167.054 99.0425C167.424 99.4137 167.862 99.7063 168.346 99.898L169.083 98.0388ZM168.471 97.6311C168.288 97.4469 168.134 97.2193 168.023 96.9585L166.183 97.7429C166.39 98.229 166.685 98.6716 167.054 99.0425L168.471 97.6311ZM168.023 96.9585C167.912 96.6977 167.847 96.4117 167.834 96.1176L165.836 96.2032C165.859 96.7338 165.976 97.2568 166.183 97.7429L168.023 96.9585ZM167.834 96.1176C167.822 95.8234 167.862 95.5307 167.951 95.2572L166.049 94.6375C165.885 95.1409 165.813 95.6725 165.836 96.2032L167.834 96.1176ZM167.949 95.2622C168.257 94.3348 168.97 93.8421 169.667 93.8421V91.8421C167.963 91.8421 166.581 93.0336 166.051 94.6325L167.949 95.2622ZM169.667 93.8421H169.8V91.8421H169.667V93.8421ZM170.753 93.144L172.087 88.9335L170.18 88.3297L168.847 92.5402L170.753 93.144ZM171.133 87.6316H166.81V89.6316H171.133V87.6316ZM167.767 88.9203L170.624 79.4466L168.709 78.8692L165.852 88.3428L167.767 88.9203ZM169.667 80.1579H189.838V78.1579H169.667V80.1579ZM190.794 78.8639L190.47 77.8112L188.558 78.3993L188.882 79.4519L190.794 78.8639Z" fill="#516163" mask="url(#path-7-inside-1_3904_15114)"/>
<g filter="url(#filter1_d_3904_15114)">
<rect x="253" y="105" width="80" height="80" rx="14" fill="white"/>
</g>
<path d="M292.387 139.336H283.612C280.5 139.336 279.812 140.839 279.412 142.681L278 149.239H298L296.587 142.681C296.187 140.839 295.5 139.336 292.387 139.336Z" stroke="#516163" stroke-linecap="round" stroke-linejoin="round"/>
<path d="M300.487 159.933C300.625 161.351 299.45 162.576 297.95 162.576H295.6C294.25 162.576 294.062 162.018 293.825 161.327L293.575 160.6C293.225 159.606 293 158.939 291.2 158.939H284.8C283 158.939 282.737 159.691 282.425 160.6L282.175 161.327C281.937 162.018 281.75 162.576 280.4 162.576H278.05C276.55 162.576 275.375 161.351 275.512 159.933L276.212 152.551C276.387 150.733 276.75 149.242 280.025 149.242H295.975C299.25 149.242 299.612 150.733 299.787 152.551L300.487 159.933Z" stroke="#516163" stroke-linecap="round" stroke-linejoin="round"/>
<path d="M278 145.602H276.75" stroke="#516163" stroke-linecap="round" stroke-linejoin="round"/>
<path d="M280.5 154.086H284.25" stroke="#516163" stroke-linecap="round" stroke-linejoin="round"/>
<path d="M291.75 154.086H295.5" stroke="#516163" stroke-linecap="round" stroke-linejoin="round"/>
<path d="M301.741 126.805L297.583 128.324C296.625 128.672 295.842 129.771 295.842 130.757V136.761C295.842 137.714 296.492 138.967 297.283 139.54L300.866 142.134C302.041 142.991 303.975 142.991 305.15 142.134L308.733 139.54C309.525 138.967 310.175 137.714 310.175 136.761V130.757C310.175 129.763 309.391 128.664 308.433 128.316L304.275 126.805C303.566 126.555 302.433 126.555 301.741 126.805Z" stroke="#516163" stroke-linecap="round" stroke-linejoin="round"/>
<path d="M300.542 134.596L301.883 135.897L305.466 132.422" stroke="#516163" stroke-linecap="round" stroke-linejoin="round"/>
<g filter="url(#filter2_d_3904_15114)">
<rect x="63" y="268" width="80" height="80" rx="14" fill="white"/>
</g>
<g clip-path="url(#clip0_3904_15114)">
<mask id="path-18-inside-2_3904_15114" fill="white">
<path d="M85.5 288.002L83 290.502L88.5 298.205C88.7315 298.529 89.0373 298.793 89.3917 298.976C89.7461 299.158 90.139 299.253 90.5375 299.252H90.7125C91.0412 299.252 91.3667 299.317 91.6704 299.442C91.9742 299.568 92.2501 299.752 92.4825 299.985L99.17 306.672L92.6275 313.307C91.5085 312.978 90.3281 312.914 89.18 313.12C88.0319 313.326 86.9476 313.797 86.0132 314.496C85.0789 315.194 84.3201 316.1 83.797 317.143C83.274 318.186 83.0011 319.336 83 320.502C83.0015 321.577 83.234 322.639 83.6818 323.616C84.1295 324.593 84.7821 325.463 85.5953 326.166C86.4084 326.869 87.3632 327.389 88.3948 327.69C89.4264 327.992 90.5109 328.068 91.5746 327.914C92.6384 327.76 93.6566 327.38 94.5603 326.798C95.464 326.216 96.2321 325.446 96.8125 324.542C97.3929 323.637 97.7721 322.618 97.9244 321.554C98.0766 320.49 97.9984 319.406 97.695 318.375L104.33 311.832L106.75 314.252L105.988 316.537C105.841 316.978 105.82 317.45 105.927 317.902C106.034 318.354 106.264 318.767 106.593 319.095L114.983 327.485C115.451 327.953 116.087 328.217 116.75 328.217C117.413 328.217 118.049 327.953 118.518 327.485L122.483 323.52C122.951 323.051 123.214 322.415 123.214 321.752C123.214 321.089 122.951 320.454 122.483 319.985L114.093 311.595C113.764 311.266 113.351 311.036 112.9 310.929C112.448 310.822 111.975 310.843 111.535 310.99L109.25 311.752L106.85 309.352L113.55 302.745C114.661 303.041 115.826 303.079 116.954 302.854C118.083 302.63 119.144 302.149 120.057 301.449C120.97 300.749 121.711 299.849 122.221 298.818C122.731 297.787 122.998 296.653 123 295.502C123 294.83 122.913 294.177 122.745 293.56L117.395 298.912L113 298.002L112.09 293.61L117.443 288.257C116.169 287.915 114.828 287.914 113.555 288.255C112.281 288.597 111.12 289.267 110.188 290.2C109.257 291.133 108.587 292.295 108.248 293.569C107.908 294.843 107.911 296.184 108.255 297.457L101.655 304.152L94.9825 297.485C94.5136 297.016 94.2501 296.38 94.25 295.717V295.54C94.25 295.142 94.155 294.749 93.9728 294.395C93.7906 294.041 93.5265 293.736 93.2025 293.505L85.5 288.002ZM109.615 314.617C109.731 314.501 109.869 314.408 110.021 314.345C110.173 314.282 110.336 314.25 110.5 314.25C110.664 314.25 110.827 314.282 110.979 314.345C111.131 314.408 111.269 314.501 111.385 314.617L118.885 322.117C119.001 322.233 119.093 322.371 119.156 322.523C119.219 322.675 119.252 322.838 119.252 323.002C119.252 323.167 119.219 323.329 119.156 323.481C119.093 323.633 119.001 323.771 118.885 323.887C118.769 324.003 118.631 324.096 118.479 324.159C118.327 324.221 118.164 324.254 118 324.254C117.836 324.254 117.673 324.221 117.521 324.159C117.369 324.096 117.231 324.003 117.115 323.887L109.615 316.387C109.499 316.271 109.406 316.133 109.343 315.981C109.28 315.829 109.248 315.667 109.248 315.502C109.248 315.338 109.28 315.175 109.343 315.023C109.406 314.871 109.499 314.733 109.615 314.617ZM90.5 315.502L91.6775 316.107L93 316.172L93.7175 317.285L94.83 318.002L94.895 319.325L95.5 320.502L94.895 321.68L94.83 323.002L93.7175 323.72L93 324.832L91.6775 324.897L90.5 325.502L89.3225 324.897L88 324.832L87.2825 323.72L86.17 323.002L86.105 321.68L85.5 320.502L86.105 319.325L86.17 318.002L87.2825 317.285L88 316.172L89.3225 316.107L90.5 315.502Z"/>
</mask>
<path d="M85.5 288.002L83 290.502L88.5 298.205C88.7315 298.529 89.0373 298.793 89.3917 298.976C89.7461 299.158 90.139 299.253 90.5375 299.252H90.7125C91.0412 299.252 91.3667 299.317 91.6704 299.442C91.9742 299.568 92.2501 299.752 92.4825 299.985L99.17 306.672L92.6275 313.307C91.5085 312.978 90.3281 312.914 89.18 313.12C88.0319 313.326 86.9476 313.797 86.0132 314.496C85.0789 315.194 84.3201 316.1 83.797 317.143C83.274 318.186 83.0011 319.336 83 320.502C83.0015 321.577 83.234 322.639 83.6818 323.616C84.1295 324.593 84.7821 325.463 85.5953 326.166C86.4084 326.869 87.3632 327.389 88.3948 327.69C89.4264 327.992 90.5109 328.068 91.5746 327.914C92.6384 327.76 93.6566 327.38 94.5603 326.798C95.464 326.216 96.2321 325.446 96.8125 324.542C97.3929 323.637 97.7721 322.618 97.9244 321.554C98.0766 320.49 97.9984 319.406 97.695 318.375L104.33 311.832L106.75 314.252L105.988 316.537C105.841 316.978 105.82 317.45 105.927 317.902C106.034 318.354 106.264 318.767 106.593 319.095L114.983 327.485C115.451 327.953 116.087 328.217 116.75 328.217C117.413 328.217 118.049 327.953 118.518 327.485L122.483 323.52C122.951 323.051 123.214 322.415 123.214 321.752C123.214 321.089 122.951 320.454 122.483 319.985L114.093 311.595C113.764 311.266 113.351 311.036 112.9 310.929C112.448 310.822 111.975 310.843 111.535 310.99L109.25 311.752L106.85 309.352L113.55 302.745C114.661 303.041 115.826 303.079 116.954 302.854C118.083 302.63 119.144 302.149 120.057 301.449C120.97 300.749 121.711 299.849 122.221 298.818C122.731 297.787 122.998 296.653 123 295.502C123 294.83 122.913 294.177 122.745 293.56L117.395 298.912L113 298.002L112.09 293.61L117.443 288.257C116.169 287.915 114.828 287.914 113.555 288.255C112.281 288.597 111.12 289.267 110.188 290.2C109.257 291.133 108.587 292.295 108.248 293.569C107.908 294.843 107.911 296.184 108.255 297.457L101.655 304.152L94.9825 297.485C94.5136 297.016 94.2501 296.38 94.25 295.717V295.54C94.25 295.142 94.155 294.749 93.9728 294.395C93.7906 294.041 93.5265 293.736 93.2025 293.505L85.5 288.002ZM109.615 314.617C109.731 314.501 109.869 314.408 110.021 314.345C110.173 314.282 110.336 314.25 110.5 314.25C110.664 314.25 110.827 314.282 110.979 314.345C111.131 314.408 111.269 314.501 111.385 314.617L118.885 322.117C119.001 322.233 119.093 322.371 119.156 322.523C119.219 322.675 119.252 322.838 119.252 323.002C119.252 323.167 119.219 323.329 119.156 323.481C119.093 323.633 119.001 323.771 118.885 323.887C118.769 324.003 118.631 324.096 118.479 324.159C118.327 324.221 118.164 324.254 118 324.254C117.836 324.254 117.673 324.221 117.521 324.159C117.369 324.096 117.231 324.003 117.115 323.887L109.615 316.387C109.499 316.271 109.406 316.133 109.343 315.981C109.28 315.829 109.248 315.667 109.248 315.502C109.248 315.338 109.28 315.175 109.343 315.023C109.406 314.871 109.499 314.733 109.615 314.617ZM90.5 315.502L91.6775 316.107L93 316.172L93.7175 317.285L94.83 318.002L94.895 319.325L95.5 320.502L94.895 321.68L94.83 323.002L93.7175 323.72L93 324.832L91.6775 324.897L90.5 325.502L89.3225 324.897L88 324.832L87.2825 323.72L86.17 323.002L86.105 321.68L85.5 320.502L86.105 319.325L86.17 318.002L87.2825 317.285L88 316.172L89.3225 316.107L90.5 315.502Z" stroke="#516163" stroke-width="2" mask="url(#path-18-inside-2_3904_15114)"/>
</g>
<g filter="url(#filter3_d_3904_15114)">
<rect x="370" y="57" width="80" height="80" rx="14" fill="white"/>
</g>
<path d="M410.001 83.6719V90.3385M396.667 90.3385L400.834 94.5052M419.167 94.5052L423.334 90.3385M395.001 105.339H400.001M410.001 105.339L411.667 95.3385M420.001 105.339H425.001M404.167 110.34H396.667C394.499 107.457 393.328 103.946 393.334 100.339C393.334 91.1335 400.796 83.6719 410.001 83.6719C419.206 83.6719 426.667 91.1335 426.667 100.339C426.667 104.092 425.427 107.555 423.334 110.34L415.834 110.339" stroke="#516163" stroke-linecap="round" stroke-linejoin="round"/>
<path d="M410 115.344C411.326 115.344 412.598 114.817 413.536 113.879C414.473 112.942 415 111.67 415 110.344C415 109.018 414.473 107.746 413.536 106.808C412.598 105.871 411.326 105.344 410 105.344C408.674 105.344 407.402 105.871 406.464 106.808C405.527 107.746 405 109.018 405 110.344C405 111.67 405.527 112.942 406.464 113.879C407.402 114.817 408.674 115.344 410 115.344V115.344Z" stroke="#516163" stroke-linecap="round" stroke-linejoin="round"/>
<g filter="url(#filter4_d_3904_15114)">
<rect x="162" y="217" width="80" height="80" rx="14" fill="white"/>
</g>
<g clip-path="url(#clip1_3904_15114)">
<path d="M208.271 251.691L208.271 251.691L209.553 256.297C208.71 256.373 207.794 256.416 206.83 256.416C205.865 256.416 204.949 256.374 204.106 256.296L205.39 251.691L205.39 251.691C205.567 251.054 206.167 250.703 206.83 250.703C207.493 250.703 208.093 251.054 208.271 251.691ZM218.118 271.348L218.119 271.348C218.244 271.376 218.348 271.438 218.42 271.517C218.491 271.596 218.527 271.687 218.531 271.775C218.535 271.864 218.507 271.955 218.444 272.037C218.38 272.119 218.283 272.187 218.162 272.223L218.162 272.223L207.016 275.556C207.016 275.556 207.016 275.556 207.016 275.556C206.896 275.592 206.765 275.592 206.644 275.556C206.644 275.556 206.644 275.556 206.644 275.556L195.498 272.223L195.498 272.223C195.377 272.187 195.28 272.119 195.216 272.037C195.154 271.955 195.126 271.864 195.129 271.775C195.133 271.687 195.169 271.596 195.24 271.517C195.312 271.438 195.417 271.376 195.541 271.348L195.542 271.348L199.983 270.352L200.202 270.302L200.262 270.086L201.218 266.663C202.793 266.979 204.735 267.164 206.83 267.164C208.926 267.164 210.867 266.979 212.443 266.663L213.398 270.086L213.458 270.302L213.677 270.352L218.118 271.348ZM206.83 258.832C208.023 258.832 209.162 258.773 210.214 258.664L211.791 264.323C210.452 264.582 208.736 264.749 206.83 264.749C204.924 264.749 203.21 264.582 201.869 264.323L203.446 258.664C204.498 258.773 205.638 258.832 206.83 258.832Z" stroke="#516163" stroke-width="0.75"/>
</g>
<path d="M198.193 245.028C197.869 245.149 197.522 245.211 197.17 245.211C196.46 245.211 195.782 244.958 195.284 244.511C194.786 244.064 194.509 243.461 194.509 242.836C194.509 242.211 194.786 241.608 195.284 241.161C195.782 240.714 196.46 240.461 197.17 240.461C197.522 240.461 197.869 240.523 198.193 240.643C198.517 240.764 198.811 240.94 199.057 241.161C199.304 241.382 199.499 241.644 199.631 241.932C199.764 242.219 199.832 242.526 199.832 242.836C199.832 243.146 199.764 243.453 199.631 243.74C199.499 244.027 199.304 244.289 199.057 244.511C198.811 244.732 198.517 244.908 198.193 245.028ZM199.057 251.177C198.559 251.624 197.88 251.878 197.17 251.878C196.46 251.878 195.782 251.624 195.284 251.177C194.786 250.731 194.509 250.128 194.509 249.503C194.509 248.877 194.786 248.275 195.284 247.828C195.782 247.381 196.46 247.128 197.17 247.128C197.88 247.128 198.559 247.381 199.057 247.828C199.555 248.275 199.832 248.877 199.832 249.503C199.832 250.128 199.555 250.731 199.057 251.177ZM199.832 256.169C199.832 256.795 199.555 257.397 199.057 257.844C198.559 258.291 197.88 258.544 197.17 258.544C196.46 258.544 195.782 258.291 195.284 257.844C194.786 257.397 194.509 256.795 194.509 256.169C194.509 255.544 194.786 254.941 195.284 254.495C195.782 254.047 196.46 253.794 197.17 253.794C197.88 253.794 198.559 254.047 199.057 254.495C199.555 254.941 199.832 255.544 199.832 256.169Z" stroke="#516163" stroke-width="0.25"/>
<path d="M189.431 240.708H189.806V240.333C189.806 239.563 190.146 238.814 190.769 238.255C191.393 237.696 192.248 237.375 193.146 237.375H200.576C201.474 237.375 202.329 237.696 202.953 238.255C203.576 238.814 203.916 239.563 203.916 240.333V240.708H204.291H207.414C206.932 241.559 205.884 242.799 204.184 243.307L203.916 243.387V243.667V247V247.375H204.291H207.414C206.932 248.226 205.884 249.465 204.184 249.974L203.916 250.054V250.333V253.667V254.042H204.291H207.414C206.932 254.892 205.884 256.132 204.184 256.641L203.916 256.721V257V258.667C203.916 259.437 203.576 260.186 202.953 260.745C202.329 261.304 201.474 261.625 200.576 261.625H193.146C192.248 261.625 191.393 261.304 190.769 260.745C190.146 260.186 189.806 259.437 189.806 258.667V257V256.721L189.538 256.641C187.838 256.132 186.79 254.892 186.308 254.042H189.431H189.806V253.667V250.333V250.054L189.538 249.974C187.838 249.465 186.79 248.226 186.308 247.375H189.431H189.806V247V243.667V243.387L189.538 243.307C187.838 242.799 186.79 241.559 186.308 240.708H189.431ZM193.146 238.292C192.566 238.292 192.003 238.498 191.582 238.876C191.159 239.255 190.913 239.778 190.913 240.333V258.667C190.913 259.222 191.159 259.745 191.582 260.124C192.003 260.502 192.566 260.708 193.146 260.708H200.576C201.156 260.708 201.719 260.502 202.14 260.124C202.563 259.745 202.809 259.222 202.809 258.667V240.333C202.809 239.778 202.563 239.255 202.14 238.876C201.719 238.498 201.156 238.292 200.576 238.292H193.146Z" stroke="#516163" stroke-width="0.75"/>
<path d="M197.391 274.453L197.391 261.12" stroke="#516163"/>
<g filter="url(#filter5_d_3904_15114)">
<rect x="274" y="262" width="80" height="80" rx="14" fill="white"/>
</g>
<path d="M322.934 313.444C323.551 313.444 324.143 313.152 324.58 312.631C325.017 312.11 325.262 311.404 325.262 310.667V305.113C325.262 304.376 325.017 303.67 324.58 303.149C324.143 302.628 323.551 302.335 322.934 302.335H319.442L317.65 295.892C317.488 295.317 317.173 294.822 316.752 294.481C316.332 294.14 315.83 293.972 315.322 294.004H305.987C305.48 293.972 304.977 294.14 304.557 294.481C304.137 294.822 303.822 295.317 303.66 295.892L301.983 302.335H297.328C296.71 302.335 296.118 302.628 295.682 303.149C295.245 303.67 295 304.376 295 305.113V310.667C295 311.404 295.245 312.11 295.682 312.631C296.118 313.152 296.71 313.444 297.328 313.444" stroke="#516163" stroke-linejoin="round"/>
<path d="M301.986 319C304.558 319 306.643 316.513 306.643 313.445C306.643 310.377 304.558 307.891 301.986 307.891C299.415 307.891 297.33 310.377 297.33 313.445C297.33 316.513 299.415 319 301.986 319Z" stroke="#516163" stroke-linejoin="round"/>
<path d="M318.275 319C320.847 319 322.932 316.513 322.932 313.445C322.932 310.377 320.847 307.891 318.275 307.891C315.704 307.891 313.619 310.377 313.619 313.445C313.619 316.513 315.704 319 318.275 319Z" stroke="#516163" stroke-linejoin="round"/>
<path d="M306.643 313.438H313.627" stroke="#516163" stroke-linejoin="round"/>
<path d="M293 320.336H339.502" stroke="#516163" stroke-miterlimit="10" stroke-linecap="round" stroke-linejoin="round"/>
<path d="M331.756 319L331.756 296" stroke="#516163" stroke-miterlimit="10" stroke-linejoin="round"/>
<path d="M331.765 284.328C329.971 284.328 328.529 285.961 328.529 287.995V291.778C328.529 293.811 329.971 295.445 331.765 295.445C333.559 295.445 335 293.811 335 291.778V287.995C335 285.961 333.559 284.328 331.765 284.328Z" stroke="#516163" stroke-miterlimit="10" stroke-linejoin="round"/>
<g filter="url(#filter6_d_3904_15114)">
<rect x="53" y="157" width="80" height="80" rx="14" fill="white"/>
</g>
<g clip-path="url(#clip2_3904_15114)">
<path d="M92.5714 191.429H79.7143L74 185.714L79.7143 180H92.5714" stroke="#516163" stroke-linecap="round" stroke-linejoin="round"/>
<path d="M92.5723 199.999H105.429L111.144 194.285L105.429 188.57H92.5723" stroke="#516163" stroke-linecap="round" stroke-linejoin="round"/>
<path d="M92.5714 208.569H79.7143L74 202.855L79.7143 197.141H92.5714" stroke="#516163" stroke-linecap="round" stroke-linejoin="round"/>
<path d="M92.5723 180V217.143" stroke="#516163" stroke-linecap="round" stroke-linejoin="round"/>
</g>
<g filter="url(#filter7_d_3904_15114)">
<rect x="26" y="6" width="80" height="80" rx="14" fill="white"/>
</g>
<path d="M65.4508 38.197C63.4261 39.8717 60.5266 40.3863 57.981 39.7246L53.3518 43.5641C53.0176 43.85 52.3591 44.0215 51.8873 43.9643L49.7447 43.7193C49.037 43.6376 48.3785 43.0821 48.2704 42.4939L47.9755 40.7131C47.9067 40.321 48.1328 39.7736 48.4571 39.4959L53.0766 35.6565C52.2903 33.5325 52.8996 31.1227 54.9243 29.448C57.8238 27.0382 62.5317 27.0382 65.441 29.448C68.3502 31.8579 68.3502 35.7872 65.4508 38.197Z" stroke="#516163" stroke-miterlimit="10" stroke-linecap="round" stroke-linejoin="round"/>
<path d="M52.772 40.2891L55.0326 42.1679" stroke="#516163" stroke-miterlimit="10" stroke-linecap="round" stroke-linejoin="round"/>
<path d="M60.2514 34.9898C61.0656 34.9898 61.7257 34.4412 61.7257 33.7644C61.7257 33.0877 61.0656 32.5391 60.2514 32.5391C59.4372 32.5391 58.7771 33.0877 58.7771 33.7644C58.7771 34.4412 59.4372 34.9898 60.2514 34.9898Z" stroke="#516163" stroke-linecap="round" stroke-linejoin="round"/>
<path d="M74.2641 40.7266H64.5611C61.1194 40.7266 60.3592 42.2072 59.9169 44.0221L58.355 50.4819H80.4702L78.9083 44.0221C78.466 42.2072 77.7058 40.7266 74.2641 40.7266Z" stroke="#516163" stroke-linecap="round" stroke-linejoin="round"/>
<path d="M83.2208 61.008C83.3728 62.405 82.0735 63.611 80.4149 63.611H77.8164C76.3236 63.611 76.1162 63.0617 75.8536 62.3811L75.5772 61.6647C75.1902 60.6856 74.9414 60.0289 72.951 60.0289H65.8741C63.8838 60.0289 63.5935 60.7692 63.248 61.6647L62.9715 62.3811C62.7089 63.0617 62.5016 63.611 61.0088 63.611H58.4103C56.7516 63.611 55.4524 62.405 55.6044 61.008L56.3784 53.7363C56.5719 51.9452 56.9728 50.4766 60.5941 50.4766H78.231C81.8524 50.4766 82.2532 51.9452 82.4467 53.7363L83.2208 61.008Z" stroke="#516163" stroke-linecap="round" stroke-linejoin="round"/>
<path d="M58.3549 46.8984H56.9727" stroke="#516163" stroke-linecap="round" stroke-linejoin="round"/>
<path d="M81.8524 46.8984H80.4702" stroke="#516163" stroke-linecap="round" stroke-linejoin="round"/>
<path d="M69.4126 40.9297V43.3178" stroke="#516163" stroke-linecap="round" stroke-linejoin="round"/>
<path d="M67.3394 43.3125H71.486" stroke="#516163" stroke-linecap="round" stroke-linejoin="round"/>
<path d="M61.1194 55.2578H65.266" stroke="#516163" stroke-linecap="round" stroke-linejoin="round"/>
<path d="M73.5591 55.2578H77.7057" stroke="#516163" stroke-linecap="round" stroke-linejoin="round"/>
<defs>
<filter id="filter0_d_3904_15114" x="133" y="50" width="100" height="100" filterUnits="userSpaceOnUse" color-interpolation-filters="sRGB">
<feFlood flood-opacity="0" result="BackgroundImageFix"/>
<feColorMatrix in="SourceAlpha" type="matrix" values="0 0 0 0 0 0 0 0 0 0 0 0 0 0 0 0 0 0 127 0" result="hardAlpha"/>
<feOffset dy="4"/>
<feGaussianBlur stdDeviation="5"/>
<feComposite in2="hardAlpha" operator="out"/>
<feColorMatrix type="matrix" values="0 0 0 0 0 0 0 0 0 0 0 0 0 0 0 0 0 0 0.15 0"/>
<feBlend mode="normal" in2="BackgroundImageFix" result="effect1_dropShadow_3904_15114"/>
<feBlend mode="normal" in="SourceGraphic" in2="effect1_dropShadow_3904_15114" result="shape"/>
</filter>
<filter id="filter1_d_3904_15114" x="243" y="99" width="100" height="100" filterUnits="userSpaceOnUse" color-interpolation-filters="sRGB">
<feFlood flood-opacity="0" result="BackgroundImageFix"/>
<feColorMatrix in="SourceAlpha" type="matrix" values="0 0 0 0 0 0 0 0 0 0 0 0 0 0 0 0 0 0 127 0" result="hardAlpha"/>
<feOffset dy="4"/>
<feGaussianBlur stdDeviation="5"/>
<feComposite in2="hardAlpha" operator="out"/>
<feColorMatrix type="matrix" values="0 0 0 0 0 0 0 0 0 0 0 0 0 0 0 0 0 0 0.15 0"/>
<feBlend mode="normal" in2="BackgroundImageFix" result="effect1_dropShadow_3904_15114"/>
<feBlend mode="normal" in="SourceGraphic" in2="effect1_dropShadow_3904_15114" result="shape"/>
</filter>
<filter id="filter2_d_3904_15114" x="53" y="262" width="100" height="100" filterUnits="userSpaceOnUse" color-interpolation-filters="sRGB">
<feFlood flood-opacity="0" result="BackgroundImageFix"/>
<feColorMatrix in="SourceAlpha" type="matrix" values="0 0 0 0 0 0 0 0 0 0 0 0 0 0 0 0 0 0 127 0" result="hardAlpha"/>
<feOffset dy="4"/>
<feGaussianBlur stdDeviation="5"/>
<feComposite in2="hardAlpha" operator="out"/>
<feColorMatrix type="matrix" values="0 0 0 0 0 0 0 0 0 0 0 0 0 0 0 0 0 0 0.15 0"/>
<feBlend mode="normal" in2="BackgroundImageFix" result="effect1_dropShadow_3904_15114"/>
<feBlend mode="normal" in="SourceGraphic" in2="effect1_dropShadow_3904_15114" result="shape"/>
</filter>
<filter id="filter3_d_3904_15114" x="360" y="51" width="100" height="100" filterUnits="userSpaceOnUse" color-interpolation-filters="sRGB">
<feFlood flood-opacity="0" result="BackgroundImageFix"/>
<feColorMatrix in="SourceAlpha" type="matrix" values="0 0 0 0 0 0 0 0 0 0 0 0 0 0 0 0 0 0 127 0" result="hardAlpha"/>
<feOffset dy="4"/>
<feGaussianBlur stdDeviation="5"/>
<feComposite in2="hardAlpha" operator="out"/>
<feColorMatrix type="matrix" values="0 0 0 0 0 0 0 0 0 0 0 0 0 0 0 0 0 0 0.15 0"/>
<feBlend mode="normal" in2="BackgroundImageFix" result="effect1_dropShadow_3904_15114"/>
<feBlend mode="normal" in="SourceGraphic" in2="effect1_dropShadow_3904_15114" result="shape"/>
</filter>
<filter id="filter4_d_3904_15114" x="152" y="211" width="100" height="100" filterUnits="userSpaceOnUse" color-interpolation-filters="sRGB">
<feFlood flood-opacity="0" result="BackgroundImageFix"/>
<feColorMatrix in="SourceAlpha" type="matrix" values="0 0 0 0 0 0 0 0 0 0 0 0 0 0 0 0 0 0 127 0" result="hardAlpha"/>
<feOffset dy="4"/>
<feGaussianBlur stdDeviation="5"/>
<feComposite in2="hardAlpha" operator="out"/>
<feColorMatrix type="matrix" values="0 0 0 0 0 0 0 0 0 0 0 0 0 0 0 0 0 0 0.15 0"/>
<feBlend mode="normal" in2="BackgroundImageFix" result="effect1_dropShadow_3904_15114"/>
<feBlend mode="normal" in="SourceGraphic" in2="effect1_dropShadow_3904_15114" result="shape"/>
</filter>
<filter id="filter5_d_3904_15114" x="264" y="256" width="100" height="100" filterUnits="userSpaceOnUse" color-interpolation-filters="sRGB">
<feFlood flood-opacity="0" result="BackgroundImageFix"/>
<feColorMatrix in="SourceAlpha" type="matrix" values="0 0 0 0 0 0 0 0 0 0 0 0 0 0 0 0 0 0 127 0" result="hardAlpha"/>
<feOffset dy="4"/>
<feGaussianBlur stdDeviation="5"/>
<feComposite in2="hardAlpha" operator="out"/>
<feColorMatrix type="matrix" values="0 0 0 0 0 0 0 0 0 0 0 0 0 0 0 0 0 0 0.15 0"/>
<feBlend mode="normal" in2="BackgroundImageFix" result="effect1_dropShadow_3904_15114"/>
<feBlend mode="normal" in="SourceGraphic" in2="effect1_dropShadow_3904_15114" result="shape"/>
</filter>
<filter id="filter6_d_3904_15114" x="43" y="151" width="100" height="100" filterUnits="userSpaceOnUse" color-interpolation-filters="sRGB">
<feFlood flood-opacity="0" result="BackgroundImageFix"/>
<feColorMatrix in="SourceAlpha" type="matrix" values="0 0 0 0 0 0 0 0 0 0 0 0 0 0 0 0 0 0 127 0" result="hardAlpha"/>
<feOffset dy="4"/>
<feGaussianBlur stdDeviation="5"/>
<feComposite in2="hardAlpha" operator="out"/>
<feColorMatrix type="matrix" values="0 0 0 0 0 0 0 0 0 0 0 0 0 0 0 0 0 0 0.15 0"/>
<feBlend mode="normal" in2="BackgroundImageFix" result="effect1_dropShadow_3904_15114"/>
<feBlend mode="normal" in="SourceGraphic" in2="effect1_dropShadow_3904_15114" result="shape"/>
</filter>
<filter id="filter7_d_3904_15114" x="16" y="0" width="100" height="100" filterUnits="userSpaceOnUse" color-interpolation-filters="sRGB">
<feFlood flood-opacity="0" result="BackgroundImageFix"/>
<feColorMatrix in="SourceAlpha" type="matrix" values="0 0 0 0 0 0 0 0 0 0 0 0 0 0 0 0 0 0 127 0" result="hardAlpha"/>
<feOffset dy="4"/>
<feGaussianBlur stdDeviation="5"/>
<feComposite in2="hardAlpha" operator="out"/>
<feColorMatrix type="matrix" values="0 0 0 0 0 0 0 0 0 0 0 0 0 0 0 0 0 0 0.15 0"/>
<feBlend mode="normal" in2="BackgroundImageFix" result="effect1_dropShadow_3904_15114"/>
<feBlend mode="normal" in="SourceGraphic" in2="effect1_dropShadow_3904_15114" result="shape"/>
</filter>
<clipPath id="clip0_3904_15114">
<rect width="40" height="40" fill="white" transform="translate(83 288)"/>
</clipPath>
<clipPath id="clip1_3904_15114">
<rect width="29.7217" height="26.6667" fill="white" transform="translate(192.277 250.328)"/>
</clipPath>
<clipPath id="clip2_3904_15114">
<rect width="40" height="40" fill="white" transform="translate(73 177)"/>
</clipPath>
</defs>
</svg>
