<svg width="81" height="89" viewBox="0 0 81 89" fill="none" xmlns="http://www.w3.org/2000/svg">
<path d="M43.4009 62.9206C42.8282 60.2298 41.6827 57.953 39.9646 55.8832C38.6283 53.6064 36.9101 51.9506 34.6193 50.7087C33.8557 50.2948 33.0922 49.8808 32.3286 49.4669C30.8015 48.225 29.0835 47.3971 27.1745 46.7762C23.7383 45.7413 19.9202 45.7413 16.2931 46.7762C11.9024 48.0181 8.46621 50.7088 5.79362 54.6414C4.83913 56.0902 4.45733 56.7111 3.88463 57.539C0.830243 62.5065 0.448538 68.716 1.59393 74.5114C2.54843 79.065 5.79367 82.9976 9.42075 85.4813C10.9479 86.5162 12.2842 86.9302 14.1932 87.7582C14.575 87.9651 14.9568 87.9652 15.3386 88.1722C16.8658 88.5861 18.9658 89 20.6838 89C21.6383 89 22.5928 89 23.5473 88.7931C25.6472 89 27.7472 88.7931 30.038 88.1722C31.5651 87.5512 33.0922 86.7233 34.6193 86.1024C37.4828 84.2395 39.7736 81.7558 41.3008 78.8581C42.6371 76.5813 43.4008 73.8905 43.5917 71.1998C44.1644 68.3021 44.1645 65.6113 43.4009 62.9206Z" fill="#F4AB76"/>
<path d="M21.4941 15.666V16.166H20.9941L16.5891 16.166C15.2884 16.1661 14.0135 16.5285 12.9073 17.2127C11.8011 17.8968 10.9074 18.8756 10.3264 20.0394L10.3262 20.0397L2.23624 36.2147L2.23606 36.215C1.7496 37.1856 1.49557 38.2561 1.49406 39.3417L1.49406 58.166C1.49406 60.0225 2.23155 61.803 3.5443 63.1158C4.85706 64.4285 6.63754 65.166 8.49406 65.166H16.2441H16.6527L16.7341 65.5665C17.2849 68.2792 18.7566 70.7181 20.8998 72.4698C23.0431 74.2216 25.726 75.1786 28.4941 75.1786C31.2621 75.1786 33.945 74.2216 36.0883 72.4698C38.2315 70.7181 39.7032 68.2792 40.2541 65.5665L40.3354 65.166H40.7441H46.2441H46.6527L46.7341 65.5665C47.2849 68.2792 48.7566 70.7181 50.8998 72.4698C53.0431 74.2216 55.726 75.1786 58.4941 75.1786C61.2621 75.1786 63.9451 74.2216 66.0883 72.4698C68.2315 70.7181 69.7032 68.2792 70.2541 65.5665L70.3354 65.166H70.7441H72.0391C74.2271 65.166 76.3255 64.2968 77.8727 62.7497C79.4199 61.2025 80.2891 59.1041 80.2891 56.916L80.2891 9.41602C80.2891 4.86216 76.5929 1.16602 72.0391 1.16602L29.7441 1.16602C25.1902 1.16602 21.4941 4.86216 21.4941 9.41602V15.666ZM20.9991 20.166V20.666H21.4941L21.4941 35.666V36.166L20.9941 36.166H7.54405H6.73531L7.09678 35.4425L13.9018 21.8225L13.902 21.822C14.1514 21.3243 14.5344 20.9059 15.008 20.6134C15.4817 20.3209 16.0274 20.166 16.584 20.166L20.4941 20.166H20.9941H20.9991ZM58.4941 55.166C60.6158 55.166 62.6506 56.0089 64.1509 57.5092C65.6512 59.0095 66.4941 61.0443 66.4941 63.166C66.4941 65.2878 65.6512 67.3226 64.1509 68.8229C62.6506 70.3232 60.6158 71.166 58.4941 71.166C56.3723 71.166 54.3375 70.3232 52.8372 68.8229C51.3369 67.3226 50.4941 65.2878 50.4941 63.166C50.4941 61.0443 51.3369 59.0095 52.8372 57.5092C54.3375 56.0089 56.3723 55.166 58.4941 55.166ZM36.4941 63.166C36.4941 65.2878 35.6512 67.3226 34.1509 68.8229C32.6506 70.3232 30.6158 71.166 28.4941 71.166C26.3723 71.166 24.3375 70.3232 22.8372 68.8229C21.3369 67.3226 20.4941 65.2878 20.4941 63.166C20.4941 61.0443 21.3369 59.0095 22.8372 57.5092C24.3375 56.0089 26.3723 55.166 28.4941 55.166C30.6158 55.166 32.6506 56.0089 34.1509 57.5092C35.6512 59.0095 36.4941 61.0443 36.4941 63.166Z" stroke="#2D4D58"/>
</svg>
