<svg width="1366" height="589" viewBox="0 0 1366 589" fill="none" xmlns="http://www.w3.org/2000/svg">
<path d="M732.282 0H1179V589H289L732.282 0Z" fill="#E3F3F3"/>
<path d="M919.282 0H1366V589H476L919.282 0Z" fill="#B5E1E3"/>
<line x1="135" y1="381.602" x2="135" y2="360.999" stroke="#B5E1E3" stroke-width="2" stroke-linecap="round"/>
<rect x="780" y="478.031" width="11" height="6.82782" fill="white"/>
<rect x="780" y="467.297" width="11" height="5.85242" rx="2.92621" fill="white"/>
<rect x="833" y="490.703" width="11" height="6.82782" fill="white"/>
<rect x="894" y="437.062" width="11" height="5.85242" fill="white"/>
<line x1="1.5" y1="-1.5" x2="152.775" y2="-1.5" transform="matrix(-0.0197216 0.999806 -0.999918 -0.0128524 134.686 409.742)" stroke="#B5E1E3" stroke-width="3" stroke-linecap="square"/>
<line x1="1.5" y1="-1.5" x2="152.754" y2="-1.5" transform="matrix(-0.0104731 -0.999945 0.999977 -0.00685688 137.107 564)" stroke="#B5E1E3" stroke-width="3" stroke-linecap="square"/>
<rect x="767.5" y="449.258" width="62" height="115.073" stroke="white"/>
<rect x="816.5" y="471.695" width="62" height="92.6387" stroke="white"/>
<path d="M858.873 525.368C858.873 528.889 856.594 532.152 852.752 534.559C848.917 536.963 843.588 538.466 837.675 538.466C831.762 538.466 826.433 536.963 822.597 534.559C818.755 532.152 816.477 528.889 816.477 525.368C816.477 523.614 817.18 521.557 818.435 519.379C819.684 517.209 821.458 514.956 823.542 512.821C827.661 508.599 832.939 504.889 837.656 503.178C841.515 504.896 846.793 508.61 851.134 512.83C853.336 514.97 855.28 517.226 856.671 519.399C858.069 521.583 858.873 523.631 858.873 525.368Z" fill="#E3F3F3" stroke="white"/>
<path d="M835.201 532.921C835.201 537.028 832.486 540.827 827.928 543.625C823.379 546.418 817.062 548.162 810.057 548.162C803.053 548.162 796.736 546.418 792.186 543.625C787.628 540.827 784.914 537.028 784.914 532.921C784.914 528.813 787.628 525.014 792.186 522.216C796.736 519.423 803.053 517.68 810.057 517.68C817.062 517.68 823.379 519.423 827.928 522.216C832.486 525.014 835.201 528.813 835.201 532.921Z" fill="#E3F3F3" stroke="white"/>
<line x1="811.562" y1="548.664" x2="811.562" y2="564.809" stroke="white" stroke-width="3"/>
<line x1="839.176" y1="538.969" x2="839.176" y2="564.8" stroke="white" stroke-width="3"/>
<rect x="780" y="457.547" width="11" height="5.85242" fill="white"/>
<rect x="854" y="479.977" width="11" height="5.85242" fill="white"/>
<rect x="801" y="457.547" width="11" height="5.85242" fill="white"/>
<rect x="854" y="490.703" width="11" height="6.82782" fill="white"/>
<rect x="879.5" y="429.75" width="62" height="134.581" stroke="white"/>
<rect x="894" y="468.266" width="11" height="5.85242" rx="2.92621" fill="white"/>
<rect x="916" y="445.844" width="10" height="6.82782" rx="3.41391" fill="white"/>
<rect x="916" y="437.062" width="10" height="5.85242" rx="2.92621" fill="white"/>
<rect x="922.5" y="471.414" width="61" height="92.928" stroke="white"/>
<rect x="932" y="480.953" width="11" height="5.85242" fill="white"/>
<rect x="932" y="502.406" width="11" height="5.85242" fill="white"/>
<rect x="959" y="482.906" width="11" height="5.85242" fill="white"/>
<path d="M133.026 409.595L110.076 400.074C106.375 398.539 106.375 393.297 110.076 391.761L133.026 382.241C134.13 381.783 135.371 381.783 136.475 382.241L159.425 391.761C163.126 393.297 163.126 398.539 159.425 400.074L136.475 409.595C135.371 410.053 134.13 410.053 133.026 409.595Z" fill="#B5E1E3" stroke="#B5E1E3"/>
<rect x="694" y="468.266" width="11" height="5.85242" fill="white"/>
<rect x="530" y="442.914" width="11" height="6.82782" rx="3.41391" fill="white"/>
<rect x="672" y="490.703" width="11" height="5.85242" fill="white"/>
<rect x="586" y="484.852" width="10" height="5.85242" fill="white"/>
<rect x="634" y="461.445" width="10" height="6.82782" rx="3.41391" fill="white"/>
<rect x="603.5" y="439.508" width="62" height="124.827" stroke="white"/>
<rect x="383.5" y="437.562" width="55" height="126.778" stroke="#E6E6E6"/>
<rect x="594.5" y="455.117" width="62" height="109.221" stroke="white"/>
<rect x="493.5" y="436.586" width="63" height="127.753" stroke="#E6E6E6"/>
<rect x="425.5" y="419.023" width="62" height="145.31" stroke="#E6E6E6"/>
<rect x="463.5" y="476.578" width="61" height="87.7617" stroke="white"/>
<rect x="549.5" y="459.992" width="62" height="104.343" stroke="white"/>
<rect x="656.5" y="459.992" width="62" height="104.343" stroke="white"/>
<path d="M723.751 529.285C723.751 533.511 721.03 537.41 716.474 540.278C711.925 543.142 705.61 544.93 698.608 544.93C691.606 544.93 685.291 543.142 680.742 540.278C676.186 537.41 673.465 533.511 673.465 529.285C673.465 525.06 676.186 521.161 680.742 518.292C685.291 515.428 691.606 513.641 698.608 513.641C705.61 513.641 711.925 515.428 716.474 518.292C721.03 521.161 723.751 525.06 723.751 529.285Z" fill="white" stroke="#E6E6E6"/>
<path d="M517.619 537.485C517.619 541.006 515.34 544.269 511.498 546.677C507.663 549.08 502.334 550.583 496.421 550.583C490.508 550.583 485.179 549.08 481.343 546.677C477.501 544.269 475.223 541.006 475.223 537.485C475.223 535.731 475.927 533.674 477.181 531.496C478.431 529.326 480.204 527.073 482.288 524.938C486.407 520.716 491.685 517.006 496.402 515.296C500.262 517.013 505.539 520.727 509.88 524.947C512.082 527.088 514.026 529.343 515.417 531.516C516.815 533.7 517.619 535.748 517.619 537.485Z" fill="#B5E1E3" stroke="white"/>
<line x1="496.934" y1="551.078" x2="496.934" y2="564.801" stroke="white" stroke-width="3"/>
<line x1="701.094" y1="544.617" x2="701.094" y2="564.798" stroke="white" stroke-width="3"/>
<line x1="720.824" y1="538.969" x2="720.824" y2="564.8" stroke="white" stroke-width="3"/>
<rect x="672" y="468.266" width="11" height="5.85242" fill="white"/>
<rect x="509" y="442.914" width="11" height="5.85242" rx="2.92621" fill="white"/>
<rect x="443" y="430.227" width="11" height="5.85242" fill="white"/>
<rect x="480" y="483.883" width="11" height="5.85242" rx="2.92621" fill="white"/>
<rect x="394" y="447.789" width="10" height="6.82782" rx="3.41391" fill="white"/>
<rect x="564.477" y="502.641" width="10.8491" height="6.45784" fill="white"/>
<rect x="612" y="474.125" width="11" height="5.85242" rx="2.92621" fill="white"/>
<rect x="394" y="471.195" width="10" height="5.85242" fill="white"/>
<rect x="465" y="430.227" width="11" height="5.85242" fill="white"/>
<rect x="501" y="483.883" width="11" height="5.85242" fill="#E6E6E6"/>
<rect x="415" y="447.789" width="10" height="6.82782" fill="white"/>
<rect x="634" y="474.125" width="10" height="5.85242" fill="white"/>
<rect x="530" y="454.617" width="11" height="6.82782" rx="3.41391" fill="#E6E6E6"/>
<rect x="465" y="452.664" width="11" height="5.85242" fill="white"/>
<rect x="415" y="471.195" width="10" height="5.85242" fill="#E6E6E6"/>
<rect x="612" y="461.445" width="11" height="6.82782" rx="3.41391" fill="white"/>
<rect x="618" y="444.867" width="11" height="5.85242" fill="white"/>
<rect x="564.477" y="513.945" width="10.8491" height="6.45784" fill="white"/>
<rect x="694" y="479" width="11" height="6.82782" fill="white"/>
<rect x="465" y="440.961" width="11" height="6.82782" fill="#E6E6E6"/>
<rect x="501" y="493.633" width="11" height="5.85242" fill="white"/>
<rect x="415" y="458.516" width="10" height="6.82782" fill="#E6E6E6"/>
<rect x="530" y="465.352" width="11" height="6.82782" fill="white"/>
<path d="M740.517 525.368C740.517 528.889 738.239 532.152 734.397 534.559C730.561 536.963 725.232 538.466 719.319 538.466C713.406 538.466 708.077 536.963 704.242 534.559C700.4 532.152 698.121 528.889 698.121 525.368C698.121 523.614 698.825 521.557 700.079 519.379C701.329 517.209 703.103 514.956 705.186 512.821C709.306 508.599 714.583 504.889 719.3 503.178C723.16 504.896 728.438 508.61 732.779 512.83C734.98 514.97 736.925 517.226 738.316 519.399C739.713 521.583 740.517 523.631 740.517 525.368Z" fill="#E3F3F3" stroke="white"/>
<line x1="970.266" y1="578.297" x2="944.494" y2="578.297" stroke="white" stroke-width="6" stroke-linecap="round"/>
<line x1="885.543" y1="578.297" x2="859.771" y2="578.297" stroke="white" stroke-width="6" stroke-linecap="round"/>
<line x1="577.469" y1="578.297" x2="551.697" y2="578.297" stroke="white" stroke-width="6" stroke-linecap="round"/>
<line x1="689.027" y1="578.297" x2="663.255" y2="578.297" stroke="white" stroke-width="6" stroke-linecap="round"/>
<line x1="804.258" y1="578.297" x2="778.486" y2="578.297" stroke="white" stroke-width="6" stroke-linecap="round"/>
<rect width="11" height="5.85242" rx="2.92621" transform="matrix(-1 0 0 1 1188.01 467.297)" fill="white"/>
<rect width="11" height="6.82782" transform="matrix(-1 0 0 1 1135 490.703)" fill="white"/>
<rect width="11" height="5.85242" transform="matrix(-1 0 0 1 1074 437.062)" fill="white"/>
<rect x="-0.5" y="0.5" width="62" height="115.073" transform="matrix(-1 0 0 1 1200.01 448.758)" stroke="white"/>
<rect x="-0.5" y="0.5" width="62" height="92.6387" transform="matrix(-1 0 0 1 1150.99 471.195)" stroke="white"/>
<path d="M1109.12 525.368C1109.12 528.889 1111.4 532.152 1115.24 534.559C1119.07 536.963 1124.4 538.466 1130.32 538.466C1136.23 538.466 1141.56 536.963 1145.39 534.559C1149.24 532.152 1151.51 528.889 1151.51 525.368C1151.51 523.614 1150.81 521.557 1149.56 519.379C1148.31 517.209 1146.53 514.956 1144.45 512.821C1140.33 508.599 1135.05 504.889 1130.33 503.178C1126.47 504.896 1121.2 508.61 1116.86 512.83C1114.65 514.97 1112.71 517.226 1111.32 519.399C1109.92 521.583 1109.12 523.631 1109.12 525.368Z" fill="#E3F3F3" stroke="white"/>
<path d="M1132.79 532.921C1132.79 537.028 1135.5 540.827 1140.06 543.625C1144.61 546.418 1150.93 548.162 1157.93 548.162C1164.94 548.162 1171.25 546.418 1175.8 543.625C1180.36 540.827 1183.08 537.028 1183.08 532.921C1183.08 528.813 1180.36 525.014 1175.8 522.216C1171.25 519.423 1164.94 517.68 1157.93 517.68C1150.93 517.68 1144.61 519.423 1140.06 522.216C1135.5 525.014 1132.79 528.813 1132.79 532.921Z" fill="white" stroke="#E6E6E6"/>
<line y1="-1.5" x2="16.1446" y2="-1.5" transform="matrix(0 1 1 0 1157.93 548.664)" stroke="white" stroke-width="3"/>
<line y1="-1.5" x2="25.8314" y2="-1.5" transform="matrix(-5.9932e-08 1 1 3.18809e-08 1130.33 538.969)" stroke="white" stroke-width="3"/>
<rect width="11" height="5.85242" transform="matrix(-1 0 0 1 1188.01 457.547)" fill="white"/>
<rect width="11" height="5.85242" transform="matrix(-1 0 0 1 1113.99 479.977)" fill="white"/>
<rect width="11" height="5.85242" transform="matrix(-1 0 0 1 1167.01 457.547)" fill="white"/>
<rect width="11" height="6.82782" transform="matrix(-1 0 0 1 1113.99 490.703)" fill="white"/>
<rect x="-0.5" y="0.5" width="62" height="134.581" transform="matrix(-1 0 0 1 1087.99 429.25)" stroke="white"/>
<rect width="11" height="5.85242" rx="2.92621" transform="matrix(-1 0 0 1 1074 468.266)" fill="white"/>
<rect width="10" height="6.82782" rx="3.41391" transform="matrix(-1 0 0 1 1052.01 445.844)" fill="white"/>
<rect width="10" height="5.85242" rx="2.92621" transform="matrix(-1 0 0 1 1052.01 437.062)" fill="white"/>
<rect x="-0.5" y="0.5" width="61" height="96.5403" transform="matrix(-1 0 0 1 1045.01 467.297)" stroke="white"/>
<rect width="11" height="5.85242" transform="matrix(-1 0 0 1 1035.99 480.953)" fill="white"/>
<rect width="11" height="5.85242" transform="matrix(-1 0 0 1 1035.99 502.406)" fill="white"/>
<rect width="11" height="5.85242" transform="matrix(-1 0 0 1 1008.99 491.68)" fill="white"/>
<rect width="11" height="5.85242" transform="matrix(-1 0 0 1 1330.01 444.867)" fill="white"/>
<rect width="11" height="5.85242" transform="matrix(-1 0 0 1 1273.99 468.266)" fill="white"/>
<rect width="11" height="5.85242" transform="matrix(-1 0 0 1 1296.01 490.703)" fill="white"/>
<rect width="10" height="6.82782" rx="3.41391" transform="matrix(-1 0 0 1 1334 461.445)" fill="white"/>
<rect x="-0.5" y="0.5" width="63" height="124.903" transform="matrix(-1 0 0 1 1365 438.938)" stroke="white"/>
<rect x="-0.5" y="0.5" width="54" height="108.916" transform="matrix(-1 0 0 1 1365 454.93)" stroke="white"/>
<rect x="-0.5" y="0.5" width="62" height="104.343" transform="matrix(-1 0 0 1 1310.99 459.492)" stroke="white"/>
<path d="M1244.25 529.285C1244.25 533.511 1246.97 537.41 1251.53 540.278C1256.08 543.142 1262.39 544.93 1269.4 544.93C1276.4 544.93 1282.71 543.142 1287.26 540.278C1291.82 537.41 1294.54 533.511 1294.54 529.285C1294.54 525.06 1291.82 521.161 1287.26 518.292C1282.71 515.428 1276.4 513.641 1269.4 513.641C1262.39 513.641 1256.08 515.428 1251.53 518.292C1246.97 521.161 1244.25 525.06 1244.25 529.285Z" fill="#E3F3F3" stroke="white"/>
<line y1="-1.5" x2="20.1807" y2="-1.5" transform="matrix(-9.43757e-08 1 1 2.02455e-08 1268.4 544.617)" stroke="white" stroke-width="3"/>
<line y1="-1.5" x2="25.8314" y2="-1.5" transform="matrix(-8.92744e-08 1 1 4.74895e-08 1248.66 538.969)" stroke="white" stroke-width="3"/>
<rect width="11" height="5.85242" transform="matrix(-1 0 0 1 1296.01 468.266)" fill="white"/>
<rect width="10" height="5.85242" transform="matrix(-1 0 0 1 1334 474.125)" fill="white"/>
<rect width="11" height="6.82782" rx="3.41391" transform="matrix(-1 0 0 1 1356.01 461.445)" fill="white"/>
<rect width="11" height="5.85242" transform="matrix(-1 0 0 1 1350.01 444.867)" fill="white"/>
<rect width="11" height="5.85242" rx="2.92621" transform="matrix(-1 0 0 1 1356.01 484.852)" fill="white"/>
<rect width="11" height="6.82782" transform="matrix(-1 0 0 1 1273.99 479)" fill="white"/>
<path d="M1227.49 525.368C1227.49 528.889 1229.77 532.152 1233.61 534.559C1237.45 536.963 1242.78 538.466 1248.69 538.466C1254.6 538.466 1259.93 536.963 1263.77 534.559C1267.61 532.152 1269.89 528.889 1269.89 525.368C1269.89 523.614 1269.18 521.557 1267.93 519.379C1266.68 517.209 1264.91 514.956 1262.82 512.821C1258.7 508.599 1253.43 504.889 1248.71 503.178C1244.85 504.896 1239.57 508.61 1235.23 512.83C1233.03 514.97 1231.09 517.226 1229.69 519.399C1228.3 521.583 1227.49 523.631 1227.49 525.368Z" fill="#E3F3F3" stroke="white"/>
<line x1="3" y1="-3" x2="28.7719" y2="-3" transform="matrix(1 -5.5666e-08 -1.37296e-07 -1 994.727 575.297)" stroke="white" stroke-width="6" stroke-linecap="round"/>
<line x1="3" y1="-3" x2="28.7719" y2="-3" transform="matrix(1 -5.5666e-08 -1.37296e-07 -1 1079.46 575.297)" stroke="white" stroke-width="6" stroke-linecap="round"/>
<line x1="3" y1="-3" x2="28.7719" y2="-3" transform="matrix(1 -5.5666e-08 -1.37296e-07 -1 1275.97 575.297)" stroke="white" stroke-width="6" stroke-linecap="round"/>
<line x1="3" y1="-3" x2="28.7719" y2="-3" transform="matrix(1 -5.5666e-08 -1.37296e-07 -1 1160.75 575.297)" stroke="white" stroke-width="6" stroke-linecap="round"/>
<rect x="179" y="478.031" width="11" height="6.82782" fill="#E6E6E6"/>
<rect x="179" y="467.297" width="11" height="5.85242" rx="2.92621" fill="#E6E6E6"/>
<rect x="232" y="490.703" width="11" height="6.82782" fill="#E6E6E6"/>
<rect x="293" y="445.844" width="11" height="6.82782" fill="#E6E6E6"/>
<rect x="293" y="437.062" width="11" height="5.85242" fill="#E6E6E6"/>
<rect x="166.5" y="449.258" width="62" height="115.073" stroke="#E6E6E6"/>
<rect x="215.5" y="471.695" width="62" height="92.6387" stroke="#E6E6E6"/>
<path d="M257.873 525.368C257.873 528.889 255.594 532.152 251.752 534.559C247.917 536.963 242.588 538.466 236.675 538.466C230.762 538.466 225.433 536.963 221.597 534.559C217.755 532.152 215.477 528.889 215.477 525.368C215.477 523.614 216.18 521.557 217.435 519.379C218.684 517.209 220.458 514.956 222.542 512.821C226.661 508.599 231.939 504.889 236.656 503.178C240.515 504.896 245.793 508.61 250.134 512.83C252.336 514.97 254.28 517.226 255.671 519.399C257.069 521.583 257.873 523.631 257.873 525.368Z" fill="#B5E1E3" stroke="#E6E6E6"/>
<path d="M234.201 532.921C234.201 537.028 231.486 540.827 226.928 543.625C222.379 546.418 216.062 548.162 209.057 548.162C202.053 548.162 195.736 546.418 191.186 543.625C186.628 540.827 183.914 537.028 183.914 532.921C183.914 528.813 186.628 525.014 191.186 522.216C195.736 519.423 202.053 517.68 209.057 517.68C216.062 517.68 222.379 519.423 226.928 522.216C231.486 525.014 234.201 528.813 234.201 532.921Z" fill="white" stroke="#E6E6E6"/>
<line x1="210.562" y1="548.664" x2="210.562" y2="564.809" stroke="#E6E6E6" stroke-width="3"/>
<line x1="238.176" y1="538.969" x2="238.176" y2="564.8" stroke="#E6E6E6" stroke-width="3"/>
<rect x="179" y="457.547" width="11" height="5.85242" fill="#E6E6E6"/>
<rect x="253" y="479.977" width="11" height="5.85242" fill="#E6E6E6"/>
<rect x="200" y="457.547" width="11" height="5.85242" fill="#E6E6E6"/>
<rect x="278.5" y="429.75" width="62" height="134.581" stroke="#E6E6E6"/>
<rect x="293" y="468.266" width="11" height="5.85242" rx="2.92621" fill="#E6E6E6"/>
<rect x="315" y="445.844" width="10" height="6.82782" rx="3.41391" fill="#E6E6E6"/>
<rect x="315" y="437.062" width="10" height="5.85242" rx="2.92621" fill="#E6E6E6"/>
<rect x="321.5" y="467.797" width="61" height="96.5403" stroke="#E6E6E6"/>
<rect x="331" y="480.953" width="11" height="5.85242" fill="#E6E6E6"/>
<rect x="331" y="502.406" width="11" height="5.85242" fill="#E6E6E6"/>
<rect x="358" y="491.68" width="11" height="5.85242" fill="#E6E6E6"/>
<path d="M332.147 536.875C323.262 534.508 314.167 533.364 305.055 533.329C305.055 533.329 305.055 533.329 305.055 533.329M332.147 536.875L276.118 536.63C285.617 534.271 295.341 533.043 305.056 533.079L305.055 533.329M332.147 536.875L331.617 538.59H276.69L276.188 536.87M332.147 536.875L276.188 536.87M305.055 533.329C295.365 533.293 285.665 534.518 276.188 536.87M305.055 533.329L276.188 536.87M291.702 568.438V568.188H291.452H285.024V565.064C285.024 564.3 285.506 563.573 286.357 563.025C287.206 562.478 288.392 562.132 289.714 562.132H318.594C319.919 562.132 321.103 562.478 321.948 563.025C322.796 563.573 323.276 564.3 323.276 565.064V568.188H316.856H316.606V568.438V571.807H313.664V568.438V568.188H313.414H294.894H294.644V568.438V571.807H291.702V568.438ZM335.593 544.13C335.593 542.732 336.473 541.43 337.971 540.466C339.466 539.503 341.548 538.898 343.866 538.898C346.167 538.898 348.245 539.503 349.74 540.466C351.238 541.43 352.123 542.732 352.123 544.13C352.123 545.521 351.239 546.82 349.74 547.784C348.245 548.746 346.167 549.35 343.866 549.35C341.548 549.35 339.466 548.746 337.971 547.784C336.473 546.821 335.593 545.522 335.593 544.13ZM349.18 544.13C349.18 543.116 348.537 542.231 347.576 541.611C346.612 540.99 345.297 540.612 343.866 540.612C342.434 540.612 341.12 540.99 340.156 541.611C339.194 542.231 338.552 543.116 338.552 544.13C338.552 545.143 339.195 546.026 340.156 546.643C341.12 547.262 342.435 547.636 343.866 547.636C345.297 547.636 346.611 547.262 347.576 546.643C348.537 546.026 349.18 545.143 349.18 544.13ZM331.104 543.315H277.189V541.602H331.104V543.315ZM277.475 571.764V546.37H280.423V571.764H277.475ZM330.757 571.764H327.798V546.37H330.757V571.764ZM345.321 571.743H342.378V552.277H345.321V571.743Z" fill="white" stroke="#E6E6E6" stroke-width="0.5"/>
<rect x="37" y="444.867" width="11" height="5.85242" fill="#E6E6E6"/>
<rect x="93" y="468.266" width="11" height="5.85242" fill="#E6E6E6"/>
<rect x="71" y="490.703" width="11" height="5.85242" fill="#E6E6E6"/>
<rect x="33" y="461.445" width="10" height="6.82782" rx="3.41391" fill="#E6E6E6"/>
<rect x="2.5" y="439.508" width="62" height="124.827" stroke="#E6E6E6"/>
<rect x="0.5" y="455.43" width="55" height="108.916" stroke="#E6E6E6"/>
<rect x="55.5" y="459.992" width="62" height="104.343" stroke="#E6E6E6"/>
<path d="M122.751 529.285C122.751 533.511 120.03 537.41 115.474 540.278C110.925 543.142 104.61 544.93 97.6082 544.93C90.6063 544.93 84.291 543.142 79.742 540.278C75.1864 537.41 72.4648 533.511 72.4648 529.285C72.4648 525.06 75.1864 521.161 79.742 518.292C84.291 515.428 90.6063 513.641 97.6082 513.641C104.61 513.641 110.925 515.428 115.474 518.292C120.03 521.161 122.751 525.06 122.751 529.285Z" fill="#B5E1E3" stroke="#E6E6E6"/>
<line x1="100.094" y1="544.617" x2="100.094" y2="564.798" stroke="#E6E6E6" stroke-width="3"/>
<line x1="119.824" y1="538.969" x2="119.824" y2="564.8" stroke="#E6E6E6" stroke-width="3"/>
<rect x="71" y="468.266" width="11" height="5.85242" fill="#E6E6E6"/>
<rect x="11" y="474.125" width="11" height="5.85242" rx="2.92621" fill="#E6E6E6"/>
<rect x="33" y="474.125" width="10" height="5.85242" fill="#E6E6E6"/>
<rect x="11" y="461.445" width="11" height="6.82782" rx="3.41391" fill="#E6E6E6"/>
<rect x="17" y="444.867" width="11" height="5.85242" fill="#E6E6E6"/>
<rect x="93" y="479" width="11" height="6.82782" fill="#E6E6E6"/>
<line x1="8.74898e-08" y1="563.844" x2="383" y2="563.844" stroke="#E6E6E6" stroke-width="2"/>
<path d="M139.517 525.368C139.517 528.889 137.239 532.152 133.397 534.559C129.561 536.963 124.232 538.466 118.319 538.466C112.406 538.466 107.077 536.963 103.242 534.559C99.3998 532.152 97.1211 528.889 97.1211 525.368C97.1211 523.614 97.825 521.557 99.0791 519.379C100.329 517.209 102.103 514.956 104.186 512.821C108.306 508.599 113.583 504.889 118.3 503.178C122.16 504.896 127.438 508.61 131.779 512.83C133.98 514.97 135.925 517.226 137.316 519.399C138.713 521.583 139.517 523.631 139.517 525.368Z" fill="#B5E1E3" stroke="#E6E6E6"/>
<line x1="369.266" y1="578.297" x2="343.494" y2="578.297" stroke="#E6E6E6" stroke-width="6" stroke-linecap="round"/>
<line x1="284.543" y1="578.297" x2="258.771" y2="578.297" stroke="#E6E6E6" stroke-width="6" stroke-linecap="round"/>
<line x1="88.0273" y1="578.297" x2="62.2555" y2="578.297" stroke="#E6E6E6" stroke-width="6" stroke-linecap="round"/>
<line x1="203.258" y1="578.297" x2="177.486" y2="578.297" stroke="#E6E6E6" stroke-width="6" stroke-linecap="round"/>
<path d="M316.395 560.705C316.395 557.458 311.707 554.828 305.919 554.828H282.349V569.521C282.349 571.137 284.706 572.46 287.587 572.46H316.395V568.037" fill="#F4AB76"/>
<path d="M316.395 560.705C316.395 557.458 311.707 554.828 305.919 554.828H282.349V569.521C282.349 571.137 284.706 572.46 287.587 572.46H316.395V568.037" stroke="#E6E6E6" stroke-linecap="round" stroke-linejoin="round"/>
<path d="M271.874 581.274H274.493C274.493 579.658 276.85 578.335 279.731 578.335C282.611 578.335 284.968 579.658 284.968 581.274H295.444C295.444 579.658 297.801 578.335 300.682 578.335C303.562 578.335 305.919 579.658 305.919 581.274H308.538C312.886 581.274 316.395 579.305 316.395 576.866V572.458H287.587C284.706 572.458 282.349 571.136 282.349 569.519V559.234H277.531C275.645 559.234 273.917 559.807 272.974 560.718L268.495 565.112H271.874C273.314 565.112 274.493 565.773 274.493 566.581V570.989C274.493 571.797 273.314 572.458 271.874 572.458H264.017V576.866" fill="#F4AB76"/>
<path d="M271.874 581.274H274.493C274.493 579.658 276.85 578.335 279.731 578.335C282.611 578.335 284.968 579.658 284.968 581.274H295.444C295.444 579.658 297.801 578.335 300.682 578.335C303.562 578.335 305.919 579.658 305.919 581.274H308.538C312.886 581.274 316.395 579.305 316.395 576.866V572.458H287.587C284.706 572.458 282.349 571.136 282.349 569.519V559.234H277.531C275.645 559.234 273.917 559.807 272.974 560.718L268.495 565.112H271.874C273.314 565.112 274.493 565.773 274.493 566.581V570.989C274.493 571.797 273.314 572.458 271.874 572.458H264.017V576.866" stroke="#E6E6E6" stroke-linecap="round" stroke-linejoin="round"/>
<path d="M300.682 584.213C297.789 584.213 295.444 582.898 295.444 581.275C295.444 579.652 297.789 578.336 300.682 578.336C303.574 578.336 305.919 579.652 305.919 581.275C305.919 582.898 303.574 584.213 300.682 584.213Z" fill="#F4AB76" stroke="#E6E6E6" stroke-linecap="round" stroke-linejoin="round"/>
<path d="M279.73 584.213C276.838 584.213 274.493 582.898 274.493 581.275C274.493 579.652 276.838 578.336 279.73 578.336C282.623 578.336 284.968 579.652 284.968 581.275C284.968 582.898 282.623 584.213 279.73 584.213Z" fill="#F4AB76" stroke="#E6E6E6" stroke-linecap="round" stroke-linejoin="round"/>
<path d="M264.017 569.525V572.464H271.874C273.314 572.464 274.493 571.802 274.493 570.994V566.586C274.493 565.778 273.314 565.117 271.874 565.117H268.495L264.017 569.525Z" stroke="#E6E6E6" stroke-linecap="round" stroke-linejoin="round"/>
<path d="M153.552 583.118H150.933C150.933 581.501 148.576 580.179 145.695 580.179C142.814 580.179 140.457 581.501 140.457 583.118H129.982C129.982 581.501 127.625 580.179 124.744 580.179C121.863 580.179 119.506 581.501 119.506 583.118H116.887C112.54 583.118 109.031 581.149 109.031 578.71V574.302H137.839C140.719 574.302 143.076 572.979 143.076 571.363V561.078H147.895C149.781 561.078 151.509 561.651 152.452 562.562L156.93 566.955H153.552C152.112 566.955 150.933 567.617 150.933 568.425V572.833C150.933 573.641 152.112 574.302 153.552 574.302H161.409V578.71" fill="#F4AB76"/>
<path d="M153.552 583.118H150.933C150.933 581.501 148.576 580.179 145.695 580.179C142.814 580.179 140.457 581.501 140.457 583.118H129.982C129.982 581.501 127.625 580.179 124.744 580.179C121.863 580.179 119.506 581.501 119.506 583.118H116.887C112.54 583.118 109.031 581.149 109.031 578.71V574.302H137.839C140.719 574.302 143.076 572.979 143.076 571.363V561.078H147.895C149.781 561.078 151.509 561.651 152.452 562.562L156.93 566.955H153.552C152.112 566.955 150.933 567.617 150.933 568.425V572.833C150.933 573.641 152.112 574.302 153.552 574.302H161.409V578.71" stroke="#E6E6E6" stroke-linecap="round" stroke-linejoin="round"/>
<path d="M124.744 586.057C127.637 586.057 129.982 584.741 129.982 583.118C129.982 581.495 127.637 580.18 124.744 580.18C121.851 580.18 119.506 581.495 119.506 583.118C119.506 584.741 121.851 586.057 124.744 586.057Z" stroke="#E6E6E6" stroke-linecap="round" stroke-linejoin="round"/>
<path d="M145.695 586.057C148.588 586.057 150.933 584.741 150.933 583.118C150.933 581.495 148.588 580.18 145.695 580.18C142.802 580.18 140.458 581.495 140.458 583.118C140.458 584.741 142.802 586.057 145.695 586.057Z" stroke="#E6E6E6" stroke-linecap="round" stroke-linejoin="round"/>
<path d="M161.409 571.369V574.307H153.552C152.112 574.307 150.933 573.646 150.933 572.838V568.43C150.933 567.622 152.112 566.961 153.552 566.961H156.93L161.409 571.369Z" stroke="#E6E6E6" stroke-linecap="round" stroke-linejoin="round"/>
<line x1="383" y1="563.844" x2="554" y2="563.844" stroke="#E6E6E6" stroke-width="2"/>
<line x1="1366" y1="563.844" x2="554" y2="563.844" stroke="white" stroke-width="2"/>
<path d="M754.552 583.118H751.933C751.933 581.501 749.576 580.179 746.695 580.179C743.814 580.179 741.457 581.501 741.457 583.118H730.982C730.982 581.501 728.625 580.179 725.744 580.179C722.863 580.179 720.506 581.501 720.506 583.118H717.887C713.54 583.118 710.031 581.149 710.031 578.71V574.302H738.839C741.719 574.302 744.076 572.979 744.076 571.363V561.078H748.895C750.781 561.078 752.509 561.651 753.452 562.562L757.93 566.955H754.552C753.112 566.955 751.933 567.617 751.933 568.425V572.833C751.933 573.641 753.112 574.302 754.552 574.302H762.409V578.71" fill="#F4AB76"/>
<path d="M754.552 583.118H751.933C751.933 581.501 749.576 580.179 746.695 580.179C743.814 580.179 741.457 581.501 741.457 583.118H730.982C730.982 581.501 728.625 580.179 725.744 580.179C722.863 580.179 720.506 581.501 720.506 583.118H717.887C713.54 583.118 710.031 581.149 710.031 578.71V574.302H738.839C741.719 574.302 744.076 572.979 744.076 571.363V561.078H748.895C750.781 561.078 752.509 561.651 753.452 562.562L757.93 566.955H754.552C753.112 566.955 751.933 567.617 751.933 568.425V572.833C751.933 573.641 753.112 574.302 754.552 574.302H762.409V578.71" stroke="#E6E6E6" stroke-linecap="round" stroke-linejoin="round"/>
<path d="M725.744 586.057C728.637 586.057 730.982 584.741 730.982 583.118C730.982 581.495 728.637 580.18 725.744 580.18C722.851 580.18 720.506 581.495 720.506 583.118C720.506 584.741 722.851 586.057 725.744 586.057Z" fill="#F4AB76" stroke="#E6E6E6" stroke-linecap="round" stroke-linejoin="round"/>
<path d="M746.695 586.057C749.588 586.057 751.933 584.741 751.933 583.118C751.933 581.495 749.588 580.18 746.695 580.18C743.802 580.18 741.458 581.495 741.458 583.118C741.458 584.741 743.802 586.057 746.695 586.057Z" fill="#F4AB76" stroke="#E6E6E6" stroke-linecap="round" stroke-linejoin="round"/>
<path d="M762.409 571.369V574.307H754.552C753.112 574.307 751.933 573.646 751.933 572.838V568.43C751.933 567.622 753.112 566.961 754.552 566.961H757.93L762.409 571.369Z" stroke="#E6E6E6" stroke-linecap="round" stroke-linejoin="round"/>
<path d="M1050.6 560.705C1050.6 557.458 1055.29 554.828 1061.07 554.828H1084.64V569.521C1084.64 571.137 1082.29 572.46 1079.41 572.46H1050.6V568.037" fill="#F4AB76"/>
<path d="M1050.6 560.705C1050.6 557.458 1055.29 554.828 1061.07 554.828H1084.64V569.521C1084.64 571.137 1082.29 572.46 1079.41 572.46H1050.6V568.037" stroke="#E6E6E6" stroke-linecap="round" stroke-linejoin="round"/>
<path d="M1095.12 581.274H1092.5C1092.5 579.658 1090.14 578.335 1087.26 578.335C1084.38 578.335 1082.03 579.658 1082.03 581.274H1071.55C1071.55 579.658 1069.19 578.335 1066.31 578.335C1063.43 578.335 1061.07 579.658 1061.07 581.274H1058.46C1054.11 581.274 1050.6 579.305 1050.6 576.866V572.458H1079.41C1082.29 572.458 1084.64 571.136 1084.64 569.519V559.234H1089.46C1091.35 559.234 1093.08 559.807 1094.02 560.718L1098.5 565.112H1095.12C1093.68 565.112 1092.5 565.773 1092.5 566.581V570.989C1092.5 571.797 1093.68 572.458 1095.12 572.458H1102.98V576.866" fill="#F4AB76"/>
<path d="M1095.12 581.274H1092.5C1092.5 579.658 1090.14 578.335 1087.26 578.335C1084.38 578.335 1082.03 579.658 1082.03 581.274H1071.55C1071.55 579.658 1069.19 578.335 1066.31 578.335C1063.43 578.335 1061.07 579.658 1061.07 581.274H1058.46C1054.11 581.274 1050.6 579.305 1050.6 576.866V572.458H1079.41C1082.29 572.458 1084.64 571.136 1084.64 569.519V559.234H1089.46C1091.35 559.234 1093.08 559.807 1094.02 560.718L1098.5 565.112H1095.12C1093.68 565.112 1092.5 565.773 1092.5 566.581V570.989C1092.5 571.797 1093.68 572.458 1095.12 572.458H1102.98V576.866" stroke="#E6E6E6" stroke-linecap="round" stroke-linejoin="round"/>
<path d="M1066.31 584.213C1069.21 584.213 1071.55 582.898 1071.55 581.275C1071.55 579.652 1069.21 578.336 1066.31 578.336C1063.42 578.336 1061.07 579.652 1061.07 581.275C1061.07 582.898 1063.42 584.213 1066.31 584.213Z" fill="#F4AB76" stroke="#E6E6E6" stroke-linecap="round" stroke-linejoin="round"/>
<path d="M1087.26 584.213C1090.16 584.213 1092.5 582.898 1092.5 581.275C1092.5 579.652 1090.16 578.336 1087.26 578.336C1084.37 578.336 1082.03 579.652 1082.03 581.275C1082.03 582.898 1084.37 584.213 1087.26 584.213Z" fill="#F4AB76" stroke="#E6E6E6" stroke-linecap="round" stroke-linejoin="round"/>
<path d="M1102.98 569.525V572.464H1095.12C1093.68 572.464 1092.5 571.802 1092.5 570.994V566.586C1092.5 565.778 1093.68 565.117 1095.12 565.117H1098.5L1102.98 569.525Z" stroke="#E6E6E6" stroke-linecap="round" stroke-linejoin="round"/>
<path d="M1213.38 583.118H1215.99C1215.99 581.501 1218.35 580.179 1221.23 580.179C1224.11 580.179 1226.47 581.501 1226.47 583.118H1236.95C1236.95 581.501 1239.3 580.179 1242.18 580.179C1245.06 580.179 1247.42 581.501 1247.42 583.118H1250.04C1254.39 583.118 1257.9 581.149 1257.9 578.71V574.302H1229.09C1226.21 574.302 1223.85 572.979 1223.85 571.363V561.078H1219.03C1217.15 561.078 1215.42 561.651 1214.48 562.562L1210 566.955H1213.38C1214.82 566.955 1215.99 567.617 1215.99 568.425V572.833C1215.99 573.641 1214.82 574.302 1213.38 574.302H1205.52V578.71" fill="#F4AB76"/>
<path d="M1213.38 583.118H1215.99C1215.99 581.501 1218.35 580.179 1221.23 580.179C1224.11 580.179 1226.47 581.501 1226.47 583.118H1236.95C1236.95 581.501 1239.3 580.179 1242.18 580.179C1245.06 580.179 1247.42 581.501 1247.42 583.118H1250.04C1254.39 583.118 1257.9 581.149 1257.9 578.71V574.302H1229.09C1226.21 574.302 1223.85 572.979 1223.85 571.363V561.078H1219.03C1217.15 561.078 1215.42 561.651 1214.48 562.562L1210 566.955H1213.38C1214.82 566.955 1215.99 567.617 1215.99 568.425V572.833C1215.99 573.641 1214.82 574.302 1213.38 574.302H1205.52V578.71" stroke="#E6E6E6" stroke-linecap="round" stroke-linejoin="round"/>
<path d="M1242.18 586.057C1239.29 586.057 1236.95 584.741 1236.95 583.118C1236.95 581.495 1239.29 580.18 1242.18 580.18C1245.08 580.18 1247.42 581.495 1247.42 583.118C1247.42 584.741 1245.08 586.057 1242.18 586.057Z" stroke="#E6E6E6" stroke-linecap="round" stroke-linejoin="round"/>
<path d="M1221.23 586.057C1218.34 586.057 1215.99 584.741 1215.99 583.118C1215.99 581.495 1218.34 580.18 1221.23 580.18C1224.13 580.18 1226.47 581.495 1226.47 583.118C1226.47 584.741 1224.13 586.057 1221.23 586.057Z" stroke="#E6E6E6" stroke-linecap="round" stroke-linejoin="round"/>
<path d="M1205.52 571.369V574.307H1213.38C1214.82 574.307 1215.99 573.646 1215.99 572.838V568.43C1215.99 567.622 1214.82 566.961 1213.38 566.961H1210L1205.52 571.369Z" stroke="#E6E6E6" stroke-linecap="round" stroke-linejoin="round"/>
<path d="M456.608 575.032C456.608 576.21 455.78 577.34 454.307 578.173C452.833 579.005 450.835 579.473 448.751 579.473C446.667 579.473 444.669 579.005 443.196 578.173C441.722 577.34 440.895 576.21 440.895 575.032H456.608ZM492.65 573.922C492.947 574.578 492.975 575.263 492.732 575.926C492.488 576.589 491.98 577.212 491.246 577.747C490.511 578.281 489.57 578.714 488.495 579.012C487.419 579.31 486.237 579.465 485.039 579.465C483.842 579.465 482.66 579.31 481.584 579.012C480.508 578.714 479.567 578.281 478.833 577.747C478.098 577.212 477.59 576.589 477.347 575.926C477.103 575.263 477.131 574.578 477.428 573.922" fill="#F4AB76"/>
<path d="M492.65 573.922C492.947 574.578 492.975 575.263 492.732 575.926C492.488 576.589 491.98 577.212 491.246 577.747C490.511 578.281 489.57 578.714 488.495 579.012C487.419 579.31 486.237 579.465 485.039 579.465C483.842 579.465 482.66 579.31 481.584 579.012C480.508 578.714 479.567 578.281 478.833 577.747C478.098 577.212 477.59 576.589 477.347 575.926C477.103 575.263 477.131 574.578 477.428 573.922M456.608 575.032C456.608 576.21 455.78 577.34 454.307 578.173C452.833 579.005 450.835 579.473 448.751 579.473C446.667 579.473 444.669 579.005 443.196 578.173C441.722 577.34 440.895 576.21 440.895 575.032H456.608Z" stroke="#E6E6E6" stroke-linecap="round" stroke-linejoin="round"/>
<path d="M472.32 556.156H476.248C477.328 556.156 480.176 556.822 480.176 558.377V568.48C480.176 570.257 477.328 574.309 468.293 574.309" stroke="white" stroke-linecap="round" stroke-linejoin="round"/>
<path d="M480.177 568.376H486.069C495.595 568.376 495.89 573.927 495.89 573.927H472.811L480.177 568.376ZM450.714 567.266C447.068 567.266 443.57 568.084 440.992 569.542C438.413 571 436.965 572.976 436.965 575.038H468.392C468.392 572.976 466.943 571 464.365 569.542C461.786 568.084 458.289 567.266 454.642 567.266H450.714Z" fill="#F4AB76" stroke="#E6E6E6" stroke-linecap="round" stroke-linejoin="round"/>
<path d="M458.473 562.823H436.965C437.947 566.21 443.741 567.265 450.616 567.265H454.544C457.61 567.326 460.662 567.004 463.481 566.321C466.526 565.377 466.82 562.823 458.473 562.823ZM485.087 558.938V562.268Z" fill="#F4AB76"/>
<path d="M485.087 558.938V562.268M458.473 562.823H436.965C437.947 566.21 443.741 567.265 450.616 567.265H454.544C457.61 567.326 460.662 567.004 463.481 566.321C466.526 565.377 466.82 562.823 458.473 562.823Z" stroke="#E6E6E6" stroke-linecap="round" stroke-linejoin="round"/>
<path d="M933.147 536.875C924.262 534.508 915.167 533.364 906.055 533.329C906.055 533.329 906.055 533.329 906.055 533.329M933.147 536.875L877.118 536.63C886.617 534.271 896.341 533.043 906.056 533.079L906.055 533.329M933.147 536.875L932.617 538.59H877.69L877.188 536.87M933.147 536.875L877.188 536.87M906.055 533.329C896.365 533.293 886.665 534.518 877.188 536.87M906.055 533.329L877.188 536.87M892.702 568.438V568.188H892.452H886.024V565.064C886.024 564.3 886.506 563.573 887.357 563.025C888.206 562.478 889.392 562.132 890.714 562.132H919.594C920.919 562.132 922.103 562.478 922.948 563.025C923.796 563.573 924.276 564.3 924.276 565.064V568.188H917.856H917.606V568.438V571.807H914.664V568.438V568.188H914.414H895.894H895.644V568.438V571.807H892.702V568.438ZM936.593 544.13C936.593 542.732 937.473 541.43 938.971 540.466C940.466 539.503 942.548 538.898 944.866 538.898C947.167 538.898 949.245 539.503 950.74 540.466C952.238 541.43 953.123 542.732 953.123 544.13C953.123 545.521 952.239 546.82 950.74 547.784C949.245 548.746 947.167 549.35 944.866 549.35C942.548 549.35 940.466 548.746 938.971 547.784C937.473 546.821 936.593 545.522 936.593 544.13ZM950.18 544.13C950.18 543.116 949.537 542.231 948.576 541.611C947.612 540.99 946.297 540.612 944.866 540.612C943.434 540.612 942.12 540.99 941.156 541.611C940.194 542.231 939.552 543.116 939.552 544.13C939.552 545.143 940.195 546.026 941.156 546.643C942.12 547.262 943.435 547.636 944.866 547.636C946.297 547.636 947.611 547.262 948.576 546.643C949.537 546.026 950.18 545.143 950.18 544.13ZM932.104 543.315H878.189V541.602H932.104V543.315ZM878.475 571.764V546.37H881.423V571.764H878.475ZM931.757 571.764H928.798V546.37H931.757V571.764ZM946.321 571.743H943.378V552.277H946.321V571.743Z" fill="white" stroke="#E6E6E6" stroke-width="0.5"/>
<path d="M917.395 560.705C917.395 557.458 912.707 554.828 906.919 554.828H883.349V569.521C883.349 571.137 885.706 572.46 888.587 572.46H917.395V568.037" fill="#F4AB76"/>
<path d="M917.395 560.705C917.395 557.458 912.707 554.828 906.919 554.828H883.349V569.521C883.349 571.137 885.706 572.46 888.587 572.46H917.395V568.037" stroke="#E6E6E6" stroke-linecap="round" stroke-linejoin="round"/>
<path d="M872.874 581.274H875.493C875.493 579.658 877.85 578.335 880.731 578.335C883.611 578.335 885.968 579.658 885.968 581.274H896.444C896.444 579.658 898.801 578.335 901.682 578.335C904.562 578.335 906.919 579.658 906.919 581.274H909.538C913.886 581.274 917.395 579.305 917.395 576.866V572.458H888.587C885.706 572.458 883.349 571.136 883.349 569.519V559.234H878.531C876.645 559.234 874.917 559.807 873.974 560.718L869.495 565.112H872.874C874.314 565.112 875.493 565.773 875.493 566.581V570.989C875.493 571.797 874.314 572.458 872.874 572.458H865.017V576.866" fill="#F4AB76"/>
<path d="M872.874 581.274H875.493C875.493 579.658 877.85 578.335 880.731 578.335C883.611 578.335 885.968 579.658 885.968 581.274H896.444C896.444 579.658 898.801 578.335 901.682 578.335C904.562 578.335 906.919 579.658 906.919 581.274H909.538C913.886 581.274 917.395 579.305 917.395 576.866V572.458H888.587C885.706 572.458 883.349 571.136 883.349 569.519V559.234H878.531C876.645 559.234 874.917 559.807 873.974 560.718L869.495 565.112H872.874C874.314 565.112 875.493 565.773 875.493 566.581V570.989C875.493 571.797 874.314 572.458 872.874 572.458H865.017V576.866" stroke="#E6E6E6" stroke-linecap="round" stroke-linejoin="round"/>
<path d="M901.682 584.213C898.789 584.213 896.444 582.898 896.444 581.275C896.444 579.652 898.789 578.336 901.682 578.336C904.574 578.336 906.919 579.652 906.919 581.275C906.919 582.898 904.574 584.213 901.682 584.213Z" fill="#F4AB76" stroke="#E6E6E6" stroke-linecap="round" stroke-linejoin="round"/>
<path d="M880.73 584.213C877.838 584.213 875.493 582.898 875.493 581.275C875.493 579.652 877.838 578.336 880.73 578.336C883.623 578.336 885.968 579.652 885.968 581.275C885.968 582.898 883.623 584.213 880.73 584.213Z" fill="#F4AB76" stroke="#E6E6E6" stroke-linecap="round" stroke-linejoin="round"/>
<path d="M865.017 569.525V572.464H872.874C874.314 572.464 875.493 571.802 875.493 570.994V566.586C875.493 565.778 874.314 565.117 872.874 565.117H869.495L865.017 569.525Z" stroke="#E6E6E6" stroke-linecap="round" stroke-linejoin="round"/>
</svg>
